<svg xmlns="http://www.w3.org/2000/svg" width="79" height="39" fill="none" viewBox="0 0 79 39">
  <path fill="#40352F" d="M76.385 12.606c-.754-.478-1.647-.744-2.525-.983a39.775 39.775 0 0 1-3.047-.943c-1.047-.36-2.032-.798-3.064-1.183-.954-.359-1.97-.545-2.94-.863a57.497 57.497 0 0 0-1.647-.492c-.076-.651-1.015-.784-1.462-.399-1.093-.292-2.186-.57-3.279-.89-1.03-.292-2.078-.584-3.032-1.05-.924-.438-1.8-.93-2.755-1.341-1.016-.439-2.017-.89-3.017-1.342-.924-.425-1.709-1.01-2.71-1.329a25.753 25.753 0 0 0-5.064-1.05c-.292-.278-.83-.278-1.17-.079h-.107c-2.186-.053-4.48-.226-6.65.013-.154.014-.308.04-.446.067-.385-.226-.832-.067-1.078.252-.493.133-.985.28-1.493.386-1.016.199-2.032.398-3.032.677-2.14.571-4.264 1.222-6.388 1.887-3.664 1.129-7.235 2.51-10.93 3.587-.015 0-.045-.013-.06-.013-.309-.04-.524.053-.663.212l-.877.24C5.47 8.872 1.36 10.64.62 14.04c-.677 3.136 2.432 6.112 4.787 8.158.74.638 1.417 1.329 2.14 1.993.693.625 1.493 1.13 2.232 1.714.754.611 1.34 1.342 2.047 1.98.755.677 1.601 1.248 2.417 1.873 3.186 2.431 6.373 4.743 10.36 6.164 1.338.479 2.693.97 4.063 1.356a1.1 1.1 0 0 0 .908.239c.323.08.631.146.955.212 2.031.386 4.14.558 6.234.598 2.17.04 4.31-.266 6.418-.664 2.125-.399 4.295-.704 6.42-1.143 1.061-.226 2.108-.531 3.155-.81 1.016-.28 2.063-.412 3.11-.598 2.031-.372 4.078-.81 6.033-1.422 2.017-.637 3.94-1.514 5.896-2.258.877-.332 1.831-.611 2.632-1.063.492-.266.954-.625 1.4-.943.816-.572 2.186-1.395 2.186-2.405 0-.24-.153-.532-.415-.625-.37-.146-.74-.278-1.109-.411a.765.765 0 0 0 .062-.28c0-1.554.139-3.121.877-4.556.324-.638.832-1.196 1.216-1.794.2-.319.478-.598.709-.89 1.246-.253 2.37-.89 2.863-1.966.692-1.555-.431-3.016-1.832-3.893Zm-8.636 1.302c.247-.85.647-1.647.693-2.511.17.066.339.133.524.2.923.331 1.862.664 2.801.97.246.079.493.145.754.212-.215.664-.6 1.302-.877 1.94-.154.345-.354.677-.462 1.036-.108.358-.077.73-.061 1.102h-.154c-1.155 0-2.294.146-3.418.332-.015-1.102-.107-2.218.2-3.281Zm1.848 6.404c-.031-.638-.262-1.276-.247-1.914.493-.053 1-.092 1.494-.092.153 1.355-.385 2.657-.786 3.945-.277.904-.123 2.153-.692 2.99l-.554-.04c.154-.319.215-.678.308-1.023.153-.598.261-1.21.338-1.834.093-.664.17-1.341.139-2.032Zm-7.312-2.471c0-1.621.03-3.256.293-4.863.184-1.13.384-2.232.508-3.348.107.04.215.066.323.106.923.293 1.847.558 2.77.81.2.054.4.12.6.187a.772.772 0 0 0-.045.279c.092 1.023-.524 1.953-.74 2.95-.23 1.115-.153 2.244-.138 3.374 0 .04 0 .08.016.12-.324.052-.647.105-.97.145-.878.12-1.755.186-2.617.332v-.092Zm-.215 1.634a.23.23 0 0 0-.016.146c.108.93.277 1.86.262 2.79 0 .73-.308 1.448-.277 2.179a18.09 18.09 0 0 1-1.447-.425c.108-.399.077-.85.077-1.223-.016-1.05-.246-2.032-.354-3.082.323-.066.646-.146.97-.213.261-.066.523-.12.785-.172Zm-4.988-6.55c.046-.505.154-1.01.2-1.528.047-.492.031-.917.2-1.395.2-.598.2-1.222.17-1.847 1.247.372 2.524.665 3.786.997-.092 1.288-.354 2.564-.554 3.853-.246 1.607-.292 3.215-.292 4.836 0 .172.046.305.138.411-.615.146-1.231.293-1.847.412-.63.106-1.247.24-1.862.372-.031-2.032-.139-4.078.061-6.111Zm1.463 7.347v-.04l1.015-.2c.108.851.34 1.675.34 2.525 0 .345.092.93 0 1.368a18.622 18.622 0 0 1-1.217-.504 4.92 4.92 0 0 0 .139-1.063c-.031-.718-.308-1.382-.277-2.086Zm-.77.106c0 .598.185 1.156.246 1.74.031.32 0 .638-.061.944-.262-.12-.524-.24-.8-.359.03-.212.015-.425-.047-.65-.108-.386-.308-.718-.323-1.13 0-.146-.108-.253-.231-.292.4-.093.816-.173 1.216-.253Zm-1.432 1.86a1.807 1.807 0 0 1-.184-.146c-.4-.345-.755-.744-1.124-1.13l1.031-.238c-.046.053-.061.106-.061.186.03.478.261.903.338 1.328Zm-5.48-15.93c.031-.265.062-.61.078-.943.446.2.908.399 1.37.598.815.346 1.539.797 2.34 1.17.415.185.83.345 1.277.504.03.77.077 1.515-.2 2.272-.185.518-.077 1.036-.154 1.554-.062.492-.139.97-.185 1.462-.2 2.139-.077 4.291-.062 6.43v.067c-1.277.305-2.57.61-3.863.876.046-.252.138-.491.215-.744.093-.398.108-.823.108-1.235.016-.93-.046-1.847-.046-2.777-.016-1.807-.123-3.587-.447-5.367-.138-.77-.046-1.541-.184-2.312-.108-.545-.293-.996-.246-1.554Zm-7.08-3.773c.97.2 2.063.412 2.97.771.755.306 1.432.744 2.156 1.116a.608.608 0 0 0 .338.611c-.015.067.016.213.016.266 0 .212-.016.425-.046.65-.031.386-.093.758-.016 1.143.062.32.2.638.246.957.062.359.016.73.047 1.09.03.757.215 1.487.323 2.231.23 1.595.23 3.202.261 4.796.016.798.062 1.595.031 2.392-.015.69-.4 1.342-.338 2.033-.909.146-1.817.252-2.74.305-.477.027-.955.067-1.432.107-.03-.665-.277-1.29-.446-1.94-.231-.877-.354-1.794-.508-2.684-.308-1.833-.554-3.68-.847-5.527-.123-.85-.477-1.66-.57-2.51a31.326 31.326 0 0 0-.338-2.658c-.139-.824-.23-1.66-.339-2.484-.046-.293-.077-.611-.123-.917.447.08.908.16 1.355.252Zm-9.174-.438c1.985-.12 4.048-.04 6.05.053.03.213.045.425.076.638.077.359.139.704.17 1.063.076.837.23 1.66.384 2.497.154.864.17 1.728.308 2.578.139.824.446 1.607.57 2.444a267.3 267.3 0 0 0 .77 5.036c.138.89.276 1.78.476 2.657.154.704.478 1.382.493 2.099-1.062.106-2.109.2-3.171.24-.523.026-1.062.026-1.585.026.154-2.073-.031-4.159-.4-6.192-.432-2.418-.709-4.875-1.478-7.227-.4-1.249-.986-2.444-1.509-3.667-.338-.784-.692-1.54-1.17-2.245h.016Zm8.958 20.553c-.138.345-.37.664-.538.996 0-.013 0-.026.015-.026a8.49 8.49 0 0 0 .185-.93l.338-.04ZM28.821 3.333c.923-.24 1.862-.386 2.786-.598.416-.093.831-.213 1.232-.32.6.771 1 1.648 1.37 2.525.43 1.036.938 2.06 1.308 3.122.785 2.272 1.062 4.61 1.478 6.935.384 2.113.63 4.292.461 6.43a54.747 54.747 0 0 0-2.955.027c-.416.014-.831.04-1.231.067.03-.585.03-1.156.061-1.754.062-1.222.2-2.458.246-3.68.077-2.299-.4-4.836-1.539-6.935-.585-1.076-1.139-2.192-1.77-3.242-.339-.571-.8-1.036-1.216-1.568-.246-.319-.4-.637-.631-.916.123-.027.261-.054.4-.093Zm-2.078.558a.58.58 0 0 0 .092.199l.185.226a.61.61 0 0 0 .17.16c.045.092.107.212.138.252.108.199.246.372.4.558.37.425.723.823 1 1.288.57.93 1.001 1.9 1.54 2.843 1.139 1.993 1.662 4.358 1.6 6.564-.03 1.142-.153 2.285-.23 3.427-.046.758-.046 1.502-.077 2.259-1.17.093-2.324.186-3.51.212h-.107c-.431-3.72-1.586-7.52-3.433-10.88a20.902 20.902 0 0 0-4.033-5.222c2.093-.664 4.171-1.315 6.265-1.886Zm-9.82 3.069c.63-.213 1.262-.426 1.908-.638.03.053.077.106.139.16 3.078 2.736 4.925 6.27 6.064 9.91.555 1.78.955 3.588 1.232 5.421 0 .027 0 .053.015.08a31.404 31.404 0 0 1-4.325-.32 34.889 34.889 0 0 1-1.262-.212 17.19 17.19 0 0 0 .123-2.351 16.065 16.065 0 0 0-1.786-7.188c-.6-1.142-1.354-2.192-2.201-3.215-.339-.399-.631-.877-1-1.275.353-.133.723-.253 1.092-.372Zm-2.833.97.185.04c-.154-.014.107.212.2.331.17.226.354.452.539.678.323.385.646.757.954 1.143a15.54 15.54 0 0 1 1.709 2.697c.923 1.913 1.37 4.012 1.416 6.071a19.25 19.25 0 0 1-.077 2.1c-.985-.24-1.94-.532-2.894-.838a25.784 25.784 0 0 1-1.709-.624c.093-.346.17-.678.246-1.037.2-.983.431-1.886.308-2.883-.107-.916-.138-1.86-.4-2.763-.277-.957-.785-1.86-1.308-2.724-.308-.504-.616-1.089-1.016-1.58.616-.2 1.231-.412 1.847-.612Zm.046 13.086c-.077.08-.138.16-.2.239a.965.965 0 0 1-.154.186c.03-.08.062-.173.092-.252l.093-.24c.061.027.108.053.17.067ZM10.55 9.059c.077.08.215.199.261.252.185.213.339.465.493.704.323.518.646 1.037.939 1.568.816 1.461 1.077 3.122 1.108 4.73.015.784-.262 1.607-.416 2.378-.015.04-.015.08-.03.12a10.621 10.621 0 0 1-1.555-1.024c-.477-.385-.923-.81-1.354-1.248a4.87 4.87 0 0 0 .492-1.953c.016-.744-.385-1.435-.77-2.086-.43-.731-.723-1.528-1.231-2.219-.123-.16-.246-.332-.4-.492.785-.265 1.616-.478 2.463-.73ZM9.134 17.92c-.247.226-.57.452-.893.518a2.192 2.192 0 0 0 .815-.584l.078.066Zm-5.727-.08c-.8-1.129-1.493-2.524-1.046-3.839.246-.717.739-1.461 1.323-2.02.632-.584 1.494-.956 2.279-1.355.215.28.63.412.985.333l.092.12c.323.45.523.93.77 1.394.277.531.662 1.036.862 1.581.138.385.092.704 0 1.076a22.43 22.43 0 0 0-.816-.837c-.724-.704-1.909.332-1.2 1.037.107.12.23.225.338.345-.308.186-.585.412-.847.624-.37.28.17.758.539.465.185-.146.37-.305.57-.438.061-.04.138-.093.215-.146.17.186.339.358.508.544a1.34 1.34 0 0 1-.508.426c-.37.186-.97.16-1.37.199-.693.066-1.37.292-2.063.266-.277 0-.492.08-.63.226Zm5.803 5.713c-.77-.624-1.431-1.355-2.155-2.006-.908-.81-1.816-1.594-2.632-2.47.8-.04 1.601-.24 2.386-.333.339-.04.677-.08.985-.16-.154.2-.046.532.308.532.585 0 1.14-.345 1.555-.704.277.239.554.478.862.704.061.053.138.093.2.146-.092.093-.2.173-.277.253a5.654 5.654 0 0 1-.677.451c-.4.24-.016.824.384.572.4-.24.862-.519 1.17-.864.37.226.74.438 1.124.624-.062.173-.123.36-.2.532-.477 1.235-.862 2.604-1.986 3.534-.354-.28-.723-.532-1.047-.81Zm6.034 5.022c-.015-.013-.03-.013-.046-.026-.708-.532-1.447-1.05-2.109-1.621-.57-.505-1.062-1.076-1.6-1.594.846-.704 1.354-1.595 1.754-2.538a.41.41 0 0 0 .324-.08c.446-.358.754-.797 1.092-1.235.062-.067.108-.133.17-.2l.831.28c.077.026.17.053.246.08-.107.185-.184.398-.292.597-.2.346-.416.651-.477 1.05-.062.425.723.425.77 0 .03-.293.276-.545.415-.797.108-.2.17-.426.308-.612.277.08.554.16.816.226-.016.08-.047.16-.077.24-.154.438-.477.863-.816 1.195-.323.319.215.784.539.465.369-.359.662-.757.892-1.196a2.16 2.16 0 0 0 .185-.531c.2.053.4.093.6.146-.169.864-.43 1.714-.785 2.524a16.758 16.758 0 0 1-.892 1.807c-.17.306-.6 1.196-1.093 1.21-.416.04-.678.305-.755.61Zm10.96 3.335a6.75 6.75 0 0 1-.554 1.7c-.154.32-.37.612-.539.917-.03-.013-.061-.013-.077-.026-1.816-.651-3.448-1.515-5.049-2.511-1.277-.797-2.462-1.688-3.632-2.578 1.647-.265 2.34-2.046 2.909-3.228a14.615 14.615 0 0 0 1.17-3.415l.97.16c-.277.585-.632 1.156-.662 1.807-.016.425.754.425.77 0 .015-.611.384-1.143.646-1.7.539.066 1.093.132 1.632.172-.078.266-.17.531-.293.77-.17.333-.446.625-.508.997-.061.412.677.598.739.173.062-.372.37-.678.523-1.023a5.86 5.86 0 0 0 .308-.864c.477.027.955.053 1.432.067-.123.411-.231.837-.462 1.195-.246.359-.6.651-.677 1.09-.062.412.677.598.738.172.062-.411.462-.73.693-1.089v.279c.03 1.09.37 2.152.385 3.242.015 1.195-.23 2.51-.462 3.693Zm2.956 3.335c-.123.172-.262.345-.385.518a38.497 38.497 0 0 1-2.109-.69c.154-.293.37-.572.523-.864a8.302 8.302 0 0 0 .57-1.555c.292-1.13.4-2.325.539-3.48.154-1.13-.031-2.233-.231-3.349-.154-.837-.047-1.674-.031-2.51h.323c.17 0 .354-.014.523-.027a4.67 4.67 0 0 1-.184.903c-.123.425-.416.81-.493 1.249-.077.412.662.598.74.173.091-.492.415-.944.538-1.435.077-.306.138-.625.17-.93l1.662-.12c-.077.744-.247 1.488-.339 2.232-.015.2.139.306.323.32 0 .212 0 .424-.015.623-.031 1.143-.277 2.286-.431 3.415-.185 1.262-.385 2.55-.847 3.76-.2.624-.462 1.235-.846 1.767Zm5.726 1.541a29.856 29.856 0 0 1-4.326-.558c-.03-.013-.061-.013-.107-.027.092-.12.184-.239.277-.372.323-.491.57-1.05.785-1.58.477-1.143.692-2.352.892-3.561.2-1.196.385-2.405.524-3.6.154-1.236-.03-2.458.154-3.694l.046-.399c.462-.026.923-.066 1.385-.08a7.94 7.94 0 0 1-.538 2.857c-.154.412.584.585.738.173a8.32 8.32 0 0 0 .57-3.056c.431-.013.847-.013 1.278-.013 0 .425-.047.837-.247 1.235-.154.346-.415.638-.492 1.01-.093.412.646.598.739.173.092-.399.384-.744.538-1.13-.154 1.874-.138 3.747-.477 5.607-.23 1.329-.77 2.59-1.062 3.92-.17 1.01-.523 2.059-.677 3.095Zm4.925-.12c-1.062.107-2.14.16-3.217.16.062-.332.17-.665.262-.997.17-.624.262-1.248.4-1.873.277-1.235.77-2.418 1-3.667.447-2.458.309-4.942.694-7.4.384 0 .754 0 1.139-.013-.077.863-.37 1.7-.524 2.564-.077.412.662.598.74.173.184-.93.492-1.834.553-2.764a26.203 26.203 0 0 0 1.539-.093c-.03.146-.061.306-.076.439-.078.478-.231.93-.616 1.288-.339.32.215.784.538.465.216-.199.385-.425.508-.677-.153.438-.277.89-.446 1.328a38.603 38.603 0 0 0-1.216 3.84c-.616 2.391-1.17 4.783-1.277 7.227Zm7.774-2.577c.077.385.092.837.17 1.249-1.771.319-3.557.624-5.327.943a22.05 22.05 0 0 1-.923.146c.123-2.312.692-4.583 1.293-6.842a38.012 38.012 0 0 1 1.154-3.6c.216-.585.385-1.196.616-1.78.2-.479.57-.89.693-1.396a.646.646 0 0 0-.016-.345c.03 0 .077-.013.108-.013.262-.027.523-.04.785-.053.23.916-.508 1.846-.446 2.79.03.425.8.425.77 0-.062-.984.63-1.874.446-2.844.354-.026.708-.04 1.062-.066-.062 2.644-.508 5.274-.57 7.918-.015 1.316-.061 2.618.185 3.893Zm1.847.93c-.046-.16-.046-.24-.062-.399-.061-.478-.169-.956-.23-1.434-.124-1.223-.047-2.512 0-3.734.077-1.568.261-3.135.4-4.716.138-.014.261-.08.292-.24.093-.57.385-1.115.477-1.687a2.818 2.818 0 0 0 0-.81 80.016 80.016 0 0 0 1.74-.332c.154.266-.046.757-.093 1.01-.077.438-.154.89-.246 1.328-.092.412.647.598.739.173.139-.625.23-1.249.354-1.887.062-.279.077-.544-.015-.797l.184-.04c-.046 2.152-.385 4.305-.261 6.47.061 1.076.277 2.153.446 3.216.077.491.123.983.308 1.461.17.452.416.864.385 1.355-1.493.292-2.94.73-4.418 1.063Zm10.59-2.352c-1.462.386-2.97.705-4.464.984-.061-.798-.538-1.542-.661-2.325-.185-1.13-.416-2.259-.478-3.388-.092-1.714.093-3.428.2-5.142l.278.28c.538.504 1.277.783 1.939 1.115.508.253 1.016.492 1.524.704a.624.624 0 0 0-.077.479c.262 1.328.416 2.697.877 3.999.37 1.076.785 2.205 1.632 3.082-.262.066-.523.146-.77.212Zm2.232-.717a.627.627 0 0 0-.215-.465c-.77-.77-1.108-1.98-1.401-2.95-.292-.983-.446-2.006-.631-3.015.6.199 1.216.385 1.847.544 1.031.253 2.078.399 3.14.492-.015.04-.015.08-.015.133 0 .637-.016 1.288.108 1.926.107.625.523 1.223.477 1.873 0 .067 0 .12.015.173-1.124.425-2.216.877-3.325 1.289Zm4.295-9.393c-.03.518-.108 1.036-.185 1.554-.046.293-.077.718-.215 1.05-1-.04-2.001-.106-3.002-.306a2.788 2.788 0 0 0-.323-.066c-.077-.797.262-1.568.277-2.365 0-.93-.154-1.86-.262-2.79a.324.324 0 0 0-.17-.252 61.815 61.815 0 0 1 1.679-.266c0 .026-.016.053-.016.08 0 .465.231.903.262 1.368.046.452.015.904-.015 1.355-.047.904-.262 1.794-.262 2.71 0 .426.77.426.77 0-.016-.903.215-1.793.261-2.71.031-.451.046-.903.016-1.355-.031-.465-.262-.903-.262-1.368 0-.067-.016-.133-.062-.173.908-.12 1.832-.24 2.74-.385l.832-.12c0 .518.184 1.023.23 1.555a8.871 8.871 0 0 1-.061 1.806 14.706 14.706 0 0 1-.293 1.807c-.107.492-.2 1.09-.492 1.528-.354 0-.693-.013-1.047-.013.03-.107.046-.226.077-.346.123-.597.23-1.195.293-1.806.138-1.316.03-2.631-.2-3.933-.078-.425-.816-.24-.74.173.154 1.076.247 2.165.17 3.268Zm4.864 5.235c-.431.332-.893.65-1.34.956-.83.571-1.816.957-2.831 1.315-.062-.465-.278-.903-.416-1.381-.2-.651-.139-1.329-.154-1.993v-.04c.216 0 .446.013.662.013.954.014 1.893-.026 2.832.16.616.12 1.2.305 1.786.518-.17.16-.354.305-.539.451Zm1.493-8.822c-.477.664-.939 1.289-1.262 2.02-.631 1.434-.785 2.962-.8 4.477-.231-.054-.462-.093-.693-.133.415-.837.338-1.834.6-2.724.4-1.408 1.031-2.816.877-4.291.54.04 1.078.12 1.617.172-.123.16-.216.32-.339.479Zm3.156-2.378a2.567 2.567 0 0 1-.785.358c-.324-.12-.724-.093-.986.146a9.113 9.113 0 0 1-1.462-.093c-.015-.358-.061-.717.062-1.062.123-.346.323-.691.477-1.037.23-.57.57-1.116.77-1.687.123.04.261.08.384.133 1.34.505 3.218 2.1 1.54 3.242Z"/>
</svg>
