<svg xmlns="http://www.w3.org/2000/svg" width="86" height="42" fill="none" viewBox="0 0 86 42">
  <path fill="#40352F" d="M85.065 27.67c-.2-1.422-.6-2.936-1.524-4.145-.97-1.276-2.555-2.418-4.11-3.136-1.508-.69-3.217-.824-4.803-.226-.754.28-1.523.585-2.232.944-.877.438-1.554 1.102-2.4 1.567a107.064 107.064 0 0 0-3.464 2.006c-1 .612-2.14 1.156-3.387.944-1.74-.306-1.924-1.727-2.324-2.976-.262-.81-.585-1.568-.724-2.405-.138-.864-.384-1.7-.538-2.564-.262-1.528-.385-3.096-1.216-4.504-1.401-2.378-4.495-5.221-7.881-3.96-.616.227-1.17.572-1.709.904-.816.505-1.693.877-2.54 1.316-1.57.797-2.801 2.006-4.48 2.683-1.292.518-3.2 1.05-4.57.425-1.201-.544-1.186-2.311-1.417-3.294-.385-1.661-.523-3.348-.77-5.036-.215-1.474-.692-2.697-1.816-3.84C32.052 1.245 30.713.249 28.927.09c-1.662-.147-3.479.465-4.926 1.116-1.585.704-3.155 1.7-4.479 2.736-.385.293-.723.638-1.124.917-.384.253-.8.425-1.231.625-.339.159-.693.332-.985.544-.323.226-.647.611-1.047.744-.339.107-.816.027-1.185.053-.447.04-.893.133-1.34.2-1 .133-1.8-.027-2.74-.346-.553-.186-1.138-.372-1.754-.305-.862.106-1.462.65-2.017 1.182-1.37 1.342-2.493 2.857-3.694 4.318-.939 1.156-2.463 2.285-2.093 3.84C.62 17 2.005 18.01 3.19 18.742c1.34.823 2.817 1.461 4.433 1.74 3.94.664 7.912.917 11.884.186a8.461 8.461 0 0 0 2.37-.81c.477-.253.878-.611 1.309-.93.092.252.184.491.276.744.478 1.182.909 2.418 1.524 3.56 1.17 2.153 3.248 3.88 5.434 5.275 2.217 1.421 4.803 2.617 7.543 3.016.77.106 1.585.252 2.37.279.77.026 1.447-.186 2.186-.32.739-.132 1.508-.132 2.232-.318.816-.213 1.524-.651 2.309-.957a.857.857 0 0 0 .292-.186c.016.027.016.053.031.093.446 1.369 1.031 2.724 2.124 3.813 1.293 1.276 2.894 2.458 4.48 3.455 1.693 1.076 3.386 1.966 5.356 2.604 1.955.637 3.802 1.355 5.926 1.421 1.97.067 3.941.16 5.88-.16 1.817-.292 3.449-.916 5.003-1.793a25.236 25.236 0 0 0 2.555-1.66c.34-.027.678-.213.77-.572a33.24 33.24 0 0 0 1.108-.877c.647-.531 1.401-.996 1.94-1.607.57-.651 1.016-1.395 1.37-2.153.723-1.62 1.416-3.175 1.17-4.915ZM71.888 39.574c-1.754.398-3.494.412-5.295.372-.97-.027-1.955.013-2.909-.173-1.016-.2-1.986-.611-2.955-.917-.878-.279-1.786-.531-2.633-.89-.861-.372-1.647-.89-2.447-1.355-1.632-.957-3.125-2.1-4.526-3.308-1.108-.957-1.677-2.166-2.108-3.441-.216-.638-.354-1.315-.678-1.927-.4-.757-.523-1.58-.723-2.391-.185-.757-.231-1.515-.308-2.285-.046-.585-.37-1.276-.046-1.82.492-.837-1.093-1.369-1.586-.532-.169.306-.23.625-.246.944a2.257 2.257 0 0 0-.662-.147c-.492-.04-.492.638 0 .665.262.013.508.12.724.252.015.106.03.226.061.332.062.332.093.678.123 1.01-.277-.16-.554-.266-.908-.266a.334.334 0 0 0 0 .665c.354 0 .616.252.862.425.046.026.077.053.123.08.031.185.047.385.093.57a1.8 1.8 0 0 0 .061.28c-.061-.04-.123-.08-.169-.12-.37-.279-.924.186-.539.465.277.213.585.372.908.518.093.399.2.81.324 1.196.015.053.03.106.061.16-.354-.12-.723-.226-1.062-.4-.43-.212-.816.36-.385.572.4.2.816.319 1.247.465.154.053.308.133.447.213-.124 0-.262.013-.4.066-.632.24-1.201.598-1.848.824-.57.2-1.185.226-1.785.292-.616.067-1.216.266-1.832.346-.724.093-1.462-.08-2.17-.173-2.617-.306-4.988-1.342-7.112-2.67-2.063-1.29-4.08-2.897-5.157-4.93-.57-1.076-.97-2.232-1.416-3.348a20.478 20.478 0 0 1-1.016-3.241c-.308-1.369-.508-2.75-.708-4.132-.17-1.236-.154-2.551-.677-3.72-.4-.877-1.955-.28-1.555.584.154.32.247.665.308 1.023-.323-.199-.677-.332-1.077-.332a.334.334 0 0 0 0 .665c.43 0 .846.292 1.216.597.046.492.077.997.123 1.462-.293-.2-.585-.385-.831-.638-.324-.319-.878.146-.54.465.37.372.863.611 1.278.943.093.067.17.133.247.2l.184 1.235c-.554-.345-1.108-.677-1.631-1.05-.385-.265-.924.2-.539.466.739.544 1.57.983 2.34 1.501.061.359.138.717.215 1.076.031.146.062.28.108.425-.123-.066-.262-.133-.385-.199-.6-.319-1.262-.624-1.724-1.076-.323-.319-.862.146-.539.465.385.385.893.638 1.386.903.2.107.4.226.6.32.185.092.616.225.677.411-.384.266-.739.558-1.139.824-.662.465-1.508.757-2.34.89-1.77.266-3.601.491-5.402.425-1.94-.08-3.91-.332-5.834-.651-1.447-.252-2.786-.917-3.956-1.687-.554-.359-1.078-.758-1.478-1.236-.539-.638-.477-1.196.046-1.833a2660.38 2660.38 0 0 1 3.202-3.8 40.441 40.441 0 0 1 1.678-1.873c.477-.492.846-.904 1.6-.678.678.186 1.278.452 1.986.558.847.133 1.694.04 2.525-.093.739-.12 1.6 0 2.309-.226.754-.252 1.231-.85 1.893-1.209.724-.398 1.493-.65 2.124-1.156.662-.518 1.293-1.023 2.001-1.5 2.325-1.542 6.111-3.947 8.974-2.007 1.263.85 2.202 2.06 2.479 3.414.292 1.435.323 2.883.57 4.305.138.824.384 1.62.553 2.445.139.637.262 1.288.554 1.886.478.997 1.417 1.581 2.617 1.807 3.202.598 6.234-1.156 8.574-2.803.693-.492 1.447-.824 2.217-1.196.692-.332 1.323-.73 1.985-1.116 1.186-.69 2.386-.877 3.664-.186 1.385.744 2.555 2.112 3.155 3.414.647 1.382.662 2.91.986 4.358.169.77.307 1.555.461 2.325.154.77.524 1.501.74 2.259.338 1.169.661 2.458 1.83 3.228 2.279 1.501 4.988.399 6.959-.863.492-.32.97-.638 1.477-.93.339-.2.708-.372 1.062-.558-.739 1.395-.954 2.989-.923 4.517.015.983.277 1.98.816 2.856.538.89 1.416 1.515 1.985 2.365.554.824 1.493 1.608 2.31 2.232a4.8 4.8 0 0 0 1.462.77c.261.08.523.133.785.2-1.509 1.116-3.125 2.099-5.096 2.55Zm11.145-9.18c-.57 1.42-1.185 3.042-2.57 4.025-.678.478-1.34.996-2.002 1.514-.692-.225-1.431-.332-2.078-.65-.8-.412-1.57-1.196-2.17-1.82-.277-.293-.447-.638-.677-.957-.247-.332-.57-.585-.878-.864a4.148 4.148 0 0 1-1.216-2.258c-.323-1.595-.046-3.694.908-5.115.508-.744 1.263-1.356 1.986-1.953.277-.226.8-.705 1.293-.904.061-.013.123-.04.185-.053.046-.013.092-.013.138-.027.077 0 .139 0 .2.014a.958.958 0 0 0 .708-.093c1.201.04 2.31.65 3.264 1.302 1.37.943 2.386 1.993 2.863 3.467.477 1.475.615 2.897.046 4.371Z"/>
  <path fill="#40352F" d="M80.647 25.783c-.37-.531-.724-1.103-1.216-1.568-.293-.265-.647-.438-1.016-.57-.062-.187-.216-.346-.493-.44-2.216-.703-3.278 1.077-3.663 2.658-.523 2.152-.092 4.676 1.216 6.563.493.69 1.154 1.435 2.155 1.568.816.106 1.54-.226 2.093-.704 1.201-1.037 1.878-2.67 1.955-4.119.062-1.222-.307-2.325-1.031-3.388Zm-3.971-1.156c.061.04.138.08.23.107.385.12.878.186 1.201.425.354.252.6.677.831.996.431.611.816 1.222.97 1.927-.523-.465-.97-.984-1.524-1.422-.692-.571-1.447-1.076-2.062-1.714.107-.133.23-.252.354-.319Zm1.539 7.865c-.37.173-.616-.026-.893-.292a4.826 4.826 0 0 1-.923-1.355c.384.306.846.545 1.216.864.292.239.57.451.923.544a.78.78 0 0 1-.323.24Zm.939-.943c-.03.04-.046.08-.077.12-.03 0-.062-.014-.092-.014-.462 0-.755-.411-1.078-.65-.385-.293-.846-.519-1.185-.85-.17-.174-.416-.12-.539.012-.03-.12-.062-.239-.092-.345-.046-.2-.077-.385-.123-.585.369.28.77.545 1.154.798.37.252.754.425 1.047.744.184.212.323.372.615.491.447.186.832-.385.385-.571-.323-.133-.43-.399-.662-.611-.246-.213-.554-.346-.83-.518-.663-.412-1.325-.877-1.894-1.395a5.966 5.966 0 0 1-.03-.904c.553.492 1 1.063 1.63 1.515.37.265.77.478 1.14.73.215.147.554.28.785.439a.361.361 0 0 0 .462.372 7.22 7.22 0 0 1-.616 1.222Zm.23-2.312c-.4-.212-.769-.491-1.154-.717a7.357 7.357 0 0 1-1.246-.93c-.355-.332-.6-.717-1.001-1.01a.556.556 0 0 0-.185-.08c.046-.265.108-.57.2-.863.508.478 1.078.903 1.647 1.342.755.598 1.34 1.328 2.11 1.913a.35.35 0 0 0 .215.213l-.046.478c-.139-.133-.324-.226-.54-.346Z"/>
</svg>
