<svg xmlns="http://www.w3.org/2000/svg" width="70" height="110" fill="none" viewBox="0 0 70 110">
  <path fill="#40352F" d="M68.595 27.197c-.708-.545-1.693-.492-2.57-.625-.14-.026-.524-.106-.54-.133-.169-.292.509-1.182.632-1.461.354-.824.277-1.887-.893-2.126-.477-.093-.985 0-1.432.12-.277.08-.554.186-.815.265-.139.04-.277.093-.416.12-.246.04-.154.066.03-.133.632-.717 1.632-1.554 1.17-2.538-.538-1.116-1.816-.823-2.909-.81-.092 0-.4-.027-.492-.04v-.013c0-.093.077-.24.108-.319.23-.571.646-1.076.862-1.66.369-1.01.4-2.485-.924-2.99-1.047-.412-2.509.292-3.587.425-.384.04-1.062.146-1.062-.279 0-.385.477-.85.693-1.156.493-.717 1.047-1.753.308-2.484-.924-.903-2.586-.492-3.74-.266-.262.053-.847.173-.924.04-.108-.173.046-.585.092-.757.093-.425.154-.85.231-1.276.2-1.062.739-2.351-.292-3.228-1.047-.877-2.525-.319-3.633.173-.37.172-.739.358-1.108.544-.031.014-.17.08-.308.133.03-.292.123-.598.215-.877.354-1.195 1.047-2.55.77-3.813C47.815.851 46.568.56 45.398.983c-2.74.984-4.587 3.309-5.742 5.568-1.293 2.537-2.262 5.433-2.37 8.223-.03.665.077 1.342.03 2.007-.046.77-.323 1.5-.477 2.245-.307 1.488-.477 3.002-.8 4.49-.262 1.263-.662 2.472-1.447 3.574-.77 1.09-1.832 2.006-2.94 2.843a12.17 12.17 0 0 1-1.986 1.262 13.82 13.82 0 0 0-1.108.585c-.785.027-1.555.12-2.324.186-.831.08-1.724 0-2.54.186-.292.066-.57.186-.862.24-.37.066-.739.012-1.108.04-.893.052-1.74.318-2.617.464-.8.133-1.54.093-2.324.346-.816.265-1.617.531-2.402.837-1.57.61-2.709 1.474-4.002 2.417-.615.439-1.354.731-1.955 1.183-.6.452-.939 1.063-1.462 1.581-.847.824-1.847 1.461-1.185 2.684.6 1.129 1.97 1.275 3.248 1.09.523-.08 1-.28 1.508-.413.139-.04.293-.053.431-.093.077-.026.139 0 .17 0 .061.146.03.425.03.545-.015.877-.37 2.152.708 2.684.816.412 1.848.319 2.802.093-.031.279 0 .558.138.823.339.625 1.309 1.076 2.032 1.276a3.38 3.38 0 0 0 1.262.08c.047-.014.154-.027.277-.04-.015.08-.046.16-.076.226-.17.398-.416.77-.493 1.195-.262 1.316.677 2.378 2.216 2.432.647.026 1.293-.107 1.925-.213.261-.053.523-.106.785-.133h.215c-.015.027-.015.066-.03.106-.078.226-.17.439-.262.651-.2.492-.4.997-.37 1.528.062 1.156 1.324 1.78 2.556 1.475.523-.133.97-.385 1.462-.585.061-.026.23-.08.338-.12v.027c-.107.983-.446 2.299.077 3.229.34.584 1.109 1.023 1.894.877.508-.093.954-.386 1.462-.505.477-.12.908-.253 1.34-.465.184-.08.353-.186.538-.253.154-.066.4-.066.308-.12.37.187.277 1.17.261 1.462-.046.97-.23 1.927.14 2.883a.867.867 0 0 0 1.046.505c1.154-.306 1.74-1.342 2.509-2.073 1.031-.97 1.816-2.152 2.432-3.348.6-1.182.8-2.564 1.031-3.826.277-1.501.324-3.042.57-4.557.492-2.896.2-5.819.677-8.702.108-.664.246-1.329.37-1.993.092-.478.076-1.302.507-1.647.185-.146.524-.213.755-.319.307-.146.615-.319.923-.465.785-.385 1.601-.73 2.463-1.01 3.217-1.023 6.573-1.368 9.944-1.78a57.117 57.117 0 0 0 5.203-.85c1.631-.359 3.31-.611 4.895-1.143.908-.292 2.047-.412 2.755-1.01.708-.664.616-1.687-.154-2.271Zm-1.678 1.448a80.533 80.533 0 0 1-8.589 1.992c-1.632.293-3.31.426-4.957.678-1.616.24-3.263.292-4.848.651-1.54.346-3.094.797-4.541 1.382-.724.292-1.4.638-2.094.983-.477.226-1.015.385-1.4.73-.878.785-.878 2.352-1.063 3.362-.246 1.328-.461 2.67-.492 4.026-.03 1.408-.015 2.816-.154 4.224-.154 1.475-.477 2.923-.585 4.398-.2 2.63-.8 5.301-2.663 7.453-.354.412-.8.77-1.17 1.196-.077.093-.169.2-.261.319.03-1.302.461-2.71-.647-3.733-.554-.505-1.308-.519-2.001-.266-.323.106-.6.266-.908.398-.539.24-1.124.32-1.678.505-.17.067-.523.293-.646.226-.093-.053-.077-.385-.077-.452-.031-.597.138-1.195.169-1.793.061-1.01-.493-2.126-1.893-1.873-.447.08-2.17 1.102-2.463.704-.123-.173.154-.718.23-.904.185-.478.447-.956.478-1.461.077-1.276-1.34-1.475-2.494-1.302-.693.106-2.786.797-2.74-.306.031-.797.74-1.421.693-2.258-.046-.77-.677-1.276-1.57-1.13-.37.067-.693.226-1.078.186-.261-.026-1-.279-1.17-.518.031.027 0-.133.016-.186.077-.199.246-.372.308-.584.123-.399-.031-.784-.385-1.05-.308-.239-.662-.252-1.031-.12-.555.2-1.109.386-1.709.4-.246 0-.477-.027-.723-.027h-.031c-.123-.771.2-1.568-.046-2.339-.308-.956-1.263-1.262-2.31-1.063-.83.16-1.862.758-2.74.492-.492-.146-.507-.478-.215-.77.4-.373.816-.691 1.17-1.103.37-.452.677-.877 1.231-1.196.616-.359 1.232-.678 1.801-1.103 1.14-.85 2.186-1.567 3.572-2.112.615-.24 1.246-.452 1.877-.651.34-.106.662-.226 1.016-.266.385-.04.785-.013 1.17-.08.816-.12 1.616-.398 2.432-.451.74-.053 1.386-.027 2.11-.24.723-.212 1.523-.132 2.277-.212.585-.053 1.155-.12 1.724-.16.308.24.785.333 1.186.027.554-.425 1.231-.69 1.847-1.023.677-.359 1.308-.797 1.908-1.249 1.078-.81 2.11-1.7 2.925-2.723 1.74-2.166 2.078-4.757 2.51-7.294.215-1.342.661-2.67.8-4.026.077-.704-.016-1.408-.016-2.112.016-.744.154-1.475.293-2.206.523-2.63 1.477-5.447 3.217-7.665.754-.957 1.862-1.847 3.001-2.445.231-.12.477-.226.74-.306.06-.026.107-.04.138-.053.046.067.03.173.046.253.046.637-.231 1.328-.431 1.94-.308.943-.908 2.178-.523 3.161.4 1.05 1.662.837 2.54.412.492-.239 2.94-1.78 3.063-.73.061.57-.247 1.288-.355 1.86-.123.637-.353 1.315-.323 1.966.031.956.832 1.58 1.924 1.594.632 0 1.247-.186 1.863-.292.323-.053.662-.12.985-.093.046 0 .185.013.277.026-.015.014-.015.04-.03.067-.262.797-1.017 1.381-1.263 2.192-.292.97.262 1.86 1.4 2.112 1.217.266 2.572-.146 3.757-.385.215-.04.384-.133.462-.053.138.146.061.518.046.69-.077.639-.462 1.157-.755 1.728-.415.81-.646 1.86.4 2.391.416.213.924.28 1.401.28.2 0 1.37-.08 1.34-.16.092.24-.57.784-.724.956-.385.4-.816.864-.785 1.409.077 1.382 1.863 1.421 2.97 1.05.109-.04.617-.147.955-.226-.015.066-.03.12-.03.12-.093.225-.216.438-.324.663-.385.784-.693 1.727.154 2.392.662.505 1.586.478 2.401.584.2.027.647.04.755.213.046.173-.431.292-.647.359Z"/>
  <path fill="#40352F" d="M40.087 24.38c-.154.292-.338.571-.523.85a5.466 5.466 0 0 0-.677-.12c-.2-.026-.416.04-.477.227-.047.159.061.385.261.411.154.014.308.04.462.067-.2.266-.385.545-.585.81a2.867 2.867 0 0 0-.816-.172c-.2-.014-.385.159-.385.332 0 .186.17.319.385.332.108.013.262.04.4.08l-.276.398c-.124.173-.231.346-.34.505-.322-.16-.723-.213-1.092-.186-.2.013-.385.146-.385.332 0 .173.17.346.385.332.2-.013.508 0 .693.08a9.495 9.495 0 0 1-.755.957c-.43-.093-.8-.32-1.262-.346-.492-.026-.492.638 0 .664.246.014.493.133.724.213a7.477 7.477 0 0 1-.37.306c-.108.08-.23.172-.339.265-.046-.04-.107-.08-.169-.08-.43-.053-.846-.185-1.277-.239-.2-.026-.385.173-.385.333 0 .199.184.305.385.332.277.026.538.106.8.16-.262.198-.523.411-.785.61-.077-.013-.154-.04-.23-.066-.293-.106-.509-.24-.832-.24a.334.334 0 0 0 0 .665c.138 0 .262.066.4.12-.23.159-.462.332-.708.478-.077-.027-.17-.053-.262-.08-.308-.08-.63-.12-.862-.305-.37-.293-.908.186-.538.465.246.199.523.305.846.398.016 0 .031.013.046.013-.2.12-.4.24-.6.346-.154-.067-.323-.08-.508-.093-.292-.027-.554-.133-.846-.186-.478-.093-.693.545-.2.638.169.026.323.093.492.132-.354.12-.708.226-1.093.266-1.077.146-.616 1.555.446 1.408 1.309-.172 2.51-.837 3.556-1.488 1.293-.797 2.463-1.753 3.664-2.657 1.139-.85 1.878-1.833 2.617-2.95.723-1.102 1.585-2.125 2.262-3.254a.712.712 0 0 0 .293-.505c0-.066.015-.133.015-.186.092-.717-1.2-1.023-1.555-.372Zm7.604 3.76h-.123c.247-.452 0-1.076-.723-1.036-.739.053-1.293.292-1.832.717-.6.465-1.17.864-1.862 1.222-1.355.704-2.725 1.462-3.695 2.564-1 1.116-1.847 2.418-2.617 3.654-.846 1.342-1.554 2.75-1.877 4.265-.2.916 1.431 1.315 1.631.385.062-.252.123-.492.2-.744h.585a.334.334 0 0 0 0-.664h-.37c.093-.226.186-.465.293-.691h.862a.334.334 0 0 0 0-.664h-.538c.138-.28.292-.545.461-.81.093 0 .2.012.293.026.277.066.492.04.708-.12.354-.252-.093-.677-.462-.518-.046 0-.092-.013-.154-.013.293-.465.616-.917.94-1.369.2.067.384.173.523.253.169.106.43.026.523-.12.108-.173.03-.345-.139-.452a2.863 2.863 0 0 0-.508-.252c.154-.2.308-.412.462-.611a.35.35 0 0 0 .123.013c.154-.013.37.093.539.133.23.053.493.053.693-.066.169-.107.246-.293.138-.452-.092-.146-.354-.226-.523-.12-.015.014-.03.014-.03.027 0 0-.016 0-.032-.013-.092-.014-.169-.054-.246-.08-.061-.013-.123-.04-.185-.053a7.61 7.61 0 0 1 .862-.81c.077.145.262.199.447.172.154-.013.292-.066.446-.093.108-.027.17-.053.231.013.139.133.4.12.539 0 .154-.133.138-.332 0-.465-.246-.252-.539-.252-.847-.199.246-.16.508-.306.77-.452.323.16.754.226 1.108.2.2-.027.385-.133.385-.333 0-.159-.185-.358-.385-.332a.673.673 0 0 1-.23 0c.292-.16.6-.319.877-.491a.517.517 0 0 0 .138.026h1.17a.334.334 0 0 0 0-.664h-.446c.184-.16.384-.332.6-.438.17.026.338.08.523.093.262.026.508 0 .77 0 .477.026.477-.638-.016-.638ZM4.207 76.141c.123.81.908 1.329 1.462 1.926.092.094.308.386.292.412-.092.32-1.277.598-1.585.758-.893.425-1.647 1.262-.939 2.112.292.332.739.558 1.17.718.262.106.554.172.831.265.139.04.277.08.4.146.216.12.17.04-.123.093-1.016.186-2.416.253-2.817 1.263-.446 1.142.74 1.647 1.57 2.258.077.053.277.24.339.306l-.015.013c-.062.066-.231.146-.308.173-.616.292-1.309.451-1.909.77-1.047.558-2.186 1.648-1.585 2.777.477.903 2.124 1.196 3.017 1.714.323.186.908.491.6.81-.293.293-1 .359-1.4.478-.924.253-2.125.731-2.125 1.714 0 1.196 1.585 1.834 2.617 2.312.23.106.77.359.739.492-.062.199-.493.412-.632.518-.384.279-.77.558-1.154.824-.954.677-2.355 1.355-2.232 2.604.123 1.262 1.662 1.674 2.863 1.926.416.08.831.146 1.247.213.046 0 .185.039.339.079-.247.2-.555.372-.832.545-1.185.704-2.724 1.329-3.478 2.431-.709 1.037 0 1.953 1.216 2.299 2.817.81 5.972.093 8.558-.944 2.91-1.182 5.85-2.816 8.035-4.862.524-.492.97-1.05 1.509-1.528.615-.545 1.385-.957 2.078-1.435 1.37-.943 2.647-1.993 4.017-2.936 1.17-.797 2.386-1.488 3.802-1.873 1.416-.386 2.91-.479 4.387-.479.831 0 1.647.04 2.463.173.431.066.862.146 1.278.186.615.425 1.262.797 1.908 1.183.693.411 1.309.983 2.048 1.301.277.12.57.173.846.306.324.16.57.399.862.598.708.465 1.555.744 2.325 1.13.708.358 1.231.796 2.016 1.049.8.266 1.616.518 2.448.731 1.647.425 3.17.425 4.864.438.8.013 1.57.213 2.37.213s1.524-.279 2.294-.359c1.262-.146 2.509-.053 2.94-1.355.4-1.183-.524-2.086-1.632-2.657-.446-.24-.954-.36-1.447-.545-.138-.053-.262-.12-.4-.173a.217.217 0 0 1-.123-.106c.061-.146.292-.332.385-.439.677-.65 1.908-1.408 1.508-2.418-.308-.77-1.154-1.288-2.047-1.66.246-.2.43-.425.523-.705.216-.664-.154-1.554-.57-2.112a2.46 2.46 0 0 0-.892-.77 4.311 4.311 0 0 0-.246-.133c.077-.053.154-.093.215-.133.431-.2.893-.346 1.278-.625 1.2-.837 1.293-2.178.169-3.095-.462-.385-1.047-.651-1.616-.93-.231-.107-.477-.213-.693-.346-.046-.026-.108-.08-.17-.12.032-.013.062-.04.093-.052.216-.133.462-.24.693-.346.523-.252 1.062-.518 1.447-.93.83-.903.354-2.099-.8-2.564-.493-.2-1.032-.266-1.54-.385a5.741 5.741 0 0 1-.354-.106c.015-.014.03-.027.015-.027.832-.678 2.094-1.488 2.386-2.484a1.421 1.421 0 0 0-.77-1.728c-.446-.212-1.015-.252-1.477-.438a6.683 6.683 0 0 0-1.37-.412c-.2-.04-.4-.066-.6-.106-.17-.04-.354-.173-.324-.08-.138-.345.678-1.036.909-1.249.77-.717 1.647-1.328 2.078-2.258.169-.36.046-.81-.4-.97-1.109-.425-2.34.026-3.464.146-1.524.16-3.002.584-4.387 1.156-1.355.558-2.555 1.475-3.694 2.298-1.355.983-2.556 2.113-3.895 3.11-2.57 1.912-4.571 4.277-7.127 6.19-.584.439-1.2.864-1.8 1.302-.431.306-1.047.944-1.648.957-.261 0-.554-.133-.815-.186-.339-.067-.693-.107-1.047-.173-.893-.16-1.77-.359-2.617-.638-3.202-1.05-6.003-2.683-8.85-4.29a50.737 50.737 0 0 0-4.573-2.3c-1.508-.65-2.97-1.408-4.556-1.912-.908-.293-1.847-.85-2.847-.798-.955.04-1.663.877-1.524 1.754Zm2.355-.146c2.74.97 5.418 2.1 7.989 3.361 1.447.718 2.817 1.555 4.248 2.299 1.4.73 2.694 1.634 4.156 2.258 1.432.611 2.94 1.156 4.48 1.528.77.186 1.539.306 2.324.452.539.093 1.046.279 1.616.239 1.262-.093 2.447-1.276 3.356-1.94 1.2-.863 2.386-1.753 3.432-2.763 1.093-1.05 2.155-2.113 3.325-3.096 1.232-1.023 2.57-1.94 3.787-2.99 2.155-1.872 4.633-3.546 7.68-4.118.586-.106 1.202-.132 1.786-.239.124-.026.278-.053.431-.093-1.015.97-2.416 1.78-2.355 3.189.031.69.585 1.13 1.309 1.342.323.093.662.146.985.212.585.12 1.077.399 1.647.572.185.053.616.066.662.199.03.093-.231.332-.277.385-.431.465-1.016.824-1.493 1.249-.816.73-1.247 1.886 0 2.484.4.2 2.478.399 2.386.864-.047.2-.662.452-.863.558-.508.252-1.062.465-1.477.837-1.032.917-.108 1.873.893 2.405.6.319 2.709.97 1.831 1.78-.63.585-1.647.65-2.247 1.315-.554.598-.462 1.342.339 1.74.323.16.708.227.954.466.185.172.539.784.492 1.05 0-.027-.107.092-.153.119-.2.106-.478.146-.678.265-.4.24-.57.598-.523 1.01.046.359.308.558.693.665.57.159 1.123.332 1.585.664.185.133.339.292.524.425.015.013.015.013.03.013-.492.651-1.339 1.076-1.74 1.794-.492.89 0 1.66.94 2.099.739.345 1.985.492 2.447 1.182.262.386.016.651-.43.691-.586.053-1.14.053-1.725.173-.63.133-1.185.279-1.831.199-.74-.079-1.447-.186-2.186-.186-1.509 0-2.848-.053-4.295-.425a23.737 23.737 0 0 1-1.909-.571c-.338-.106-.662-.2-.97-.372-.323-.186-.6-.425-.938-.598-.693-.372-1.509-.611-2.186-1.036-.6-.372-1.078-.758-1.77-1.01-.708-.253-1.247-.757-1.878-1.13-.477-.292-.955-.557-1.432-.85-.046-.358-.338-.704-.877-.69-.739.013-1.447-.173-2.17-.28-.785-.106-1.586-.132-2.386-.132-1.432 0-2.879.093-4.28.385-2.955.638-5.187 2.405-7.434 4.079-1.186.89-2.54 1.634-3.664 2.577-.585.492-1.062 1.076-1.6 1.608-.57.558-1.232 1.036-1.894 1.501-2.401 1.687-5.249 3.268-8.266 3.959-1.308.292-2.801.332-4.125.146a5.116 5.116 0 0 1-.785-.186c-.062-.026-.108-.026-.139-.04.016-.079.108-.146.154-.212.446-.518 1.185-.877 1.801-1.222.939-.532 2.34-1.13 2.802-2.086.492-1.01-.616-1.568-1.601-1.754-.554-.093-3.571-.332-2.863-1.182.384-.465 1.154-.824 1.677-1.196.57-.412 1.263-.797 1.74-1.302.692-.73.57-1.674-.246-2.285-.478-.36-1.078-.572-1.632-.837-.277-.133-.585-.28-.816-.492-.03-.026-.123-.106-.185-.173.016 0 .047-.013.077-.04.8-.438 1.832-.465 2.632-.943.955-.558 1.217-1.554.555-2.391-.708-.89-2.048-1.342-3.125-1.834-.2-.093-.385-.106-.385-.225 0-.2.339-.426.493-.558.538-.439 1.231-.612 1.893-.877.939-.372 1.893-1.037 1.508-2.033-.153-.385-.492-.73-.846-.996-.154-.12-1.093-.718-1.124-.638.108-.24 1.032-.266 1.278-.306.6-.093 1.262-.186 1.678-.624 1-1.076-.324-2.126-1.447-2.471-.108-.027-.57-.253-.878-.372.062-.04.123-.067.108-.067.246-.12.508-.212.754-.319.893-.372 1.832-.916 1.694-1.886-.108-.757-.832-1.262-1.355-1.807-.123-.133-.446-.399-.416-.598.077-.12.524.067.724.133Z"/>
  <path fill="#40352F" d="M40.41 91.938c-1.108-.611-2.524-.784-3.817-.89-1.585-.133-3.186-.067-4.787-.067-1.493 0-2.801.32-4.202.744-1.386.425-2.817.704-4.187 1.17a.924.924 0 0 0-.616.225l-.154.133c-.585.505.154 1.462.909 1.17.2-.08.415-.147.63-.213.17.053.34.106.493.199.216.12.385.2.647.212.492.027.492-.637 0-.664-.047 0-.093-.026-.139-.04.339-.093.677-.186 1.016-.265.246.16.523.279.816.305.2.014.385-.16.385-.332 0-.106-.062-.186-.139-.252.139-.04.277-.067.4-.107.123-.04.262-.08.385-.106.416.332.878.638 1.447.69.493.04.493-.623 0-.663-.215-.014-.416-.16-.585-.28.154-.04.308-.08.477-.119.031.16.2.252.385.266-.077 0 .046.013.062.026l.092.04c.108.053.216.106.308.173.154.106.308.212.431.345.323.32.862-.146.539-.465a3.31 3.31 0 0 0-.831-.597 7.089 7.089 0 0 1 1.216-.107c-.016.093.015.186.123.266.323.252.754.398 1.046.677.324.32.878-.146.54-.465-.216-.212-.493-.345-.77-.491.277 0 .554-.013.83-.013.247.16.524.279.755.465.308.239.57.451.985.504.493.054.477-.61 0-.664-.154-.013-.323-.16-.462-.292.447 0 .893.026 1.34.053.138.013.277.013.415.027.046.04.108.08.154.106.246.16.554.24.754.438.293.293.755-.066.616-.372.616.12 1.2.293 1.724.572.97.478 1.693-.85.77-1.342Zm-2.37-7.268a16.33 16.33 0 0 1-1.047.638c-.184-.093-.369-.16-.538-.266-.262-.159-.447-.332-.785-.358-.493-.04-.493.624 0 .664-.077 0 .03.027.061.04.031.013.062.04.093.053.092.066.184.133.277.186.046.027.092.04.138.067-.338.159-.692.318-1.046.451-.17-.08-.324-.16-.478-.266-.277-.172-.538-.305-.877-.305a.334.334 0 0 0 0 .664c.2 0 .354.12.508.226a33.73 33.73 0 0 1-1.262.412c-.17-.093-.354-.173-.524-.279-.261-.16-.477-.306-.816-.346-.215-.026-.384.173-.384.333 0 .199.184.305.384.332.124.013.278.146.385.226-.384.106-.754.199-1.139.305-.184-.093-.338-.252-.492-.359a11.076 11.076 0 0 0-1.047-.557c-.431-.213-.816.358-.385.57.354.174.724.346 1.047.572-.139.04-.277.067-.416.106a2.25 2.25 0 0 1-.415.08c-.277-.186-.57-.332-.862-.505-.4-.239-.785-.491-1.201-.717-.416-.226-.8.345-.385.571.37.2.724.412 1.093.638.062.04.139.08.2.12a7.52 7.52 0 0 1-.954-.027.41.41 0 0 0-.262-.106c-.123-.014-.416-.373-.492-.452-.262-.226-.54-.465-.8-.691-.355-.306-.894.173-.54.465.247.213.508.425.755.638-.046-.014-.108-.014-.154-.027a5.055 5.055 0 0 0-.477-.066 13.96 13.96 0 0 0-.909-.585c-.338-.2-.723-.305-1.031-.545-.37-.292-.908.186-.539.465.262.213.57.333.878.479h-.077c-.185-.014-.416.013-.647.026-.338-.172-.662-.372-.923-.638-.293-.278-.74.054-.616.346-.785-.146-1.54.744-.77 1.236.6.385 1.2.504 1.94.491.8-.013 1.54.013 2.34.133 1.57.24 3.17.438 4.74.16 1.601-.28 3.233-.784 4.757-1.276 1.662-.532 3.263-1.196 4.664-2.152.816-.532-.108-1.754-.97-1.17Z"/>
</svg>
