<svg width="70" height="110" viewBox="0 0 70 110" fill="none" xmlns="http://www.w3.org/2000/svg">
<path d="M68.595 27.1965C67.8869 26.6518 66.9018 26.705 66.0244 26.5721C65.8859 26.5455 65.501 26.4658 65.4856 26.4392C65.3163 26.147 65.9936 25.2568 66.1168 24.9778C66.4708 24.1541 66.3938 23.0912 65.224 22.8521C64.7468 22.7591 64.2388 22.8521 63.7924 22.9717C63.5154 23.0514 63.2383 23.1577 62.9766 23.2374C62.8381 23.2772 62.6995 23.3304 62.561 23.357C62.3147 23.3968 62.4071 23.4234 62.5918 23.2241C63.2229 22.5067 64.2234 21.6697 63.7616 20.6865C63.2229 19.5705 61.9453 19.8628 60.8524 19.8761C60.76 19.8761 60.4522 19.8495 60.3598 19.8362C60.3598 19.8362 60.3598 19.8362 60.3598 19.823C60.3598 19.73 60.4368 19.5838 60.4676 19.5041C60.6985 18.9328 61.1141 18.428 61.3296 17.8434C61.699 16.8337 61.7298 15.359 60.406 14.8541C59.3593 14.4422 57.897 15.1464 56.8195 15.2792C56.4346 15.3191 55.7574 15.4254 55.7574 15.0002C55.7574 14.615 56.2345 14.15 56.45 13.8444C56.9426 13.127 57.4967 12.0907 56.7579 11.36C55.8343 10.4565 54.1719 10.8684 53.0174 11.0942C52.7557 11.1474 52.1708 11.267 52.0939 11.1341C51.9861 10.9614 52.14 10.5495 52.1862 10.3768C52.2786 9.95168 52.3401 9.52653 52.4171 9.10139C52.6172 8.03853 53.156 6.74982 52.1246 5.87296C51.0779 4.99611 49.6002 5.5541 48.4919 6.04568C48.1225 6.21839 47.7531 6.40439 47.3836 6.59039C47.3529 6.60368 47.2143 6.67011 47.0758 6.72325C47.1066 6.43096 47.1989 6.12539 47.2913 5.84639C47.6453 4.65068 48.338 3.29553 48.0609 2.03339C47.8146 0.85096 46.5678 0.558675 45.398 0.983818C42.658 1.96696 40.8109 4.29196 39.6564 6.55053C38.3634 9.0881 37.3937 11.9844 37.2859 14.7744C37.2551 15.4387 37.3629 16.1162 37.3167 16.7805C37.2705 17.5511 36.9935 18.2818 36.8395 19.0258C36.5317 20.5138 36.3624 22.0284 36.0391 23.5164C35.7774 24.7785 35.3772 25.9875 34.5922 27.0902C33.8225 28.1797 32.7604 29.0964 31.6521 29.9334C31.0364 30.4117 30.3745 30.8368 29.6665 31.1955C29.2816 31.3815 28.9122 31.5675 28.5582 31.7801C27.7731 31.8067 27.0035 31.8997 26.2339 31.9661C25.4026 32.0458 24.5099 31.9661 23.694 32.1521C23.4016 32.2185 23.1245 32.3381 22.832 32.3912C22.4626 32.4577 22.0932 32.4045 21.7238 32.4311C20.831 32.4842 19.9844 32.75 19.107 32.8961C18.3065 33.029 17.5677 32.9891 16.7826 33.2415C15.9668 33.5072 15.1664 33.773 14.3814 34.0785C12.8113 34.6897 11.6722 35.5533 10.3792 36.4965C9.7635 36.935 9.02464 37.2272 8.42432 37.679C7.824 38.1307 7.48536 38.7418 6.962 39.26C6.11539 40.0837 5.11486 40.7214 5.77675 41.9437C6.37707 43.073 7.74704 43.2191 9.02464 43.0331C9.548 42.9534 10.0252 42.7541 10.5331 42.6212C10.6717 42.5814 10.8256 42.5681 10.9641 42.5282C11.0411 42.5017 11.1027 42.5282 11.1335 42.5282C11.195 42.6744 11.1642 42.9534 11.1642 43.073C11.1489 43.9498 10.7948 45.2253 11.8723 45.7567C12.6881 46.1685 13.7195 46.0755 14.6738 45.8497C14.643 46.1287 14.6738 46.4077 14.8124 46.6734C15.151 47.2978 16.1207 47.7495 16.8442 47.9488C17.2598 48.0551 17.6908 48.0817 18.1064 48.0285C18.1526 48.0152 18.2604 48.002 18.3835 47.9887C18.3681 48.0684 18.3373 48.1481 18.3065 48.2145C18.1372 48.6131 17.8909 48.9851 17.814 49.4103C17.5523 50.7255 18.4913 51.7884 20.0305 51.8415C20.677 51.8681 21.3235 51.7352 21.9546 51.629C22.2163 51.5758 22.478 51.5227 22.7397 51.4961C22.8013 51.4961 22.8782 51.4961 22.9552 51.4961C22.9398 51.5227 22.9398 51.5625 22.9244 51.6024C22.8474 51.8283 22.7551 52.0408 22.6627 52.2534C22.4626 52.745 22.2625 53.2498 22.2933 53.7812C22.3549 54.9371 23.6171 55.5615 24.8485 55.256C25.3719 55.1231 25.8182 54.8707 26.3108 54.6714C26.3724 54.6448 26.5417 54.5917 26.6495 54.5518C26.6495 54.5784 26.6495 54.5917 26.6495 54.5784C26.5417 55.5615 26.2031 56.8768 26.7264 57.8068C27.0651 58.3914 27.8347 58.8298 28.6197 58.6837C29.1277 58.5907 29.5741 58.2984 30.0821 58.1788C30.5592 58.0593 30.9903 57.9264 31.4213 57.7138C31.606 57.6341 31.7753 57.5278 31.96 57.4614C32.1139 57.395 32.3602 57.395 32.2679 57.3418C32.6373 57.5278 32.5449 58.511 32.5295 58.8032C32.4834 59.7731 32.2986 60.7297 32.6681 61.6862C32.8066 62.0582 33.253 62.324 33.7148 62.1911C34.8692 61.8855 35.4542 60.8492 36.2238 60.1185C37.2551 59.1487 38.0402 57.9662 38.6559 56.7705C39.2562 55.5881 39.4563 54.2064 39.6872 52.9442C39.9643 51.443 40.0105 49.9018 40.2567 48.3873C40.7493 45.491 40.4569 42.5681 40.934 39.6851C41.0418 39.0208 41.1803 38.3565 41.3035 37.6923C41.3958 37.214 41.3804 36.3902 41.8114 36.0448C41.9961 35.8987 42.3348 35.8323 42.5657 35.726C42.8735 35.5798 43.1814 35.4071 43.4893 35.261C44.2743 34.8757 45.0901 34.5302 45.9521 34.2512C49.1692 33.2282 52.5249 32.8828 55.8959 32.471C57.6507 32.2584 59.3747 31.9927 61.0987 31.6207C62.7303 31.262 64.4081 31.0095 65.9936 30.4781C66.9018 30.1858 68.0409 30.0662 68.7489 29.4684C69.457 28.8041 69.3646 27.7811 68.595 27.1965ZM66.9172 28.6447C64.1157 29.4551 61.2372 30.1327 58.328 30.6375C56.6963 30.9298 55.0185 31.0627 53.3715 31.3151C51.7552 31.5542 50.1082 31.6074 48.5227 31.9661C46.9834 32.3115 45.4287 32.7632 43.9818 33.3478C43.2584 33.6401 42.5811 33.9855 41.8884 34.331C41.4112 34.5568 40.8725 34.7163 40.4876 35.0617C39.6102 35.8455 39.6102 37.4133 39.4255 38.423C39.1792 39.7515 38.9637 41.0934 38.933 42.4485C38.9022 43.8568 38.9176 45.2651 38.779 46.6734C38.6251 48.1481 38.3019 49.5963 38.1941 51.071C37.994 53.7015 37.3937 56.372 35.5311 58.5242C35.1771 58.9361 34.7307 59.2948 34.3613 59.72C34.2843 59.813 34.192 59.9193 34.0996 60.0388C34.1304 58.7368 34.5614 57.3285 33.4531 56.3055C32.899 55.8007 32.1447 55.7874 31.452 56.0398C31.1288 56.1461 30.8517 56.3055 30.5439 56.4384C30.0051 56.6775 29.4202 56.7572 28.866 56.9432C28.6967 57.0097 28.3427 57.2355 28.2195 57.1691C28.1272 57.116 28.1426 56.7838 28.1426 56.7174C28.1118 56.1195 28.2811 55.5217 28.3119 54.9238C28.3735 53.9141 27.8193 52.7981 26.4186 53.0505C25.9722 53.1302 24.2482 54.1532 23.9557 53.7547C23.8326 53.582 24.1096 53.0372 24.1866 52.8512C24.3713 52.373 24.633 51.8947 24.6638 51.3898C24.7408 50.1144 23.3246 49.9151 22.1701 50.0878C21.4775 50.1941 19.384 50.885 19.4302 49.7823C19.461 48.9851 20.1691 48.3607 20.1229 47.5237C20.0767 46.7531 19.4456 46.2483 18.5528 46.3944C18.1834 46.4608 17.8601 46.6202 17.4753 46.5804C17.2136 46.5538 16.4748 46.3014 16.3055 46.0623C16.3362 46.0888 16.3055 45.9294 16.3209 45.8762C16.3978 45.677 16.5671 45.5043 16.6287 45.2917C16.7519 44.8931 16.5979 44.5078 16.2439 44.2421C15.936 44.003 15.582 43.9897 15.2126 44.1225C14.6584 44.3218 14.1043 44.5078 13.504 44.5211C13.2577 44.5211 13.0268 44.4945 12.7805 44.4945C12.7651 44.4945 12.7497 44.4945 12.7497 44.4945C12.6266 43.724 12.9498 42.9268 12.7035 42.1562C12.3957 41.1997 11.4413 40.8941 10.3946 41.0934C9.56339 41.2528 8.53207 41.8507 7.65468 41.585C7.16211 41.4388 7.14672 41.1067 7.43918 40.8144C7.8394 40.4424 8.255 40.1235 8.60903 39.7117C8.97846 39.26 9.28632 38.8348 9.84046 38.516C10.4562 38.1573 11.0719 37.8384 11.6414 37.4132C12.7805 36.563 13.8272 35.8455 15.2126 35.3008C15.8283 35.0617 16.4594 34.8491 17.0905 34.6498C17.4291 34.5435 17.7524 34.424 18.1064 34.3841C18.4913 34.3442 18.8915 34.3708 19.2763 34.3044C20.0921 34.1848 20.8925 33.9058 21.7084 33.8527C22.4472 33.7995 23.0937 33.8261 23.8172 33.6135C24.5406 33.401 25.3411 33.4807 26.0953 33.401C26.6802 33.3478 27.2498 33.2814 27.8193 33.2415C28.1272 33.4807 28.6044 33.5737 29.0046 33.2681C29.5587 32.843 30.236 32.5772 30.8517 32.2451C31.529 31.8864 32.1601 31.448 32.7604 30.9962C33.8379 30.1858 34.8693 29.2957 35.6851 28.2727C37.4245 26.1071 37.7631 23.5164 38.1941 20.9788C38.4096 19.637 38.856 18.3084 38.9945 16.9532C39.0715 16.2491 38.9791 15.545 38.9791 14.8408C38.9945 14.0968 39.1331 13.3661 39.2716 12.6354C39.795 10.0048 40.7493 7.18825 42.4887 4.96953C43.243 4.01296 44.3513 3.12282 45.4903 2.52496C45.7212 2.40539 45.9675 2.29911 46.2292 2.21939C46.2908 2.19282 46.3369 2.17953 46.3677 2.16625C46.4139 2.23267 46.3985 2.33896 46.4139 2.41868C46.4601 3.05639 46.183 3.74725 45.9829 4.35839C45.675 5.30167 45.0747 6.53725 45.4595 7.52039C45.8598 8.56996 47.122 8.35739 47.9994 7.93225C48.4919 7.69311 50.9394 6.15196 51.0625 7.20153C51.1241 7.77282 50.8162 8.49025 50.7085 9.06153C50.5854 9.69925 50.3545 10.3768 50.3853 11.0278C50.416 11.9844 51.2165 12.6088 52.3094 12.6221C52.9405 12.6221 53.5562 12.4361 54.1719 12.3298C54.4951 12.2767 54.8338 12.2102 55.157 12.2368C55.2032 12.2368 55.3417 12.2501 55.4341 12.2634C55.4187 12.2767 55.4187 12.3032 55.4033 12.3298C55.1416 13.127 54.3874 13.7115 54.1411 14.522C53.8486 15.4918 54.4028 16.382 55.5419 16.6344C56.7579 16.9001 58.1125 16.4882 59.2977 16.2491C59.5132 16.2092 59.6825 16.1162 59.7595 16.196C59.898 16.3421 59.8211 16.7141 59.8057 16.8868C59.7287 17.5245 59.3439 18.0427 59.0514 18.614C58.6358 19.4244 58.4049 20.474 59.4516 21.0054C59.8672 21.218 60.3752 21.2844 60.8524 21.2844C61.0525 21.2844 62.2224 21.2047 62.1916 21.125C62.2839 21.3641 61.622 21.9088 61.4681 22.0815C61.0833 22.4801 60.6523 22.9451 60.6831 23.4898C60.76 24.8715 62.5456 24.9114 63.6539 24.5394C63.7616 24.4995 64.2696 24.3932 64.6082 24.3135C64.5929 24.38 64.5775 24.4331 64.5775 24.4331C64.4851 24.659 64.362 24.8715 64.2542 25.0974C63.8694 25.8812 63.5615 26.8245 64.4081 27.4888C65.07 27.9937 65.9936 27.9671 66.8094 28.0734C67.0095 28.1 67.4559 28.1132 67.5637 28.286C67.6099 28.4587 67.1327 28.5782 66.9172 28.6447Z" fill="#40352F"/>
<path d="M40.0874 24.38C39.9335 24.6723 39.7488 24.9513 39.5641 25.2303C39.3486 25.1771 39.1177 25.1373 38.8868 25.1107C38.6867 25.0841 38.4712 25.1506 38.4096 25.3366C38.3634 25.496 38.4712 25.7218 38.6713 25.7484C38.8252 25.7617 38.9791 25.7883 39.1331 25.8148C38.933 26.0806 38.7482 26.3596 38.5481 26.6253C38.2865 26.5323 38.0094 26.4658 37.7323 26.4526C37.5322 26.4393 37.3475 26.612 37.3475 26.7847C37.3475 26.9707 37.5168 27.1036 37.7323 27.1168C37.8401 27.1301 37.994 27.1567 38.1325 27.1966C38.0402 27.3294 37.9478 27.4623 37.8555 27.5951C37.7323 27.7678 37.6246 27.9406 37.5168 28.1C37.1936 27.9406 36.7934 27.8874 36.4239 27.914C36.2238 27.9273 36.0391 28.0601 36.0391 28.2461C36.0391 28.4188 36.2084 28.5916 36.4239 28.5783C36.624 28.565 36.9319 28.5783 37.1166 28.658C36.8857 28.9901 36.6394 29.309 36.3624 29.6146C35.9314 29.5216 35.5619 29.2957 35.1001 29.2691C34.6076 29.2426 34.6076 29.9068 35.1001 29.9334C35.3464 29.9467 35.5927 30.0663 35.8236 30.146C35.7005 30.2523 35.5773 30.3586 35.4542 30.4516C35.3464 30.5313 35.2233 30.6243 35.1155 30.7173C35.0694 30.6774 35.0078 30.6376 34.9462 30.6376C34.5152 30.5844 34.0996 30.4516 33.6686 30.3984C33.4685 30.3718 33.2838 30.5711 33.2838 30.7306C33.2838 30.9298 33.4685 31.0361 33.6686 31.0627C33.9457 31.0893 34.2074 31.169 34.469 31.2221C34.2074 31.4214 33.9457 31.634 33.684 31.8333C33.607 31.82 33.5301 31.7934 33.4531 31.7668C33.1606 31.6606 32.9451 31.5277 32.6219 31.5277C32.1293 31.5277 32.1293 32.192 32.6219 32.192C32.7604 32.192 32.8836 32.2584 33.0221 32.3116C32.7912 32.471 32.5603 32.6437 32.314 32.7898C32.2371 32.7633 32.1447 32.7367 32.0524 32.7101C31.7445 32.6304 31.4213 32.5906 31.1904 32.4046C30.8209 32.1123 30.2822 32.5906 30.6516 32.8696C30.8979 33.0688 31.175 33.1751 31.4982 33.2681C31.5136 33.2681 31.529 33.2814 31.5444 33.2814C31.3443 33.401 31.1442 33.5206 30.9441 33.6268C30.7901 33.5604 30.6208 33.5471 30.4361 33.5338C30.1436 33.5073 29.882 33.401 29.5895 33.3478C29.1123 33.2548 28.8968 33.8926 29.3894 33.9856C29.5587 34.0121 29.7126 34.0786 29.882 34.1184C29.5279 34.238 29.1739 34.3443 28.7891 34.3841C27.7116 34.5303 28.1734 35.9386 29.2355 35.7924C30.5439 35.6197 31.7445 34.9554 32.7912 34.3044C34.0842 33.5073 35.2541 32.5507 36.4547 31.6473C37.5938 30.797 38.3326 29.8138 39.0715 28.6978C39.795 27.5951 40.657 26.5721 41.3343 25.4428C41.4882 25.3233 41.6113 25.1506 41.6267 24.938C41.6267 24.8716 41.6421 24.8051 41.6421 24.752C41.7345 24.0346 40.4415 23.729 40.0874 24.38Z" fill="#40352F"/>
<path d="M47.6915 28.1398C47.6453 28.1398 47.6145 28.1398 47.5684 28.1398C47.8146 27.6881 47.5684 27.0637 46.8449 27.1036C46.106 27.1567 45.5519 27.3958 45.0131 27.821C44.4128 28.286 43.8433 28.6846 43.1506 29.0433C41.796 29.7474 40.4261 30.5047 39.4563 31.6074C38.4558 32.7234 37.6092 34.0254 36.8395 35.261C35.9929 36.6029 35.2849 38.0111 34.9616 39.5257C34.7615 40.4424 36.3931 40.841 36.5933 39.911C36.6548 39.6586 36.7164 39.4194 36.7934 39.167H37.3783C37.8709 39.167 37.8709 38.5027 37.3783 38.5027H37.0089C37.1012 38.2768 37.1936 38.0377 37.3013 37.8118H38.1633C38.6559 37.8118 38.6559 37.1476 38.1633 37.1476H37.6246C37.7631 36.8686 37.917 36.6028 38.0864 36.3371C38.1787 36.3371 38.2865 36.3504 38.3788 36.3637C38.6559 36.4301 38.8714 36.4036 39.0869 36.2441C39.4409 35.9917 38.9945 35.5666 38.6251 35.726C38.5789 35.726 38.5327 35.7127 38.4712 35.7127C38.7636 35.2477 39.0869 34.796 39.4101 34.3443C39.6102 34.4107 39.795 34.517 39.9335 34.5967C40.1028 34.703 40.3645 34.6233 40.4569 34.4771C40.5646 34.3044 40.4876 34.1317 40.3183 34.0254C40.1644 33.9324 39.9951 33.8394 39.8104 33.773C39.9643 33.5737 40.1182 33.3611 40.2721 33.1618C40.3029 33.1751 40.3491 33.1751 40.3953 33.1751C40.5492 33.1618 40.7647 33.2681 40.934 33.308C41.1649 33.3611 41.4266 33.3611 41.6267 33.2416C41.796 33.1353 41.873 32.9493 41.7653 32.7898C41.6729 32.6437 41.4112 32.564 41.2419 32.6703C41.2265 32.6836 41.2111 32.6836 41.2111 32.6968C41.2111 32.6968 41.1957 32.6968 41.1803 32.6836C41.088 32.6703 41.011 32.6304 40.934 32.6039C40.8725 32.5906 40.8109 32.564 40.7493 32.5507C41.011 32.2584 41.3035 31.9927 41.6113 31.7403C41.6883 31.8864 41.873 31.9396 42.0577 31.913C42.2116 31.8997 42.3502 31.8466 42.5041 31.82C42.6119 31.7934 42.6734 31.7668 42.735 31.8333C42.8735 31.9661 43.1352 31.9528 43.2738 31.8333C43.4277 31.7004 43.4123 31.5011 43.2738 31.3683C43.0275 31.1158 42.735 31.1158 42.4271 31.169C42.6734 31.0096 42.9351 30.8634 43.1968 30.7173C43.52 30.8767 43.951 30.9431 44.3051 30.9166C44.5052 30.89 44.6899 30.7837 44.6899 30.5844C44.6899 30.425 44.5052 30.2257 44.3051 30.2523C44.2281 30.2656 44.1511 30.2656 44.0742 30.2523C44.3666 30.0928 44.6745 29.9334 44.9516 29.7607C44.9978 29.774 45.0439 29.7873 45.0901 29.7873H46.26C46.7525 29.7873 46.7525 29.123 46.26 29.123H45.8136C45.9983 28.9636 46.1984 28.7908 46.4139 28.6846C46.5832 28.7111 46.7525 28.7643 46.9372 28.7776C47.1989 28.8041 47.4452 28.7776 47.7069 28.7776C48.1841 28.8041 48.1841 28.1398 47.6915 28.1398Z" fill="#40352F"/>
<path d="M4.20668 76.1411C4.32982 76.9515 5.11486 77.4697 5.669 78.0675C5.76136 78.1605 5.97686 78.4528 5.96147 78.4794C5.86911 78.7982 4.68386 79.0772 4.376 79.2367C3.48321 79.6618 2.72897 80.4988 3.43704 81.3491C3.7295 81.6812 4.17589 81.9071 4.60689 82.0665C4.86857 82.1728 5.16104 82.2392 5.43811 82.3322C5.57665 82.3721 5.71518 82.4119 5.83832 82.4784C6.05382 82.5979 6.00764 82.5182 5.71518 82.5714C4.69925 82.7574 3.2985 82.8238 2.89829 83.8335C2.45189 84.9761 3.63714 85.4809 4.46836 86.0921C4.54532 86.1452 4.74543 86.3312 4.807 86.3977C4.807 86.3977 4.807 86.3977 4.79161 86.4109C4.73004 86.4774 4.56071 86.5571 4.48375 86.5837C3.86804 86.8759 3.17536 87.0354 2.57504 87.3542C1.52832 87.9122 0.389251 89.0017 0.989572 90.1309C1.46675 91.0344 3.11378 91.3267 4.00657 91.8448C4.32982 92.0308 4.91475 92.3364 4.60689 92.6552C4.31443 92.9475 3.60636 93.0139 3.20614 93.1335C2.28257 93.3859 1.08193 93.8642 1.08193 94.8474C1.08193 96.0431 2.66739 96.6808 3.69871 97.1591C3.92961 97.2654 4.46836 97.5178 4.43757 97.6507C4.376 97.8499 3.945 98.0625 3.80647 98.1688C3.42164 98.4478 3.03682 98.7268 2.652 98.9925C1.69764 99.6701 0.296894 100.348 0.420037 101.597C0.54318 102.859 2.08247 103.271 3.28311 103.523C3.69872 103.603 4.11432 103.669 4.52993 103.736C4.57611 103.736 4.71464 103.775 4.86857 103.815C4.62229 104.015 4.31443 104.187 4.03736 104.36C2.85211 105.064 1.31282 105.689 0.558572 106.791C-0.1495 107.828 0.558571 108.744 1.77461 109.09C4.5915 109.9 7.74704 109.183 10.333 108.146C13.2423 106.964 16.1823 105.33 18.3681 103.284C18.8915 102.792 19.3379 102.234 19.8766 101.756C20.4923 101.211 21.262 100.799 21.9546 100.321C23.3246 99.3778 24.6022 98.3282 25.9722 97.3849C27.142 96.5878 28.3581 95.8969 29.7742 95.5117C31.1904 95.1264 32.6835 95.0334 34.1612 95.0334C34.9924 95.0334 35.8082 95.0732 36.624 95.2061C37.055 95.2725 37.486 95.3522 37.9016 95.3921C38.5174 95.8172 39.1639 96.1892 39.8104 96.5745C40.503 96.9864 41.1188 97.5577 41.8576 97.8765C42.1347 97.9961 42.4271 98.0492 42.7042 98.1821C43.0275 98.3415 43.2738 98.5807 43.5662 98.7799C44.2743 99.2449 45.1209 99.5239 45.8905 99.9092C46.5986 100.268 47.122 100.706 47.907 100.959C48.7074 101.225 49.5233 101.477 50.3545 101.69C52.0015 102.115 53.5254 102.115 55.2186 102.128C56.019 102.141 56.7887 102.341 57.5891 102.341C58.3895 102.341 59.113 102.062 59.8826 101.982C61.1449 101.836 62.3917 101.929 62.8227 100.627C63.2229 99.4442 62.2993 98.5408 61.191 97.9695C60.7446 97.7304 60.2367 97.6108 59.7441 97.4248C59.6056 97.3717 59.4824 97.3052 59.3439 97.2521C59.2669 97.2255 59.2361 97.1724 59.2207 97.1458C59.2823 96.9997 59.5132 96.8137 59.6056 96.7074C60.2829 96.0564 61.5143 95.2991 61.1141 94.2894C60.8062 93.5188 59.9596 93.0007 59.0668 92.6287C59.3131 92.4294 59.4978 92.2035 59.5902 91.9245C59.8057 91.2602 59.4363 90.3701 59.0206 89.8121C58.7898 89.4932 58.4973 89.2275 58.1279 89.0415C58.0817 89.0149 57.9893 88.9618 57.8816 88.9087C57.9585 88.8555 58.0355 88.8157 58.0971 88.7758C58.5281 88.5765 58.9899 88.4304 59.3747 88.1514C60.5753 87.3144 60.6677 85.9725 59.544 85.0558C59.0822 84.6705 58.4973 84.4048 57.9278 84.1258C57.6969 84.0195 57.4506 83.9132 57.2351 83.7804C57.1889 83.7538 57.1273 83.7007 57.0657 83.6608C57.0965 83.6475 57.1273 83.6209 57.1581 83.6077C57.3736 83.4748 57.6199 83.3685 57.8508 83.2622C58.3741 83.0098 58.9129 82.7441 59.2977 82.3322C60.1289 81.4288 59.6518 80.2331 58.4973 79.7681C58.0047 79.5688 57.466 79.5024 56.958 79.3828C56.8964 79.3695 56.7271 79.3164 56.604 79.2765C56.6194 79.2632 56.6348 79.2499 56.6194 79.2499C57.4506 78.5724 58.7128 77.7619 59.0053 76.7655C59.2054 76.1278 58.9437 75.3572 58.2356 75.0384C57.7892 74.8258 57.2197 74.7859 56.7579 74.5999C56.3115 74.4139 55.8805 74.2811 55.3879 74.1881C55.1878 74.1482 54.9877 74.1217 54.7876 74.0818C54.6183 74.0419 54.4336 73.9091 54.4644 74.0021C54.3258 73.6567 55.1416 72.9658 55.3725 72.7532C56.1422 72.0358 57.0196 71.4247 57.4506 70.4947C57.6199 70.1359 57.4968 69.6842 57.0504 69.5248C55.9421 69.0997 54.7106 69.5514 53.587 69.6709C52.0631 69.8304 50.5854 70.2555 49.2 70.8268C47.8454 71.3848 46.6448 72.3015 45.5057 73.1252C44.1511 74.1084 42.9505 75.2377 41.6113 76.2341C39.0407 78.1472 37.0396 80.5121 34.4844 82.4252C33.8995 82.8637 33.2838 83.2888 32.6835 83.7272C32.2525 84.0328 31.6368 84.6705 31.0364 84.6838C30.7748 84.6838 30.4823 84.5509 30.2206 84.4978C29.882 84.4314 29.5279 84.3915 29.1739 84.3251C28.2811 84.1657 27.4037 83.9664 26.5571 83.6874C23.3554 82.6378 20.5539 81.0037 17.7062 79.3961C16.2131 78.5591 14.72 77.7885 13.1345 77.0977C11.626 76.4467 10.1637 75.6894 8.57825 75.1845C7.67007 74.8922 6.73111 74.3342 5.73057 74.3874C4.77622 74.4272 4.06814 75.2642 4.20668 76.1411ZM6.56179 75.9949C9.30171 76.9648 11.9801 78.0941 14.5507 79.3562C15.9976 80.0737 17.3676 80.9107 18.7991 81.6547C20.1999 82.3854 21.4929 83.2888 22.9552 83.9132C24.3867 84.5244 25.8952 85.0691 27.4345 85.4411C28.2041 85.6271 28.9738 85.7467 29.7588 85.8928C30.2976 85.9858 30.8055 86.1718 31.3751 86.1319C32.6373 86.0389 33.8225 84.8565 34.7307 84.1922C35.9314 83.3287 37.1166 82.4385 38.1633 81.4288C39.2562 80.3792 40.3183 79.3164 41.4882 78.3332C42.7196 77.3102 44.0588 76.3935 45.2748 75.3439C47.4298 73.4707 49.9081 71.7967 52.9559 71.2254C53.5408 71.1191 54.1565 71.0925 54.7414 70.9862C54.8646 70.9597 55.0185 70.9331 55.1724 70.8932C54.1565 71.8631 52.7558 72.6735 52.8173 74.0818C52.8481 74.7727 53.4023 75.2111 54.1257 75.4237C54.449 75.5167 54.7876 75.5698 55.1109 75.6362C55.6958 75.7558 56.1884 76.0348 56.7579 76.2075C56.9426 76.2607 57.3736 76.2739 57.4198 76.4068C57.4506 76.4998 57.1889 76.7389 57.1427 76.7921C56.7117 77.2571 56.1268 77.6158 55.6496 78.0409C54.8338 78.7717 54.4028 79.9275 55.6496 80.5254C56.0498 80.7247 58.1279 80.9239 58.0355 81.3889C57.9893 81.5882 57.3736 81.8407 57.1735 81.9469C56.6655 82.1994 56.1114 82.4119 55.6958 82.7839C54.6645 83.7007 55.588 84.6572 56.5886 85.1887C57.1889 85.5075 59.2977 86.1585 58.4203 86.9689C57.7892 87.5535 56.7733 87.6199 56.173 88.2842C55.6188 88.8821 55.7112 89.6261 56.5116 90.0247C56.8349 90.1841 57.2197 90.2505 57.466 90.4897C57.6507 90.6624 58.0047 91.2735 57.9585 91.5392C57.9585 91.5127 57.8508 91.6322 57.8046 91.6588C57.6045 91.7651 57.3274 91.8049 57.1273 91.9245C56.7271 92.1637 56.5578 92.5224 56.604 92.9342C56.6501 93.2929 56.9118 93.4922 57.2966 93.5985C57.8662 93.7579 58.4203 93.9307 58.8821 94.2628C59.0668 94.3957 59.2208 94.5551 59.4055 94.6879C59.4209 94.7012 59.4209 94.7012 59.4363 94.7012C58.9437 95.3522 58.0971 95.7774 57.6969 96.4948C57.2043 97.3849 57.6969 98.1555 58.6358 98.5939C59.3747 98.9394 60.6215 99.0855 61.0833 99.7764C61.345 100.162 61.0987 100.427 60.6523 100.467C60.0674 100.52 59.5132 100.52 58.9283 100.64C58.2972 100.773 57.743 100.919 57.0965 100.839C56.3577 100.76 55.6496 100.653 54.9107 100.653C53.4022 100.653 52.0631 100.6 50.6161 100.228C49.9696 100.069 49.3385 99.8694 48.7074 99.6568C48.3688 99.5505 48.0455 99.4575 47.7377 99.2848C47.4144 99.0988 47.1374 98.8597 46.7987 98.6869C46.106 98.3149 45.2902 98.0758 44.6129 97.6507C44.0126 97.2787 43.5354 96.8934 42.8428 96.6409C42.1347 96.3885 41.5959 95.8837 40.9648 95.5117C40.4876 95.2194 40.0105 94.9537 39.5333 94.6614C39.4871 94.3027 39.1946 93.9572 38.6559 93.9705C37.917 93.9838 37.209 93.7978 36.4855 93.6915C35.7005 93.5852 34.9 93.5587 34.0996 93.5587C32.6681 93.5587 31.2211 93.6517 29.8204 93.9439C26.865 94.5817 24.633 96.3487 22.3856 98.0227C21.2004 98.9128 19.8458 99.6568 18.7221 100.6C18.1372 101.092 17.66 101.676 17.1213 102.208C16.5518 102.766 15.8899 103.244 15.228 103.709C12.8267 105.396 9.979 106.977 6.962 107.668C5.65361 107.96 4.1605 108 2.83671 107.814C2.55964 107.774 2.31336 107.708 2.05168 107.628C1.99011 107.602 1.94393 107.602 1.91314 107.588C1.92854 107.509 2.02089 107.442 2.06707 107.376C2.51347 106.858 3.25232 106.499 3.86804 106.154C4.807 105.622 6.20775 105.024 6.66954 104.068C7.16211 103.058 6.05382 102.5 5.06868 102.314C4.51453 102.221 1.49754 101.982 2.20561 101.132C2.59043 100.667 3.36007 100.308 3.88343 99.9358C4.45297 99.5239 5.14564 99.1387 5.62282 98.6338C6.3155 97.9031 6.19236 96.9598 5.37653 96.3487C4.89936 95.9899 4.29904 95.7774 3.74489 95.5117C3.46782 95.3788 3.15996 95.2327 2.92907 95.0201C2.89828 94.9935 2.80593 94.9138 2.74436 94.8474C2.75975 94.8474 2.79054 94.8341 2.82132 94.8075C3.62175 94.3691 4.65307 94.3425 5.4535 93.8642C6.40786 93.3062 6.66954 92.3098 6.00764 91.4728C5.29957 90.5827 3.96039 90.1309 2.88289 89.6394C2.68279 89.5464 2.49807 89.5331 2.49807 89.4135C2.49807 89.2142 2.83671 88.9884 2.99064 88.8555C3.52939 88.4171 4.22207 88.2444 4.88397 87.9787C5.82293 87.6067 6.77729 86.9424 6.39246 85.9459C6.23854 85.5607 5.89989 85.2152 5.54586 84.9495C5.39193 84.8299 4.45297 84.2321 4.42218 84.3118C4.52993 84.0727 5.4535 84.0461 5.69979 84.0062C6.30011 83.9132 6.962 83.8202 7.37761 83.3818C8.37814 82.3057 7.05436 81.2561 5.93068 80.9107C5.82293 80.8841 5.36115 80.6582 5.05329 80.5387C5.11486 80.4988 5.17643 80.4722 5.16104 80.4722C5.40732 80.3527 5.669 80.2597 5.91528 80.1534C6.80807 79.7814 7.74703 79.2367 7.6085 78.2668C7.50075 77.5095 6.77729 77.0047 6.25393 76.4599C6.13079 76.3271 5.80753 76.0614 5.83832 75.8621C5.91528 75.7425 6.36168 75.9285 6.56179 75.9949Z" fill="#40352F"/>
<path d="M40.4107 91.9378C39.3024 91.3266 37.8863 91.1539 36.5933 91.0476C35.0078 90.9148 33.4069 90.9812 31.8061 90.9812C30.313 90.9812 29.0046 91.3001 27.6038 91.7252C26.2185 92.1504 24.7869 92.4294 23.417 92.8944C23.2015 92.8944 22.986 92.9608 22.8013 93.1202C22.7551 93.1601 22.6935 93.2132 22.6473 93.2531C22.0624 93.7579 22.8013 94.7145 23.5555 94.4222C23.7556 94.3425 23.9711 94.2761 24.1866 94.2096C24.3559 94.2628 24.5253 94.3159 24.6792 94.4089C24.8947 94.5285 25.064 94.6082 25.3257 94.6215C25.8183 94.6481 25.8183 93.9838 25.3257 93.9572C25.2795 93.9572 25.2333 93.9306 25.1871 93.9174C25.5258 93.8244 25.8644 93.7314 26.2031 93.6516C26.4494 93.8111 26.7264 93.9306 27.0189 93.9572C27.219 93.9705 27.4037 93.7978 27.4037 93.6251C27.4037 93.5188 27.3421 93.4391 27.2652 93.3726C27.4037 93.3328 27.5423 93.3062 27.6654 93.2664C27.7885 93.2265 27.9271 93.1866 28.0502 93.1601C28.4658 93.4922 28.9276 93.7978 29.4971 93.8509C29.9897 93.8908 29.9897 93.2265 29.4971 93.1866C29.2816 93.1734 29.0815 93.0272 28.9122 92.9076C29.0661 92.8678 29.2201 92.8279 29.3894 92.7881C29.4202 92.9475 29.5895 93.0405 29.7742 93.0538C29.6972 93.0538 29.8204 93.0671 29.8358 93.0803C29.8666 93.0936 29.8974 93.1069 29.9281 93.1202C30.0359 93.1734 30.1436 93.2265 30.236 93.2929C30.3899 93.3992 30.5439 93.5055 30.667 93.6383C30.9903 93.9572 31.529 93.4922 31.2058 93.1733C30.9903 92.9608 30.6978 92.7349 30.3745 92.5755C30.7594 92.5091 31.1596 92.4692 31.5906 92.4692C31.5752 92.5622 31.606 92.6552 31.7137 92.7349C32.037 92.9874 32.468 93.1335 32.7604 93.4125C33.0837 93.7313 33.6378 93.2663 33.2992 92.9475C33.0837 92.7349 32.8066 92.6021 32.5295 92.4559C32.8066 92.4559 33.0837 92.4426 33.3608 92.4426C33.607 92.6021 33.8841 92.7216 34.115 92.9076C34.4229 93.1468 34.6845 93.3593 35.1001 93.4125C35.5927 93.4656 35.5773 92.8013 35.1001 92.7482C34.9462 92.7349 34.7769 92.5888 34.6384 92.4559C35.0848 92.4559 35.5311 92.4825 35.9775 92.5091C36.1161 92.5223 36.2546 92.5224 36.3931 92.5356C36.4393 92.5755 36.5009 92.6153 36.5471 92.6419C36.7934 92.8013 37.1012 92.8811 37.3013 93.0803C37.5938 93.3726 38.0556 93.0139 37.917 92.7083C38.5328 92.8279 39.1177 93.0006 39.641 93.2796C40.6108 93.7579 41.3343 92.4294 40.4107 91.9378Z" fill="#40352F"/>
<path d="M38.0402 84.6705C37.7015 84.8964 37.3475 85.109 36.9935 85.3083C36.8088 85.2153 36.624 85.1488 36.4547 85.0425C36.193 84.8831 36.0083 84.7104 35.6697 84.6838C35.1771 84.644 35.1771 85.3083 35.6697 85.3481C35.5927 85.3481 35.7005 85.3747 35.7312 85.388C35.762 85.4013 35.7928 85.4278 35.8236 85.4411C35.916 85.5075 36.0083 85.574 36.1007 85.6271C36.1469 85.6537 36.193 85.667 36.2392 85.6935C35.9006 85.853 35.5465 86.0124 35.1925 86.1453C35.0232 86.0655 34.8692 85.9858 34.7153 85.8795C34.4382 85.7068 34.1766 85.574 33.8379 85.574C33.3454 85.574 33.3454 86.2383 33.8379 86.2383C34.038 86.2383 34.192 86.3578 34.3459 86.4641C33.9303 86.6103 33.5147 86.7431 33.0837 86.876C32.9144 86.783 32.7296 86.7033 32.5603 86.597C32.2986 86.4375 32.0831 86.2914 31.7445 86.2515C31.529 86.225 31.3597 86.4243 31.3597 86.5837C31.3597 86.783 31.5444 86.8893 31.7445 86.9158C31.8676 86.9291 32.0216 87.062 32.1293 87.1417C31.7445 87.248 31.3751 87.341 30.9903 87.4473C30.8055 87.3543 30.6516 87.1948 30.4977 87.0885C30.159 86.876 29.805 86.7033 29.451 86.5305C29.02 86.318 28.6351 86.8893 29.0661 87.1018C29.4202 87.2745 29.7896 87.4473 30.1129 87.6731C29.9743 87.713 29.8358 87.7395 29.6972 87.7794C29.5587 87.8193 29.4202 87.8458 29.2816 87.8591C29.0046 87.6731 28.7121 87.527 28.4196 87.3543C28.0194 87.1151 27.6346 86.8627 27.219 86.6368C26.8034 86.411 26.4186 86.9823 26.8342 87.2081C27.2036 87.4074 27.5576 87.62 27.9271 87.8458C27.9886 87.8857 28.0656 87.9255 28.1272 87.9654C27.8039 87.9787 27.4807 87.9654 27.1728 87.9388C27.1112 87.8857 27.0189 87.8325 26.9111 87.8325C26.788 87.8193 26.4955 87.4605 26.4186 87.3808C26.1569 87.155 25.8798 86.9158 25.6181 86.69C25.2641 86.3844 24.7254 86.8627 25.0794 87.155C25.3257 87.3675 25.5874 87.5801 25.8336 87.7927C25.7875 87.7794 25.7259 87.7794 25.6797 87.7661C25.5258 87.7395 25.3719 87.713 25.2025 87.6997C24.9101 87.5004 24.6176 87.3011 24.2944 87.1151C23.9557 86.9158 23.5709 86.8095 23.263 86.5704C22.8936 86.2781 22.3549 86.7564 22.7243 87.0354C22.986 87.248 23.2938 87.3675 23.6017 87.5137C23.5709 87.5137 23.5555 87.5137 23.5247 87.5137C23.34 87.5004 23.1091 87.527 22.8782 87.5403C22.5396 87.3675 22.2163 87.1683 21.9546 86.9025C21.6622 86.6235 21.2158 86.9557 21.3389 87.248C20.5539 87.1018 19.7996 87.992 20.5693 88.4835C21.1696 88.8688 21.7699 88.9884 22.5088 88.9751C23.3092 88.9618 24.0481 88.9884 24.8485 89.108C26.4186 89.3471 28.0194 89.5464 29.5895 89.2674C31.1904 88.9884 32.822 88.4835 34.3459 87.992C36.0083 87.4605 37.6092 86.7963 39.0099 85.8397C39.8257 85.3083 38.9022 84.086 38.0402 84.6705Z" fill="#40352F"/>
</svg>
