<svg xmlns="http://www.w3.org/2000/svg" width="99" height="57" fill="none" viewBox="0 0 99 57">
  <path fill="#40352F" d="M94.396 52.537c-.185-1.063-1.14-1.568-1.862-2.352-.34-.358-.478-.837-.632-1.262-.2-.558-.415-1.129-.446-1.714-.046-1.01.277-2.139.662-3.082.354-.89.923-1.767.847-2.737-.078-.877-.431-1.793-.955-2.55-1.2-1.768-3.294-2.419-5.572-2.047-1 .16-1.955.519-2.879.97-1.8-1.341-4.063-2.112-6.218-2.936-1.155-.438-2.063-1.102-3.279-1.421-1.185-.32-2.478-.598-3.725-.479-1.216.107-2.309.651-3.325 1.21-.415.225-.831.464-1.216.703-.446-.093-.8-.332-1.185-.53a13.135 13.135 0 0 0-1.616-.718c-1.016-.386-2.14-.532-3.233-.638-1.139-.106-2.355-.12-3.463.186-1.14.319-2.248.85-3.294 1.368-.986.492-1.94 1.023-2.817 1.634-1.124-1.209-2.817-1.966-4.557-2.325a11.196 11.196 0 0 0-3.124-.225c-.508.04-1.016.133-1.524.199-.74.08-1.493 0-2.248.106-1.339.186-2.74.585-3.97 1.05a4.594 4.594 0 0 0-.647.305c-.832-.57-1.832-.903-2.648-1.5-.831-.612-1.801-1.01-2.832-1.33a10.001 10.001 0 0 0-3.664-.438c-1.154.08-2.386.146-3.525.332-1.77.292-3.432 1.156-4.94 2.073a.931.931 0 0 0-.401-.053c-.523.04-1.047-.28-1.6-.306-.54-.026-1.094.04-1.648.04-1.2.013-2.263.2-3.402.505-1.955.518-4.11 1.142-5.51 2.484-.678.651-1.247 1.475-1.524 2.325-.293.917 0 1.78.461 2.617.924 1.701 2.54 2.79 4.08 4.026a.673.673 0 0 1-.108.08c-.477.372-.924.757-1.447 1.102-1.016.651-2.063 1.29-2.97 2.073-1.078.93-2.649 2.245-2.294 3.707.184.757.877 1.328 1.677 1.66 1.078.452 2.217.213 3.31-.066 2.032-.531 4.156-1.142 6.08-1.993.139.093.293.16.477.186.123.173.247.372.308.439.308.318.662.584 1.047.837.816.531 1.74 1.076 2.694 1.395 2.031.664 3.956.172 5.833-.572.955-.385 1.91-.73 2.725-1.342.462-.345.846-.744 1.247-1.129.107.16.277.266.446.32.647.584 1.17 1.221 2.017 1.673 1 .532 2.155.81 3.31.864 1.261.066 2.539-.133 3.77-.372 1.186-.226 2.386-.439 3.556-.705 1.493-.332 2.817-1.036 4.064-1.82.046.08.108.16.184.226.647.545 1.401.97 2.233 1.289.846.332 1.754.744 2.662.917 2.002.398 4.157-.226 6.019-.85a26.816 26.816 0 0 0 4.064-1.754c.37.744.77 1.527 1.508 2.046.785.558 1.863.757 2.802 1.023 1.077.319 2.263.225 3.386.186 1.093-.04 2.109-.293 3.11-.678a20.832 20.832 0 0 0 3.986-2.099.7.7 0 0 0 .185.173c.554.677 1.478 1.222 2.293 1.58 1.124.492 2.448.612 3.664.785 1.432.199 2.832.372 4.28.465 1.308.08 2.57.465 3.863.664 2.324.372 4.88.372 6.511-1.329.677-.717 1.093-1.58.939-2.47ZM79.542 37.272c.862.372 1.709.784 2.478 1.288-.43.253-.846.505-1.262.744a.282.282 0 0 0-.123-.159c-.955-.69-1.601-1.62-2.463-2.391-.016-.014-.046-.027-.062-.04.493.172.97.358 1.432.558Zm-66.205-1.794c.447-.013.94-.093 1.386 0 .03 0 .061.014.092.027-.37.305-.723.65-1.047.996-.246-.385-.693-.677-1.077-.983.215-.026.43-.04.646-.04Zm-2.801.292c.492-.132.97-.186 1.447-.225-.062.106-.046.239.077.358.215.186.446.333.662.519.184.146.43.345.461.584 0 .04.016.066.031.106a8.824 8.824 0 0 0-.662.864c-.23-.332-.57-.624-.831-.957a8.952 8.952 0 0 0-1.185-1.248Zm-5.85 5.992c-.446-.69-.862-1.434-.538-2.218a4.53 4.53 0 0 1 1.477-1.887c1.155-.863 2.694-1.315 4.172-1.687 0 .066.046.133.108.2.415.358.815.743 1.139 1.168.261.346.739.691.908 1.076.03.08.092.133.17.173-.247.385-.478.784-.74 1.182-.307.465-.6.93-.877 1.395-.37-.159-.462-.57-.631-.863a4.366 4.366 0 0 0-.585-.824c-.57-.65-1.293-1.195-1.863-1.846-.292-.333-.97 0-.662.332.693.797 1.647 1.448 2.232 2.311.37.558.493 1.17 1.155 1.475-.185.319-.37.638-.554.97 0-.013-.016-.027-.016-.04-.277-.531-.785-.917-1.216-1.368-.523-.545-1.046-1.103-1.616-1.621-.339-.306-.893.16-.539.465.524.465 1 .956 1.463 1.461.43.452.97.85 1.246 1.395.093.186.293.213.462.133-.123.253-.261.518-.385.784-.43-.306-.785-.877-1.154-1.182-.585-.465-1.493-1.037-1.57-1.768-.046-.425-.816-.425-.77 0 .108.904.924 1.542 1.663 2.126.508.412.923 1.05 1.508 1.422-.123.172-.246.345-.385.491-1.323-1.023-2.724-1.913-3.602-3.255Zm86.986 12.675c-.832.558-1.848.651-2.864.598-1.308-.067-2.57-.372-3.848-.611-1.339-.253-2.678-.24-4.017-.439-1.34-.199-2.694-.332-4.018-.598-1-.212-2.324-.823-2.832-1.647-.016-.027-.046-.053-.062-.08l.493-.385c.03-.027.077-.053.108-.093.461.505.892 1.023 1.462 1.448.37.28.924-.186.539-.465-.57-.412-1-.93-1.447-1.422.292-.225.585-.438.877-.664.108.24.293.425.539.611.43.333.662.771 1.031 1.143.323.319.862-.146.539-.465-.293-.306-.477-.678-.8-.957-.216-.186-.616-.372-.632-.664a.346.346 0 0 0-.03-.133 14.2 14.2 0 0 1 .57-.385c.753.837 1.63 1.581 2.508 2.338.354.306.893-.16.539-.465-.831-.73-1.693-1.461-2.432-2.272.17-.106.339-.212.508-.305.462.385.908.784 1.247 1.262.323.452.585.903 1.062 1.249.37.279.923-.186.538-.465-.523-.399-.77-.93-1.154-1.408-.308-.372-.662-.691-1.031-1.01.246-.133.492-.266.754-.399.4.452.785.904 1.139 1.369.385.505.708 1.036 1.324 1.355.215.106.508.013.57-.2.015-.066.03-.119.045-.185.093-.306-.276-.479-.523-.386-.462-.372-.77-.943-1.123-1.368-.262-.306-.508-.611-.77-.904.138-.066.277-.133.43-.186.632.598 1.17 1.25 1.632 1.953.34.505.77 1.143 1.524 1.143a.334.334 0 0 0 0-.664c-.57 0-1-1.063-1.262-1.422a11.153 11.153 0 0 0-1.17-1.315c.324-.133.647-.253.986-.359.584.598 1.2 1.21 1.693 1.86.323.438.615.89 1.2 1.09.462.159.662-.479.2-.638-.477-.173-.754-.837-1.062-1.183a58.05 58.05 0 0 0-1.277-1.381c.108-.027.2-.067.308-.093.23-.067.477-.16.723-.226.493.77 1.016 1.886 2.032 2.205.462.146.662-.505.2-.638-.416-.132-.724-.624-.939-.93-.185-.252-.339-.518-.508-.77h.185c.646.026 1.2.292 1.862.24 1.078-.08 1.093-1.542 0-1.462-.646.04-1.231-.24-1.862-.24-.647-.013-1.293.16-1.894.346-1.293.385-2.57.824-3.77 1.382-2.51 1.156-4.588 2.71-6.681 4.357-1.032.81-2.232 1.528-3.433 2.166-1.185.624-2.478 1.209-3.879 1.289-.693.04-1.431.08-2.14.026-.677-.04-1.277-.279-1.908-.452-.6-.159-1.14-.318-1.524-.77-.354-.412-.57-.904-.8-1.368-.016-.014-.016-.027-.031-.054.2-.12.384-.239.585-.358.384.584.877 1.169 1.693 1.222.492.04.492-.624 0-.664-.508-.04-.847-.572-1.078-.957.277-.186.54-.372.8-.558.262.385.632.73.94 1.023.338.319.877-.16.538-.465-.277-.266-.661-.611-.892-.983.138-.106.277-.213.415-.332.247.252.57.478.847.717.354.306.893-.172.539-.465-.216-.186-.6-.412-.862-.677.23-.186.446-.359.661-.558.77-.665-.415-1.7-1.2-1.037-2.448 2.086-5.264 3.893-8.435 5.062-1.555.572-3.448 1.21-5.157 1.076-.877-.066-1.709-.451-2.494-.744-.77-.292-1.493-.637-2.093-1.142-.015-.014-.046-.027-.062-.04.247-.16.508-.332.755-.478.2-.133.415-.266.615-.399.077.053.154.12.231.186.185.146.431.345.462.585.046.425.816.425.77 0-.047-.505-.431-.85-.847-1.17.139-.093.262-.186.4-.279l.708.612c.354.305.893-.173.54-.465l-.647-.558c.2-.146.415-.293.6-.465.154.133.292.279.308.465.046.425.816.425.77 0-.047-.412-.309-.718-.616-.983.138-.213.23-.452.246-.731.061-.944-1.632-.944-1.693 0 .015-.133-.077.08-.123.133-.123.12-.262.225-.4.332-.262.2-.555.385-.847.558-.708.451-1.386.93-2.094 1.368-1.631 1.01-3.232 2.192-5.233 2.591-1.97.398-4.064.97-6.096.983-1.062.013-2.093-.186-3.001-.678-.847-.451-1.293-1.169-2.017-1.74-.03-.013-.046-.04-.077-.053.339-.252.662-.505.985-.77l1.216 1.049c.354.305.893-.173.54-.465l-1.186-1.023c.262-.213.539-.425.8-.638.247.28.493.545.77.81.339.32.877-.159.539-.464a13.63 13.63 0 0 1-.755-.797c.17-.133.34-.28.493-.412.277.425.554.863 1.124.956.477.08.692-.558.2-.638-.308-.053-.524-.465-.662-.677-.03-.04-.062-.08-.077-.12.339-.292.693-.584 1.031-.877.77-.664-.43-1.7-1.2-1.036-1.555 1.342-3.125 2.684-4.803 3.92-.739.531-1.354 1.115-2.001 1.727-.693.65-1.462 1.076-2.386 1.448-1.662.664-3.386 1.368-5.233.69-.847-.318-1.755-.85-2.463-1.368-.324-.252-.54-.61-.8-.93.384-.226.738-.465 1.092-.73.108.185.185.398.277.597.185.346.57.598.724.957.169.398.923.226.739-.173-.2-.465-.647-.784-.863-1.235a4.323 4.323 0 0 0-.307-.572c.261-.212.523-.438.785-.65.138.185.277.371.43.544.262.292.586.638 1.032.73.477.094.693-.544.2-.637-.308-.066-.554-.412-.739-.624-.138-.16-.246-.332-.37-.505.216-.186.416-.372.616-.558.108.106.231.212.34.332.215.226.569.571.584.877.015.425.785.425.77 0-.016-.425-.323-.81-.616-1.13-.17-.186-.354-.372-.539-.558.154-.146.339-.305.524-.478.107.08.23.173.323.253.185.146.43.345.462.584.046.425.816.425.77 0-.062-.558-.509-.916-.97-1.262l.184-.08c1-.372.139-1.62-.862-1.262-.754.28-1.447 1.05-2 1.555-.801.73-1.617 1.448-2.494 2.112-1.57 1.21-3.54 1.873-5.48 2.524-.94.32-1.909.585-2.863.837-.862.226-2.232.598-2.802-.305-.57-.89 1.54-2.392 2.17-2.883.832-.665 1.77-1.196 2.663-1.794.786-.518 1.509-1.116 2.263-1.674.724-.531 1.155-1.249 1.54-1.98.446-.823.877-1.647 1.339-2.457.492-.85 1.062-1.66 1.539-2.511.462-.81 1.108-1.541 1.786-2.232 1.262-1.289 3.109-2.299 4.848-3.043 1.124-.478 2.232-.57 3.464-.69 1.17-.12 2.37-.293 3.525-.067 1.123.213 2.34.624 3.232 1.262.447.32.847.625 1.355.864.37.172.754.332 1.108.531-.277.213-.554.425-.847.638-.354-.598-.877-1.116-1.431-1.581-.354-.306-.893.173-.539.465.523.452 1.047.943 1.355 1.528-.308.2-.585.398-.862.624-.308-.624-.94-1.076-1.493-1.554-.354-.306-.893.172-.54.465.555.478 1.232.916 1.417 1.594l-.723.624a2.728 2.728 0 0 0-.216-.199c-.2-.186-.339-.412-.492-.624a6.733 6.733 0 0 0-.97-1.076c-.354-.306-.893.172-.539.465.37.319.662.664.924 1.036.123.16.23.332.369.478.123.133.262.24.385.372l-.2.173a7.512 7.512 0 0 1-.678.478 5.545 5.545 0 0 0-.538-.77c-.247-.28-.755-.572-.816-.944-.062-.411-.831-.425-.77 0 .062.412.308.705.631.997.339.319.662.704.878 1.116a1.64 1.64 0 0 0-.185.133c-.2.146-.385.305-.57.478-.461-.518-.8-1.13-1.323-1.634-.339-.319-.878.16-.54.465.54.505.863 1.142 1.355 1.674-.107.12-.23.239-.354.345-.076.08-.169.16-.261.24a6.102 6.102 0 0 0-.416-.519c-.23-.266-.585-.571-.616-.916-.03-.426-.8-.426-.77 0 .062.823.94 1.235 1.248 1.94-.216.199-.4.424-.57.663-.03.04-.046.08-.077.12-.185-.173-.385-.359-.554-.545-.431-.451-.585-1.023-.862-1.54-.2-.386-.862-.054-.662.331.262.492.416 1.023.8 1.475.262.319.585.585.893.877a4.244 4.244 0 0 1-.554.624l-.338.293c-.2-.2-.416-.386-.6-.598-.524-.572-1.186-1.116-1.34-1.86-.077-.425-.831-.24-.739.173.123.61.554 1.116 1 1.58.216.24.432.479.663.705.138.16.338.305.492.465-.6.544-1.123 1.142-1.262 1.9-.17.916 1.462 1.315 1.632.385.169-.864 1.046-1.422 1.708-2.02.724-.65 1.078-1.514 1.77-2.165.8-.73 1.494-1.568 2.432-2.153 1.016-.637 1.832-1.421 2.725-2.178.923-.784 2.032-1.382 2.986-2.153.985-.783 2.186-1.089 3.433-1.408.6-.16 1.2-.319 1.816-.372.662-.066 1.324.027 1.97-.066.893-.12 1.709-.226 2.617-.16 1.832.133 3.833.758 4.972 2.06-.508.425-.985.89-1.431 1.368-.647-.585-.909-1.408-1.632-1.953-.37-.279-.924.186-.539.465.754.558 1 1.421 1.693 2.006-.277.332-.57.651-.862.983-.123-.279-.338-.531-.585-.77-.4-.399-1.077-.824-1.139-1.395-.046-.425-.815-.425-.77 0 .062.518.37.916.755 1.302.385.385 1.062.81 1.093 1.355 0 .08.03.133.077.186-.2.226-.385.452-.57.69a.744.744 0 0 0-.123.173c-.323-.319-.554-.69-.8-1.063-.262-.385-.693-.73-.893-1.129-.185-.385-.924-.226-.739.173.231.478.662.85.97 1.289.292.438.57.877.985 1.248a.33.33 0 0 0 .092.054c-.215.332-.4.664-.6.996-.015 0-.015-.013-.03-.013-.416-.133-.755-.625-.97-.93-.247-.332-.54-.744-.585-1.143-.047-.425-.816-.425-.77 0 .062.558.416 1.103.77 1.568.307.412.692.864 1.216 1.09a6.638 6.638 0 0 1-.385.504 1.511 1.511 0 0 1-.139.146 11.244 11.244 0 0 1-1.678-2.418c-.2-.385-.862-.053-.661.333.492.93 1.092 1.806 1.831 2.603-.37.333-.754.638-1.17.944-.092-.292-.307-.545-.57-.77-.338-.306-.877-.625-.923-1.077-.046-.425-.816-.425-.77 0 .047.452.309.797.663 1.116.292.28.862.598.877 1.01 0 .066.03.133.062.172-.262.173-.508.346-.77.519-.616-.651-.955-1.462-1.724-2.006-.385-.266-.924.199-.539.465.739.518 1.093 1.315 1.678 1.953-.2.146-.385.292-.57.438-.415-.478-.584-1.196-1.354-1.355-.477-.093-.693.544-.2.637.261.054.415.333.538.532.154.226.293.452.478.664a6.73 6.73 0 0 0-.616.664c-.631.771.847 1.502 1.462.744 1.247-1.527 3.248-2.404 4.726-3.733.785-.69 1.308-1.514 1.832-2.365.554-.903 1.246-1.66 1.94-2.484.723-.85 1.37-1.74 2.216-2.498.862-.77 1.847-1.421 2.878-2.006 1.863-1.05 3.895-2.126 6.188-2.06 1.14.027 2.401.16 3.463.545.709.253 1.401.731 2.125 1.05-.062.053-.108.106-.17.173-.354.398-.692.797-1.016 1.209.031-.093 0-.2-.107-.292l-1.847-1.595c-.355-.305-.893.173-.54.465l1.848 1.594a.4.4 0 0 0 .477.04c-.323.425-.646.837-.954 1.276-.416-.359-.878-.691-1.247-1.09-.292-.319-.523-.624-.97-.77-.462-.16-.662.491-.2.638.339.106.57.544.8.757.37.358.786.677 1.186 1.01l.03.026c-.23.332-.461.651-.692.983-.216-.438-.754-.664-1.078-1.102-.338-.452-.646-1.024-1.37-1.01-.492.013-.492.677 0 .664.4-.013.632.585.816.824.246.305.924.571.955.97a.317.317 0 0 0 .23.279c-.138.199-.292.398-.43.597-.57-.491-1.14-.97-1.54-1.58-.246-.373-.908-.04-.662.332.462.704 1.124 1.262 1.786 1.82-.139.186-.277.372-.431.558-.739-.598-1.57-1.103-2.294-1.727-.354-.306-.892.172-.538.465.754.65 1.631 1.169 2.4 1.806l-.6.718c-.8-.545-1.508-1.17-2.124-1.873-.292-.333-.97 0-.661.332.677.77 1.462 1.461 2.34 2.072l-.694.837c-.03-.491-.492-.81-.938-1.076-.4-.239-1.34-.571-1.232-1.102.092-.412-.646-.598-.739-.173-.138.611.231 1.05.785 1.395.4.252 1.386.571 1.355 1.076-.015.213.185.319.385.319-.262.266-.57.518-.878.757-.092-.372-.384-.65-.739-.89-.354-.252-1.062-.531-1.077-.983-.016-.425-.785-.425-.77 0 .016.491.37.837.8 1.13.37.252 1.047.53 1.047.995 0 .093.031.16.093.213-.37.252-.755.518-.955.89-.446.85 1.016 1.594 1.463.744.184-.345.692-.584 1.031-.837.416-.305.816-.61 1.17-.97.816-.81 1.478-1.753 2.217-2.63 1.57-1.86 2.863-3.88 4.356-5.78.63-.81 1.154-1.7 2.078-2.298.892-.558 1.862-1.13 2.863-1.528 1.077-.425 2.186-.305 3.294-.066a12.32 12.32 0 0 1 1.585.412c.554.186 1 .558 1.524.81a23.74 23.74 0 0 0 2.201.877c-.308-.053-.63.319-.338.571.862.77 1.508 1.7 2.463 2.392.015.013.046.026.061.04-.015.013-.03.013-.03.026-.216.12-.432.252-.632.372-.015-.04-.046-.066-.077-.106-.492-.439-.939-.917-1.416-1.369-.415-.385-.939-.637-1.354-1.023-.339-.319-.878.16-.54.465.401.386.94.651 1.355 1.023.493.452.924.93 1.417 1.369.015.013.015.013.03.013-.862.571-1.677 1.182-2.509 1.78-1.216.877-2.2 1.967-3.355 2.897a.35.35 0 0 0-.339-.213c-.523-.026-.723-.638-.939-.97-.246-.345-.585-.637-.862-.956.108-.226-.092-.545-.446-.465l-.2.04c-.231.053-.355.305-.231.491.2.28.43.505.677.757.277.28.446.558.662.877.277.439.616.797 1.185.877-.354.292-.693.598-1.031.917-.262-.24-.57-.465-.816-.691a41.28 41.28 0 0 0-1.447-1.289c-.354-.305-.893.173-.539.465.447.386.893.758 1.309 1.156.2.2.4.385.615.585.108.093.231.186.339.279-.4.385-.816.77-1.216 1.156-.015.013-.03.04-.062.053 0-.08-.03-.173-.107-.24-.755-.664-1.186-1.94-2.325-2.205-.477-.12-.677.532-.2.638.462.106.8.638 1.062.956.293.372.57.758.924 1.076.092.08.2.107.292.093-.307.266-.63.532-.97.784a.564.564 0 0 0-.184-.106c-.354-.093-.662-.584-.847-.824-.261-.319-.508-.664-.83-.943-.34-.306-.894.16-.54.465.37.332.647.757.97 1.116.231.266.477.558.816.73-.493.32-.985.599-1.385 1.01-.709.718.492 1.754 1.2 1.037.708-.718 1.74-1.236 2.555-1.86.924-.718 1.694-1.581 2.54-2.365.893-.81 1.863-1.555 2.756-2.365.846-.784 1.677-1.528 2.647-2.192 1.801-1.276 3.679-2.392 5.634-3.48a.896.896 0 0 0 .57-.306c1.554-.798 3.648-1.568 5.264-.612.708.425 1.2 1.103 1.478 1.794.338.81.369 1.435.046 2.245-.693 1.661-1.478 3.428-1.155 5.235.154.93.477 1.993 1.016 2.816.462.704 1.463 1.143 1.801 1.887.185.77-.477 1.528-1.124 1.953Z"/>
  <path fill="#40352F" d="M11.475 39.291c-.508-1.142-1.586-1.966-2.556-2.803-.354-.306-.892.173-.538.465.877.744 1.908 1.501 2.37 2.511.154.398.893.226.724-.173Zm63.511 4.863c-.2-.492-.632-.944-1.032-1.329-.384-.385-.83-.85-1.4-1.023a.335.335 0 0 0-.2.638c.415.133.784.585 1.061.85.293.306.678.665.832 1.037.154.411.892.239.739-.173Zm1.739-1.474c-.677-.586-1.94-1.263-2.047-2.153-.046-.425-.816-.425-.77 0 .139 1.156 1.385 1.873 2.263 2.63.37.293.908-.172.554-.478Zm.924-.798c-.54-.545-.97-1.17-1.34-1.807-.23-.412-.461-.77-.985-.943a.335.335 0 0 0-.2.638c.416.132.647.85.847 1.155.338.505.692.984 1.139 1.422.323.332.862-.146.539-.465ZM93.596 9.69c1.016-.65 2.062-1.288 2.97-2.072 1.078-.93 2.648-2.245 2.294-3.707-.185-.757-.877-1.328-1.678-1.66-1.077-.452-2.216-.213-3.31.066-2.031.532-4.155 1.143-6.08 1.993a1.126 1.126 0 0 0-.477-.186c-.123-.173-.246-.372-.308-.438a6.007 6.007 0 0 0-1.046-.837c-.816-.532-1.74-1.077-2.694-1.395-2.032-.665-3.956-.173-5.834.57-.954.386-1.909.732-2.725 1.343-.461.345-.846.744-1.246 1.129a.843.843 0 0 0-.447-.319c-.646-.584-1.17-1.222-2.016-1.674-1-.531-2.155-.81-3.31-.863-1.262-.067-2.54.132-3.77.372-1.186.225-2.387.438-3.557.704-1.493.332-2.817 1.036-4.063 1.82a.887.887 0 0 0-.185-.226 7.742 7.742 0 0 0-2.232-1.289c-.847-.332-1.755-.744-2.663-.916-2.001-.399-4.156.225-6.019.85a26.812 26.812 0 0 0-4.063 1.754c-.37-.744-.77-1.528-1.509-2.046-.785-.558-1.862-.758-2.801-1.023-1.078-.32-2.263-.226-3.387-.186-1.093.04-2.108.292-3.11.677a20.834 20.834 0 0 0-3.986 2.1.7.7 0 0 0-.184-.173c-.555-.678-1.478-1.223-2.294-1.581-1.124-.492-2.447-.612-3.664-.784-1.431-.2-2.832-.372-4.279-.465-1.308-.08-2.57-.465-3.863-.665C9.735.191 7.18.191 5.548 1.892c-.661.678-1.077 1.541-.923 2.431.185 1.063 1.139 1.568 1.862 2.352.339.359.478.837.631 1.262.2.558.416 1.13.447 1.714.046 1.01-.277 2.139-.662 3.082-.354.89-.924 1.767-.847 2.737.077.877.431 1.793.955 2.55 1.2 1.768 3.294 2.419 5.572 2.047 1-.16 1.955-.518 2.878-.97 1.801 1.342 4.064 2.112 6.22 2.936 1.154.438 2.062 1.103 3.278 1.422 1.185.319 2.478.598 3.725.478 1.216-.106 2.309-.651 3.325-1.209a24.43 24.43 0 0 0 1.216-.704c.446.093.8.332 1.185.531a13.21 13.21 0 0 0 1.616.718c1.016.385 2.14.531 3.233.637 1.139.107 2.355.12 3.463-.186 1.14-.319 2.247-.85 3.294-1.368.985-.492 1.94-1.023 2.817-1.634 1.124 1.209 2.817 1.966 4.556 2.325 1.016.212 2.078.305 3.125.226.508-.04 1.016-.133 1.524-.2.739-.08 1.493 0 2.247-.106 1.34-.186 2.74-.585 3.972-1.05a4.69 4.69 0 0 0 .646-.305c.831.571 1.832.903 2.648 1.501.831.611 1.8 1.01 2.832 1.329 1.2.372 2.386.518 3.664.438 1.154-.08 2.386-.146 3.525-.332 1.77-.292 3.432-1.156 4.94-2.073a.93.93 0 0 0 .4.054c.524-.04 1.048.279 1.602.305.538.027 1.093-.04 1.647-.04 1.2-.013 2.263-.199 3.402-.505 1.954-.518 4.11-1.142 5.51-2.484.678-.65 1.247-1.475 1.524-2.325.293-.917 0-1.78-.462-2.617-.923-1.7-2.54-2.79-4.079-4.026.031-.026.062-.053.108-.08.462-.345.908-.73 1.432-1.062Zm.738 5.395c.447.69.862 1.434.54 2.218a4.53 4.53 0 0 1-1.478 1.887c-1.355 1.023-3.233 1.448-4.91 1.886-.955.24-1.833.266-2.802.306-.447.013-.94.093-1.386 0a.235.235 0 0 1-.092-.027c.492-.398.939-.85 1.355-1.328.03.026.046.066.076.093.154.2.293.398.462.584.323.32.878-.146.539-.465-.23-.225-.4-.518-.616-.744.108-.132.216-.279.323-.411.54.345 1.155.584 1.601 1.023.324.319.878-.146.54-.465-.493-.479-1.186-.731-1.756-1.13.17-.265.339-.531.508-.81a.37.37 0 0 0 .277.12c.123 0 .508.279.678.411.138.107.261.213.385.332.046.04.092.08.123.133.015.014.092.146.061.08.17.399.908.226.74-.173-.14-.345-.509-.637-.832-.877-.308-.225-.677-.518-1.093-.558l.046-.08c.154-.225.293-.45.431-.677.616.399 1.216.81 1.724 1.316.323.318.862-.147.539-.465-.554-.545-1.231-1.01-1.909-1.435l.508-.837c.662.465 1.37.876 2.017 1.355.369.279.923-.186.538-.465-.662-.492-1.4-.917-2.078-1.395a.313.313 0 0 0-.154-.067c.062-.12.123-.226.185-.345a9.35 9.35 0 0 0 .385-.757c.015 0 .015.013.015.013.016.013.031.04.047.04 0 .013.015.013.015.026v.014c0 .013 0 .013.015.026-.046.133-.015.293.17.372.6.293 1.046.731 1.539 1.143.354.305.893-.173.539-.465-.478-.412-.94-.837-1.509-1.143 0-.04 0-.066-.015-.106-.077-.213-.231-.345-.416-.478-.03-.014-.061-.04-.092-.053.17-.306.37-.598.6-.85 1.34.982 2.74 1.886 3.617 3.228ZM90.04 10.38c-.724.532-1.155 1.25-1.54 1.98-.446.824-.877 1.647-1.339 2.458-.492.85-1.062 1.66-1.539 2.511-.462.81-1.108 1.541-1.785 2.232-1.263 1.289-3.11 2.298-4.85 3.042-1.123.479-2.231.572-3.463.691-1.17.12-2.37.292-3.525.067-1.123-.213-2.34-.625-3.232-1.262-.447-.32-.847-.625-1.355-.864-.37-.173-.754-.332-1.108-.532.323-.252.647-.491.985-.73.616.491 1.34.85 1.986 1.302.385.265.923-.2.539-.465-.616-.439-1.309-.797-1.91-1.249.309-.213.617-.439.894-.678.446.32.939.572 1.323.957.293.279.555.518 1.032.545.492.026.492-.638 0-.665-.277-.013-.508-.398-.693-.544-.338-.28-.739-.492-1.093-.744.354-.306.708-.625 1.078-.93.061.053.138.08.246.093.308 0 .631.385.816.558.261.239.492.505.754.744.339.305.893-.16.539-.465-.493-.425-1-1.196-1.724-1.422.37-.252.754-.478 1.124-.73.492.411 1.139.637 1.662 1.036.37.279.924-.186.539-.465-.508-.386-1.17-.625-1.663-1.023.308-.293.57-.598.878-.89l.03-.027c.154.146.308.292.493.438.277.213.616.346.862.585.323.319.877-.146.539-.465-.277-.266-.662-.425-.97-.664l-.416-.359c.247-.226.493-.465.693-.73.462.318.893.663 1.293 1.035.339.306.893-.159.539-.465a16.128 16.128 0 0 0-1.447-1.142 6.42 6.42 0 0 1 .57-.73c.6.49 1.092 1.208 2 1.235.493.013.493-.651 0-.665-.384-.013-.754-.398-1-.61a13.057 13.057 0 0 0-.477-.426c.2-.172.4-.345.585-.518.277.213.585.399.816.651.261.319.523.571 1 .585.493.013.493-.651 0-.665-.262 0-.462-.425-.631-.57-.216-.187-.446-.333-.677-.506.354-.398.63-.837.738-1.355.17-.917-1.462-1.315-1.631-.385-.17.863-1.047 1.421-1.709 2.02-.723.65-1.077 1.514-1.77 2.165-.8.73-1.493 1.567-2.432 2.152-1.016.638-1.832 1.422-2.725 2.179-.923.784-2.031 1.382-2.986 2.152-.985.784-2.186 1.09-3.432 1.409-.6.159-1.201.318-1.817.371-.662.067-1.324-.026-1.97.067-.893.12-1.709.226-2.617.16-1.831-.134-3.833-.758-4.972-2.06a8.63 8.63 0 0 0 .662-.598c.647.399 1.232.877 1.847 1.329.37.279.924-.2.54-.465-.632-.452-1.217-.944-1.879-1.355.154-.16.308-.32.447-.492.046-.053.092-.093.123-.146.692.505 1.554.85 2.155 1.475.323.332.862-.146.538-.465-.615-.638-1.523-.983-2.231-1.528.169-.2.354-.399.523-.598.739.638 1.632 1.13 2.324 1.807.324.319.878-.146.539-.465-.724-.704-1.647-1.21-2.401-1.873l.6-.718c.339.226.616.505.908.77.462.413 1 .731 1.509 1.09.37.28.923-.186.538-.465-.554-.398-1.123-.757-1.616-1.209-.292-.266-.57-.531-.908-.744.092-.12.17-.252.246-.372.77.505 1.555.983 2.202 1.608.338.319.877-.146.538-.465-.693-.665-1.554-1.183-2.386-1.728.154-.252.308-.518.478-.757.63.518 1.385.89 2.047 1.369.385.265.923-.2.538-.465-.708-.505-1.523-.904-2.17-1.475.016-.027.046-.053.062-.08.23-.279.492-.531.754-.77.308.172.6.531.846.677.231.146 1.001.399 1.001.678 0 .425.77.425.77 0 .015-.625-.755-.877-1.247-1.17-.308-.185-.554-.438-.847-.637.339-.266.693-.505 1.047-.757.215.146.4.425.554.558.37.319.816.558 1.216.85.37.279.924-.186.539-.465-.477-.345-1.016-.624-1.416-1.05a2.97 2.97 0 0 0-.308-.292c.385-.266.77-.531 1.139-.81.431.385.985.65 1.431 1.023.355.305.893-.173.54-.465-.432-.372-.986-.638-1.417-1.01.339-.292.662-.611.94-.957.63-.77-.847-1.5-1.463-.744C58.7 8.973 56.699 9.85 55.22 11.18c-.785.69-1.308 1.514-1.832 2.364-.554.904-1.246 1.661-1.94 2.485-.722.85-1.369 1.74-2.216 2.498-.862.77-1.847 1.421-2.878 2.006-1.863 1.05-3.894 2.125-6.188 2.06-1.14-.027-2.401-.16-3.463-.546-.709-.252-1.401-.73-2.125-1.05.062-.052.108-.105.17-.172.138-.16.277-.319.4-.465.477.505 1 1.103 1.755 1.13.492.013.492-.652 0-.665-.308-.013-.647-.385-.832-.571-.154-.146-.307-.306-.461-.452.2-.252.4-.505.585-.757.215.212.4.425.615.637.277.28.647.479.97.718.37.279.924-.2.539-.465-.323-.24-.693-.439-.97-.718-.246-.239-.477-.504-.723-.744.169-.225.338-.451.492-.69.246.212.477.451.739.677.4.346.862.625 1.308.944.385.265.924-.2.54-.465-.478-.346-1.001-.651-1.417-1.05a16.59 16.59 0 0 0-.754-.664c.184-.253.354-.505.539-.758.661.532 1.385.997 2.016 1.555.354.305.893-.173.539-.465-.677-.585-1.463-1.09-2.155-1.66.184-.267.37-.519.57-.785.092.067.2.12.292.173.554.305.97.744 1.431 1.143.354.305.893-.173.539-.466-.4-.345-.77-.73-1.216-1.036-.139-.093-.477-.226-.647-.372.185-.252.385-.505.585-.757.6.505 1.324.877 1.894 1.421.323.32.877-.146.539-.465-.585-.57-1.37-.956-1.986-1.514.184-.226.385-.452.57-.69.6.411 1.2.823 1.785 1.261.37.28.924-.186.539-.465-.616-.465-1.247-.89-1.878-1.328l.477-.572a.19.19 0 0 0 .046-.053c.293.24.585.585.785.744.416.332.862.758 1.462.784.493.027.493-.638 0-.664-.446-.027-1.092-.704-1.385-.983a9.425 9.425 0 0 0-.4-.372c.215-.2.446-.386.693-.572.154.093.323.186.461.306.385.279.724.585 1.109.85.385.266.77-.319.385-.571-.385-.252-.709-.571-1.078-.824-.092-.066-.185-.12-.292-.186.292-.199.569-.385.785-.637.461.279.892.61 1.262.983.323.319.862-.147.538-.465a7.034 7.034 0 0 0-1.554-1.156c-.077-.651-1.17-1.063-1.54-.346-.184.346-.692.585-1.03.837-.416.306-.817.612-1.17.97-.817.81-1.478 1.754-2.217 2.63-1.57 1.86-2.863 3.88-4.356 5.78-.632.81-1.155 1.7-2.078 2.299-.893.558-1.863 1.129-2.863 1.527-1.078.425-2.186.306-3.295.067a12.433 12.433 0 0 1-1.585-.412c-.554-.186-1-.558-1.524-.81-1.2-.572-2.54-.957-3.771-1.489-.862-.372-1.709-.783-2.478-1.288.43-.24.846-.492 1.262-.73l1.816 1.567c.354.305.893-.173.539-.465l-1.709-1.475c.354-.2.708-.425 1.062-.65.462.49.955.969 1.494 1.394.369.292.908-.186.538-.465-.523-.412-1-.863-1.431-1.328.292-.2.585-.412.877-.625.246.2.493.412.677.651.247.332.416.678.724.97.338.319.877-.16.539-.465-.324-.306-.478-.717-.77-1.05a5.15 5.15 0 0 0-.57-.544l.6-.439c.108-.08.2-.16.309-.239.446.385.846.824 1.216 1.262.292.346.954.013.662-.332-.416-.478-.832-.957-1.324-1.382l.477-.412 1.616 1.396c.354.305.893-.173.539-.466l-1.616-1.395-.016-.013.74-.677a.29.29 0 0 0 .122.172c.585.425.74 1.29 1.663 1.29a.334.334 0 0 0 0-.665c-.247 0-.416-.28-.524-.425-.169-.226-.338-.492-.585-.665a.404.404 0 0 0-.23-.08c.107-.079.2-.172.307-.252.185-.16.385-.319.57-.478.43.452.846.903 1.354 1.275.37.28.924-.186.54-.465-.509-.385-.94-.837-1.355-1.288l.862-.784c.261.226.508.465.8.65.154.107.662.267.662.453-.015.425.754.425.77 0 .015-.412-.324-.638-.693-.837-.385-.213-.693-.492-1.016-.771l.462-.438c.523.544.923 1.169 1.508 1.674.354.305.893-.16.54-.465-.586-.519-1.002-1.156-1.525-1.701.092-.093.2-.173.293-.266.508.505.785 1.196 1.385 1.634.37.28.924-.186.539-.465-.6-.451-.908-1.089-1.401-1.607.123-.093.246-.186.37-.292.354.345.784.637 1.17.97.353.305.892-.16.538-.466-.354-.318-.785-.584-1.124-.916.308-.2.616-.386.908-.598.016.013.047.026.062.053.108.093.216.2.308.306a.994.994 0 0 1 .108.159c0-.013.015.106.015.027.016.425.785.425.77 0-.016-.372-.354-.718-.647-.97l-.046-.04c.662-.704-.523-1.714-1.216-1.01-.708.718-1.74 1.236-2.555 1.86-.924.718-1.693 1.581-2.54 2.365-.893.81-1.862 1.554-2.755 2.365-.847.784-1.678 1.528-2.648 2.192-1.8 1.275-3.679 2.391-5.634 3.48a.896.896 0 0 0-.57.306c-1.554.797-3.647 1.568-5.264.611-.708-.425-1.2-1.102-1.477-1.793-.339-.81-.37-1.435-.046-2.245.692-1.661 1.477-3.428 1.154-5.235-.154-.93-.477-1.993-1.016-2.816-.462-.705-1.462-1.143-1.8-1.887-.34-.73.322-1.501.969-1.926.831-.558 1.847-.651 2.863-.598 1.308.066 2.57.372 3.848.61 1.34.253 2.678.24 4.018.44 1.339.199 2.693.331 4.017.597 1 .213 2.325.824 2.832 1.648.016.026.047.053.062.08l-.492.385-.57.451a.314.314 0 0 0-.092-.12c-.662-.597-1.37-1.168-2.155-1.647-.4-.252-.785.332-.385.572.739.451 1.385.983 2 1.54.032.027.062.054.093.067-.23.173-.446.332-.677.505-.015-.013-.015-.027-.03-.04-.432-.412-.97-.717-1.37-1.156-.37-.412-.77-.77-1.248-1.09-.4-.252-.785.32-.384.572.477.306.83.704 1.2 1.103.37.385.862.664 1.247 1.023-.23.16-.462.305-.693.465-.723-.585-1.247-1.329-1.985-1.913-.37-.293-.909.172-.54.465.694.558 1.201 1.262 1.894 1.833-.23.146-.477.28-.708.412-.8-.864-1.57-1.754-2.478-2.524-.354-.306-.893.172-.539.465.878.744 1.601 1.594 2.37 2.404-.123.067-.23.133-.353.186-.862-.704-1.555-1.54-2.386-2.271-.354-.306-.893.159-.539.465.77.69 1.431 1.461 2.232 2.139l-.185.08c-.816-.718-1.662-1.422-2.355-2.22-.292-.332-.954-.013-.662.333.693.797 1.493 1.488 2.294 2.192l-.508.2c-.293-.293-.554-.612-.862-.904-.37-.359-.847-.638-1.185-1.023-.293-.332-.97 0-.662.332.354.398.785.704 1.185 1.063.277.252.523.531.77.797-.247.08-.508.173-.77.252-.724-.584-1.509-1.102-2.201-1.7-.354-.306-.893.172-.539.465.616.531 1.293.996 1.924 1.488-.323.093-.646.16-.954.133-.647-.027-1.2-.293-1.863-.24-1.077.08-1.093 1.542 0 1.462.647-.04 1.232.239 1.863.239.646.013 1.293-.16 1.893-.345 1.293-.386 2.57-.824 3.771-1.382 2.51-1.156 4.587-2.71 6.68-4.358 1.032-.81 2.233-1.528 3.433-2.165 1.186-.625 2.479-1.21 3.88-1.29.692-.039 1.43-.079 2.139-.026.677.04 1.278.28 1.909.452.6.16 1.139.319 1.524.77.354.412.57.904.8 1.369.015.013.015.027.03.053l-.646.399a3.133 3.133 0 0 0-.538-.625c-.431-.398-.847-.797-1.278-1.182-.354-.306-.893.16-.539.465.37.319.708.638 1.062.983.2.2.662.492.678.784-.185.133-.37.252-.57.385-.185-.173-.37-.332-.539-.518-.338-.372-.662-.744-1.016-1.103-.323-.319-.862.146-.538.465.354.346.661.718 1 1.09.154.172.354.332.523.491-.153.12-.323.24-.477.359-.492-.425-.985-.837-1.354-1.342-.262-.359-.924-.026-.662.332.4.558.923 1.01 1.447 1.462-.246.199-.493.398-.724.598-.77.664.416 1.7 1.201 1.036 2.447-2.086 5.264-3.893 8.435-5.062 1.555-.571 3.448-1.209 5.157-1.076.877.066 1.709.452 2.493.744.77.292 1.494.638 2.094 1.142.015.014.046.027.062.04-.247.16-.508.332-.755.479-.123.08-.23.146-.354.225a.498.498 0 0 0-.261-.106c-.355-.013-.74-.359-.97-.558-.293-.239-.554-.491-.831-.744-.339-.305-.893.16-.54.465.509.465 1.125 1.17 1.879 1.408-.2.133-.385.266-.585.386-.554-.425-1.155-.824-1.678-1.276-.354-.305-.893.173-.539.465.508.439 1.078.81 1.616 1.223-.63.438-1.23.956-1.277 1.687-.062.943 1.632.943 1.693 0-.015.133.077-.08.123-.133.123-.12.262-.226.4-.332.262-.2.555-.385.847-.558.708-.452 1.385-.93 2.093-1.369 1.632-1.01 3.233-2.192 5.234-2.59 1.97-.399 4.064-.97 6.096-.983 1.062-.014 2.093.186 3.001.677.847.452 1.293 1.17 2.017 1.74.03.014.046.04.077.054l-.508.398c-.185-.704-1.155-1.182-1.694-1.647-.353-.292-.892.173-.538.465.277.226.57.425.846.638.2.159.647.451.662.717 0 .12.077.213.17.266l-.508.398c-.385-.026-.77-.61-.97-.85-.277-.345-.508-.717-.816-1.036-.308-.332-.862.146-.539.465.477.505.94 1.528 1.694 1.926-.2.16-.4.319-.585.478a17.071 17.071 0 0 1-.293-.212 6.874 6.874 0 0 1-1.37-1.196c-.292-.345-.954-.013-.662.332.308.372.662.704 1.062 1.01.154.12.493.306.74.492-.247.212-.509.425-.755.637-.462-.438-.908-.89-1.355-1.342-.323-.332-.862.147-.538.465.446.452.877.904 1.354 1.342a8.168 8.168 0 0 1-.385.32c-.77.663.431 1.7 1.201 1.035 1.555-1.341 3.125-2.683 4.803-3.919.739-.531 1.354-1.116 2-1.727.693-.651 1.463-1.076 2.387-1.448 1.662-.664 3.386-1.369 5.233-.691.847.319 1.755.85 2.463 1.368.323.253.539.612.8.93-.277.173-.554.346-.815.532l-.016-.013-1.616-1.395c-.354-.306-.893.172-.539.465l1.586 1.368c-.216.16-.431.332-.631.505-.478-.425-.8-.97-1.34-1.342-.384-.266-.923.2-.538.465.538.372.862.917 1.323 1.342l-.107.093a11.09 11.09 0 0 0-.616.545c-.631-.492-1.355-.89-1.909-1.449-.323-.332-.862.147-.538.465.554.558 1.277.97 1.908 1.462-.108.093-.2.186-.308.279-.092.08-.184.16-.277.252-.092-.372-.477-.664-.785-.903-.384-.292-.816-.545-1.231-.81-.4-.253-.785.318-.385.57.308.2.631.4.939.612.2.146.724.465.724.704 0 .146.107.252.23.292-.169.12-.338.24-.508.293-1 .372-.138 1.62.862 1.262.755-.28 1.447-1.05 2.002-1.555.8-.73 1.616-1.448 2.493-2.112 1.57-1.21 3.54-1.873 5.48-2.524a43.574 43.574 0 0 1 2.863-.837c.862-.226 2.232-.598 2.802.305.57.89-1.54 2.392-2.17 2.883-.832.664-1.771 1.196-2.664 1.794-.77.478-1.493 1.076-2.247 1.62Z"/>
</svg>
