<svg width="1382" height="143" viewBox="0 0 1382 143" fill="none" xmlns="http://www.w3.org/2000/svg">
<path d="M189.5 108C172.333 79.6667 110.8 46.8 2 142H1381.5V23L1157 116L1044.5 23L802.5 127.5L672.5 49L504 127.5L398 69.5L189.5 108Z" fill="#D9D9D9" stroke="black"/>
<path d="M437 21H398V39.8854H437V21Z" fill="black"/>
<path d="M398 70V57.2396V39.8854M398 39.8854V21H437V39.8854H398Z" stroke="black"/>
<path d="M437 29H398V32H437V29Z" fill="white" stroke="white"/>
<path d="M417 21V40H419V21H417Z" fill="white" stroke="white"/>
<path d="M710.5 1H672V19.5H710.5V1Z" fill="white"/>
<path d="M672 49V36.5V19.5M672 19.5V1H710.5V19.5H672Z" stroke="black"/>
<path d="M685 19.5V1H672V19.5H685Z" fill="#0B7115" stroke="black"/>
<path d="M711 19.5V1H698V19.5H711Z" fill="#BC0000" stroke="black"/>
</svg>
