<svg width="104" height="50" viewBox="0 0 104 50" fill="none" xmlns="http://www.w3.org/2000/svg">
<path d="M103.889 24.6628C103.766 23.3874 103.551 22.0322 103.012 20.8365C102.473 19.6275 101.38 18.8569 100.457 17.8871C99.8256 17.2361 99.3022 16.4921 98.7635 15.8012C98.2709 15.1768 97.9015 14.4594 97.3627 13.8615C96.8394 13.2902 96.2236 12.8651 95.7619 12.2407C95.3309 11.6428 94.8537 11.1512 94.1918 10.7394C93.3298 10.1946 90.3282 8.30808 89.3276 9.41079C89.0967 9.47722 88.8813 9.62336 88.7735 9.87579C88.8505 9.67651 88.7581 9.84923 88.6196 9.91565C88.5426 9.95551 88.481 9.99537 88.4195 10.0485C88.4041 10.0618 88.3887 10.0618 88.3733 10.0751C87.9885 10.3674 87.5267 10.5666 87.1419 10.8722C86.8186 11.1246 86.5416 11.4169 86.2337 11.6694C85.5102 12.2539 84.7098 12.7854 83.9863 13.3699C82.5086 14.5391 81.1233 15.7348 79.4147 16.6781C78.5527 17.1564 77.6906 17.555 76.6747 17.7675C75.705 17.9801 74.7044 18.0465 73.7039 18.1661C72.6572 18.2857 71.6259 18.5381 70.5792 18.6045C69.748 18.6576 68.9013 18.6444 68.0547 18.6311C68.0547 18.6311 68.0547 18.6311 68.0393 18.6311C67.9008 18.485 67.7007 18.3787 67.4236 18.3521C64.7299 18.2059 62.344 19.9065 60.7585 21.6204C58.9268 23.5867 57.7415 25.9914 57.3105 28.4891C56.8795 31.0267 57.2181 33.6307 57.6184 36.1549C57.8339 37.5234 58.4034 38.7191 59.0653 39.9679C59.7272 41.2035 60.4199 42.4657 61.405 43.5285C62.3132 44.5117 63.4369 45.5214 64.6375 46.2388C65.7304 46.9031 67.1312 47.3282 68.4088 47.6736C68.7474 47.7666 69.1014 47.8464 69.4709 47.8995C69.594 48.1121 69.8249 48.2715 70.1943 48.2449C70.887 48.1918 71.5027 48.4044 72.1492 48.6036C72.8265 48.8162 73.4884 48.9889 74.1965 49.1085C75.7204 49.3875 77.2597 49.5469 78.8143 49.5602C81.816 49.5735 84.8945 49.7595 87.8499 49.1616C90.4052 48.6435 92.8372 47.5939 94.8383 46.1192C95.8388 45.3752 96.4392 44.3655 97.3473 43.5551C98.2401 42.7712 99.1175 41.9077 99.333 40.7784C99.3638 40.6322 99.3484 40.5126 99.3022 40.3931C99.7024 40.1406 100.056 39.7952 100.318 39.3701C100.811 38.5862 101.011 37.7094 101.196 36.8458C101.473 35.6368 101.873 34.4544 102.273 33.2586C102.766 31.7972 103.197 30.3225 103.597 28.8345C103.997 27.4528 104.012 26.0977 103.889 24.6628ZM102.15 24.2908C102.196 24.7026 102.242 25.1278 102.258 25.5529C100.611 26.1375 99.0251 26.8018 97.255 27.0941C95.3309 27.4129 93.376 27.5458 91.4211 27.5591C91.3287 27.0277 91.2518 26.4829 91.1902 25.9515C91.1748 25.7921 91.1594 25.6327 91.1286 25.4732C93.0527 25.4201 94.9768 24.9551 96.8548 24.5831C97.8245 24.3838 98.7943 24.2775 99.7332 23.9985C100.103 23.8922 100.457 23.7594 100.811 23.6265C101.134 23.4936 101.58 23.2014 101.965 23.0951C102.058 23.5069 102.104 23.9055 102.15 24.2908ZM93.376 36.8059C93.0219 36.2612 92.791 35.69 92.6371 35.1054C93.222 35.0921 93.7916 35.0921 94.3765 35.1054C95.1615 35.132 95.9004 35.2116 96.6854 35.1452C97.3473 35.0921 97.9169 34.9327 98.5326 34.7599C99.1483 34.6005 99.6563 34.3746 100.21 34.1488C100.056 34.6138 99.9179 35.0788 99.7794 35.5571C99.6871 35.8759 99.6255 36.1948 99.5485 36.5269C98.8097 36.7794 98.0862 37.0982 97.3011 37.2577C96.67 37.3772 96.0235 37.457 95.377 37.4968C94.8075 37.5367 94.2687 37.4569 93.7146 37.4171C93.6069 37.2045 93.5145 37.0052 93.376 36.8059ZM100.965 31.9168C100.795 32.4217 100.626 32.9132 100.457 33.4181C100.364 33.3915 100.272 33.3915 100.164 33.4314C99.4562 33.7237 98.825 33.9761 98.0708 34.1886C97.4397 34.3746 96.8394 34.4677 96.1621 34.5075C95.5002 34.5474 94.8691 34.4411 94.2072 34.4278C93.6223 34.4145 93.0373 34.4278 92.4524 34.4411C92.3908 34.1355 92.3447 33.8299 92.2831 33.5244C92.2523 33.3384 92.2215 33.1524 92.1907 32.9664C92.8372 33.0195 93.4837 33.0594 94.161 33.0062C95.1 32.9398 96.0543 32.8335 96.9779 32.6475C97.8707 32.4615 98.7481 32.1692 99.6255 31.9301C100.072 31.8105 100.564 31.7441 101.026 31.6378C101.026 31.7175 100.995 31.8105 100.965 31.9168ZM92.3754 38.4534C92.514 38.8254 92.6525 39.1974 92.9296 39.5295C93.0835 39.7155 93.2528 39.875 93.4529 40.0211C93.4221 40.061 93.4068 40.1008 93.376 40.1407C93.4375 40.0078 93.0681 40.2735 92.9911 40.3134C92.791 40.4197 92.5755 40.5259 92.3754 40.6322C91.8829 40.9112 91.4365 41.2301 90.9439 41.5091C89.774 42.1601 88.4195 42.5188 87.0649 42.7712C85.5564 43.0502 84.0171 43.2761 82.4778 43.3159C81.0463 43.3558 79.6917 43.0635 78.291 42.8377C78.2756 42.8244 78.2756 42.8111 78.2602 42.7845C78.4603 42.4922 78.6604 42.1999 78.8605 41.9209C79.0606 41.6419 79.2145 41.3496 79.3685 41.0574C79.3839 41.0574 79.3993 41.0574 79.4301 41.0574C79.938 41.0308 80.4306 41.3364 80.9539 41.3629C81.5389 41.4028 82.1546 41.3364 82.7395 41.3231C83.9556 41.2965 85.1716 41.2035 86.3414 40.9112C87.5729 40.6057 88.7735 40.1672 89.9434 39.7288C90.8207 39.3966 91.6981 39.0379 92.3754 38.4534ZM94.8845 40.7518C95.0538 40.805 95.2231 40.8581 95.3924 40.8979C94.6382 42.0405 93.3606 42.8111 92.1599 43.6082C91.4057 44.1131 90.7284 44.5515 89.8356 44.8836C88.9274 45.2158 88.0193 45.6011 87.0803 45.8668C86.1106 46.1458 85.0638 46.4248 84.0479 46.5178C83.0166 46.6108 81.9391 46.5178 80.9078 46.5045C79.861 46.4912 78.8759 46.3052 77.8754 46.0661C77.2135 45.9067 76.413 45.8668 75.7819 45.6011C75.982 45.4417 76.1668 45.2822 76.3361 45.1095C76.6593 44.8039 76.9672 44.4718 77.2442 44.1264C77.2904 44.1529 77.352 44.1662 77.3982 44.1795C79.1376 44.4319 80.8308 44.8305 82.6164 44.7774C84.4173 44.7242 86.2491 44.4585 87.9885 44.0998C89.5431 43.7809 91.0209 43.2761 92.3139 42.479C93.1297 41.9741 94.3457 41.5224 94.8845 40.7518ZM91.4519 37.1647C90.8054 37.829 89.8818 38.1744 88.9736 38.5065C87.8807 38.9051 86.7724 39.3169 85.618 39.5694C84.5713 39.7952 83.5245 39.8484 82.447 39.8616C81.9699 39.8749 81.4157 39.9679 80.9385 39.9015C80.5383 39.8484 80.2459 39.7022 79.8918 39.6358C80.015 39.2239 80.1073 38.8121 80.1997 38.3869C80.2459 38.4002 80.292 38.4002 80.3382 38.4002C81.4311 38.4534 82.447 38.7589 83.5553 38.6527C84.6328 38.5597 85.6795 38.3072 86.7263 38.0947C87.7114 37.8954 88.4964 37.4835 89.4046 37.1514C90.0357 36.9122 90.7284 36.7661 91.2672 36.4207C91.3595 36.6332 91.4673 36.8192 91.5904 37.0185C91.5596 37.0717 91.498 37.1115 91.4519 37.1647ZM89.7741 31.4651C89.6817 31.6112 89.2969 31.691 89.1276 31.784C88.8197 31.9434 88.5426 32.1692 88.2348 32.3286C87.4036 32.7538 86.4646 33.1391 85.5718 33.4181C84.7868 33.6572 83.9863 33.8698 83.1705 33.9894C82.3855 34.1089 81.7544 33.6838 80.9693 33.7635C80.9232 33.7635 80.8924 33.7768 80.8462 33.7768C80.8616 33.0992 80.8616 32.4349 80.8 31.7574C80.8462 31.7706 80.9078 31.7707 80.9539 31.7707C83.0474 31.7574 85.187 31.4119 87.1573 30.8407C88.1116 30.5617 89.2815 30.1897 90.0357 29.5254C90.0511 29.6715 90.0819 29.8176 90.0973 29.9638C90.1435 30.3491 90.1896 30.7344 90.2512 31.1197C90.0665 31.1595 89.8972 31.2658 89.7741 31.4651ZM90.5129 32.8468C90.5899 33.3251 90.6668 33.7901 90.7592 34.2551C90.79 34.4411 90.8207 34.6271 90.8669 34.8131C90.7592 34.8529 90.6361 34.9194 90.5437 35.0257C90.0819 35.5305 89.2661 35.6235 88.6042 35.8892C87.7422 36.2347 87.0033 36.5535 86.0644 36.7395C85.1254 36.9122 84.1711 37.1779 83.2013 37.2178C82.2931 37.2577 81.4311 37.0185 80.5229 36.9521C80.6307 36.3675 80.7077 35.7962 80.7692 35.2116C80.8308 35.2249 80.9078 35.2249 80.9847 35.2116C81.4003 35.1718 81.7544 35.3578 82.17 35.4375C82.6317 35.5172 83.0628 35.4774 83.5092 35.4109C84.5405 35.2648 85.5718 34.9991 86.5416 34.6536C87.5113 34.3215 88.5426 33.9362 89.3892 33.4314C89.6971 33.2454 90.1281 33.0594 90.5129 32.8468ZM89.0814 28.1835C88.8197 28.9674 87.0495 29.3527 86.2491 29.5519C84.5405 29.9904 82.7549 30.2826 80.9693 30.2959C80.8462 30.2959 80.7384 30.3225 80.6461 30.3491C80.6307 30.2162 80.5999 30.0701 80.5845 29.9372C80.4922 29.3925 80.3536 28.8744 80.1843 28.3695C80.6615 28.3695 81.1541 28.3296 81.6158 28.3031C82.7087 28.2499 83.7862 28.0241 84.8329 27.7584C86.48 27.3332 88.127 26.8417 89.497 25.9382C89.5739 26.5228 89.6663 27.0941 89.7586 27.6654C89.4508 27.7052 89.1891 27.8647 89.0814 28.1835ZM101.273 21.0358C101.519 21.4742 101.688 21.9525 101.827 22.4441C101.211 22.5902 100.611 23.0021 100.041 23.2014C99.1175 23.5202 98.1631 23.6664 97.178 23.8391C95.1461 24.1978 93.1297 24.7691 91.0363 24.809C90.9439 24.2244 90.8516 23.6265 90.7438 23.0419C91.6674 23.0154 92.6064 22.8161 93.5145 22.6965C94.5612 22.5636 95.6233 22.4839 96.6392 22.1916C97.4859 21.9392 98.3325 21.6602 99.1483 21.3281C99.7178 21.1022 100.395 20.8631 100.965 20.5708C101.088 20.7302 101.196 20.8764 101.273 21.0358ZM99.056 18.6975C99.5023 19.1625 100.041 19.6009 100.518 20.0659C99.9641 20.3449 99.3022 20.5708 98.7789 20.7834C97.9631 21.1155 97.0857 21.4211 96.2083 21.6469C95.3617 21.8728 94.4843 21.9392 93.6069 22.0455C92.6371 22.1651 91.6212 22.3909 90.636 22.4042C90.5591 21.9791 90.4667 21.5539 90.3744 21.1288C92.083 20.9295 93.7146 20.4645 95.3617 19.9862C96.1467 19.7604 96.901 19.508 97.6706 19.229C98.117 19.0695 98.6096 18.9101 99.056 18.6975ZM96.7008 15.7614C97.255 16.5984 97.9169 17.4088 98.5942 18.1794C98.1324 18.4052 97.5782 18.5514 97.101 18.7108C96.3622 18.9765 95.6233 19.2024 94.8691 19.4149C93.3452 19.8534 91.8213 20.2918 90.2204 20.4645C90.0511 19.6939 89.8818 18.9367 89.7279 18.1661C90.3282 18.0997 90.9285 17.8738 91.5135 17.7542C92.3293 17.5948 93.1297 17.4088 93.9147 17.1431C94.5458 16.9172 95.1462 16.6382 95.7773 16.3858C96.1313 16.2529 96.5931 16.1201 96.7008 15.7614ZM95.1461 13.9944C95.6233 14.4461 96.0851 14.7782 96.4084 15.3229C96.4084 15.3229 96.4084 15.3362 96.4238 15.3362C96.239 15.2831 96.0082 15.3362 95.962 15.5621C95.9312 15.6949 95.1462 15.9208 94.9769 16.0005C94.3611 16.2662 93.7454 16.5319 93.0989 16.7179C92.514 16.8906 91.929 17.0102 91.3287 17.1298C90.7746 17.2361 90.1743 17.4752 89.6047 17.5284C89.5893 17.4752 89.5739 17.4088 89.5739 17.3557C89.4354 16.6914 89.2661 16.0138 89.1429 15.3362C89.1737 15.3362 89.2045 15.3495 89.2353 15.3495C90.3436 15.3495 91.2826 15.0572 92.2831 14.6719C92.7757 14.4859 93.2682 14.2734 93.73 14.0342C94.0687 13.8615 94.3611 13.6489 94.6536 13.4364C94.8075 13.6357 94.9614 13.8216 95.1461 13.9944ZM89.3585 11.4036C89.4662 11.1645 89.6201 11.0981 89.851 10.9386C89.9434 10.8722 90.0049 10.8191 90.0665 10.7527C90.2204 10.7394 90.3744 10.6729 90.4975 10.5799C90.6053 10.6198 90.7438 10.6464 90.8516 10.6862C91.221 10.8191 91.575 11.0051 91.9136 11.1778C92.1907 11.3239 92.4832 11.4701 92.7603 11.6295C92.2215 11.9218 91.7443 12.2141 91.1132 12.4134C90.8054 12.5064 90.4975 12.5861 90.1897 12.6791C89.8202 12.7987 89.497 12.9979 89.1276 13.1042C89.1122 13.1042 89.0968 13.1175 89.0814 13.1175C89.1583 12.5728 89.1276 11.9085 89.3585 11.4036ZM89.0198 13.7154C89.0967 13.7685 89.2045 13.7818 89.3276 13.7552C89.7125 13.6489 90.0203 13.4496 90.3898 13.3301C90.7746 13.1972 91.1594 13.1175 91.5442 12.9979C92.1753 12.7854 92.6679 12.4665 93.222 12.1742C93.2836 12.1609 93.3452 12.1344 93.4067 12.0812C93.4067 12.0812 93.4068 12.0812 93.4222 12.0679C93.6684 12.2539 93.8839 12.4532 94.0686 12.6791C94.1148 12.7455 94.161 12.7986 94.2072 12.8651C93.6069 13.2371 93.0527 13.5958 92.3601 13.8881C91.3441 14.3132 90.359 14.6719 89.2199 14.6719C89.1429 14.6719 89.0968 14.6852 89.0352 14.7118C89.0198 14.3797 89.0044 14.0475 89.0198 13.7154ZM88.7427 21.8595C88.9121 22.6566 89.0967 23.4671 89.2507 24.2642C89.1583 24.3041 89.066 24.344 88.989 24.4104C87.7268 25.46 86.0336 25.9249 84.3866 26.3634C83.5246 26.5892 82.6625 26.7885 81.7544 26.8416C81.154 26.8815 80.4614 26.9612 79.8457 26.9081C79.7533 26.7619 79.5994 26.6689 79.4301 26.6291C79.1684 26.1508 78.8913 25.6725 78.568 25.2208C79.3223 25.3271 80.0304 25.4599 80.8462 25.3138C81.9699 25.1145 83.0781 24.7159 84.1403 24.3705C85.8796 23.7992 87.3728 22.8958 88.7427 21.8595ZM88.4041 20.1457C88.3887 20.1589 88.3887 20.1589 88.3733 20.1722C86.9418 21.3679 85.3563 22.4574 83.463 23.0419C82.5394 23.3209 81.6158 23.6531 80.6615 23.8657C79.584 24.1048 78.645 23.7062 77.5829 23.6929C77.506 23.6929 77.429 23.6929 77.352 23.7062C76.8902 23.1881 76.3977 22.6965 75.8743 22.2049C76.3977 22.1917 76.921 22.1518 77.429 22.0721C77.6907 22.4441 77.9061 22.8426 78.0909 23.2545C78.2602 23.6531 79.0144 23.4804 78.8297 23.0818C78.645 22.67 78.4449 22.2847 78.1986 21.9127C78.2448 21.8994 78.2756 21.8994 78.3217 21.8861C78.7989 21.7532 79.2607 21.6071 79.7225 21.4344C79.8764 21.7134 80.0304 22.0057 80.1689 22.3112C80.3536 22.7098 81.0925 22.5371 80.9078 22.1385C80.7538 21.8064 80.5999 21.4875 80.4152 21.1819C80.7846 21.0358 81.1694 20.8897 81.5389 20.7568C81.6466 21.0624 81.739 21.3812 81.8775 21.6868C82.0468 22.0854 82.7857 21.9127 82.6164 21.5141C82.4624 21.1687 82.3701 20.8365 82.2469 20.5044C82.6317 20.3715 83.0012 20.2121 83.3552 20.0527C83.4322 20.3317 83.463 20.5974 83.4476 20.8764C83.4168 21.3015 84.1864 21.3015 84.2172 20.8764C84.248 20.4911 84.1557 20.0925 84.0017 19.7205C84.3404 19.5212 84.679 19.2954 84.9869 19.0562C85.033 19.2289 85.0792 19.4017 85.2024 19.5611C85.4641 19.9198 86.1259 19.5877 85.8642 19.229C85.7257 19.043 85.6641 18.8038 85.6026 18.5647C86.2953 18.0067 87.0187 17.4885 87.7268 16.9305C87.9731 17.9668 88.1886 19.0562 88.4041 20.1457ZM87.2188 12.8385C87.2958 12.7721 87.3882 12.7057 87.4651 12.6392C87.3728 13.2902 87.2496 13.9147 87.3266 14.579C87.3574 14.7915 87.3882 15.0041 87.4189 15.2166C87.3266 15.2565 87.2188 15.2964 87.1265 15.3761C86.8648 15.5887 86.6031 15.7879 86.3414 15.9872C86.2953 15.8012 86.2645 15.6285 86.1875 15.4691C85.9566 15.0439 85.6026 14.6719 85.2485 14.2999C85.9104 13.8217 86.5877 13.3434 87.2188 12.8385ZM84.6944 14.7649C85.0946 15.1768 85.4794 15.5886 85.6334 16.1201C85.6641 16.2396 85.6949 16.3459 85.7257 16.4655C85.4794 16.6515 85.2331 16.8375 84.9869 17.0235C84.6482 16.4788 84.1864 16.0271 83.6939 15.5886C84.0325 15.3096 84.3712 15.0439 84.6944 14.7649ZM83.1243 16.0271C83.6169 16.4655 84.0787 16.9305 84.4019 17.4885C84.3711 17.5151 84.3404 17.5417 84.3096 17.5549C83.9863 17.8339 83.6477 18.0731 83.3091 18.299C82.955 17.7675 82.4932 17.2892 81.9853 16.8375C82.3701 16.5851 82.7549 16.3061 83.1243 16.0271ZM81.3695 17.2494C81.8159 17.6346 82.2931 18.1262 82.6779 18.6577C82.3239 18.8304 81.9699 18.9898 81.5697 19.1359C81.2156 18.6975 80.7846 18.2591 80.3536 17.8738C80.6923 17.6745 81.0309 17.4619 81.3695 17.2494ZM79.6763 18.2325C80.0765 18.5912 80.5075 18.9898 80.8308 19.4016C80.3998 19.5611 79.9842 19.7338 79.5532 19.8932C79.2299 19.508 78.8451 19.1359 78.4141 18.7905C78.8451 18.6311 79.2761 18.4451 79.6763 18.2325ZM77.1211 19.1625C77.2751 19.1227 77.429 19.0828 77.5983 19.0429C78.0755 19.3884 78.4911 19.7604 78.8297 20.1457C78.5988 20.2254 78.368 20.3051 78.1217 20.3715C77.8138 20.4645 77.4905 20.5309 77.1827 20.5841C76.7979 20.1589 76.3822 19.7471 75.9359 19.3485C76.3515 19.3087 76.7363 19.2422 77.1211 19.1625ZM74.0887 19.5744C74.3966 19.5345 74.7044 19.5079 74.9969 19.4681C75.4433 19.8666 75.8897 20.2652 76.3053 20.6904C75.6434 20.7435 74.9661 20.7435 74.2888 20.7435C73.8424 20.3715 73.3653 20.0261 72.8419 19.7604C73.2575 19.694 73.6731 19.6275 74.0887 19.5744ZM66.5001 19.8534C66.6386 19.9862 66.8387 20.0792 67.1158 20.0792C67.3775 20.0792 67.6545 20.0792 67.9162 20.0925C68.1779 20.1191 68.3934 20.2254 68.6551 20.2918C68.9629 20.3715 69.2861 20.3848 69.594 20.4379C70.2405 20.5309 70.9178 20.624 71.5181 20.8232C71.7028 20.8897 71.8722 20.9694 72.0261 21.0491C70.7947 21.2218 69.5632 21.4211 68.301 21.4211C67.4698 21.4211 66.6232 21.3414 65.8074 21.2085C65.1917 21.1022 64.5913 20.9428 63.9756 20.8631C64.7453 20.3582 65.5919 19.9862 66.5001 19.8534ZM61.2973 23.4272C61.8052 22.7629 62.4517 22.0455 63.206 21.4211C63.2521 21.4477 63.3291 21.4742 63.4061 21.4742C64.345 21.5008 65.2224 21.8064 66.146 21.9127C66.9464 22.0057 67.7623 22.0854 68.5781 22.0721C70.0404 22.0455 71.4411 21.7798 72.8573 21.5938C73.1036 21.7931 73.3499 22.0189 73.5808 22.2315C72.5495 22.4308 71.5027 22.5769 70.456 22.7364C69.3016 22.9091 68.1163 22.9888 66.9618 23.1881C65.7766 23.4006 64.6067 23.6664 63.4061 23.7461C62.9135 23.7727 62.4056 23.7727 61.913 23.7727C61.6359 23.7727 61.3588 23.7461 61.0817 23.7195C61.1587 23.6265 61.2357 23.5202 61.2973 23.4272ZM60.6661 24.344C61.0818 24.3705 61.4974 24.4369 61.913 24.4369C62.4517 24.4369 63.0059 24.4369 63.5446 24.3971C64.6683 24.3174 65.792 24.0915 66.8849 23.8922C68.0393 23.6796 69.2092 23.5999 70.3791 23.4272C71.5951 23.2412 72.8111 23.0685 74.0272 22.8427C74.0887 22.8294 74.1349 22.8161 74.1811 22.7895C74.5813 23.1482 74.9661 23.507 75.3355 23.879C74.2119 24.1712 73.0266 24.2509 71.8722 24.4502C70.5176 24.6894 69.1322 24.7558 67.7623 24.9152C66.3461 25.0879 64.9454 25.3138 63.4985 25.3669C62.8366 25.3935 62.1593 25.4865 61.4974 25.4732C61.0202 25.46 60.5584 25.3802 60.0966 25.3271C60.2967 24.9949 60.466 24.6628 60.6661 24.344ZM59.8195 25.9382C60.3891 26.0047 60.9432 26.1242 61.5128 26.1242C62.1746 26.1375 62.8519 26.0445 63.5138 26.0179C64.9146 25.9648 66.2846 25.7522 67.6853 25.5795C69.1014 25.4068 70.5484 25.3404 71.9491 25.1012C73.2421 24.8754 74.5967 24.8089 75.8589 24.4236C75.8589 24.4236 75.8589 24.4236 75.8743 24.4236C76.3207 24.9019 76.7209 25.3802 77.0903 25.8984C76.567 26.1242 75.7512 26.1774 75.2586 26.2704C74.5197 26.4165 73.7809 26.5095 73.0574 26.7088C71.5643 27.1074 69.9788 27.3465 68.4395 27.5325C65.3456 27.8912 62.2824 27.7584 59.1885 27.6919C59.3732 27.0941 59.5733 26.5095 59.8195 25.9382ZM59.0499 28.3429C62.4055 28.4094 65.6996 28.5555 69.0399 28.1171C70.6715 27.9045 72.2262 27.5591 73.8117 27.2004C74.5967 27.0277 75.3971 26.9214 76.1822 26.7619C76.6285 26.6689 77.0749 26.6158 77.4751 26.4564C77.8754 27.0808 78.214 27.7451 78.4603 28.4492C78.4757 28.4758 78.4757 28.5024 78.4911 28.529H78.4757C77.86 28.529 77.2135 28.7017 76.6132 28.7947C75.8127 28.9275 75.0277 29.1002 74.2426 29.2597C72.5494 29.6184 70.6869 29.6317 68.9475 29.7512C67.2235 29.8708 65.4687 29.8575 63.7447 29.9107C62.8519 29.9372 61.9438 29.9106 61.051 29.8974C60.2967 29.8974 59.5886 29.7911 58.8498 29.7247C58.8806 29.2597 58.9575 28.7946 59.0499 28.3429ZM58.7882 30.6679C58.7882 30.5749 58.8036 30.482 58.8036 30.389C59.5117 30.4554 60.189 30.5616 60.897 30.5616C61.7898 30.5749 62.698 30.6015 63.5908 30.5749C65.361 30.5351 67.1773 30.5351 68.9475 30.4155C70.5484 30.3092 72.2108 30.2561 73.7809 30.0302C74.5813 29.9106 75.3663 29.6981 76.1514 29.5519C76.9056 29.4191 77.783 29.1534 78.5526 29.1932C78.5988 29.1932 78.645 29.1799 78.6912 29.1666C78.8451 29.6848 78.9529 30.2162 79.0452 30.7609C78.5527 30.9071 77.9677 30.9602 77.5213 31.0665C76.7055 31.2525 75.9051 31.4385 75.0892 31.6378C73.2883 32.0895 71.4873 32.063 69.6402 32.1161C67.8238 32.1692 66.0383 32.3287 64.2219 32.3419C62.4363 32.3419 60.6662 32.3286 58.8806 32.3286C58.819 31.7706 58.7728 31.2259 58.7882 30.6679ZM59.0653 34.109C59.0191 33.737 58.9729 33.3649 58.9422 32.9929C60.7431 32.9929 62.5441 33.0062 64.3451 33.0062C66.3153 33.0062 68.2548 32.7937 70.2251 32.7671C71.9953 32.7405 73.7039 32.6874 75.4125 32.249C76.2591 32.0231 77.1365 31.8504 77.9831 31.6378C78.3371 31.5581 78.7374 31.4917 79.1222 31.4119C79.1992 32.0497 79.2299 32.6741 79.2299 33.3118C78.6296 33.4048 78.0601 33.5509 77.4444 33.6174C76.5208 33.7236 75.628 33.8698 74.6891 33.9229C72.8727 34.0159 71.0563 34.1887 69.24 34.2684C67.4698 34.3481 65.6996 34.4544 63.9448 34.574C62.2978 34.6935 60.7277 34.5872 59.0961 34.4677C59.0961 34.3481 59.0807 34.2285 59.0653 34.109ZM59.4809 36.8724C59.327 36.3011 59.25 35.7298 59.173 35.1452C60.7277 35.2515 62.2362 35.3578 63.8063 35.2515C65.6227 35.1319 67.4236 35.0124 69.2554 34.9327C71.0255 34.8529 72.7957 34.6802 74.5659 34.5872C75.4279 34.5474 76.2745 34.4411 77.1365 34.3215C77.5521 34.2684 77.9831 34.2418 78.3833 34.1754C78.6758 34.1222 78.9529 34.0425 79.2299 33.9894C79.2146 34.4012 79.1838 34.7998 79.1376 35.1984C79.076 35.2249 79.0298 35.2515 78.9991 35.3047C78.4295 35.3977 77.8446 35.4242 77.2597 35.5571C76.3669 35.7431 75.4741 35.8095 74.5659 35.8892C72.8573 36.0354 71.1487 36.1815 69.4247 36.3277C67.8546 36.4605 66.2691 36.5402 64.6991 36.7262C63.7755 36.8325 62.8519 36.9521 61.9284 36.9786C61.0971 36.9919 60.2967 36.8724 59.4809 36.8724ZM60.543 39.3302C60.2197 38.7456 59.9119 38.1478 59.681 37.5366C60.4199 37.5632 61.1433 37.6562 61.8976 37.6429C62.698 37.6296 63.5138 37.5366 64.2989 37.4436C66.0844 37.2311 67.8854 37.1248 69.671 36.9786C71.3796 36.8325 73.0882 36.6731 74.7968 36.5402C75.5972 36.4738 76.3822 36.4207 77.1673 36.2612C77.5367 36.1815 77.9215 36.0752 78.291 36.0221C78.5219 35.9955 78.7528 35.9822 78.9836 35.969C78.8913 36.4871 78.7989 37.0052 78.6758 37.5234C77.4444 37.6031 76.1975 37.8157 74.9815 37.9618C73.3345 38.1611 71.7028 38.3338 70.0558 38.5065C68.5165 38.6659 67.008 39.0379 65.4533 39.1177C63.8679 39.1974 62.267 39.2771 60.6816 39.3036C60.6508 39.3036 60.5892 39.3169 60.543 39.3302ZM61.4204 40.7916C61.2511 40.5126 61.0818 40.2337 60.9124 39.9547C62.3902 39.9281 63.8679 39.8617 65.3456 39.7819C66.9157 39.7022 68.4396 39.3435 69.9942 39.1708C71.5027 38.9981 73.0112 38.8652 74.5043 38.6792C75.8281 38.5065 77.2135 38.2807 78.5526 38.1877C78.4603 38.5464 78.368 38.9051 78.2756 39.2505C78.1832 39.5561 78.0755 39.8484 77.9523 40.1274C77.8446 39.9546 77.5521 39.8617 77.3212 40.0211C77.0749 40.1938 75.9974 40.0211 75.7204 40.0344C75.0585 40.0344 74.3966 40.1141 73.7347 40.1805C72.3801 40.3399 71.0255 40.4861 69.671 40.6057C66.9464 40.8315 64.2681 40.9777 61.5282 40.9777C61.4974 40.9245 61.4512 40.8581 61.4204 40.7916ZM61.9899 41.6552C64.8222 41.6286 67.593 41.456 70.4252 41.2168C71.8876 41.0972 73.3499 40.8979 74.8122 40.7651C75.4741 40.6986 76.136 40.6986 76.7979 40.7252C77.1519 40.7385 77.4444 40.7385 77.7368 40.5924C77.4752 41.0972 77.1519 41.5755 76.8133 42.0538C76.3361 42.0538 75.8743 41.9741 75.4125 41.9608C74.8892 41.9475 74.3504 42.0538 73.8117 42.0538C72.5956 42.0538 71.3796 42.0538 70.1635 42.1601C67.8238 42.3594 65.5303 42.8111 63.2214 43.0768C62.7596 42.6251 62.3594 42.1468 61.9899 41.6552ZM65.8997 45.1759C65.1609 44.7641 64.5452 44.2592 63.8833 43.6879C63.8679 43.6746 63.8525 43.6614 63.8371 43.6481C65.9459 43.3824 68.0239 42.9838 70.1482 42.7978C71.3642 42.6915 72.5802 42.6915 73.7963 42.6915C74.3042 42.6915 74.7968 42.5985 75.2894 42.5985C75.6434 42.5985 75.982 42.6384 76.3361 42.6782C75.9974 43.1167 75.6434 43.5285 75.2586 43.9271C75.12 43.8341 74.9199 43.8075 74.7506 43.9404C74.6429 44.0201 74.1965 43.9935 74.0426 44.0068C73.6116 44.06 73.1805 44.0998 72.7495 44.1264C72.0415 44.1662 71.3488 44.2194 70.6561 44.3124C69.1938 44.4984 67.6853 44.9634 66.2076 45.0032C66.0536 45.0032 65.9459 45.0829 65.8997 45.1759ZM70.4714 46.5311C69.24 46.5178 67.9777 46.0528 66.8541 45.6144C67.3774 45.5479 67.87 45.4284 68.3934 45.3354C69.2861 45.176 70.1943 45.0298 71.1025 44.9235C71.9645 44.8172 72.8265 44.8172 73.6885 44.7242C73.9194 44.6977 74.1811 44.6977 74.4428 44.6711C74.2888 44.7907 74.1349 44.9102 73.981 45.0165C72.9804 45.7074 71.8106 46.5444 70.4714 46.5311ZM95.6541 43.0104C94.9153 43.781 94.3611 44.6046 93.4529 45.2424C91.4826 46.6374 89.0506 47.5408 86.5569 47.9261C83.817 48.338 80.8616 48.2051 78.0909 48.1121C76.6439 48.0589 75.1816 47.8729 73.7963 47.5541C73.5654 47.5009 73.3345 47.4345 73.119 47.3681C73.5808 47.1422 74.0271 46.8898 74.4735 46.5975C75.2432 47.0758 76.1052 47.2086 77.0442 47.4079C78.1217 47.6338 79.153 47.8995 80.2613 47.9659C81.4157 48.0456 82.6472 48.0722 83.8016 48.0191C84.9869 47.9527 86.1567 47.6736 87.2958 47.3681C88.4195 47.0758 89.4662 46.6241 90.5437 46.2255C91.4981 45.8801 92.2523 45.4416 93.0527 44.8836C93.9763 44.2459 94.946 43.6481 95.7619 42.9307C95.7003 42.9439 95.6695 42.9838 95.6541 43.0104ZM96.1621 42.5055C96.5315 42.1202 96.8548 41.7084 97.0857 41.2301C97.1164 41.1636 97.1318 41.1105 97.1472 41.0574C97.255 41.0574 97.3627 41.0441 97.4705 41.0308C97.178 41.6021 96.6701 42.0538 96.1621 42.5055ZM99.2253 37.7758C99.0251 38.3869 98.7481 39.0645 98.0708 39.3966C97.2396 39.7952 96.0543 39.6491 95.2385 39.3036C94.5766 39.0246 94.2687 38.5862 94.0225 38.0947C94.515 38.1345 95.0076 38.1744 95.5156 38.1345C96.1005 38.0946 96.6854 38.0149 97.2704 37.9219C98.0092 37.7891 98.6865 37.5234 99.3792 37.2709C99.333 37.4569 99.2868 37.6164 99.2253 37.7758ZM101.288 30.8672C100.672 31.0665 99.9333 31.1329 99.3176 31.3057C98.471 31.5315 97.6552 31.8105 96.7932 31.9832C95.885 32.1692 94.9614 32.2755 94.0379 32.3286C93.376 32.3685 92.7449 32.3287 92.0984 32.2755C92.006 31.7042 91.9291 31.1197 91.8521 30.5484C92.6987 30.5085 93.4683 30.3624 94.3303 30.2295C95.3001 30.0701 96.2852 29.9505 97.255 29.7778C98.7635 29.5121 100.395 29.3128 101.857 28.8212C101.688 29.5121 101.503 30.1896 101.288 30.8672ZM102.088 28.0374C100.549 28.6485 98.7173 28.8611 97.0703 29.1401C96.1929 29.2862 95.3001 29.4191 94.4227 29.5519C93.5299 29.6848 92.6987 29.8575 91.7905 29.8974C91.7905 29.8442 91.7751 29.7778 91.7751 29.7247C91.7136 29.2331 91.6366 28.7282 91.5442 28.2366C93.4376 28.2101 95.3309 28.0772 97.1934 27.7849C99.0252 27.5059 100.626 26.8549 102.304 26.2571C102.288 26.8549 102.242 27.4528 102.088 28.0374Z" fill="#40352F"/>
<path d="M43.0259 22.2581C43.0259 21.4078 42.9951 20.5575 42.949 19.7205C42.9951 19.6143 42.9797 19.508 42.9336 19.4283C42.7489 16.8907 42.3179 14.393 41.5944 11.882C41.1942 10.4737 40.8555 8.99896 40.3168 7.61724C40.0859 7.01939 39.7934 6.40826 39.3778 5.87683C38.9006 5.27898 38.2233 4.93352 37.5615 4.52167C36.8842 4.10981 36.2839 3.65809 35.5296 3.32595C34.683 2.95395 33.8364 2.56867 32.9436 2.26309C31.235 1.66524 29.3571 1.14711 27.5561 0.788399C25.7397 0.429685 24.0773 0.177256 22.2302 0.456256C20.1829 0.761827 18.1203 1.12054 16.1192 1.61211C14.2259 2.06382 12.625 2.83438 11.0704 3.85738C9.76196 4.73424 9.14624 5.74396 9.33095 7.19211C9.42331 7.93611 9.63881 8.66682 9.79274 9.41081C9.90049 9.91567 10.0236 10.4073 10.1314 10.9121C10.2391 11.4037 10.1776 11.8952 10.2084 12.4001C10.2699 14.2601 11.0088 16.0271 10.8548 17.9004C10.7009 19.8135 9.70039 21.5673 8.74603 23.2678C8.29964 24.0517 7.74549 24.7691 6.94506 25.3271C6.22159 25.8453 5.46735 26.2305 4.91321 26.9081C4.89782 26.9214 4.89782 26.9347 4.88243 26.948C3.03529 27.3067 1.55757 28.4492 0.818713 30.0037C-0.289573 32.3818 0.43388 34.7865 1.63452 37.0185C2.7582 39.1044 4.57456 40.5658 6.77574 41.8014C9.05388 43.0901 11.3936 44.2061 13.995 44.9235C16.658 45.6542 19.4441 46.3584 22.2456 45.9598C23.5847 45.7738 25.0163 45.3885 26.1707 44.7774C26.2169 44.7508 26.2477 44.7242 26.2939 44.7109C26.3862 44.7375 26.4786 44.7508 26.5556 44.7375C28.0795 44.5648 29.3879 43.8075 30.5885 43.0237C31.312 42.5454 32.0662 42.1867 32.7589 41.6818C33.4824 41.1504 34.2212 40.6455 34.9139 40.0742C36.2531 38.9715 37.5153 37.8157 38.5774 36.5004C39.0853 35.876 39.6703 35.3047 40.1629 34.667C40.6708 34.016 41.0403 33.272 41.3789 32.5413C42.1178 30.9603 42.5026 29.2198 42.8258 27.5458C43.1183 25.8187 43.0105 24.0251 43.0259 22.2581ZM41.2711 19.1758C41.2865 19.3352 41.2865 19.4947 41.3019 19.6541C41.0249 19.7737 40.7478 19.8933 40.4399 19.9863C40.1783 20.066 39.9166 20.1058 39.6395 20.1191C39.6395 19.9995 39.6395 19.8667 39.6395 19.7471C39.6395 19.2954 39.6395 18.8437 39.6087 18.392C40.1475 18.206 40.6554 17.9668 41.1172 17.648C41.1788 18.1661 41.225 18.671 41.2711 19.1758ZM40.9941 16.8774C40.5939 17.2361 40.1013 17.5018 39.5625 17.7011C39.5163 17.2228 39.4548 16.7312 39.3624 16.253C39.3163 16.0005 39.2547 15.7481 39.2085 15.4824C39.6857 15.3097 40.1629 15.137 40.6093 14.9244C40.7478 15.5754 40.8709 16.2264 40.9941 16.8774ZM40.4399 14.2468C40.0089 14.486 39.5318 14.6587 39.0546 14.8181C38.916 14.2202 38.7929 13.6091 38.6543 13.0113C38.8852 12.905 39.1161 12.7987 39.347 12.6791C39.5163 12.5861 39.7165 12.4134 39.9166 12.254C40.1013 12.9183 40.2706 13.5825 40.4399 14.2468ZM39.2855 9.96881C39.4394 10.5135 39.5779 11.045 39.7318 11.5764C39.7165 11.5897 39.7011 11.603 39.6857 11.6163C39.347 11.9085 38.9314 12.1344 38.5158 12.3337C38.5158 12.3071 38.5004 12.2938 38.5004 12.2672C38.3773 11.6561 38.2233 11.045 37.9463 10.4604C37.6692 9.88912 37.269 9.33111 37.1766 8.71996C37.1766 8.69339 37.1612 8.66681 37.1612 8.64024C37.6692 8.37452 38.1618 8.08224 38.6082 7.7501C38.916 8.46753 39.1008 9.27795 39.2855 9.96881ZM37.7308 6.46139C37.3921 6.72711 37.0227 6.97953 36.6379 7.21867C36.5609 6.62081 36.3454 6.02297 36.1761 5.4384C36.6995 5.77054 37.3152 6.06282 37.7308 6.46139ZM33.7286 4.21612C34.2366 4.44198 34.7753 4.64124 35.2679 4.89367C35.2679 4.90696 35.2679 4.92026 35.2679 4.94683C35.4218 5.79712 35.899 6.72711 35.899 7.63054C35.4988 7.84311 35.0678 8.02912 34.6368 8.20183C34.6676 8.02912 34.683 7.85639 34.6676 7.68367C34.6368 7.21867 34.5137 6.76697 34.4367 6.30197C34.2982 5.51811 34.1289 4.72096 33.4516 4.13639C33.0975 3.83082 32.5588 4.29582 32.9128 4.60139C33.5131 5.13282 33.6055 5.92995 33.7286 6.64738C33.8056 7.05924 33.9288 7.4844 33.9134 7.89626C33.9134 8.09554 33.8672 8.29483 33.821 8.49411C33.4208 8.62697 33.0206 8.75983 32.6357 8.86612C32.6203 7.85641 32.451 6.84668 32.174 5.86354C31.9277 4.98668 31.4659 4.17626 31.1734 3.31268C32.0508 3.56511 32.8974 3.84412 33.7286 4.21612ZM24.9393 33.4181C24.6468 33.1125 24.3544 32.8335 24.0465 32.5545C24.2005 32.5014 24.339 32.3951 24.4314 32.2091C24.5853 31.9035 25.0163 31.7175 25.3087 31.505C25.7244 31.1728 26.1092 30.8008 26.4632 30.4288C27.1097 29.7512 27.71 29.0338 28.1872 28.2633C29.2801 26.4963 29.7265 24.4635 29.9574 22.484C30.1729 20.5708 30.3268 18.5115 29.9112 16.625C29.6957 15.6684 29.7573 14.672 29.6034 13.7021C29.4494 12.7854 29.2493 11.882 29.1877 10.952C29.6495 10.8723 30.0651 10.766 30.5423 10.7527C30.7732 10.7527 30.9887 10.7261 31.2042 10.6995C31.2966 11.6428 31.4813 12.5595 31.4505 13.5161C31.4043 14.672 31.8969 15.7481 32.1278 16.8774C32.3587 17.9668 32.2355 19.0828 32.4818 20.159C32.7281 21.2351 32.7127 22.2847 32.6973 23.3741C32.6665 25.5795 32.02 27.7451 30.9117 29.7247C30.3422 30.7344 29.588 31.5847 28.7567 32.435C28.3411 32.8601 27.8947 33.272 27.4637 33.6838C27.1097 34.016 26.7711 34.4677 26.2477 34.5872C26.1553 34.6138 26.0784 34.6404 26.0168 34.667C25.7859 34.3747 25.555 34.0824 25.2934 33.8034C25.3241 33.5908 25.1394 33.4447 24.9393 33.4181ZM17.5046 13.0777C17.5046 12.254 17.2275 11.4568 17.0428 10.6597C16.9196 10.1283 16.7811 9.61009 16.581 9.10524C16.6888 9.13181 16.8119 9.15841 16.9196 9.19826C17.6739 9.42412 18.4127 9.67654 19.167 9.91568C19.1054 10.6331 19.2901 11.3372 19.5056 12.0281C19.7365 12.812 19.9366 13.6091 20.1214 14.4063C20.5216 16.1865 20.537 18.0598 20.1829 19.8534C20.0136 20.7037 19.7827 21.5274 19.2286 22.2448C18.7206 22.9091 18.228 23.5203 17.9664 24.3041C17.8432 24.6628 17.7816 25.0481 17.5815 25.3802C17.3506 25.7522 16.9658 26.018 16.6426 26.3235C16.0884 26.855 15.7652 27.506 15.211 28.0374C14.1027 27.6122 13.0099 27.134 11.84 26.8683C14.3182 24.4901 16.0422 21.6735 17.0582 18.5647C17.6431 16.7578 17.52 14.9377 17.5046 13.0777ZM17.9202 27.2668C18.6129 26.6025 19.167 26.0445 19.4441 25.1677C19.5826 24.7558 19.675 24.3573 19.9212 23.972C20.1367 23.6265 20.4292 23.3077 20.6755 22.9755C21.245 22.2183 21.5529 21.3547 21.753 20.4645C22.1378 18.6842 22.2456 16.7578 21.9377 14.9643C21.7684 14.0608 21.5837 13.1441 21.322 12.254C21.1373 11.6295 20.9064 11.0051 20.8602 10.3674C21.7376 10.5534 22.6304 10.6995 23.5232 10.8191C23.5694 10.9785 23.6617 11.1114 23.8464 11.2044C23.8464 11.4435 23.8156 11.696 23.8618 11.9351C23.9388 12.347 24.1235 12.6924 24.1389 13.1308C24.1851 13.9678 24.0158 14.7384 23.8926 15.5621C23.7541 16.4655 23.7695 17.3557 23.6001 18.2591C23.4308 19.1493 23.4924 20.0128 23.4308 20.9163C23.3231 22.763 22.4919 24.3971 21.5375 26.018C21.0757 26.7885 20.537 27.5193 19.9982 28.25C19.7827 28.5423 19.2593 29.4855 18.7976 29.5254C18.7668 29.5254 18.736 29.5254 18.7052 29.5387C18.0587 29.2597 17.4276 28.9674 16.7811 28.6884C17.1505 28.1968 17.4584 27.692 17.9202 27.2668ZM22.3841 27.6787C22.969 26.8018 23.4154 25.8851 23.9388 24.9817C24.4929 24.0384 24.693 23.0951 24.9239 22.0721C25.1702 21.0093 25.0009 19.9331 25.1548 18.8702C25.2164 18.4584 25.3395 18.0465 25.4011 17.6214C25.4781 17.09 25.4319 16.5452 25.4935 16.0138C25.6012 15.044 25.8475 14.1272 25.8013 13.1308C25.7705 12.626 25.5858 12.2141 25.4935 11.7358C25.4473 11.4967 25.4781 11.2575 25.4627 11.0184C26.1246 11.0715 26.8018 11.1114 27.4791 11.0981C27.5407 11.8687 27.6793 12.626 27.8178 13.3833C28.0025 14.3531 27.9871 15.3097 28.1256 16.2795C28.2488 17.1962 28.4643 18.0332 28.4181 18.9765C28.3719 19.9862 28.3873 20.996 28.295 21.9924C28.1256 23.9055 27.7254 25.925 26.6479 27.6255C26.14 28.4227 25.5243 29.1534 24.8162 29.8177C24.4929 30.1233 24.1697 30.4155 23.7848 30.6813C23.4462 30.9204 23.123 31.1197 22.9382 31.4651C22.9075 31.5182 22.8921 31.5847 22.8767 31.6378C22.3533 31.2658 21.8146 30.9204 21.2296 30.6281C21.1681 30.5617 21.0757 30.5218 20.9834 30.5085C20.7832 30.4155 20.5985 30.3225 20.3984 30.2295C21.2758 29.4988 21.8915 28.4094 22.3841 27.6787ZM28.8645 2.66167C29.3878 2.80781 29.8958 2.95398 30.4038 3.08683C30.373 3.15326 30.3576 3.21968 30.373 3.31268C30.6347 4.16297 31.1119 4.94683 31.3581 5.81041C31.6814 6.85998 31.8661 7.96268 31.8507 9.05211C31.743 9.07868 31.6506 9.10525 31.5429 9.11854C31.0041 9.23811 30.5269 9.25139 29.9882 9.27796C29.9728 8.08224 29.9112 6.88654 29.7111 5.70411C29.6033 5.07968 29.4648 4.44196 29.2647 3.83081C29.1262 3.41896 28.9261 3.03367 28.7875 2.6351C28.8337 2.64839 28.8491 2.66167 28.8645 2.66167ZM27.9563 2.40925C28.0641 2.92739 28.3258 3.40567 28.5105 3.89724C28.7106 4.46853 28.8491 5.05309 28.9568 5.65095C29.1877 6.89981 29.2339 8.16197 29.2493 9.42411C29.0492 9.47726 28.8337 9.53038 28.6336 9.57024C28.4797 9.59681 28.3104 9.61011 28.141 9.6234C28.141 9.54369 28.141 9.47726 28.141 9.39755C28.141 9.37098 28.141 9.34439 28.1256 9.31782C28.0795 8.68011 27.8947 8.04241 27.8332 7.40469C27.7716 6.70055 27.6793 5.99639 27.5099 5.29224C27.2329 4.14967 26.7711 3.04697 26.2169 1.98411C26.8019 2.10368 27.3868 2.26311 27.9563 2.40925ZM25.2934 1.83796C25.9399 2.99381 26.4632 4.20282 26.7711 5.46496C26.9404 6.14254 27.0174 6.82009 27.0789 7.51095C27.1405 8.20181 27.3868 8.93254 27.3714 9.6234V9.63667C26.8788 9.63667 26.3708 9.61009 25.8783 9.57024C25.8629 8.04238 25.7244 6.52781 25.2318 5.05309C24.8777 3.99024 24.5237 2.71482 23.8002 1.74496C24.2774 1.74496 24.7854 1.78481 25.2934 1.83796ZM22.9075 1.82469C23.3231 2.28969 23.5386 2.83438 23.7695 3.39238C24.0465 4.08324 24.339 4.78739 24.5699 5.49153C24.9855 6.80681 25.0932 8.16198 25.1086 9.53041C25.0009 9.51712 24.8931 9.51709 24.7854 9.50381C24.1851 9.45067 23.6155 9.38426 23.046 9.29126C23.0614 9.26469 23.0614 9.22482 23.0614 9.18496C23.0614 8.87939 23.1691 8.6004 23.2153 8.29483C23.2615 7.9494 23.2307 7.60396 23.1845 7.25854C23.0922 6.63411 23.0614 6.00968 22.9536 5.39854C22.8305 4.73425 22.5996 4.10982 22.3533 3.47211C22.261 3.21968 22.1532 2.96724 22.0147 2.72809C21.8915 2.51552 21.5837 2.23654 21.5529 2.01068C21.9993 1.93096 22.4611 1.86455 22.9075 1.82469ZM20.7832 2.14354C20.7832 2.15682 20.7832 2.17011 20.7832 2.1834C20.8602 2.63511 21.3374 3.02038 21.5221 3.45881C21.7684 4.06995 21.9993 4.69439 22.1378 5.33211C22.2764 5.99639 22.3225 6.70052 22.4149 7.37809C22.4918 7.94938 22.3071 8.46754 22.2764 9.02554C22.2764 9.03883 22.2764 9.05212 22.2764 9.06541V9.13183C21.7838 9.03883 21.3066 8.91926 20.814 8.79969C20.8756 8.37455 21.0141 7.96268 20.9834 7.49768C20.9372 6.89983 20.814 6.31524 20.7217 5.71738C20.6139 5.09295 20.5062 4.45526 20.2907 3.84411C20.1214 3.33926 19.7519 2.87426 19.6596 2.35612C20.029 2.28969 20.4138 2.20996 20.7832 2.14354ZM18.2896 2.6484C18.4897 2.60854 18.7052 2.56868 18.9207 2.51554C19.0131 3.04697 19.3825 3.51196 19.5518 4.0301C19.7365 4.56153 19.8443 5.11954 19.9366 5.66425C20.0444 6.27539 20.1675 6.88654 20.2137 7.49768C20.2445 7.88297 20.1521 8.24169 20.0906 8.60041C19.6442 8.48083 19.1824 8.34798 18.736 8.20183C18.736 6.38169 18.6282 4.56154 17.7509 2.87425C17.7201 2.82111 17.6893 2.78126 17.6585 2.75469C17.8586 2.74141 18.0741 2.68826 18.2896 2.6484ZM17.089 2.91411C17.0274 3.00711 17.012 3.11339 17.0736 3.23296C17.8586 4.72096 17.951 6.36838 17.9664 7.97595C17.8586 7.93609 17.7508 7.90955 17.6431 7.86969C17.2583 7.75012 16.8735 7.64383 16.4886 7.56411C16.4578 6.8334 16.2885 6.10268 16.1962 5.37197C16.1038 4.66783 16.0115 3.96369 15.719 3.28612C15.719 3.27283 15.719 3.27282 15.7036 3.27282C16.15 3.13996 16.6118 3.0204 17.089 2.91411ZM14.9801 3.52524C15.2572 4.20281 15.3342 4.89369 15.4419 5.61112C15.5189 6.20898 15.642 6.80683 15.6882 7.40469C15.288 7.31169 14.8878 7.21868 14.503 7.09911C14.349 6.15583 14.072 5.2391 13.6102 4.36224C13.564 4.28253 13.5024 4.22941 13.4409 4.21612C13.9334 3.93712 14.4568 3.71124 14.9801 3.52524ZM12.9021 4.4951C12.8867 4.56153 12.9021 4.62796 12.9329 4.69439C13.2869 5.37196 13.5178 6.07612 13.6717 6.80683C12.8405 6.47469 12.0709 6.04954 11.3782 5.53139C11.763 5.10625 12.4095 4.7741 12.9021 4.4951ZM8.11493 26.3767C8.73065 25.9382 9.254 25.3803 9.685 24.809C10.5778 23.6 11.2551 22.1651 11.8092 20.8233C12.4095 19.3485 12.6558 17.7941 12.4865 16.2397C12.3172 14.7118 11.9016 13.2371 11.8708 11.7093C11.8554 10.2478 11.2705 8.82624 11.0242 7.37809C11.0088 7.29838 10.9934 7.21869 10.9934 7.13898C11.6553 7.55083 12.3633 7.89625 13.1022 8.18854C13.5794 8.37454 14.0566 8.5074 14.5337 8.62697L14.5491 8.73326C14.5645 8.94583 14.6723 9.10526 14.8108 9.22483C15.1187 9.83597 15.2726 10.5002 15.4265 11.1645C15.6113 11.9351 15.8267 12.6525 15.796 13.4497C15.7652 14.2601 15.8114 15.0705 15.8267 15.881C15.8421 16.7578 15.6266 17.5815 15.3342 18.4185C14.2721 21.5141 12.4865 24.2775 9.85431 26.5627C9.80813 26.6025 9.77736 26.6424 9.74657 26.669C9.0385 26.669 8.31503 26.7088 7.60696 26.7221C7.79167 26.5893 7.961 26.483 8.11493 26.3767ZM5.77521 28.3164C5.65206 28.4227 5.51354 28.529 5.42118 28.622C5.05175 29.0073 4.7131 29.4324 4.31288 29.7911C3.94346 30.1233 3.52786 30.4155 3.11225 30.7078C2.85057 30.8938 2.45035 31.2658 2.06553 31.4784C2.48114 29.8708 3.68178 28.4227 5.77521 28.3164ZM1.9116 32.3287C1.9116 32.3154 1.9116 32.2888 1.9116 32.2755C2.41957 32.1825 2.81978 31.7574 3.22 31.4784C3.80492 31.0665 4.42063 30.668 4.94399 30.1897C5.37499 29.7911 5.71364 29.3261 6.12925 28.9275C6.40632 28.6618 6.668 28.4492 6.80654 28.1437C7.08361 28.157 7.34528 28.157 7.62235 28.157C7.63774 28.2101 7.66852 28.2765 7.7147 28.3164C7.65313 28.3563 7.53 28.529 7.49922 28.5688C7.26832 28.8345 7.03743 29.1135 6.80654 29.3925C6.29857 30.0037 5.83678 30.668 5.23646 31.2127C4.22053 32.1427 3.0045 32.8867 2.03475 33.8565C1.927 33.3517 1.86542 32.8335 1.9116 32.3287ZM2.26565 34.5607C2.32722 34.5474 2.38878 34.5208 2.43496 34.4544C3.74336 33.0727 5.51353 32.1161 6.69878 30.6414C7.25292 29.9638 7.88403 29.3128 8.39199 28.6087C8.51513 28.436 8.5767 28.2632 8.56131 28.1038C8.73063 28.1038 8.89996 28.0905 9.05389 28.0905C9.28478 28.0905 9.50027 28.0905 9.71577 28.0905C9.48488 28.622 9.06928 29.1534 8.74603 29.6051C8.16111 30.4022 7.42224 31.1197 6.71417 31.8504C6.05227 32.528 5.31342 33.1657 4.54378 33.7635C4.02042 34.1754 3.23539 35.0257 2.51193 35.1718C2.43496 34.9858 2.34261 34.7732 2.26565 34.5607ZM2.89675 35.969C2.86596 35.9158 2.85057 35.8627 2.81978 35.8095C3.52786 35.6368 4.05122 35.039 4.57457 34.6404C5.52893 33.923 6.4525 33.1657 7.26832 32.3287C7.99179 31.598 8.73065 30.854 9.34636 30.0435C9.77736 29.4855 10.2853 28.8212 10.5316 28.1437C11.1627 28.2101 11.763 28.3297 12.3787 28.529C11.9785 29.2331 11.5629 29.9373 11.0242 30.5883C10.3161 31.4253 9.48489 32.1825 8.66907 32.9531C7.099 34.4544 5.48274 35.9424 3.46628 37.0185C3.26617 36.6864 3.06607 36.3277 2.89675 35.969ZM3.8819 37.5898C5.94454 36.4871 7.60696 34.9725 9.22321 33.4314C10.0082 32.6741 10.8241 31.9301 11.5321 31.1197C12.1632 30.4023 12.625 29.6051 13.0868 28.7947C13.3023 28.8744 13.5178 28.9541 13.7333 29.0338C13.7025 29.0604 13.6871 29.1003 13.6871 29.1268C13.5486 29.7114 13.1638 30.1897 12.8251 30.7078C12.5173 31.1861 12.2248 31.6644 11.9016 32.1427C11.2551 33.086 10.5008 33.8964 9.59264 34.6537C8.66907 35.4375 7.73011 36.2214 6.74496 36.9521C6.29857 37.271 5.83678 37.5765 5.39038 37.9087C5.1441 38.0947 4.9132 38.3072 4.63613 38.48C4.37445 38.201 4.11279 37.9087 3.8819 37.5898ZM6.31396 39.7952C5.92913 39.5428 5.55971 39.2638 5.20568 38.9715C5.77521 38.6128 6.28317 38.1345 6.76035 37.8024C7.9456 36.9654 9.0385 36.0487 10.1314 35.1187C11.0857 34.3215 11.8862 33.458 12.5635 32.4748C12.9329 31.9434 13.2407 31.3987 13.5948 30.8672C13.8872 30.4155 14.1951 29.9904 14.3644 29.4988C14.4568 29.4722 14.503 29.4191 14.5491 29.366C14.9955 29.552 15.4419 29.738 15.8883 29.924C15.796 30.0568 15.6882 30.1764 15.6112 30.3093C15.4573 30.575 15.365 30.8672 15.2264 31.133C14.9647 31.6245 14.6569 32.0895 14.3182 32.5545C13.5948 33.5377 12.7636 34.481 11.9016 35.3711C11.0704 36.248 10.1776 37.0584 9.16163 37.7758C8.63828 38.1478 8.11493 38.5065 7.59157 38.8785C7.19136 39.1708 6.80653 39.5827 6.31396 39.7952ZM10.3469 42.0272C9.9005 41.8014 9.43871 41.5622 8.97693 41.3231C10.8241 39.9148 12.7943 38.5862 14.3336 36.9122C15.1495 36.0221 15.796 35.0257 16.4425 34.0425C16.7657 33.551 17.089 33.0594 17.3814 32.5545C17.6277 32.1294 18.0587 31.7043 18.1511 31.2393C18.228 30.8274 17.4892 30.6414 17.4122 31.0665C17.3352 31.5182 16.8427 32.0231 16.6118 32.435C16.3193 32.9398 15.9653 33.4447 15.642 33.9363C14.9955 34.9327 14.3336 35.9158 13.487 36.7927C11.9631 38.3604 10.0852 39.6225 8.31503 40.9777C7.86863 40.7385 7.42225 40.4861 6.99125 40.2337C7.19135 40.1141 7.37606 39.9813 7.54538 39.8218C8.06874 39.41 8.60749 39.0247 9.16163 38.6394C10.3777 37.7891 11.4706 36.8857 12.4557 35.8361C13.3485 34.8928 14.2259 33.9097 14.9801 32.8734C15.365 32.3553 15.7036 31.8105 15.9807 31.2393C16.15 30.8805 16.3809 30.5484 16.581 30.203C17.52 30.6015 18.4435 31.0001 19.3825 31.3854C19.598 31.4651 19.7981 31.5581 19.9982 31.6644C19.8751 31.8105 19.7519 31.9567 19.675 32.1028C19.3209 32.6343 18.9515 33.1524 18.5667 33.6705C17.7508 34.7865 17.1043 35.9557 16.1808 37.0318C15.288 38.0681 14.3029 39.0513 13.2254 39.9547C12.3326 40.712 11.332 41.363 10.3469 42.0272C10.3623 42.0272 10.3623 42.0272 10.3469 42.0272ZM11.1011 42.3859C12.0555 41.7349 13.0253 41.0973 13.8873 40.3533C14.9801 39.4365 15.9653 38.4268 16.8581 37.3772C17.797 36.2745 18.4589 35.0655 19.3055 33.923C19.7057 33.3782 20.0906 32.8335 20.46 32.2622C20.5216 32.1825 20.5831 32.0895 20.6447 32.0098C21.2142 32.3287 21.7376 32.6741 22.2456 33.0727C22.0455 33.4181 21.753 33.7503 21.5683 34.0027C21.2296 34.4411 20.891 34.8795 20.5985 35.3578C19.9366 36.434 19.244 37.4171 18.3358 38.3471C16.6426 40.1008 14.5491 41.4294 12.6712 43.0237C12.1479 42.8244 11.6245 42.6118 11.1011 42.3859ZM14.9648 43.688C14.4722 43.5551 13.9796 43.4223 13.487 43.2761C15.4727 41.6287 17.6431 40.2204 19.3517 38.3205C20.2599 37.3241 20.8756 36.2347 21.6145 35.1585C21.9377 34.6802 22.4765 34.1355 22.8459 33.5643C23.2615 33.9363 23.6617 34.3348 24.0311 34.7467C23.9388 34.8795 23.8464 35.0257 23.7695 35.1585C23.4616 35.6368 23.1691 36.1151 22.8305 36.5668C22.1686 37.4437 21.5067 38.3072 20.7832 39.1442C20.0444 39.9945 19.1978 40.7784 18.2742 41.4958C17.7816 41.8678 17.2891 42.2398 16.8119 42.6118C16.3501 42.9705 15.8113 43.5551 15.1648 43.6348C15.0725 43.6348 15.0263 43.6614 14.9648 43.688ZM17.2583 44.2194C16.8888 44.1397 16.5194 44.06 16.15 43.967C16.8273 43.6083 17.3968 43.037 17.9817 42.5985C19.09 41.7482 20.1521 40.9113 21.0757 39.9148C21.9223 38.9848 22.6766 38.0017 23.4308 37.0185C23.831 36.5004 24.1543 35.9557 24.5083 35.4109C24.5237 35.3977 24.5391 35.3711 24.5391 35.3578C24.8008 35.69 25.0471 36.0354 25.278 36.3941C25.1856 36.527 25.0779 36.6465 24.9855 36.7794C24.6776 37.1912 24.3852 37.6164 24.0927 38.0415C23.4462 38.945 22.692 39.7952 21.9377 40.6322C21.2296 41.4161 20.46 42.1601 19.6596 42.8908C19.0746 43.4355 18.4127 43.874 17.797 44.3522C17.6123 44.2991 17.4276 44.2592 17.2583 44.2194ZM20.0136 44.6578C19.598 44.6312 19.1824 44.5914 18.7822 44.525C18.9207 44.432 19.0593 44.339 19.1978 44.2327C19.6596 43.8873 20.0598 43.4754 20.4754 43.0901C21.3066 42.3195 22.0916 41.5357 22.8305 40.6987C23.6155 39.8085 24.3698 38.9051 25.0471 37.9618C25.2472 37.6828 25.4781 37.4038 25.6936 37.1115C25.9245 37.5234 26.1246 37.9353 26.2939 38.3604C25.5858 39.5561 24.77 40.712 23.7541 41.7483C23.1691 42.3461 22.538 42.9307 21.8454 43.4355C21.245 43.8474 20.5523 44.1662 20.0136 44.6578ZM24.5545 43.8607C23.5078 44.2592 22.3687 44.5383 21.2142 44.6313C21.5991 44.3788 22.0147 44.153 22.3841 43.874C23.1384 43.316 23.831 42.665 24.4775 42.0007C25.3087 41.1371 26.0014 40.1938 26.6171 39.224C26.6633 39.3435 26.6941 39.4764 26.7249 39.5959C27.2328 41.3497 26.5094 43.1167 24.5545 43.8607ZM27.3252 36.6997C27.1867 36.4473 27.0481 36.1948 26.8942 35.9424C27.9563 35.6102 28.6952 34.7068 29.4186 34.0027C30.3114 33.1391 31.2196 32.2622 31.8969 31.2658C33.2515 29.273 34.1288 26.855 34.3443 24.5565C34.4521 23.3874 34.5137 22.1385 34.4059 20.9827C34.3443 20.4114 34.0981 19.8667 34.0673 19.3087C34.0365 18.6577 34.0211 18.0465 33.9134 17.3955C33.8364 16.8508 33.7286 16.3194 33.5901 15.788C33.4362 15.1635 33.1745 14.5258 33.1437 13.8881C33.1129 13.2504 33.2053 12.626 33.1283 11.975C33.0514 11.417 32.9282 10.8855 32.882 10.3275C33.821 10.0618 34.7292 9.7031 35.6373 9.34439C35.8836 10.0751 36.3146 10.7128 36.5763 11.4701C36.7302 11.9351 36.838 12.4134 36.9304 12.8917C36.761 12.9315 36.5917 12.9714 36.4224 13.0113C35.8836 13.1308 35.2833 13.3301 34.7138 13.2902C34.2212 13.2637 34.2212 13.928 34.7138 13.9545C35.4372 13.9944 36.2993 13.8084 37.0689 13.5693C37.1459 13.9545 37.2074 14.3531 37.2998 14.7384C37.346 14.9643 37.4075 15.1901 37.4691 15.416C36.8534 15.6152 36.2223 15.788 35.5604 15.9075C35.0678 15.9873 35.2833 16.6382 35.7605 16.5452C36.407 16.439 37.0227 16.2662 37.623 16.0802C37.7616 16.718 37.8847 17.369 37.9309 18.02C37.9309 18.0465 37.9309 18.0864 37.9309 18.113C37.6692 18.1395 37.4075 18.1661 37.1612 18.1661C36.6687 18.1794 36.6687 18.8437 37.1612 18.8304C37.4229 18.8304 37.7 18.8038 37.9617 18.7772C37.9771 19.1891 37.9617 19.6143 37.9617 20.0261C37.7462 19.9995 37.5461 19.973 37.346 19.9597C36.8534 19.9198 36.8534 20.5841 37.346 20.624C37.5461 20.6373 37.7462 20.6638 37.9463 20.6904C37.9463 20.9827 37.9309 21.2617 37.9309 21.554C37.9309 21.74 37.9309 21.926 37.9309 22.112C37.7308 22.0987 37.5307 22.0721 37.3306 22.0721C36.838 22.0721 36.838 22.7364 37.3306 22.7364C37.5307 22.7364 37.7308 22.7497 37.9309 22.763C37.9309 23.2944 37.9001 23.8258 37.8231 24.3572C37.4845 24.4237 37.3767 24.8621 37.7154 24.9817C37.6384 25.3404 37.5615 25.6858 37.4845 26.0445C37.4075 26.018 37.3152 26.0047 37.2382 25.9781C36.761 25.8718 36.5609 26.5095 37.0381 26.6158C37.1458 26.6424 37.2382 26.669 37.346 26.6955C37.2382 27.1738 37.1151 27.6521 36.9765 28.1171C36.6379 27.8913 36.1761 28.3297 36.484 28.6352C36.5609 28.715 36.6533 28.7814 36.7456 28.8611C36.3762 29.9373 35.8836 31.0134 35.2679 32.0231C34.9139 31.8371 34.4675 32.2623 34.7907 32.5413C34.8215 32.5678 34.8523 32.5944 34.8831 32.621C34.6984 32.9132 34.4829 33.1923 34.2828 33.4713C33.9595 33.0993 33.6517 32.714 33.2668 32.3951C32.9128 32.1028 32.3587 32.5678 32.7281 32.8601C33.1437 33.1922 33.4977 33.5908 33.8672 34.016C33.8364 34.0558 33.7902 34.109 33.7594 34.1488C33.4516 34.5208 33.1129 34.8662 32.7435 35.1851C32.4049 34.667 32.097 34.1355 31.8199 33.5908C31.6198 33.2055 30.9579 33.5377 31.158 33.923C31.4659 34.5208 31.7891 35.0921 32.174 35.6501C31.8199 35.9158 31.4659 36.1815 31.0811 36.4074C31.0503 36.4207 31.0195 36.4473 30.9887 36.4605C30.5731 35.9823 30.1883 35.4641 30.1883 34.8795C30.1883 34.4544 29.4186 34.4544 29.4186 34.8795C29.434 35.6368 29.8958 36.2745 30.4038 36.8591C30.1267 37.0584 29.8496 37.2709 29.5572 37.4702C29.1723 36.9255 28.726 36.4074 28.1872 35.9291C27.8332 35.6235 27.2944 36.0885 27.6485 36.3941C28.1564 36.8325 28.572 37.3241 28.9415 37.8422C28.8183 37.9087 28.6798 37.9751 28.5412 38.0415C28.3565 38.0017 28.1564 38.0282 27.9717 38.0814C27.787 37.6164 27.5561 37.1514 27.3252 36.6997ZM28.649 42.479C28.4797 42.572 28.2796 42.6783 28.0795 42.7713C28.6336 41.7615 28.6798 40.6854 28.4643 39.6358C28.5105 39.6358 28.5566 39.6225 28.5874 39.6092C29.0184 39.4897 29.3879 39.317 29.7419 39.1177C30.1267 39.7288 30.6039 40.4197 30.6962 41.1105C30.6347 41.1637 30.6039 41.2301 30.5885 41.2965C29.942 41.6951 29.3109 42.1203 28.649 42.479ZM31.4197 40.7917C31.235 40.0609 30.7424 39.3435 30.373 38.7324C30.373 38.7324 30.373 38.7324 30.373 38.7191C30.7116 38.4933 31.0349 38.2541 31.3735 38.015C31.4813 38.1478 31.5736 38.294 31.6814 38.4268C31.8353 38.6394 32.0046 38.8387 32.2048 39.0247C32.3895 39.2107 32.7897 39.4099 32.8359 39.6624C32.8359 39.6889 32.8512 39.7155 32.8666 39.7421C32.3895 40.1141 31.9123 40.4728 31.4197 40.7917ZM33.4823 39.2505C33.3592 39.038 33.1437 38.9051 32.9282 38.7191C32.5434 38.4003 32.2817 37.9884 31.9893 37.6031C32.3587 37.3639 32.7435 37.1115 33.0975 36.8591C33.2515 37.0451 33.4054 37.2444 33.5747 37.4171C33.898 37.7492 34.2982 37.9485 34.6676 38.2275C34.2828 38.573 33.8826 38.9184 33.4823 39.2505ZM35.191 37.7625C34.8831 37.5367 34.5445 37.364 34.2674 37.1115C34.0519 36.899 33.8518 36.6731 33.6671 36.434C33.8056 36.3277 33.9441 36.2081 34.0673 36.0885C34.3598 35.8095 34.6522 35.5172 34.9293 35.225C35.3911 35.7165 35.8836 36.1682 36.4993 36.4738C36.0837 36.9122 35.6527 37.3507 35.191 37.7625ZM36.9919 35.8892C36.9765 35.9025 36.9611 35.9291 36.9457 35.9424H36.9304C36.4224 35.6767 36.0222 35.2515 35.6527 34.8663C35.5758 34.7865 35.4988 34.7201 35.4218 34.6404C35.6835 34.3083 35.9298 33.9761 36.1607 33.6307C36.407 33.8034 36.6533 33.9894 36.8996 34.1488C37.2382 34.3747 37.5768 34.6005 37.9617 34.7733C37.6538 35.132 37.3152 35.504 36.9919 35.8892ZM38.6543 33.9495C38.5928 34.0425 38.5158 34.1223 38.4543 34.202C38.1156 34.0691 37.8231 33.8698 37.5153 33.6705C37.192 33.458 36.8688 33.2321 36.5609 33.0063C36.7918 32.6343 37.0073 32.2622 37.2074 31.8902C37.8847 32.2888 38.562 32.6741 39.3316 32.9C39.1315 33.272 38.916 33.6174 38.6543 33.9495ZM39.6395 32.3021C38.8698 32.0763 38.1926 31.6777 37.5153 31.2791C37.6692 30.9603 37.8077 30.6547 37.9463 30.3358C38.0386 30.1232 38.1156 29.9107 38.1926 29.7114C38.3927 29.8177 38.6082 29.9107 38.7929 30.0037C39.2855 30.2428 39.7934 30.3757 40.3168 30.4421C40.1475 31.0798 39.9166 31.7043 39.6395 32.3021ZM40.6862 29.1135C40.6246 29.3394 40.5785 29.5653 40.5169 29.7778C39.9781 29.7114 39.4856 29.5785 38.993 29.3128C38.8237 29.2198 38.639 29.1268 38.4389 29.0338C38.6236 28.4625 38.7621 27.8912 38.9006 27.3067C39.1623 27.413 39.4086 27.506 39.6857 27.5857C40.1475 27.7053 40.5631 27.7982 40.9787 27.8381C40.9017 28.25 40.794 28.6884 40.6862 29.1135ZM41.1018 27.1738C40.3937 27.1605 39.7165 26.9081 39.07 26.6158C39.1931 26.0844 39.3316 25.553 39.4394 25.0215C39.7626 25.0082 40.1013 24.9684 40.4399 24.9551C40.7324 24.9285 41.0556 24.9285 41.3481 24.8754C41.2865 25.6593 41.2096 26.4165 41.1018 27.1738ZM41.3327 24.2111C40.9633 24.3307 40.4707 24.2908 40.1321 24.3174C39.932 24.3307 39.7319 24.344 39.5471 24.3705C39.5933 24.0915 39.6241 23.8125 39.6395 23.5335C39.6549 23.3077 39.6549 23.0951 39.6703 22.8693C40.2552 22.8825 40.8247 22.8161 41.3481 22.5371C41.3327 23.0951 41.3327 23.6531 41.3327 24.2111ZM41.1942 21.8197C40.7478 22.1518 40.209 22.2448 39.6549 22.2448C39.6549 21.7665 39.6395 21.275 39.6395 20.7967C39.8396 20.7834 40.0243 20.7701 40.209 20.7435C40.5939 20.6771 40.9633 20.5177 41.3173 20.3583C41.3327 20.8233 41.3327 21.2883 41.3327 21.7533C41.2865 21.7665 41.2403 21.7931 41.1942 21.8197Z" fill="#40352F"/>
</svg>
