<svg xmlns="http://www.w3.org/2000/svg" width="91" height="73" fill="none" viewBox="0 0 91 73">
  <path fill="#40352F" d="M90.12 41.312c.478-.864.693-1.82.2-2.71-.461-.837-1.415-1.382-2.37-1.74-1-.373-2.078-.572-3.17-.639-.57-.026-1.57.133-2.063-.159-.616-.372-.493-1.581-.508-2.152-.016-.744.015-1.528-.247-2.246-.677-1.833-2.94-1.926-4.818-1.98-1.123-.026-1.17-1.235-1.308-1.965-.185-1.063-.662-1.874-1.693-2.498-.785-.465-1.724-.651-2.648-.385-.8.225-1.447.704-2.17 1.05-1.693.823-2.694-.532-3.694-1.542-.524-.518-1.14-1.01-1.97-1.076-.94-.08-1.74.398-2.387.943-1.431 1.222-1.955 3.308-1.785 4.995.061.665.246 1.33.708 1.86a7.67 7.67 0 0 0-2.155 3.056 10.365 10.365 0 0 0-.693 4.464c.093 1.448.508 3.521 2.432 3.946.477.106.893.08 1.263-.053.354.438.646 1.023.83 1.302.262.412.555.824.647 1.289.139.664-.17 1.328-.43 1.953-1.094 2.577-3.356 4.397-5.558 6.284a2.116 2.116 0 0 0-.923-.053c-2.432.358-2.71 2.776-3.156 4.464-.554 2.072-.985 4.583.077 6.59.016.026.031.066.062.092-1.54.678-2.786 1.967-3.402 3.282-.877 1.913.015 3.64 2.201 4.41 2.617.93 5.542-.517 7.912-1.42.523-.2 1.34-.559 1.955-.453.37.067.57.386.8.625.878.89 1.94 1.714 3.325 1.913 2.555.385 4.618-1.382 5.957-3.016 1.247-1.514 2.263-4.264 4.818-4.384 1.34-.066 2.617.345 3.972.12 1.308-.213 2.401-1.037 2.955-2.06.508-.956.677-2.046.616-3.082-.046-1.023-.493-1.98-.6-3.003-.124-1.076.692-1.7 1.831-2.032 1.293-.372 2.494-.598 3.433-1.528.985-.997 1.632-2.285 1.632-3.614 0-1.262-.54-2.458-1.155-3.587-.539-.996-1.2-1.754-.539-2.817.539-.837 1.34-1.554 1.817-2.444ZM60.398 33.18c.523.053.954.319 1.416.531.046.253.093.505.123.771-.63-.24-1.2-.611-1.924-.664.123-.213.246-.425.385-.638Zm.446-.571a3.64 3.64 0 0 1 .462-.479c.123.253.216.519.308.784-.246-.12-.492-.239-.77-.305Zm.139 7.984c-.062-.013-.108-.026-.17-.04-.43-.066-.754.107-.923.372-.323-.332-.57-.983-.693-1.434.724.106 1.386.412 2.078.571a3.616 3.616 0 0 1-.292.531Zm.554-1.169c-.831-.186-1.585-.531-2.447-.624a7.647 7.647 0 0 1-.047-.837c.385.186.77.385 1.201.505.385.12 1.031.013 1.34.239.046.026.092.053.138.066-.062.226-.123.439-.185.651Zm.308-1.342c-.262-.12-.539-.132-.877-.159-.631-.04-1.14-.359-1.694-.598-.077-.04-.154-.04-.215-.04a6.55 6.55 0 0 1 .061-.544c.77.478 1.817.916 2.771.983l-.046.358Zm.108-.996c-.447-.04-.924-.226-1.278-.359-.446-.172-.923-.372-1.308-.637-.031-.027-.077-.04-.108-.054.03-.159.061-.305.108-.465l.046-.159c.539.12 1.062.372 1.54.598.369.16.677.358 1.046.425l-.046.651Zm-1.293-1.953c-.354-.146-.693-.279-1.062-.359.03-.106.077-.199.123-.305.03.013.077.013.108.013.8 0 1.431.492 2.154.73 0 .173.016.346.016.519-.447-.106-.954-.439-1.34-.598Zm-4.203 19.77a.76.76 0 0 1 .139.092 5.957 5.957 0 0 0-.831-.266c.2-.04.43.014.692.173Zm-1.431.398c.723.013 1.37.345 2.016.598.462.186.924.358 1.355.584.046.186.046.412.062.624-.57-.185-1.186-.292-1.71-.584-.615-.345-1.215-.77-1.939-.81.047-.133.124-.28.216-.412Zm-.477 1.076h.123c.693-.08 1.4.624 1.97.877.57.252 1.247.305 1.801.558v.505c-.77-.24-1.524-.492-2.247-.824-.585-.266-1.155-.532-1.801-.651.046-.146.092-.306.154-.465Zm-.416 1.647c.03-.12.077-.305.123-.518.77.12 1.432.545 2.124.824.647.265 1.324.478 2.017.69a4.54 4.54 0 0 1-.139.625c-.6-.013-1.323-.478-1.862-.678-.647-.239-1.278-.491-1.97-.61a.442.442 0 0 0-.416.146 3.67 3.67 0 0 1 .123-.479Zm-.2.731c.015.106.108.2.277.226.8.146 1.57.452 2.324.744.493.2.94.491 1.478.558a5.112 5.112 0 0 1-.246.491 10.35 10.35 0 0 1-1.447-.372c-.754-.239-1.447-.531-2.263-.558-.492-.013-.492.651 0 .665.831.026 1.54.398 2.31.61.338.094.676.187 1.03.253a3.12 3.12 0 0 1-.2.28c-1.154-.373-2.355-.745-3.54-.93h-.046c.046-.665.17-1.33.323-1.967Zm2.786 3.468c-.092.093-.17.172-.277.239-.631.013-1.185-.306-1.785-.425-.478-.093-.693.544-.2.637.261.053.507.133.769.213-.539.385-.37 1.328.508 1.302 1.955-.04 3.125-1.873 3.787-3.242.354-.73.6-1.475.63-2.272.047-.89.047-1.993-.215-2.856-.215-.704-.862-1.037-1.493-1.435l-.416-.279c2.571-2.206 5.034-4.41 6.05-7.52.446-1.395-.046-2.524-.831-3.733-.247-.385-.554-.903-.94-1.342.401-.545.663-1.209.847-1.754.554-1.713.662-3.573.477-5.34-.123-1.09-.384-2.126-.892-3.123a4.04 4.04 0 0 1 1.524-.212c.923.026 1.724.332 2.509.744.892.478 1.77.903 2.724 1.275.97.372 2.001.758 2.817 1.369a24.826 24.826 0 0 1 2.355 2.046c1.478 1.421 2.74 3.055 3.402 4.889.585 1.634.77 3.361.647 5.062-.108 1.727-.54 3.494-1.478 5.022a35.326 35.326 0 0 1-3.694 4.969c-1.386 1.54-2.956 2.91-4.865 3.959-1.8.996-3.77 1.74-5.633 2.657-1.755.863-3.356 1.448-5.403 1.448-.816 0-1.74.12-2.494-.08-.046-.319-.323-.571-.8-.518-.031 0-.047.013-.077.013a1.74 1.74 0 0 1-.277-.451c-.277-.665-.385-1.369-.4-2.1 1.03.186 2.108.505 3.124.837Zm31.417-13.167c.354 1.236.077 2.472-.785 3.508-.847.996-2.047 1.063-3.294 1.488-1.016.345-1.97.97-2.401 1.86-.37.784-.262 1.607-.062 2.418.4 1.66 1.031 4.118-.816 5.354-1.031.69-2.386.399-3.571.279-1.124-.106-2.216-.013-3.202.492-2 1.01-2.832 3.015-4.11 4.57-1.216 1.475-3.294 3.162-5.403 1.86-.861-.532-1.339-1.488-2.293-1.9-.97-.425-2.217-.093-3.156.24-1.216.424-2.4.916-3.648 1.314-1.231.386-2.432.665-3.648.133-.77-.332-1.308-.85-1.231-1.634.092-.824.615-1.647 1.277-2.232.508-.452 1.216-1.01 1.97-1.262.2.106.432.186.647.252.693.519 1.416.997 2.186 1.435.416.24.8-.345.385-.571-.354-.2-.708-.425-1.047-.651.246.013.493.013.754.013l.508.28c.416.252.816.517 1.263.743.43.226.815-.359.384-.571-.292-.146-.554-.319-.83-.478l.769-.04c.2.133.4.292.57.398.369.253.707.479 1.154.638.462.16.662-.478.2-.638a3.13 3.13 0 0 1-.877-.518c.184-.026.369-.066.554-.106.23.12.446.292.662.412.446.239.908.451 1.323.73.385.266.77-.318.385-.57-.462-.306-1-.532-1.478-.825.17-.053.34-.119.493-.185.8.385 1.585.81 2.278 1.341.37.293.908-.186.539-.465-.616-.478-1.278-.863-1.986-1.222.385-.173.77-.359 1.14-.545.03-.013.076-.04.107-.053 0 .106.046.213.17.292.353.226.754.346 1.123.532.416.212.816.438 1.247.624.446.186.831-.385.385-.57-.431-.187-.831-.426-1.247-.625-.37-.186-.754-.306-1.108-.519.307-.146.615-.278.908-.425.354.107.723.399 1.016.545.462.24.923.465 1.37.704.415.226.816-.345.385-.571-.57-.306-1.155-.571-1.724-.877-.093-.053-.185-.106-.278-.146.354-.16.693-.319 1.047-.465.662.372 1.324.757 2.001 1.09.431.212.816-.36.385-.572-.554-.266-1.093-.584-1.632-.877.262-.12.508-.252.755-.372.246.146.492.306.708.439.477.279.97.518 1.508.717.462.16.662-.478.2-.638-.6-.212-1.139-.57-1.693-.89.293-.16.57-.319.862-.491.662.252 1.293.704 1.893.93.447.16.847-.412.385-.572-.538-.199-1.062-.518-1.6-.784.184-.119.369-.252.553-.385.816.412 1.54.957 2.417 1.25.462.159.662-.492.2-.639-.739-.252-1.37-.677-2.047-1.05.154-.119.308-.238.446-.371.216.093.447.186.647.292.462.24.893.518 1.37.744.43.213.816-.372.385-.571-.478-.226-.909-.505-1.37-.744-.154-.08-.308-.146-.462-.226.23-.213.446-.425.662-.638.077.04.154.093.23.12.232.093.463.173.693.266.462.199.924.411 1.401.57.462.16.662-.49.2-.637-.508-.173-.97-.412-1.462-.611a6.737 6.737 0 0 1-.539-.252c.216-.213.416-.439.616-.665.2.067.415.12.616.2.585.239 1.123.544 1.724.77.446.173.846-.398.385-.571-.524-.2-1.016-.465-1.524-.678-.216-.093-.478-.16-.74-.239.185-.226.37-.438.555-.664.015-.027.03-.04.046-.067.246.107.477.253.693.36.492.238 1 .477 1.493.716.43.213.816-.358.385-.57-.57-.28-1.155-.545-1.724-.838-.139-.066-.277-.146-.416-.199.185-.226.37-.465.539-.704.277.093.57.305.8.425.416.213.831.438 1.247.638.431.212.816-.359.385-.572a33.103 33.103 0 0 1-1.555-.797 3.101 3.101 0 0 0-.477-.239c.185-.252.354-.505.523-.757.847.359 1.632.784 2.448 1.209.43.226.816-.359.385-.571-.816-.426-1.601-.85-2.463-1.21.077-.132.17-.265.246-.398.37.133.724.372 1.047.518.554.266 1.062.585 1.6.85.432.213.816-.372.385-.57-.646-.306-1.262-.678-1.908-.997-.277-.133-.524-.28-.8-.386.184-.332.338-.664.492-1.01.877.44 1.678.997 2.555 1.449.431.212.816-.359.385-.571-.924-.479-1.755-1.063-2.678-1.515.015-.053.046-.106.061-.16a4.54 4.54 0 0 0 .154-.491c.354.16.693.319 1.016.518.523.306 1.016.625 1.57.877.431.2.831-.372.385-.571-.554-.253-1.062-.572-1.57-.877-.385-.24-.8-.425-1.216-.598.092-.385.17-.77.246-1.17.385.2.754.466 1.093.665.554.319 1.108.611 1.693.864.447.186.831-.386.385-.572a15.31 15.31 0 0 1-1.893-.983c-.37-.212-.755-.491-1.186-.677.031-.32.062-.651.062-.97.462.186.908.505 1.262.717.616.372 1.216.77 1.801 1.183.385.265.924-.2.539-.465a32.5 32.5 0 0 0-2.186-1.422c-.43-.252-.908-.545-1.4-.704 0-.452-.031-.89-.078-1.342.216.106.416.226.632.346.708.385 1.462.677 2.17 1.062.43.226.816-.345.385-.57-.708-.373-1.478-.678-2.17-1.064a47.725 47.725 0 0 0-1.14-.61 12.008 12.008 0 0 0-.384-1.595l.015.013c.308.133.631.266.954.399.6.265 1.17.571 1.724.916.4.253.785-.318.385-.57a14.46 14.46 0 0 0-1.94-1.024c-.461-.2-.97-.505-1.462-.677-.17-.439-.37-.877-.6-1.303.308.186.616.386.924.545.6.32 1.216.625 1.862.877.446.173.831-.398.385-.571a22.476 22.476 0 0 1-2.094-.997c-.57-.305-1.123-.704-1.724-.93-.138-.199-.261-.385-.415-.584-.37-.478-.755-.944-1.17-1.395.754.358 1.478.744 2.232 1.09.43.199.831-.373.385-.572-1.2-.558-2.37-1.209-3.618-1.7a.422.422 0 0 0-.215-.027c-.03-.027-.046-.053-.077-.08a27.48 27.48 0 0 0-.97-.877c.508.173 1.016.332 1.493.572.431.212.816-.36.385-.572-.723-.358-1.508-.558-2.278-.837-.847-.319-1.678-.638-2.478-1.023a.394.394 0 0 0-.17-.04c-.492-.199-1-.385-1.493-.584.493.133.97.279 1.463.438a.335.335 0 0 0 .2-.637 43.245 43.245 0 0 0-4.126-1.077.363.363 0 0 0-.169 0c-.508-.252-1.016-.478-1.6-.598-1.37-.305-2.602-.199-3.68.213-.154-.16-.415-.252-.677-.252-.154-.425-.154-.917-.123-1.329.046-.77.23-1.594.6-2.298.262-.505.908-1.342 1.617-1.409.415-.04.815.425 1.092.704 1.032 1.05 2.094 2.26 3.88 2.206.8-.027 1.523-.319 2.185-.678.523-.279 1.108-.744 1.74-.783.923-.054 1.616.744 1.8 1.434.231.85.185 1.754.786 2.498.554.704 1.354 1.063 2.324 1.063.862 0 1.986-.08 2.724.425.447.292.508.81.54 1.262.06.797.03 1.581.138 2.378.108.718.323 1.475.985 1.953.585.425 1.354.492 2.093.505 1.586.04 3.864.12 4.941 1.342 1.155 1.315-1.416 3.242-2 4.371-.924 1.98 1.077 3.654 1.631 5.593Zm-46.872-8.369c-.447-.531-1-1.036-1.709-1.288.354-1.116.354-2.365.062-3.574-.354-1.462-1.078-2.91-2.048-4.145-.939-1.21-2.509-2.804-4.433-2.325-.477.12-.816.332-1.046.598-.555-.226-1.17-.598-1.478-.758-.462-.239-.97-.465-1.324-.823-.508-.519-.631-1.223-.77-1.874-.57-2.697.293-5.26 1.063-7.852.292-.053.554-.159.815-.358 1.878-1.382.693-3.587.093-5.235-.74-2.033-1.847-4.37-3.956-5.633a.259.259 0 0 0-.108-.053c.924-1.262 1.247-2.923.985-4.318-.37-2.033-2.17-3.122-4.51-2.83-2.801.359-4.464 2.883-5.972 4.703-.339.412-.832 1.076-1.417 1.236-.354.106-.723-.08-1.062-.186-1.277-.385-2.678-.611-3.986-.186-2.417.797-3.156 3.215-3.34 5.221-.185 1.86.569 4.663-1.555 5.886-1.109.637-2.463.85-3.494 1.634A3.343 3.343 0 0 0 .75 21.596c.123 1.05.63 2.06 1.293 2.923.646.863 1.585 1.488 2.278 2.311.739.864.4 1.767-.37 2.551-.892.89-1.8 1.621-2.047 2.83-.261 1.302-.046 2.684.724 3.826.738 1.09 1.908 1.887 3.109 2.578 1.047.611 2.078.983 2.14 2.192.046.97-.216 1.94-.124 2.91.093.943.478 1.873 1.432 2.418.893.518 2.032.57 3.063.451a10.68 10.68 0 0 0 3.094-.85c.508-.226 1.262-.81 1.878-.77.754.053 1.355 1.142 1.709 1.62.462.625.893 1.329 1.539 1.82 1.678 1.276 3.663.372 5.326-.425.985-.478 1.74.545 2.278 1.116.785.824 1.678 1.329 2.925 1.409.954.066 1.862-.2 2.509-.824.554-.545.83-1.236 1.246-1.86.986-1.448 2.633-.73 4.08-.306.754.226 1.585.372 2.324.067.847-.346 1.262-1.116 1.493-1.86.539-1.634-.23-3.667-1.385-5.036Zm-3.094-2.883c-.554-.146-1.108-.332-1.709-.292a.242.242 0 0 0-.108.027 12.116 12.116 0 0 1-.8-.983c.893.199 1.724.637 2.617.876-.016.107 0 .24 0 .372Zm-.062.665c-.03.16-.061.319-.108.478a7.338 7.338 0 0 1-.985-.757c.37.066.74.186 1.093.279Zm-.03-1.78c-1.032-.306-1.97-.811-3.064-.917a12.179 12.179 0 0 1-.508-.837c.539.08 1.062.265 1.601.385.57.12 1.155.266 1.74.372.092.319.169.651.23.996Zm-.493-1.728a27.178 27.178 0 0 1-1.509-.332c-.662-.16-1.277-.372-1.97-.385a11.695 11.695 0 0 1-.4-.85c1.247-.054 2.34.584 3.525.81.138.24.261.505.354.757Zm-3.556-4.185c.216.067.446.186.677.332a4.67 4.67 0 0 0-.692-.225c.015-.04.015-.067.015-.107Zm-.57.718.093-.04c.862.12 1.662.558 2.493.85.293.359.555.744.801 1.13-1.031-.266-2.016-.771-3.14-.718a.366.366 0 0 0-.185.053c-.123-.412-.215-.837-.215-1.249.03 0 .092 0 .154-.026Zm-3.448-.93c.447.226 1.001.531 1.601.744-.015.637.139 1.328.308 1.886.539 1.714 1.54 3.362 2.74 4.796.739.877 1.586 1.661 2.602 2.299a3.683 3.683 0 0 1-1.186.85c-.816.385-1.678.465-2.601.452-1.047-.013-2.047 0-3.094.106-1.062.106-2.17.226-3.233.067-1.092-.173-2.17-.439-3.232-.718-2.109-.584-4.172-1.421-5.819-2.71-1.462-1.143-2.632-2.551-3.555-4.066-.924-1.527-1.601-3.241-1.694-4.982a30.315 30.315 0 0 1 .247-5.899c.277-1.926.831-3.813 1.847-5.553.97-1.647 2.216-3.162 3.279-4.77 1-1.514 2.032-2.71 3.786-3.627.708-.358 1.432-.876 2.186-1.023l.015.014a.298.298 0 0 0-.2.398c-.061.014-.107.04-.169.067-1.662.903-1.585 2.976-1.34 4.45.124.784.355 1.528.786 2.232.492.784 1.123 1.728 1.878 2.365.6.505 1.354.518 2.14.585.169.013.338.04.523.053-.908 3.03-1.724 6.018-.755 9.127.462 1.409 1.555 2.166 2.94 2.857Zm-2.585-13.485c-.262-.027-.678.013-.924-.08-.508-.213-.954-1.063-1.262-1.488.57.24 1.154.69 1.539.89.523.28 1.078.611 1.678.81a12.72 12.72 0 0 0-1.032-.132Zm2.309-.877c.015.2 0 .385-.062.545a.297.297 0 0 0-.246-.067c-1 .04-2.094-.77-2.925-1.235-.508-.28-1.124-.665-1.755-.718a5.535 5.535 0 0 1-.446-1.142c.831.385 1.662.757 2.463 1.169.461.239.908.491 1.354.744.462.252 1.124.372 1.54.664a.35.35 0 0 0 .076.04Zm-.154-.824c-.216-.08-.431-.146-.662-.252-.54-.24-1.016-.558-1.524-.837-1.062-.558-2.17-1.037-3.264-1.555a6.93 6.93 0 0 1-.03-.983c1.031.253 1.924.784 2.832 1.262.585.306 1.185.598 1.74.944.184.12.353.239.538.332.123.332.277.717.37 1.09Zm-.785-2.152c-.031-.013-.062-.04-.093-.053-.585-.332-1.185-.638-1.77-.944-.862-.465-1.755-.943-2.755-1.155.061-.306.169-.612.415-.81.631.198 1.186.637 1.755.93.6.305 1.232.517 1.893.677.2.451.385.916.555 1.355Zm-1.617-3.122c.231.305.447.624.631.956a8.223 8.223 0 0 1-1.616-.73 9.158 9.158 0 0 0-1.077-.572.646.646 0 0 0-.062-.505c.4.133.77.32 1.154.465.324.12.647.24.97.386Zm-2.062-1.528c.03-.013.061-.04.107-.053.016-.014.046-.027.062-.04.17.053.339.146.508.266.077.053.154.106.23.172a7.373 7.373 0 0 0-.907-.345ZM40.57 46.254c-.339.213-.954-.013-1.354-.133-1.509-.451-3.125-1.023-4.634-.199-.677.372-1.123.943-1.477 1.541-.278.465-.509 1.13-1.032 1.448-.754.452-1.832.067-2.401-.438-.693-.625-1.2-1.422-2.155-1.807-.893-.359-1.786-.319-2.632.12-.74.385-1.678.943-2.602.837-.554-.067-.908-.479-1.2-.85-.524-.652-.955-1.356-1.524-1.98-.508-.572-1.14-1.13-2.001-1.25-.755-.105-1.463.174-2.11.492-1.4.665-3.4 1.595-5.033 1.023-1.77-.624-.692-3.414-.862-4.636-.307-2.246-3.001-2.804-4.633-4.225-1.047-.904-1.524-2.086-1.385-3.361.138-1.236 1.139-1.82 1.955-2.724.662-.744 1.123-1.7.97-2.657-.14-.837-.74-1.501-1.37-2.1-1.324-1.248-3.31-3.095-2.448-4.968.477-1.036 1.816-1.395 2.91-1.807 1.03-.399 1.908-.957 2.462-1.82 1.124-1.754.662-3.826.831-5.74.17-1.806.97-4.171 3.556-3.972 1.047.08 2.032.69 3.094.638 1.078-.053 1.97-.89 2.57-1.581.801-.904 1.525-1.847 2.356-2.724.831-.877 1.693-1.634 3.063-1.727.862-.053 1.632.16 2.016.864.416.744.431 1.687.216 2.47-.17.612-.447 1.409-.939 1.954-.077 0-.17 0-.246.013-1.047-.226-3.556-1.289-3.756-.252-.077.411.662.597.739.172-.031.12-.062.014.169.067.123.026.246.04.37.066.354.08.692.173 1.046.28-.354.132-.693.305-1.047.477-.892-.438-2.093-.518-3.078-.518a.334.334 0 0 0 0 .665c.692-.014 1.57.013 2.293.252-.277.146-.538.292-.8.452-.015-.027-.03-.04-.046-.067-.693-.677-1.524-.04-2.355-.093-.493-.04-.493.625 0 .665.323.026.63-.054.939-.133.292-.067.615-.186.846.013-.4.266-.77.545-1.108.877a2.38 2.38 0 0 1-.539-.053c-.354-.08-.662-.2-1.046-.173-.493.04-.493.704 0 .664.354-.026.661.12 1 .173-.185.226-.37.452-.539.69-.462-.105-.908-.278-1.385-.331-.493-.053-.493.61 0 .664.339.04.662.146.985.24-.123.172-.23.345-.339.517-.584-.146-1.185-.265-1.785-.212-.493.04-.493.704 0 .664.477-.04.939.04 1.385.146-.246.359-.508.718-.754 1.076a9.792 9.792 0 0 0-1.093-.08c-.492-.013-.492.652 0 .665.216 0 .431.013.647.04-.154.199-.293.412-.431.61a11.663 11.663 0 0 0-1.355-.119c-.493-.013-.493.651 0 .665.323 0 .631.026.939.066-.185.266-.37.545-.539.824-.508-.067-1.093.026-1.554.04-.493.013-.493.677 0 .664.292 0 .77-.093 1.17-.08-.124.2-.231.412-.34.611h-1.754a.334.334 0 0 0 0 .665h1.431a10.65 10.65 0 0 0-.369.876c-.508-.066-1-.186-1.524-.146-.492.04-.492.704 0 .665.431-.027.862.04 1.293.106-.108.332-.215.677-.292 1.01-.493-.04-.97-.186-1.463-.2a.334.334 0 0 0 0 .665c.447 0 .862.12 1.293.172-.077.306-.123.611-.184.93-.37-.053-.74-.172-1.109-.172a.334.334 0 0 0 0 .664c.339 0 .678.106 1 .16-.076.478-.122.943-.168 1.42a1.718 1.718 0 0 0-.37-.012c-.323.026-.6.172-.939.159-.492-.027-.492.638 0 .664.308.014.554-.066.831-.133a.88.88 0 0 1 .416 0c-.046.479-.077.97-.092 1.462h-1.155a.334.334 0 0 0 0 .664h1.124v.93H10a.334.334 0 0 0 0 .664h1.17c.031.36.062.718.108 1.077-.338-.067-.677-.186-1.046-.147-.493.04-.493.705 0 .665.4-.027.77.106 1.17.172.03.12.046.24.077.36h-.785a.334.334 0 0 0 0 .663h.97c.092.306.2.625.322.93h-.6a.334.334 0 0 0 0 .665h.878c.154.332.307.664.492.983a9.88 9.88 0 0 0-.893-.053c-.492-.014-.492.65 0 .664.447.013.878.053 1.309.12.123.212.261.425.415.637-.277-.026-.538-.026-.8-.026-.493.013-.493.677 0 .664.37 0 .893-.013 1.324.093.169.213.338.425.523.638h-.924a.334.334 0 0 0 0 .664h1.524c.247.252.493.492.74.73-.293-.013-.586 0-.878 0a.334.334 0 0 0 0 .665c.477 0 .939-.027 1.416.066l.416.08c.354.28.723.545 1.108.784h-.862a.334.334 0 0 0 0 .664h1.97c.431.226.862.439 1.324.638.4.173.8.319 1.2.465-.184.013-.369.027-.569.027a.334.334 0 0 0 0 .664c.677 0 1.324-.106 1.97-.24.354.107.724.2 1.093.293l.323.08c-.123 0-.261-.014-.384-.014a.334.334 0 0 0 0 .665c.492 0 .985.053 1.462 0 .354-.04.693-.16 1.062-.2.447.067.893.12 1.34.133 1.277.04 2.524-.186 3.786-.252 1.293-.067 2.601.146 3.879-.173 1.354-.332 2.355-.97 3.032-1.793.231.066.508.04.74-.08.384.292.676.73.892 1.09.416.69.739 1.474.847 2.245.061.518 0 1.527-.57 1.886Z"/>
</svg>
