<svg xmlns="http://www.w3.org/2000/svg" width="130" height="63" fill="none" viewBox="0 0 130 63">
  <path fill="#40352F" d="M129.378 52.63c-.431-.413-1.016-.665-1.493-1.024-.631-.465-1.108-1.01-1.847-1.368-.585-.292-1.231-.478-1.801-.81-.631-.373-1.201-.824-1.832-1.183-1.324-.744-2.817-1.236-4.264-1.78a39.915 39.915 0 0 1-.846-.333.677.677 0 0 0-.339-.132c-1-.399-2.001-.797-3.048-1.103-1.554-.465-3.201-.797-4.818-1.023-.785-.106-1.585-.133-2.37-.28-.77-.132-1.478-.318-2.263-.331-1.678-.027-3.355.026-5.033.013-.832-.013-1.663-.027-2.479.053-.861.093-1.693.32-2.57.346-.8.026-1.586-.053-2.386.013-.877.066-1.74.173-2.617.226a59.283 59.283 0 0 0-5.11.531c-1.678.24-3.34.492-5.003.81-1.647.306-3.248.678-4.926.838-3.31.305-6.65.73-9.928 1.248-1.632.266-3.217.917-4.88 1.01-1.677.08-3.324-.08-5.002.12-1.617.186-3.248.385-4.849.65-1.508.253-2.894.851-4.156 1.582-1.262.73-2.417 1.594-3.494 2.51a.627.627 0 0 0-.185.24c-.523.279-.631 1.05.016 1.275.569 1.621 2.616 2.75 4.202 3.56 1.046.532 2.155.944 3.248 1.396 1.37.558 2.57 1.382 3.97 1.873 1.51.532 3.203.691 4.819.585.723-.04 1.416-.186 2.124-.28.893-.119 1.832-.066 2.74-.092 1.663-.04 3.356-.133 5.003.08.77.093 1.524.252 2.309.279.862.026 1.724 0 2.586 0 1.678 0 3.278-.093 4.925-.333 1.632-.225 3.264-.398 4.926-.385 1.693.013 3.371.16 5.064.08 1.678-.08 3.356-.372 5.018-.585 3.525-.465 7.004-.757 10.575-.797 1.694-.013 3.371-.212 5.065-.292 1.677-.08 3.355-.014 5.033-.2 3.433-.371 6.834-1.115 10.144-1.94 1.524-.385 3.078-.916 4.418-1.66 1.293-.73 2.693-2.086 1.354-3.388Zm-12.453 4.995c-.523.093-1.046.186-1.57.265-.015-.16-.138-.305-.369-.305-.477.013-.893.16-1.37.172a6.198 6.198 0 0 1-1.786-.225c-1.139-.293-2.185-.824-3.109-1.488-.385-.28-.924.199-.539.465.955.69 2.017 1.235 3.202 1.58.231.067.462.12.708.173-.693.04-1.385.053-2.093.067.092-.2-.031-.465-.339-.465-1.678.04-3.402-.93-4.141-2.206-.215-.385-.892-.053-.662.332.647 1.116 1.94 2.02 3.356 2.379a23.61 23.61 0 0 0-.97.053c-.4.026-.785.053-1.185.066-.431-.2-.831-.465-1.216-.73a8.298 8.298 0 0 1-.939-.784c-.262-.24-.877-.651-.908-.997-.046-.425-.816-.425-.77 0 .108.85 1.278 1.648 1.986 2.166.185.133.369.265.569.398l-1.277.04c-1.832-.2-2.879-1.54-3.818-2.777-.261-.358-.939-.026-.662.333.57.757 1.093 1.594 1.94 2.152.2.12.4.24.616.359l-1.186.04c-.015-.067-.076-.133-.153-.187-.277-.159-.555-.199-.878-.279a2.93 2.93 0 0 1-1.2-.558c-.647-.504-1.016-1.209-1.386-1.873-.215-.385-.877-.053-.662.332.416.718.816 1.462 1.509 2.007.292.225.6.411.954.557.077.027.17.054.262.08-.323.027-.647.04-.97.067-.508-.333-1.108-.532-1.647-.85-.754-.44-1.016-1.103-1.585-1.675-.324-.319-.862.147-.54.465.54.532.786 1.143 1.448 1.595.338.225.723.398 1.108.57-.631.067-1.278.134-1.909.214-1.2-.2-2.401-1.542-2.955-2.339-.262-.358-.924-.026-.662.332.493.691 1.293 1.608 2.247 2.166a8.298 8.298 0 0 1-.57.066c-.23.027-.461.067-.692.093-.385-.16-.816-.146-1.2-.332-.37-.172-.647-.491-.94-.73-.477-.412-1.262-.944-1.215-1.595.046-.425-.724-.425-.77 0-.077.758.631 1.355 1.2 1.86.34.293.678.625 1.063.877.092.053.169.106.261.146l-.892.12-.016-.014c-.339-.185-.739-.239-1.093-.411-.43-.213-.8-.505-1.154-.798-.677-.558-1.34-1.209-1.524-2.019-.092-.425-.847-.24-.739.173.2.85.862 1.568 1.57 2.179.37.305.754.61 1.17.863.108.067.215.107.323.16-.061 0-.138.013-.2.013-.246.013-.493.013-.739.026.046-.185-.077-.398-.354-.385-1.8.12-3.048-1.7-3.417-3.029-.108-.412-.862-.24-.739.173.323 1.169 1.232 2.59 2.555 3.202-.585-.027-1.17-.04-1.755-.067-1-.704-2.17-1.594-2.124-2.79.016-.425-.754-.425-.77 0-.046 1.143.786 2.033 1.71 2.777-.324 0-.647.013-.986.027-.97-.798-2.293-1.728-2.201-2.963.03-.425-.739-.425-.77 0-.092 1.235.955 2.192 1.94 3.029l-.462.04c-.215-.093-.416-.093-.662-.16-.477-.133-.754-.531-1.047-.863-.585-.704-1.123-1.462-1.246-2.338-.062-.426-.832-.426-.77 0 .138 1.01.662 1.86 1.355 2.67.246.292.492.611.815.85-.261.027-.508.067-.77.093-.323-.133-.677-.2-.984-.358-.508-.253-.97-.651-1.34-1.05-.554-.611-1.123-1.422-1.062-2.219.031-.425-.739-.425-.77 0-.076.917.54 1.82 1.14 2.525a5.68 5.68 0 0 0 1.17 1.01c.153.092.307.172.461.252-.23.026-.461.053-.692.066a.36.36 0 0 0-.216-.16c-.939-.292-1.8-.464-2.401-1.235-.523-.678-.862-1.461-1.324-2.179-.246-.372-.908-.04-.662.332.554.85.924 1.834 1.678 2.578.339.345.77.558 1.231.73-.338 0-.677.014-1.016.014a.395.395 0 0 0-.338-.266c-.293-.026-.554-.266-.785-.398-.385-.213-.77-.386-1.108-.651-.6-.465-1.217-1.17-1.155-1.887.03-.425-.739-.425-.77 0-.076.877.585 1.7 1.294 2.285.369.306.815.532 1.246.77l.277.16c-.739 0-1.477-.04-2.2-.133-.093-.013-.17-.026-.263-.04-.77-.89-1.046-2.059-1.339-3.122-.107-.412-.862-.239-.739.173.262.956.524 1.966 1.078 2.83-.246-.027-.477-.04-.724-.067-.83-1.116-1.862-2.125-2.37-3.4-.154-.4-.908-.227-.739.172.477 1.182 1.34 2.152 2.155 3.162-.4-.013-.785-.027-1.185-.027-.523-.372-1.047-.73-1.416-1.209-.524-.677-.74-1.5-1.032-2.258-.154-.399-.908-.226-.738.172.323.81.57 1.688 1.123 2.419.262.345.585.624.924.89h-.631c-.262-.28-.508-.585-.631-.731-.816-.93-1.432-1.966-1.91-3.056-.168-.398-.923-.226-.738.173.539 1.222 1.231 2.365 2.155 3.401.062.066.123.146.2.213-.338 0-.677.013-1.016.026-.446-.438-.846-.903-1.154-1.421-.493-.81-.8-1.688-1.155-2.538-.17-.399-.908-.226-.739.173.385.903.709 1.846 1.232 2.697.246.412.554.797.877 1.156-.184.013-.385.04-.57.066-.03 0-.045.013-.076.013.015-.08-.016-.172-.123-.252-.678-.478-1.293-.957-1.74-1.62-.477-.705-.785-1.476-1.093-2.246-.154-.399-.908-.226-.739.172.324.824.662 1.648 1.17 2.392.447.664 1.032 1.156 1.694 1.634l-.863.08c-.015-.014-.046-.027-.061-.04-1.986-.93-2.863-2.67-3.818-4.331-.215-.386-.877-.053-.661.332.862 1.514 1.693 3.03 3.201 4.065-.307-.013-.615-.04-.939-.066.016-.106-.03-.226-.2-.292-1.062-.439-1.97-1.077-2.801-1.78-.893-.771-1.34-1.595-1.878-2.552-.216-.385-.878-.053-.662.333.57 1.023 1.062 1.873 2.001 2.683.431.372.893.731 1.37 1.05-.8-.319-1.54-.73-2.309-1.13-2.047-1.049-4.294-1.66-6.172-2.962-.632-.425-1.586-1.09-1.663-1.834v-.013c2.047-1.7 4.418-3.321 7.312-3.64 1.6-.173 3.17-.492 4.771-.624 1.57-.133 3.156.106 4.726-.08 1.493-.16 2.879-.704 4.356-.957 1.57-.266 3.156-.438 4.741-.638 1.586-.199 3.14-.438 4.741-.584a39.614 39.614 0 0 0 4.541-.69c3.14-.652 6.419-1.21 9.636-1.436 1.601-.106 3.233-.332 4.818-.332.708 0 1.432.04 2.14-.04.83-.093 1.631-.305 2.478-.332 1.632-.066 3.248.053 4.879.027.739-.014 1.478-.093 2.202-.053.723.04 1.416.279 2.155.371 1.816.2 3.571.479 5.31.89-.123 0-.231.014-.354.014-1.508.093-2.971.425-4.464.598-1.647.2-4.264 0-4.602 1.9-.4 2.271 1.939 3.733 3.694 4.995 2.078 1.488 4.356 2.83 7.019 3.361 1.57.306 3.233.32 4.834.492-.57.279-1.032.372-1.494.452Zm-6.018-4.331a76.556 76.556 0 0 1-2.817-1.382c-.754-.386-1.647-.824-2.525-.957h-.03a4.295 4.295 0 0 1-.755-.877c.031.014.047.027.077.027.308.12.632.24.939.359.755.305 1.524.598 2.263.93 1.416.624 2.663 1.488 4.079 2.099 1.37.584 2.802 1.156 4.095 1.846.308.173.615.32.923.439a24.233 24.233 0 0 0-1.385-.12c-1.662-.704-3.217-1.62-4.864-2.364Zm2.678 2.085c-1.601-.372-3.094-1.05-4.448-1.886a34.16 34.16 0 0 1-1.724-1.156c.215.106.431.226.631.332.969.518 1.97.957 2.971 1.435.862.398 1.708.85 2.57 1.275Zm10.498.625h-.369c-1.309 0-2.633.013-3.941 0-.462-.146-.908-.332-1.37-.478-.77-.24-1.401-.572-2.109-.917-1.37-.704-2.863-1.236-4.264-1.887-1.354-.638-2.57-1.448-3.955-2.046a82.166 82.166 0 0 0-2.263-.916c-.462-.173-.924-.439-1.401-.598a.94.94 0 0 1 .015-.36c.724.2 1.309.692 1.986.984.785.332 1.601.611 2.432.89a224.16 224.16 0 0 1 5.311 1.847c1.754.638 3.555 1.156 5.31 1.793 1.555.572 3.079 1.196 4.649 1.701-.016-.027-.016-.027-.031-.013Zm1.047-.359a.36.36 0 0 0-.154-.093c-1.801-.531-3.51-1.249-5.264-1.886-1.771-.638-3.587-1.17-5.357-1.807a234.276 234.276 0 0 0-5.188-1.807c-.908-.306-1.862-.598-2.724-1.023-.477-.226-.893-.532-1.37-.744.739-.173 1.57-.146 2.324-.226.139-.013.277-.04.416-.053.338.16.693.292 1.031.452.847.372 1.663.77 2.494 1.169 1.678.797 3.386 1.54 5.11 2.271 1.647.705 3.264 1.475 4.926 2.153.723.292 1.462.61 2.217.85.631.2 1.308.319 1.893.611-.108.053-.231.093-.354.133Zm1.339-.545a1.679 1.679 0 0 0-.169.08c-.477-.306-1.032-.505-1.601-.664-.878-.24-1.693-.545-2.525-.877-1.801-.718-3.54-1.555-5.326-2.312-1.77-.744-3.525-1.501-5.233-2.325a84.14 84.14 0 0 0-2.509-1.169 31.615 31.615 0 0 1 1.97-.279c.031.013.046.04.092.053 2.925 1.262 5.911 2.431 8.898 3.574 1.446.545 2.816 1.21 4.233 1.794.723.292 1.416.61 2.139.916.447.186.908.333 1.339.505-.4.28-.892.505-1.308.704Zm1.77-1.262c-.431-.186-.893-.332-1.339-.505-.708-.292-1.401-.61-2.109-.903-1.462-.598-2.878-1.276-4.371-1.847-2.648-1.01-5.311-2.046-7.912-3.148.8-.027 1.601-.014 2.416-.014.385.253.909.412 1.324.558 1.031.359 2.14.611 3.079 1.13.923.504 1.893.823 2.878 1.235.416.173.878.292 1.262.492.308.16.478.292.832.279.292.12.585.239.862.372.692.345 1.154.916 1.785 1.341.37.253.985.479 1.232.85.061.067.077.107.061.16ZM95.16 33.817c-.123-.492-.385-.983-.554-1.475-.17-.492-.37-.97-.724-1.382-.83-.983-2.232-1.554-3.525-1.966-1.462-.452-2.986-.691-4.479-1.023a41.249 41.249 0 0 1-4.726-1.369c-.708-.252-1.37-.584-2.093-.797-.831-.239-1.724-.412-2.57-.584-1.694-.359-3.402-.306-5.126-.253-1.755.053-3.495.08-5.25.12a28.765 28.765 0 0 1-5.449-.412c-1.739-.279-3.386-.319-5.156-.319-.831 0-1.555-.2-2.386-.319-.923-.133-1.832.014-2.755-.026-.785-.027-1.54-.293-2.325-.346-.369-.026-.739.014-1.108 0-.539-.013-1.031-.133-1.555-.212-1.677-.293-3.386-.505-5.095-.452-1.785.053-3.586-.305-5.34-.545-1.756-.226-3.51-.518-5.296-.491-.862.013-1.74.08-2.601.026-.863-.053-1.694-.319-2.571-.319-.339 0-.662.054-1 .027-.462-.04-.955-.173-1.401-.266-.8-.172-1.617-.372-2.448-.425-.816-.053-1.585-.066-2.386-.2-.862-.145-1.708-.159-2.586-.145-1.8.026-3.586.093-5.372.279-2.863.305-5.91 1.01-7.896 2.976-.77.757-1.201 1.714-.555 2.644.108.16.324.292.54.345.692.983 1.816 1.515 2.955 2.073 1.339.664 2.509 1.567 3.77 2.338 1.417.877 2.926 1.594 4.48 2.219.139.146.339.239.616.239 1.324.518 2.678.97 4.048 1.421 3.402 1.116 6.896 1.794 10.452 2.418 1.724.306 3.448.532 5.172.837 1.816.32 3.602.704 5.418.983 3.68.559 7.373 1.09 11.068 1.595 1.862.252 3.74.385 5.603.664.831.12 1.647.266 2.478.359.939.106 1.847.08 2.786.053.877-.013 1.755.093 2.632.186.955.106 1.924.146 2.879.226 1.77.146 3.51.598 5.28.638 1.724.04 3.478-.266 5.156-.532a53.649 53.649 0 0 0 5.049-1.063c1.616-.425 3.233-.93 4.741-1.594.708-.306 1.385-.651 2.093-.957.755-.319 1.54-.491 2.325-.73.646-.2 1.139-.518 1.708-.837.57-.32 1.201-.558 1.678-.983.724-.638 1.632-1.741 1.4-2.644ZM15.579 22.099c.77 0 1.478.172 2.232.279h.046c.062.12.185.212.354.292.985.412 2.047.744 3.002 1.222.985.505 1.878 1.21 2.693 1.887.17.146.354.279.524.425a.125.125 0 0 0-.062-.027c-.43-.212-.923-.332-1.37-.505a84.768 84.768 0 0 1-3.232-1.395c-1.586-.717-3.14-1.46-4.71-2.165.169-.013.338-.013.523-.013Zm-2.51.053c.124 0 .247-.014.37-.014 2.17.944 4.295 1.98 6.45 2.95 1.077.478 2.155.97 3.263 1.368.493.173.908.359 1.355.598.354.186.708.32 1.139.306.03 0 .046 0 .077-.014.03.027.061.067.108.093.43.426.97.984.8 1.528-.539-.16-1.108-.478-1.6-.65-.817-.28-1.602-.652-2.387-1.024-1.477-.69-2.986-1.288-4.51-1.9-1.478-.597-2.894-1.288-4.387-1.86a61.042 61.042 0 0 1-3.079-1.288c.816-.027 1.601-.067 2.402-.093Zm-5.125.425c.446-.067.893-.12 1.355-.173 1.4.611 2.786 1.236 4.217 1.78 1.617.625 3.156 1.382 4.772 2.02 1.585.611 3.094 1.289 4.633 1.993a23.48 23.48 0 0 0 2.186.877c.385.132.754.318 1.124.465-.277.226-.616.385-.97.518-.508-.173-1.016-.32-1.54-.479-.954-.292-1.785-.73-2.662-1.155-1.724-.837-3.648-1.395-5.45-2.1-1.739-.677-3.432-1.381-5.202-1.992a52.34 52.34 0 0 1-2.755-1.037 15.765 15.765 0 0 1-.97-.451c.4-.107.816-.2 1.262-.266Zm-2.232.571c.616.24 1.216.572 1.801.81.8.333 1.6.625 2.417.904 1.893.651 3.71 1.395 5.556 2.113 1.755.677 3.633 1.222 5.296 2.059.738.358 1.431.744 2.232 1.01.369.119.754.239 1.123.345a1.24 1.24 0 0 0-.154.053c-.261.08-.523.173-.785.253-.508-.226-1.077-.412-1.57-.598-.816-.306-1.631-.625-2.447-.917-.908-.332-1.755-.77-2.663-1.13a36.655 36.655 0 0 0-2.586-.876c-1.832-.545-3.617-1.17-5.434-1.727-.939-.293-1.893-.572-2.817-.904-.554-.2-1.093-.425-1.647-.611a11.041 11.041 0 0 1 1.678-.784Zm-2.478 1.249c.8.186 1.554.518 2.324.797.816.293 1.647.545 2.478.797 1.817.558 3.618 1.183 5.434 1.727.954.28 1.893.572 2.801.944.801.319 1.54.73 2.34 1.023.847.305 1.709.624 2.555.943.324.12.678.24 1.032.385-.524.173-1.047.332-1.586.492-.307.093-.6.173-.908.266a.41.41 0 0 0-.077-.093c-.43-.332-.923-.518-1.477-.665a18.575 18.575 0 0 1-2.125-.69c-1.462-.585-2.786-1.316-4.279-1.82-.708-.24-1.324-.612-2.016-.864-.77-.28-1.555-.545-2.325-.81-1.616-.585-3.402-1.05-4.94-1.781.2-.226.492-.452.769-.651Zm10.328 7.918c-.092-.04-.2-.08-.292-.106-1.447-.545-2.786-1.236-4.064-2.02a17.46 17.46 0 0 1-.646-.411c.077.026.138.066.215.093.878.359 1.817.505 2.725.797 1.031.332 2.032.704 3.047 1.05.447.146.893.265 1.34.411.154.053.415.12.677.186-.985.053-2.001.014-3.002 0Zm3.264-.57c-.447-.12-.878-.293-1.324-.426-1.185-.345-2.324-.757-3.463-1.17-1.016-.358-2.11-.517-3.094-.943-.924-.398-1.786-.876-2.817-1.062-.031 0-.077-.014-.108 0-.139-.08-.293-.16-.431-.24-1-.518-2.14-.903-2.755-1.793v-.146c1.154.465 2.4.81 3.555 1.235.8.293 1.601.572 2.402.85.77.266 1.462.612 2.2.917.663.266 1.355.452 2.002.744.723.32 1.4.705 2.14 1.01.615.253 1.23.518 1.877.718.6.186 1.278.265 1.832.57-.338.08-.677.147-1.016.2-.015-.013-.015-.027-.03-.04-.293-.279-.585-.319-.97-.425Zm76.595 2.59c-.4 1.01-1.417 1.408-2.356 1.966-.57.346-1.046.571-1.708.744-.739.186-1.432.425-2.124.718-1.401.597-2.71 1.248-4.172 1.727a48.293 48.293 0 0 1-5.988 1.514c.062-.053.124-.093.185-.146.724-.611.939-1.448 1.416-2.192.246-.372-.43-.704-.662-.332-.446.69-.646 1.501-1.308 2.059-.447.385-.954.678-1.509.93a41.48 41.48 0 0 1-1.693.24c-.462.052-.908.092-1.339.105.97-.624 1.616-1.647 2.201-2.55.246-.372-.415-.705-.662-.333-.723 1.117-1.6 2.684-3.278 2.804a.509.509 0 0 0-.139.026c-.462-.04-.939-.093-1.431-.16.354-.225.677-.517.985-.783.662-.571 1.293-1.182 1.308-2.02.015-.425-.754-.425-.77 0-.015.652-.584 1.13-1.077 1.555-.447.385-.939.957-1.632.93-.154 0-.246.053-.308.133a48.063 48.063 0 0 0-1.37-.133c.262-.173.493-.385.709-.651.508-.584 1-1.235 1-1.993 0-.425-.77-.425-.77 0 0 .532-.354.997-.708 1.422-.323.412-.692.863-1.323.93a.422.422 0 0 0-.324.186c-.385-.027-.77-.067-1.17-.106-.03 0-.046 0-.077-.014.293-.345.57-.704.8-1.05.37-.517 1.017-1.46.247-1.94-.4-.252-.785.32-.385.572.2.133-.846 1.462-.97 1.621-.184.24-.384.465-.584.704a23.332 23.332 0 0 0-1.355-.133c-.215-.013-.43-.013-.646-.013.23-.226.43-.465.615-.717.447-.598.678-1.29.924-1.953.154-.412-.585-.585-.739-.173-.23.611-.43 1.249-.847 1.794a7.944 7.944 0 0 1-1.03 1.089c-.324.013-.647.013-.97 0-.34-.013-.678-.053-1.017-.08.355-.239.678-.491.924-.837.462-.65.677-1.421.77-2.165.046-.425-.724-.425-.77 0-.092.717-.323 1.527-.862 2.085-.308.306-.708.545-1.093.771-.631-.093-1.262-.2-1.909-.292.278-.226.524-.505.724-.77.508-.665 1.047-1.422.985-2.246-.03-.425-.8-.425-.77 0 .047.624-.369 1.182-.723 1.7-.277.386-.708 1.063-1.293 1.09a.335.335 0 0 0-.216.066c-.215-.026-.415-.04-.63-.066.784-.651 1.4-1.462 1.57-2.405.076-.412-.663-.598-.74-.172-.184 1.023-.923 1.846-1.831 2.47-.493-.052-.97-.119-1.462-.172l.323-.319c.446-.491.57-1.182 1.031-1.647.323-.32-.216-.797-.539-.465-.4.398-.523.89-.816 1.341-.246.373-.584.691-.954.97-.6-.08-1.2-.16-1.8-.252l.045-.04c.57-.518 1.293-1.103 1.432-1.833.077-.412-.662-.598-.739-.173-.108.598-.708 1.076-1.17 1.488-.154.146-.323.292-.492.438-.816-.12-1.617-.239-2.433-.358.709-.518 1.324-1.143 1.694-1.9.2-.386-.477-.731-.662-.332-.431.877-1.185 1.554-2.063 2.086-.03 0-.061-.014-.108-.014-.446-.066-.877-.12-1.323-.186.723-.677 1.2-1.461 1.277-2.458.031-.425-.739-.425-.77 0-.076.984-.646 1.7-1.446 2.339-.524-.08-1.047-.147-1.57-.226.2-.173.384-.346.538-.518.477-.492.77-1.05 1-1.648.155-.412-.584-.584-.738-.172-.185.491-.416.956-.8 1.355-.262.279-.616.637-1.016.823-.123-.026-.247-.04-.354-.066-.493-.08-.97-.173-1.463-.266.17-.172.354-.345.524-.518.63-.638.646-1.289.923-2.06.154-.411-.6-.584-.739-.172-.2.558-.184 1.143-.6 1.62-.215.253-.492.48-.739.718a2.55 2.55 0 0 0-.215.253c-.6-.12-1.2-.226-1.817-.332.185-.133.354-.28.508-.412.585-.492 1.047-1.023 1.37-1.661.185-.398-.554-.571-.739-.173-.261.532-.692.97-1.17 1.369-.307.252-.646.558-1.046.704-.385-.066-.785-.12-1.17-.186.646-.478 1.14-1.116 1.678-1.78.277-.346-.385-.678-.662-.333-.631.771-1.17 1.528-2.078 1.94-.57-.093-1.14-.172-1.709-.266.755-.411 1.324-1.062 1.863-1.78.277-.359-.4-.69-.662-.332-.662.864-1.34 1.7-2.57 1.887-.509-.08-1.001-.173-1.494-.266 1.386-.266 2.417-1.17 3.186-2.179.278-.359-.4-.69-.661-.332-.678.89-1.647 1.793-2.94 1.913-.293.027-.416.279-.354.465a45.537 45.537 0 0 1-1.955-.399c.492-.172.97-.385 1.4-.597a6.258 6.258 0 0 0 2.094-1.635c.292-.345-.37-.677-.662-.332a5.354 5.354 0 0 1-1.816 1.395c-.74.359-1.632.77-2.494.81a57.59 57.59 0 0 1-3.94-1.168c.092-.014.184-.014.276-.027 1.417-.186 2.787-.598 4.126-1.01a95.035 95.035 0 0 0 3.94-1.262c.909-.319 1.801-.823 2.279-1.58 1.108-1.808-1.078-3.468-2.433-4.598-.908-.77-1.862-1.514-2.893-2.178.63.093 1.216.053 1.862.066.816.013 1.632.266 2.448.319 1.677.106 3.324-.08 5.002.106 1.678.2 3.356.425 5.034.651.785.106 1.585.24 2.37.266.847.026 1.678-.08 2.525-.014 1.57.133 3.109.572 4.679.665.416.026.831-.027 1.247 0 .415.026.8.12 1.2.199.8.146 1.57.146 2.386.12.77-.027 1.416.053 2.17.199.801.16 1.602.173 2.417.173 1.77-.027 3.387.159 5.11.438 1.617.252 3.249.332 4.896.292 1.647-.04 3.31-.066 4.956-.106 1.663-.053 3.325-.16 4.957.2.693.145 1.385.318 2.078.464.754.173 1.431.492 2.14.758 1.508.57 3.124 1.023 4.694 1.421 1.324.332 2.694.545 4.018.877 1.216.306 2.77.757 3.54 1.687.308.36.416.81.554 1.236.185.279.555.757.4 1.156Zm29.585-24.658c-.37-1.33-2.094-1.01-3.31-1.077-.939-.04-1.847-.212-2.771-.292-1.031-.093-2.062-.013-3.094-.013-.969.013-1.908-.12-2.863-.173-1.077-.066-2.139-.08-3.217-.12a80.666 80.666 0 0 1-6.203-.504c-1.97-.226-3.91-.625-5.895-.797-2.032-.16-4.018-.293-6.035-.585-1.985-.279-3.956-.505-5.972-.545a29.667 29.667 0 0 1-2.863-.226c-1.047-.132-2.063.014-3.11-.026-.892-.027-1.723-.319-2.616-.385-1-.067-2.001.066-3.017.013-1.955-.106-3.864-.439-5.819-.651-.985-.106-1.97-.186-2.955-.292-1.062-.12-2.155-.107-3.202-.306-1.878-.345-3.648-1.01-5.51-1.435-.94-.226-1.91-.385-2.833-.638-.83-.225-1.647-.491-2.509-.61C48.32.256 46.965.574 45.95.96c-1.216.452-2.37 1.063-3.54 1.594-1.709.771-3.525 1.515-5.065 2.511-1.308.864-2.386 1.927-3.386 3.056l-1.432 1.634c-.246.28-.492.545-.739.824-.2.213-.523.465-.707.73v.014c-.047.066-.077.133-.108.2-.339 1.129 1.708 1.514 2.555 1.74 1.785.465 3.633.69 5.449 1.05 2.032.398 4.017.982 6.05 1.341 1.97.359 4.017.452 6.003.744 4.048.571 8.065 1.329 12.114 1.913 2.016.293 4.064.359 6.095.638 2.017.279 4.018.664 6.034.93 4.126.558 8.25 1.063 12.392 1.554 4.11.492 8.142 1.21 12.314 1.316 1.601.04 3.202.451 4.802.398.724-.013 1.447-.146 2.094-.438.8-.359 1.37-.97 2.063-1.435 1.354-.917 2.909-1.594 4.263-2.511.662-.452 1.186-1.023 1.863-1.462.739-.478 1.539-.863 2.263-1.355a54.395 54.395 0 0 0 3.94-2.989c1.016-.837 2.094-1.98 1.74-3.281ZM46.472 2.369c.354-.146.955-.425 1.355-.345a.377.377 0 0 1 .2.093c.015.027.03.04.046.053.185.319-.246 1.023-.508 1.395-.246-.106-.492-.2-.708-.292-.385-.173-.816-.346-1.216-.545.262-.12.539-.252.831-.359Zm-1.585.731c.4.213.831.385 1.231.585.262.133.724.252 1.047.425-.2.252-.431.491-.677.73-.2-.092-.431-.159-.631-.239a8.959 8.959 0 0 1-1.986-1.023l1.016-.478Zm-1.755.81c.508.36 1.031.691 1.616.97.277.12.816.253 1.216.439-.354.305-.723.584-1.108.877-.015 0-.015.013-.015.013-.2-.12-.385-.332-.555-.452-.292-.2-.63-.358-.954-.518-.492-.239-1-.478-1.508-.717.415-.213.862-.412 1.308-.611Zm-2.14.984c.724.332 1.447.664 2.156 1.023.369.186.677.372.985.637.03.027.077.054.107.093-.246.173-.492.333-.739.492-.677-.465-1.4-.824-2.124-1.236-.37-.212-.708-.491-1.077-.677.215-.12.462-.226.693-.332Zm-1.616.77h.031c.647-.013 1.293.651 1.801.93.554.293 1.108.585 1.616.93-.246.146-.508.28-.785.412-.877-.863-2.155-1.355-3.325-1.913.231-.12.447-.24.662-.359Zm-1.724 1.09c.123-.107.262-.2.4-.293 1.124.558 2.402 1.01 3.31 1.807-.03.014-.046.027-.077.04-.431.186-.877.346-1.324.505-.292-.027-.585-.306-.831-.452-.308-.172-.616-.319-.924-.478-.385-.213-.739-.452-1.108-.664a5.77 5.77 0 0 1 .554-.465Zm-1.093.943c.524.292 1.032.638 1.57.917.293.146.57.345.878.518-.216.066-.416.133-.631.212-.755-.411-1.632-.664-2.355-1.116.184-.186.354-.358.538-.531Zm-1.016 1.036c.6.359 1.293.598 1.94.904-.2.066-.416.133-.616.199-.23.08-.462.146-.692.226-.17-.093-.34-.213-.493-.28-.2-.092-.539-.212-.724-.384.185-.226.385-.452.585-.665Zm-1.046 1.17a4.1 4.1 0 0 0 .708.398.125.125 0 0 0 .061.027c-.492.146-.985.279-1.493.385.246-.253.493-.532.724-.81Zm86.862.425c-.031.225-.17.425-.293.61-.554.758-1.431 1.316-2.17 1.914-1.032.823-2.078 1.66-3.233 2.365-.508.319-1.062.57-1.554.876-.508.32-.893.705-1.355 1.077-.908.73-1.986 1.288-3.017 1.86a20.556 20.556 0 0 0-2.925 1.913c-.554.438-1.17.65-1.831.717a8.578 8.578 0 0 0 1.246-2.258c.154-.412-.585-.585-.738-.173-.355.903-.816 1.714-1.463 2.445-.108-.014-.231-.014-.338-.027-.508-.053-1.001-.12-1.509-.186l.293-.252c.507-.439.969-.957 1.031-1.595.031-.425-.739-.425-.77 0-.031.479-.508.877-.877 1.196-.2.173-.431.399-.677.545a10.079 10.079 0 0 0-.909-.053l-1.477-.04a3.385 3.385 0 0 0 .908-1.94c.046-.425-.724-.425-.77 0-.077.73-.523 1.408-1.154 1.887-.647-.04-1.309-.08-1.955-.147-.108-.013-.231-.026-.339-.04.108-.066.2-.132.308-.199.708-.451 1.34-.983 1.801-1.647.262-.372-.4-.704-.662-.332-.385.558-.924 1.023-1.524 1.408-.308.2-.693.518-1.093.624-.723-.106-1.447-.212-2.155-.332a9.958 9.958 0 0 0 1.309-1.66c.23-.372-.431-.718-.662-.333a10.28 10.28 0 0 1-1.093 1.435c-.123.12-.262.293-.416.439-.908-.12-1.832-.24-2.74-.346.678-.531 1.155-1.102 1.647-1.793.262-.36-.4-.705-.662-.333-.446.612-.861 1.196-1.523 1.661-.139.093-.293.213-.447.332-.215-.026-.43-.053-.63-.08-.632-.079-1.263-.159-1.879-.225l.323-.24c.816-.61 1.37-1.381 1.77-2.245.185-.398-.553-.57-.738-.172a4.933 4.933 0 0 1-1.447 1.846c-.262.213-.6.492-.97.678l-2.216-.28c.83-.623 1.262-1.673 1.723-2.59.2-.385-.461-.73-.661-.332-.508.983-.955 2.485-2.31 2.764-.723-.093-1.462-.186-2.185-.28.123-.132.246-.278.354-.398.631-.73 1.17-1.435 1.247-2.365.046-.425-.74-.425-.77 0-.061.717-.508 1.289-1 1.86-.2.226-.431.558-.724.797a84.586 84.586 0 0 1-2.663-.398c.216-.16.4-.36.6-.532.678-.65 1.14-1.368 1.586-2.152.215-.385-.447-.718-.662-.332-.354.611-.693 1.249-1.2 1.767-.385.385-.924 1.063-1.57 1.036h-.093c-.677-.106-1.34-.213-2.017-.319.078-.08.154-.173.231-.252.6-.638 1.032-1.355 1.524-2.06.262-.372-.415-.704-.662-.332-.415.585-.754 1.196-1.231 1.74-.2.227-.446.545-.724.771-.43-.066-.861-.12-1.277-.172-.216-.027-.416-.054-.631-.067.338-.279.662-.571.908-.917.539-.743.6-1.62.908-2.444.154-.412-.585-.585-.739-.173-.277.757-.323 1.595-.83 2.285-.34.452-.817.81-1.278 1.156-.616-.053-1.232-.093-1.848-.146.324-.226.6-.518.862-.77.708-.678 1.263-1.435 1.74-2.26.215-.384-.447-.716-.662-.331-.416.717-.862 1.395-1.478 2.006-.415.398-.908 1.023-1.555 1.116a.313.313 0 0 0-.215.106c-.446-.066-.908-.12-1.355-.199.847-.718 1.416-1.66 1.54-2.71.046-.426-.724-.426-.77 0-.123 1.023-.8 1.94-1.74 2.55-.523-.08-1.03-.172-1.554-.265-.154-.027-.323-.053-.477-.08.385-.399.693-.89 1.047-1.302.292-.345-.37-.678-.662-.332-.4.465-.724 1.17-1.309 1.475-.554-.093-1.093-.186-1.647-.266.016-.013.016-.013.03-.027.478-.478.832-1.036 1.186-1.58.231-.373-.43-.718-.662-.333-.354.558-.708 1.116-1.2 1.581-.077.08-.17.146-.262.213-.616-.093-1.216-.186-1.832-.28 0-.012.016-.012.016-.026.292-.332.492-.704.77-1.05.23-.292.446-.518.476-.876.031-.425-.738-.425-.77 0-.015.226-.26.412-.4.584-.184.253-.353.518-.538.77a2.722 2.722 0 0 1-.431.453c-.677-.107-1.37-.2-2.047-.293a5.87 5.87 0 0 0 .877-1.341c.185-.386-.477-.731-.662-.333-.262.532-.585 1.143-1.093 1.568-.739-.093-1.493-.186-2.247-.279.416-.345.785-.73 1.185-1.036.37-.293-.185-.758-.539-.465-.384.292-.692.65-1.077.943-.17.133-.385.306-.616.438-.046 0-.092-.013-.138-.013a44.43 44.43 0 0 1-1.417-.186 5.187 5.187 0 0 0 1.278-1.222c.262-.359-.4-.69-.662-.332-.4.558-.985 1.116-1.708 1.355-.555-.12-1.124-.24-1.694-.385.77-.24 1.478-.651 2.001-1.236.308-.345-.369-.664-.661-.332-.724.824-1.94 1.156-3.094 1.17l-.37-.08a5.85 5.85 0 0 0 .4-.213c.708-.479 1.155-1.17 1.509-1.873.2-.386-.462-.731-.662-.333-.277.532-.585 1.09-1.062 1.502-.57.478-1.232.558-1.97.57-.17-.039-.355-.066-.524-.105-1.37-.253-2.77-.399-4.11-.731-.03-.013-.061-.013-.092-.027a31.164 31.164 0 0 0 2.432-.717c1.616-.545 3.263-1.023 4.833-1.674 1.601-.651 2.91-1.515 4.233-2.511 1.155-.864 2.217-1.78 2.94-2.95.278-.451.57-1.01.662-1.567.908.212 1.801.518 2.71.717 1.37.306 2.724.625 4.063 1.01 1.324.385 2.648.757 4.033.903 1.447.16 2.925.266 4.372.386 2.786.226 5.556.89 8.373.784.724-.027 1.447-.093 2.17.026.632.106 1.248.266 1.91.306.723.04 1.447-.027 2.17-.027.739 0 1.431.133 2.155.213 1.4.146 2.832.08 4.233.199 1.462.12 2.91.345 4.371.545 2.802.372 5.634.398 8.42.85 2.864.465 5.819.77 8.728.903 1.462.067 2.94.054 4.387.2 1.416.146 2.817.04 4.233.066 1.401.027 2.771.306 4.172.346.323.013.631.013.954.013.015 0 .092.013.154.013-.092.106-.077.186-.092.253Z"/>
</svg>
