<svg xmlns="http://www.w3.org/2000/svg" width="104" height="50" fill="none" viewBox="0 0 104 50">
  <path fill="#40352F" d="M103.889 24.663c-.123-1.276-.338-2.63-.877-3.826-.539-1.21-1.632-1.98-2.555-2.95-.631-.65-1.155-1.395-1.694-2.086-.492-.624-.862-1.342-1.4-1.94-.524-.57-1.14-.996-1.601-1.62-.431-.598-.908-1.09-1.57-1.502-.862-.544-3.864-2.43-4.864-1.328a.828.828 0 0 0-.555.465c.078-.2-.015-.027-.153.04a.983.983 0 0 0-.2.133c-.016.013-.031.013-.047.026-.385.292-.846.492-1.231.797-.323.253-.6.545-.908.797-.724.585-1.524 1.116-2.248 1.7-1.477 1.17-2.863 2.366-4.571 3.31-.862.477-1.724.876-2.74 1.088-.97.213-1.97.28-2.971.4-1.047.119-2.078.371-3.125.438-.831.053-1.678.04-2.524.026h-.016a.942.942 0 0 0-.615-.279c-2.694-.146-5.08 1.555-6.666 3.268-1.831 1.967-3.017 4.371-3.448 6.87-.43 2.537-.092 5.14.308 7.665.216 1.368.785 2.564 1.447 3.813.662 1.235 1.355 2.498 2.34 3.56.908.984 2.032 1.993 3.233 2.71 1.092.665 2.493 1.09 3.77 1.436.34.093.693.172 1.063.226.123.212.354.372.723.345.693-.053 1.309.16 1.955.359.677.212 1.34.385 2.047.505 1.524.279 3.064.438 4.618.451 3.002.014 6.08.2 9.036-.398 2.555-.518 4.987-1.568 6.988-3.043 1-.744 1.601-1.754 2.51-2.564.892-.784 1.77-1.647 1.985-2.777a.645.645 0 0 0-.03-.385 3.19 3.19 0 0 0 1.015-1.023c.493-.784.693-1.66.878-2.524.277-1.21.677-2.392 1.077-3.587a73.513 73.513 0 0 0 1.324-4.425c.4-1.381.415-2.736.292-4.171Zm-1.739-.372c.046.412.092.837.108 1.262-1.647.584-3.233 1.249-5.003 1.541-1.924.319-3.879.452-5.834.465a28.845 28.845 0 0 1-.23-1.608c-.016-.159-.032-.318-.062-.478 1.924-.053 3.848-.518 5.726-.89.97-.2 1.94-.305 2.878-.584.37-.107.724-.24 1.078-.372.323-.133.769-.426 1.154-.532.093.412.139.81.185 1.196Zm-8.774 12.515a5.779 5.779 0 0 1-.739-1.7 37.919 37.919 0 0 1 1.74 0c.785.026 1.523.106 2.308.04.662-.054 1.232-.213 1.848-.386.615-.16 1.123-.385 1.677-.611-.154.465-.292.93-.43 1.408-.093.319-.154.638-.231.97-.74.252-1.463.571-2.248.73-.631.12-1.278.2-1.924.24-.57.04-1.108-.04-1.662-.08-.108-.212-.2-.412-.339-.611Zm7.589-4.89c-.17.506-.339.997-.508 1.502a.448.448 0 0 0-.293.013c-.708.293-1.339.545-2.093.758a8.25 8.25 0 0 1-1.909.319c-.662.04-1.293-.067-1.955-.08-.585-.014-1.17 0-1.755.013-.061-.306-.107-.611-.169-.917l-.092-.558c.646.053 1.293.093 1.97.04a22.312 22.312 0 0 0 2.817-.358c.893-.187 1.77-.479 2.648-.718.446-.12.938-.186 1.4-.292 0 .08-.031.172-.061.279Zm-8.59 6.537c.139.372.278.744.555 1.076.153.186.323.346.523.492-.03.04-.046.08-.077.12.061-.133-.308.133-.385.172-.2.107-.415.213-.616.32-.492.278-.939.597-1.431.876-1.17.651-2.525 1.01-3.88 1.262-1.508.28-3.047.505-4.586.545-1.432.04-2.786-.253-4.187-.478-.015-.014-.015-.027-.03-.053.2-.293.4-.585.6-.864.2-.28.353-.571.507-.864h.062c.508-.026 1 .28 1.524.306.585.04 1.2-.027 1.786-.04 1.216-.026 2.432-.12 3.601-.412 1.232-.305 2.433-.744 3.602-1.182.878-.332 1.755-.691 2.432-1.276Zm2.51 2.299c.169.053.338.106.507.146-.754 1.142-2.031 1.913-3.232 2.71-.754.505-1.432.944-2.324 1.276-.909.332-1.817.717-2.756.983-.97.279-2.016.558-3.032.65-1.031.094-2.109 0-3.14-.013-1.047-.013-2.032-.199-3.033-.438-.662-.16-1.462-.2-2.093-.465.2-.16.385-.319.554-.492a9.7 9.7 0 0 0 .908-.983c.046.027.108.04.154.053 1.74.253 3.433.651 5.218.598 1.801-.053 3.633-.319 5.373-.677 1.554-.32 3.032-.824 4.325-1.621.816-.505 2.032-.957 2.57-1.727Zm-3.433-3.587c-.647.664-1.57 1.01-2.478 1.342-1.093.398-2.202.81-3.356 1.062-1.047.226-2.093.28-3.171.293-.477.013-1.031.106-1.508.04-.4-.054-.693-.2-1.047-.266.123-.412.215-.824.308-1.25.046.014.092.014.138.014 1.093.053 2.109.359 3.217.253 1.078-.093 2.124-.346 3.171-.558.985-.2 1.77-.611 2.679-.944.63-.239 1.323-.385 1.862-.73.093.212.2.398.323.598-.03.053-.092.093-.138.146Zm-1.678-5.7c-.092.146-.477.226-.646.319-.308.16-.585.385-.893.545-.831.425-1.77.81-2.663 1.09-.785.238-1.586.45-2.401.57-.786.12-1.417-.305-2.202-.225-.046 0-.077.013-.123.013.016-.678.016-1.342-.046-2.02a.608.608 0 0 0 .154.014c2.093-.014 4.233-.36 6.203-.93.955-.28 2.124-.651 2.879-1.316.015.147.046.293.061.439.047.385.093.77.154 1.156a.729.729 0 0 0-.477.345Zm.739 1.382c.077.478.154.943.246 1.408.031.186.062.372.108.558a.79.79 0 0 0-.323.213c-.462.505-1.278.597-1.94.863-.862.346-1.6.664-2.54.85-.939.173-1.893.439-2.863.479-.908.04-1.77-.2-2.678-.266.108-.584.185-1.156.246-1.74a.585.585 0 0 0 .216 0c.415-.04.77.146 1.185.225.462.08.893.04 1.34-.026a15.667 15.667 0 0 0 3.032-.757c.97-.333 2-.718 2.847-1.223.308-.186.74-.372 1.124-.584Zm-1.432-4.664c-.261.784-2.032 1.17-2.832 1.369-1.709.438-3.494.73-5.28.744-.123 0-.23.027-.323.053-.015-.133-.046-.279-.061-.412a10.348 10.348 0 0 0-.4-1.568c.477 0 .97-.04 1.43-.066 1.094-.053 2.171-.279 3.218-.545 1.647-.425 3.294-.916 4.664-1.82.077.585.17 1.156.262 1.727-.308.04-.57.2-.678.518Zm12.192-7.147c.246.438.415.916.554 1.408-.616.146-1.216.558-1.786.757-.923.32-1.878.465-2.863.638-2.032.359-4.048.93-6.142.97-.092-.585-.184-1.183-.292-1.767.923-.027 1.862-.226 2.77-.346 1.047-.132 2.11-.212 3.125-.504a27.494 27.494 0 0 0 2.51-.864c.569-.226 1.246-.465 1.816-.757.123.16.231.305.308.465Zm-2.217-2.338c.446.465.985.903 1.462 1.368-.554.279-1.216.505-1.74.717-.815.332-1.692.638-2.57.864-.846.226-1.724.292-2.601.399-.97.12-1.986.345-2.971.358-.077-.425-.17-.85-.262-1.275 1.709-.2 3.34-.665 4.988-1.143a35.772 35.772 0 0 0 2.309-.757c.446-.16.939-.319 1.385-.531Zm-2.355-2.937c.554.837 1.216 1.648 1.893 2.418-.462.226-1.016.372-1.493.532-.739.266-1.478.491-2.232.704-1.524.438-3.048.877-4.649 1.05-.169-.771-.338-1.528-.492-2.299.6-.066 1.2-.292 1.785-.412.816-.16 1.617-.345 2.402-.61.63-.227 1.231-.506 1.862-.758.354-.133.816-.266.924-.625Zm-1.555-1.767c.477.452.94.784 1.262 1.329 0 0 0 .013.016.013-.185-.053-.416 0-.462.226-.03.133-.816.359-.985.438-.616.266-1.232.532-1.878.718-.585.173-1.17.292-1.77.412-.554.106-1.155.345-1.724.398a.68.68 0 0 1-.031-.172c-.139-.665-.308-1.342-.431-2.02.03 0 .061.014.092.014 1.109 0 2.048-.293 3.048-.678a13.65 13.65 0 0 0 1.447-.638c.339-.173.631-.385.924-.598.154.2.307.386.492.558Zm-5.787-2.59c.107-.24.261-.306.492-.465a1.34 1.34 0 0 0 .216-.186.857.857 0 0 0 .43-.173c.108.04.247.066.355.106.369.133.723.32 1.062.492.277.146.57.292.846.451-.538.293-1.016.585-1.647.784-.308.093-.615.173-.923.266-.37.12-.693.319-1.062.425-.016 0-.031.014-.047.014.077-.545.047-1.21.278-1.714Zm-.34 2.311c.078.053.185.067.309.04.385-.106.692-.305 1.062-.425.385-.133.77-.213 1.154-.332.631-.213 1.124-.531 1.678-.824a.405.405 0 0 0 .185-.093l.015-.013c.246.186.462.385.647.611.046.066.092.12.138.186-.6.372-1.154.73-1.847 1.023-1.016.425-2.001.784-3.14.784a.412.412 0 0 0-.185.04c-.015-.332-.03-.665-.015-.997Zm-.276 8.145c.17.797.354 1.607.508 2.404a.983.983 0 0 0-.262.146c-1.262 1.05-2.955 1.515-4.602 1.953-.862.226-1.725.425-2.633.479-.6.04-1.293.12-1.908.066a.661.661 0 0 0-.416-.279 13.694 13.694 0 0 0-.862-1.408c.754.106 1.462.239 2.278.093 1.124-.2 2.232-.598 3.294-.944 1.74-.57 3.233-1.474 4.603-2.51Zm-.339-1.714-.03.026c-1.432 1.196-3.018 2.285-4.911 2.87-.924.279-1.847.611-2.801.824-1.078.239-2.017-.16-3.08-.173-.076 0-.153 0-.23.013a23.68 23.68 0 0 0-1.478-1.501 12.023 12.023 0 0 0 1.555-.133c.262.372.477.77.662 1.183.17.398.923.225.739-.173a8.061 8.061 0 0 0-.631-1.17c.046-.013.077-.013.123-.026.477-.133.939-.279 1.4-.452.154.28.308.572.447.877.185.399.924.226.739-.172a9.795 9.795 0 0 0-.493-.957c.37-.146.754-.292 1.124-.425.108.305.2.624.338.93.17.398.909.226.74-.173-.154-.345-.247-.677-.37-1.01.385-.133.754-.292 1.108-.451.077.279.108.544.093.823-.031.425.738.425.77 0 .03-.385-.062-.784-.216-1.155.338-.2.677-.426.985-.665.046.173.092.346.215.505.262.359.924.027.662-.332-.138-.186-.2-.425-.261-.664.692-.558 1.416-1.077 2.124-1.635.246 1.037.462 2.126.677 3.216Zm-1.185-7.308c.077-.066.17-.132.246-.199-.092.651-.215 1.276-.138 1.94l.092.638c-.092.04-.2.08-.293.16-.261.212-.523.41-.785.61-.046-.186-.076-.358-.153-.518-.231-.425-.585-.797-.94-1.17.662-.477 1.34-.956 1.97-1.46Zm-2.525 1.927c.4.412.785.824.94 1.355.03.12.06.226.092.345l-.74.558c-.338-.544-.8-.996-1.292-1.434.338-.28.677-.545 1-.824Zm-1.57 1.262c.493.438.955.903 1.278 1.461a.383.383 0 0 1-.092.067c-.324.279-.662.518-1 .744-.355-.532-.817-1.01-1.325-1.462.385-.252.77-.53 1.14-.81ZM81.37 17.25c.446.386.923.877 1.308 1.409-.354.172-.708.332-1.108.478a11.12 11.12 0 0 0-1.216-1.262c.338-.2.677-.412 1.016-.625Zm-1.694.984c.4.358.831.757 1.155 1.169-.431.16-.847.332-1.278.491a8.11 8.11 0 0 0-1.139-1.102 10.4 10.4 0 0 0 1.262-.558Zm-2.555.93c.154-.04.308-.08.477-.12.478.345.893.717 1.232 1.103-.231.08-.462.16-.708.226a7.94 7.94 0 0 1-.94.212 16.34 16.34 0 0 0-1.246-1.235c.415-.04.8-.107 1.185-.186Zm-3.032.411c.308-.04.615-.066.908-.106.446.399.893.797 1.308 1.222-.662.053-1.339.053-2.016.053a7.8 7.8 0 0 0-1.447-.983c.415-.066.831-.133 1.247-.186Zm-7.589.28a.862.862 0 0 0 .616.225c.261 0 .538 0 .8.014.262.026.477.132.74.199.307.08.63.093.938.146.647.093 1.324.186 1.924.385.185.067.354.146.508.226-1.231.173-2.463.372-3.725.372-.831 0-1.678-.08-2.494-.212-.615-.107-1.216-.266-1.831-.346.77-.505 1.616-.877 2.524-1.01Zm-5.203 3.573a12.427 12.427 0 0 1 1.909-2.006.428.428 0 0 0 .2.053c.939.027 1.816.332 2.74.439.8.093 1.616.172 2.432.16 1.462-.027 2.863-.293 4.28-.48.246.2.492.426.723.639-1.032.199-2.078.345-3.125.504-1.154.173-2.34.253-3.494.452-1.185.213-2.355.478-3.556.558-.492.027-1 .027-1.493.027-.277 0-.554-.027-.831-.053.077-.093.154-.2.215-.293Zm-.63.917c.415.026.83.093 1.246.093.539 0 1.093 0 1.632-.04 1.123-.08 2.247-.305 3.34-.505 1.154-.212 2.324-.292 3.494-.465 1.216-.186 2.432-.358 3.648-.584a.505.505 0 0 0 .154-.053c.4.358.785.717 1.154 1.089-1.123.292-2.308.372-3.463.571-1.354.24-2.74.306-4.11.465-1.416.173-2.817.399-4.264.452-.661.026-1.339.12-2 .106-.478-.013-.94-.093-1.401-.146.2-.332.369-.664.57-.983Zm-.848 1.594c.57.067 1.124.186 1.694.186.662.014 1.339-.08 2-.106 1.402-.053 2.772-.266 4.172-.439 1.416-.172 2.863-.239 4.264-.478 1.293-.226 2.648-.292 3.91-.677h.015c.447.478.847.956 1.216 1.474-.523.226-1.339.28-1.831.372-.74.146-1.478.24-2.202.439-1.493.398-3.078.637-4.618.823-3.093.36-6.157.226-9.25.16.184-.598.384-1.183.63-1.754Zm-.77 2.405c3.357.066 6.65.212 9.99-.226 1.632-.213 3.187-.558 4.773-.917.785-.172 1.585-.279 2.37-.438.447-.093.893-.146 1.293-.306.4.625.739 1.29.985 1.993.016.027.016.053.031.08h-.015c-.616 0-1.263.173-1.863.266-.8.132-1.585.305-2.37.465-1.694.358-3.556.372-5.295.491-1.724.12-3.48.107-5.203.16-.893.026-1.801 0-2.694-.014-.754 0-1.462-.106-2.201-.172.03-.465.108-.93.2-1.382Zm-.26 2.325c0-.093.015-.186.015-.279.708.066 1.385.173 2.093.173.893.013 1.801.04 2.694.013 1.77-.04 3.586-.04 5.357-.16 1.6-.106 3.263-.159 4.833-.385.8-.12 1.585-.332 2.37-.478.755-.133 1.632-.399 2.402-.359.046 0 .092-.013.138-.026.154.518.262 1.05.354 1.594-.492.146-1.077.2-1.524.306-.816.186-1.616.372-2.432.57-1.8.453-3.602.426-5.449.48-1.816.052-3.602.212-5.418.225-1.786 0-3.556-.013-5.341-.013a12.009 12.009 0 0 1-.093-1.661Zm.276 3.441a27.282 27.282 0 0 1-.123-1.116c1.801 0 3.602.013 5.403.013 1.97 0 3.91-.212 5.88-.239 1.77-.027 3.479-.08 5.188-.518.846-.226 1.724-.399 2.57-.611.354-.08.754-.146 1.14-.226.076.638.107 1.262.107 1.9-.6.093-1.17.239-1.786.305-.923.107-1.816.253-2.755.306-1.816.093-3.633.266-5.449.345-1.77.08-3.54.186-5.295.306-1.647.12-3.217.013-4.849-.106 0-.12-.015-.24-.03-.359Zm.416 2.763c-.154-.57-.231-1.142-.308-1.727 1.555.106 3.063.213 4.633.106 1.817-.12 3.618-.239 5.45-.318 1.77-.08 3.54-.253 5.31-.346.862-.04 1.709-.146 2.57-.266.416-.053.847-.08 1.247-.146.293-.053.57-.133.847-.186-.015.412-.046.81-.092 1.21-.062.026-.108.053-.139.106-.57.093-1.154.12-1.74.252-.892.186-1.785.252-2.693.332l-5.141.439c-1.57.133-3.156.212-4.726.398-.923.107-1.847.226-2.77.253-.832.013-1.632-.107-2.448-.107Zm1.062 2.458c-.323-.584-.631-1.182-.862-1.793.739.026 1.462.12 2.217.106.8-.013 1.616-.106 2.4-.2 1.786-.212 3.587-.318 5.373-.464 1.709-.146 3.417-.306 5.126-.439.8-.066 1.585-.12 2.37-.279.37-.08.754-.186 1.124-.239.23-.026.462-.04.693-.053a27.725 27.725 0 0 1-.308 1.554c-1.232.08-2.478.293-3.695.439-1.646.2-3.278.372-4.925.544-1.54.16-3.048.532-4.603.612-1.585.08-3.186.16-4.771.186a.65.65 0 0 0-.139.026Zm.877 1.462-.508-.837c1.478-.027 2.956-.093 4.434-.173 1.57-.08 3.094-.438 4.648-.611 1.509-.173 3.017-.306 4.51-.492 1.324-.172 2.71-.398 4.049-.491-.093.358-.185.717-.277 1.063a7.64 7.64 0 0 1-.324.876c-.107-.172-.4-.265-.63-.106-.247.173-1.325 0-1.602.013-.662 0-1.323.08-1.985.147-1.355.159-2.71.305-4.064.425-2.725.225-5.403.372-8.143.372-.03-.053-.077-.12-.108-.186Zm.57.863c2.832-.026 5.603-.199 8.435-.438 1.463-.12 2.925-.32 4.387-.452a14.143 14.143 0 0 1 1.986-.04c.354.014.646.014.939-.133-.262.505-.585.983-.924 1.462-.477 0-.939-.08-1.4-.093-.524-.014-1.063.093-1.601.093-1.216 0-2.432 0-3.648.106-2.34.2-4.634.651-6.943.917-.461-.452-.862-.93-1.231-1.422Zm3.91 3.52c-.74-.41-1.355-.916-2.017-1.487l-.046-.04c2.109-.266 4.187-.664 6.311-.85 1.216-.107 2.432-.107 3.648-.107.508 0 1-.093 1.493-.093.354 0 .693.04 1.047.08-.339.439-.693.85-1.077 1.25a.424.424 0 0 0-.508.012c-.108.08-.555.053-.708.067a21.75 21.75 0 0 1-1.294.12c-.707.04-1.4.092-2.093.185-1.462.186-2.97.651-4.448.691a.333.333 0 0 0-.308.173Zm4.571 1.356c-1.231-.013-2.493-.478-3.617-.917.523-.066 1.016-.186 1.54-.279.892-.159 1.8-.305 2.709-.412.862-.106 1.724-.106 2.586-.199.23-.026.492-.026.754-.053-.154.12-.308.24-.462.346-1 .69-2.17 1.527-3.51 1.514Zm25.183-3.52c-.739.77-1.293 1.594-2.201 2.231-1.97 1.395-4.402 2.299-6.896 2.684-2.74.412-5.695.28-8.466.186a23.09 23.09 0 0 1-4.295-.558 9.786 9.786 0 0 1-.677-.186c.462-.226.908-.478 1.355-.77.77.478 1.631.61 2.57.81 1.078.226 2.109.492 3.217.558 1.155.08 2.386.106 3.54.053 1.186-.066 2.356-.345 3.495-.65 1.123-.293 2.17-.745 3.248-1.144.954-.345 1.708-.783 2.509-1.341.923-.638 1.893-1.236 2.709-1.953a.16.16 0 0 0-.108.08Zm.508-.506c.37-.385.693-.797.924-1.275.03-.066.046-.12.061-.173.108 0 .216-.013.323-.026-.292.571-.8 1.023-1.308 1.474Zm3.063-4.73c-.2.612-.477 1.29-1.154 1.622-.831.398-2.017.252-2.832-.093-.662-.28-.97-.718-1.217-1.21.493.04.986.08 1.494.04.584-.04 1.17-.12 1.754-.212.74-.133 1.416-.399 2.11-.651a4.148 4.148 0 0 1-.155.505Zm2.063-6.908c-.616.2-1.355.266-1.97.439-.847.226-1.663.505-2.525.677a19.24 19.24 0 0 1-2.755.346c-.662.04-1.293 0-1.94-.053-.092-.572-.169-1.156-.246-1.728.847-.04 1.616-.186 2.478-.318.97-.16 1.955-.28 2.925-.452 1.508-.266 3.14-.465 4.602-.957a31.283 31.283 0 0 1-.569 2.046Zm.8-2.83c-1.539.611-3.37.824-5.018 1.103-.877.146-1.77.28-2.647.412-.893.133-1.724.306-2.633.345 0-.053-.015-.12-.015-.172a24.762 24.762 0 0 0-.23-1.488c1.893-.027 3.786-.16 5.648-.452 1.832-.28 3.433-.93 5.111-1.528-.016.598-.062 1.196-.216 1.78Zm-59.062-5.78c0-.85-.03-1.7-.077-2.537a.322.322 0 0 0-.015-.293 36.686 36.686 0 0 0-1.34-7.546c-.4-1.408-.739-2.883-1.277-4.265-.231-.598-.524-1.209-.94-1.74-.476-.598-1.154-.943-1.816-1.355-.677-.412-1.277-.864-2.031-1.196-.847-.372-1.694-.757-2.586-1.063A40.824 40.824 0 0 0 27.556.788C25.74.43 24.077.178 22.23.456c-2.047.306-4.11.665-6.11 1.156-1.894.452-3.495 1.222-5.05 2.245-1.308.877-1.924 1.887-1.74 3.335.093.744.309 1.475.463 2.219.107.505.23.996.338 1.501.108.492.047.983.077 1.488.062 1.86.8 3.627.647 5.5-.154 1.914-1.155 3.667-2.109 5.368-.446.784-1 1.501-1.8 2.06-.724.517-1.479.902-2.033 1.58-.015.013-.015.027-.03.04-1.848.359-3.325 1.501-4.064 3.056-1.109 2.378-.385 4.782.816 7.015 1.123 2.085 2.94 3.547 5.14 4.782 2.279 1.29 4.619 2.405 7.22 3.122 2.663.731 5.45 1.435 8.25 1.037 1.34-.186 2.771-.572 3.926-1.183.046-.026.077-.053.123-.066.092.026.185.04.262.026 1.523-.172 2.832-.93 4.032-1.713.724-.479 1.478-.837 2.17-1.342.724-.532 1.463-1.037 2.156-1.608 1.34-1.102 2.601-2.258 3.663-3.574.508-.624 1.093-1.195 1.586-1.833.508-.651.877-1.395 1.216-2.126.739-1.58 1.124-3.321 1.447-4.995.292-1.727.184-3.52.2-5.288Zm-1.755-3.082c.015.16.015.319.03.478-.276.12-.553.24-.861.332a3.21 3.21 0 0 1-.8.133v-.372c0-.452 0-.903-.031-1.355a6.186 6.186 0 0 0 1.508-.744c.062.518.108 1.023.154 1.528Zm-.277-2.299c-.4.36-.893.625-1.431.824-.047-.478-.108-.97-.2-1.448-.047-.253-.108-.505-.154-.77.477-.173.954-.346 1.4-.559.139.651.262 1.302.385 1.953Zm-.554-2.63c-.431.239-.908.412-1.385.571-.139-.598-.262-1.209-.4-1.807.23-.106.461-.212.692-.332.17-.093.37-.266.57-.425.184.664.354 1.329.523 1.993Zm-1.154-4.278c.153.545.292 1.076.446 1.607l-.046.04c-.339.293-.755.518-1.17.718 0-.027-.016-.04-.016-.067-.123-.61-.277-1.222-.554-1.807-.277-.57-.677-1.129-.77-1.74 0-.027-.015-.053-.015-.08.508-.265 1-.558 1.447-.89.308.718.493 1.528.678 2.219ZM37.73 6.46c-.339.266-.708.519-1.093.758-.077-.598-.293-1.196-.462-1.78.523.332 1.14.624 1.555 1.022Zm-4.002-2.245c.508.226 1.046.425 1.539.678v.053c.154.85.631 1.78.631 2.684-.4.212-.831.398-1.262.57.03-.172.046-.345.03-.517-.03-.465-.153-.917-.23-1.382-.139-.784-.308-1.581-.985-2.166-.355-.305-.893.16-.54.465.601.532.694 1.329.817 2.046.077.412.2.837.184 1.25 0 .199-.046.398-.092.597-.4.133-.8.266-1.185.372a11.764 11.764 0 0 0-.462-3.002c-.246-.877-.708-1.688-1-2.551.877.252 1.723.531 2.555.903Zm-8.79 29.202a17.249 17.249 0 0 0-.892-.864.66.66 0 0 0 .384-.345c.154-.306.585-.492.878-.704.415-.332.8-.704 1.154-1.076.647-.678 1.247-1.395 1.724-2.166 1.093-1.767 1.54-3.8 1.77-5.779.216-1.913.37-3.973-.046-5.859-.215-.957-.154-1.953-.308-2.923-.154-.917-.354-1.82-.415-2.75.462-.08.877-.186 1.354-.2.231 0 .447-.026.662-.053.093.944.277 1.86.247 2.817-.047 1.156.446 2.232.677 3.361.23 1.09.108 2.206.354 3.282s.23 2.126.215 3.215c-.03 2.206-.677 4.371-1.785 6.35-.57 1.01-1.324 1.86-2.155 2.711-.416.425-.862.837-1.293 1.249-.354.332-.693.784-1.216.903-.093.027-.17.053-.231.08-.231-.292-.462-.585-.724-.864.031-.212-.154-.358-.354-.385Zm-7.434-20.34c0-.824-.277-1.621-.462-2.418a10.8 10.8 0 0 0-.462-1.555c.108.027.23.053.339.093.754.226 1.493.479 2.247.718-.062.717.123 1.421.339 2.112.23.784.43 1.581.615 2.378.4 1.78.416 3.654.062 5.447-.17.85-.4 1.674-.954 2.392-.508.664-1.001 1.275-1.263 2.06-.123.358-.184.743-.385 1.075-.23.372-.615.638-.938.944-.555.531-.878 1.182-1.432 1.713-1.108-.425-2.201-.903-3.371-1.169a20.01 20.01 0 0 0 5.218-8.303c.585-1.807.462-3.627.447-5.487Zm.415 14.189c.693-.665 1.247-1.223 1.524-2.1.139-.411.231-.81.477-1.195.216-.346.508-.664.755-.997.569-.757.877-1.62 1.077-2.51.385-1.78.493-3.707.185-5.5-.17-.904-.354-1.82-.616-2.711-.185-.624-.416-1.249-.462-1.887a36 36 0 0 0 2.663.452c.046.16.139.292.323.385 0 .24-.03.492.016.731.077.412.262.757.277 1.196.046.837-.123 1.607-.246 2.431-.139.903-.123 1.794-.293 2.697-.17.89-.108 1.754-.17 2.657-.107 1.847-.938 3.481-1.892 5.102-.462.77-1.001 1.501-1.54 2.232-.215.292-.739 1.235-1.2 1.275-.031 0-.062 0-.093.014-.646-.28-1.277-.572-1.924-.85.37-.492.677-.997 1.14-1.422Zm4.464.412c.585-.877 1.031-1.794 1.555-2.697.554-.944.754-1.887.985-2.91.246-1.063.077-2.139.23-3.202.062-.412.186-.823.247-1.249.077-.531.03-1.076.093-1.607.107-.97.354-1.887.307-2.883-.03-.505-.215-.917-.307-1.395-.047-.24-.016-.479-.031-.718.662.053 1.339.093 2.016.08.062.77.2 1.528.339 2.285.184.97.17 1.927.308 2.896.123.917.338 1.754.292 2.698-.046 1.01-.03 2.019-.123 3.015-.17 1.913-.57 3.933-1.647 5.633a11.434 11.434 0 0 1-1.832 2.193 8.621 8.621 0 0 1-1.031.863c-.339.24-.662.439-.847.784-.03.053-.046.12-.061.173a12.442 12.442 0 0 0-1.647-1.01.42.42 0 0 0-.247-.12c-.2-.092-.384-.185-.585-.278.878-.731 1.494-1.82 1.986-2.551Zm6.48-25.017c.524.146 1.032.292 1.54.425a.359.359 0 0 0-.031.226c.262.85.739 1.634.985 2.497.323 1.05.508 2.153.493 3.242-.108.027-.2.053-.308.067-.539.12-1.016.132-1.555.159-.015-1.196-.077-2.391-.277-3.574a13.329 13.329 0 0 0-.446-1.873c-.139-.412-.339-.797-.477-1.196.046.013.061.027.076.027Zm-.908-.253c.108.518.37.997.555 1.488.2.572.338 1.156.446 1.754.23 1.249.277 2.511.292 3.773-.2.053-.415.106-.615.146-.154.027-.324.04-.493.053v-.225c0-.027 0-.054-.015-.08-.047-.638-.231-1.276-.293-1.913a14.306 14.306 0 0 0-.323-2.113c-.277-1.142-.739-2.245-1.293-3.308.585.12 1.17.28 1.74.425Zm-2.663-.571c.647 1.156 1.17 2.365 1.478 3.627.17.678.246 1.355.308 2.046.061.69.308 1.422.292 2.112v.014c-.492 0-1-.027-1.493-.067-.015-1.528-.154-3.042-.646-4.517-.354-1.063-.708-2.338-1.432-3.308.477 0 .985.04 1.493.093Zm-2.386-.013c.416.465.632 1.01.863 1.567.277.691.569 1.395.8 2.1.415 1.315.523 2.67.539 4.038-.108-.013-.216-.013-.324-.026-.6-.053-1.17-.12-1.739-.213.015-.026.015-.066.015-.106 0-.306.108-.585.154-.89.047-.346.016-.691-.03-1.036-.093-.625-.124-1.25-.231-1.86-.123-.665-.354-1.29-.6-1.927a4.693 4.693 0 0 0-.34-.744c-.122-.212-.43-.491-.461-.717.446-.08.908-.146 1.354-.186Zm-2.124.319v.04c.077.451.554.836.74 1.275.245.611.476 1.235.615 1.873.138.664.184 1.369.277 2.046.077.571-.108 1.09-.139 1.648v.107c-.492-.093-.97-.213-1.462-.332.062-.425.2-.837.17-1.302-.047-.598-.17-1.183-.262-1.78-.108-.625-.216-1.263-.431-1.874-.17-.505-.54-.97-.631-1.488.369-.066.754-.146 1.123-.212Zm-2.493.504c.2-.04.415-.08.63-.132.093.531.462.996.632 1.514.184.532.292 1.09.385 1.634.107.611.23 1.223.277 1.834.03.385-.062.744-.123 1.102-.447-.12-.909-.252-1.355-.398 0-1.82-.108-3.64-.985-5.328a.466.466 0 0 0-.093-.12c.2-.013.416-.066.632-.106Zm-1.201.266a.296.296 0 0 0-.015.319c.785 1.488.877 3.135.892 4.743-.107-.04-.215-.066-.323-.106a12.34 12.34 0 0 0-1.154-.306c-.031-.73-.2-1.461-.293-2.192-.092-.704-.184-1.408-.477-2.086 0-.013 0-.013-.015-.013.446-.133.908-.253 1.385-.359Zm-2.109.611c.277.678.354 1.369.462 2.086.077.598.2 1.196.246 1.794-.4-.093-.8-.186-1.185-.306a8.878 8.878 0 0 0-.893-2.737c-.046-.08-.108-.133-.17-.146a9.754 9.754 0 0 1 1.54-.69Zm-2.078.97a.305.305 0 0 0 .03.2c.355.677.586 1.381.74 2.112a9.986 9.986 0 0 1-2.294-1.276c.385-.425 1.031-.757 1.524-1.036ZM8.115 26.377c.616-.439 1.139-.997 1.57-1.568.893-1.209 1.57-2.644 2.124-3.986.6-1.474.847-3.029.678-4.583-.17-1.528-.585-3.003-.616-4.53-.016-1.462-.6-2.884-.847-4.332-.015-.08-.03-.16-.03-.239.661.412 1.37.757 2.108 1.05.477.186.955.318 1.432.438l.015.106a.706.706 0 0 0 .262.492c.308.611.462 1.275.616 1.94.184.77.4 1.488.369 2.285-.03.81.015 1.62.03 2.431.016.877-.2 1.7-.492 2.538-1.062 3.095-2.848 5.858-5.48 8.144-.046.04-.077.08-.107.106-.708 0-1.432.04-2.14.053.185-.133.354-.239.508-.345Zm-2.34 1.94c-.123.106-.261.212-.354.305-.37.385-.708.81-1.108 1.17-.37.331-.785.623-1.2.916-.262.186-.663.558-1.047.77.415-1.607 1.616-3.055 3.71-3.162Zm-3.863 4.012v-.053c.508-.094.908-.519 1.308-.798.585-.412 1.2-.81 1.724-1.288.431-.399.77-.864 1.185-1.263.277-.265.539-.478.678-.783.277.013.538.013.815.013.016.053.047.12.093.16-.062.04-.185.212-.216.252-.23.265-.462.544-.692.823-.508.612-.97 1.276-1.57 1.82-1.016.93-2.232 1.675-3.202 2.644-.108-.504-.17-1.023-.123-1.527Zm.354 2.232a.26.26 0 0 0 .169-.107c1.308-1.381 3.079-2.338 4.264-3.813.554-.677 1.185-1.328 1.693-2.032.123-.173.185-.346.17-.505.169 0 .338-.014.492-.014h.662c-.231.532-.647 1.063-.97 1.515-.585.797-1.324 1.515-2.032 2.245-.662.678-1.4 1.316-2.17 1.913-.524.412-1.309 1.263-2.032 1.409-.077-.186-.17-.399-.246-.611Zm.63 1.408c-.03-.053-.045-.106-.076-.16.708-.172 1.231-.77 1.755-1.169.954-.717 1.877-1.474 2.693-2.311.724-.731 1.463-1.475 2.078-2.285.431-.559.94-1.223 1.186-1.9a8.931 8.931 0 0 1 1.847.385c-.4.704-.816 1.408-1.355 2.06-.708.836-1.54 1.593-2.355 2.364-1.57 1.501-3.186 2.99-5.203 4.066-.2-.333-.4-.691-.57-1.05Zm.986 1.62c2.063-1.102 3.725-2.617 5.341-4.158.785-.757 1.601-1.5 2.31-2.311.63-.718 1.092-1.515 1.554-2.325l.646.239a.134.134 0 0 0-.046.093c-.138.584-.523 1.063-.862 1.58-.308.48-.6.957-.923 1.436a12.228 12.228 0 0 1-2.31 2.51c-.923.785-1.862 1.568-2.847 2.3-.446.318-.908.623-1.355.956-.246.186-.477.398-.754.571a9.216 9.216 0 0 1-.754-.89Zm2.432 2.206a12.621 12.621 0 0 1-1.108-.824c.57-.358 1.077-.836 1.554-1.169 1.186-.837 2.279-1.753 3.371-2.683a13.104 13.104 0 0 0 2.432-2.644c.37-.532.678-1.076 1.032-1.608.292-.451.6-.877.77-1.368a.363.363 0 0 0 .184-.133l1.34.558c-.093.133-.2.252-.278.385-.154.266-.246.558-.385.824-.261.492-.57.957-.908 1.421-.723.984-1.554 1.927-2.416 2.817a18.369 18.369 0 0 1-2.74 2.405c-.524.372-1.047.73-1.57 1.102-.4.293-.785.705-1.278.917Zm4.033 2.232c-.447-.226-.908-.465-1.37-.704 1.847-1.408 3.817-2.737 5.357-4.41.816-.89 1.462-1.887 2.108-2.87.324-.492.647-.984.94-1.489.246-.425.677-.85.77-1.315.076-.412-.663-.598-.74-.172-.077.451-.57.956-.8 1.368-.293.505-.647 1.01-.97 1.501-.646.997-1.308 1.98-2.155 2.857-1.524 1.567-3.402 2.83-5.172 4.185-.446-.24-.893-.492-1.324-.744a3.2 3.2 0 0 0 .554-.412 33.797 33.797 0 0 1 1.617-1.183c1.216-.85 2.309-1.753 3.294-2.803.893-.943 1.77-1.926 2.524-2.963a10.25 10.25 0 0 0 1-1.634c.17-.358.4-.69.601-1.036.939.399 1.863.797 2.802 1.182.215.08.415.173.615.28-.123.146-.246.292-.323.438-.354.531-.724 1.05-1.108 1.567-.816 1.116-1.463 2.286-2.386 3.362a25.71 25.71 0 0 1-2.956 2.923c-.892.757-1.893 1.408-2.878 2.072.015 0 .015 0 0 0Zm.754.359c.954-.651 1.924-1.289 2.786-2.033a25.085 25.085 0 0 0 2.971-2.976c.939-1.102 1.6-2.312 2.447-3.454.4-.545.786-1.09 1.155-1.66.062-.08.123-.173.185-.253.57.319 1.093.664 1.6 1.063-.2.345-.492.677-.677.93-.338.438-.677.877-.97 1.355-.661 1.076-1.354 2.06-2.262 2.99-1.693 1.753-3.787 3.081-5.665 4.676a38.91 38.91 0 0 1-1.57-.638Zm3.864 1.302a62.668 62.668 0 0 1-1.478-.412c1.986-1.647 4.156-3.056 5.865-4.956.908-.996 1.524-2.085 2.262-3.162.324-.478.863-1.023 1.232-1.594.416.372.816.77 1.185 1.183a6.105 6.105 0 0 0-.261.411c-.308.479-.6.957-.94 1.409-.661.877-1.323 1.74-2.047 2.577a17.689 17.689 0 0 1-2.509 2.352c-.492.372-.985.744-1.462 1.116-.462.358-1 .943-1.647 1.023-.092 0-.139.026-.2.053Zm2.293.531c-.37-.08-.739-.159-1.108-.252.677-.359 1.247-.93 1.832-1.368 1.108-.85 2.17-1.688 3.094-2.684.846-.93 1.6-1.913 2.355-2.896.4-.519.723-1.063 1.077-1.608.016-.013.031-.04.031-.053.262.332.508.677.739 1.036-.092.133-.2.253-.293.385-.307.412-.6.837-.892 1.262-.647.904-1.401 1.754-2.155 2.591a33.398 33.398 0 0 1-2.278 2.259c-.585.544-1.247.983-1.863 1.461-.185-.053-.37-.093-.539-.133Zm2.756.439a12.411 12.411 0 0 1-1.232-.133c.139-.093.277-.186.416-.292.462-.346.862-.758 1.277-1.143a33.442 33.442 0 0 0 2.355-2.39c.786-.89 1.54-1.794 2.217-2.737.2-.28.431-.558.647-.85.23.411.43.823.6 1.248-.708 1.196-1.524 2.352-2.54 3.388-.585.598-1.216 1.183-1.909 1.688-.6.411-1.293.73-1.831 1.222Zm4.54-.797a12.228 12.228 0 0 1-3.34.77c.385-.252.8-.478 1.17-.757.754-.558 1.447-1.209 2.093-1.873.832-.864 1.524-1.807 2.14-2.777.046.12.077.252.108.372.508 1.754-.216 3.52-2.17 4.265Zm2.771-7.161a18.911 18.911 0 0 0-.43-.758c1.061-.332 1.8-1.235 2.524-1.94.892-.863 1.8-1.74 2.478-2.736 1.355-1.993 2.232-4.411 2.447-6.71.108-1.169.17-2.418.062-3.573-.062-.572-.308-1.116-.339-1.674-.03-.651-.046-1.262-.154-1.914a14.256 14.256 0 0 0-.323-1.607c-.154-.624-.416-1.262-.446-1.9-.031-.638.061-1.262-.016-1.913-.077-.558-.2-1.09-.246-1.647.939-.266 1.847-.625 2.755-.984.247.731.678 1.369.94 2.126.153.465.261.943.353 1.422l-.508.12c-.538.119-1.139.318-1.708.278-.493-.026-.493.638 0 .665.723.04 1.585-.147 2.355-.386.077.385.138.784.23 1.17.047.225.108.451.17.677-.616.2-1.247.372-1.909.492-.492.08-.277.73.2.637a13.877 13.877 0 0 0 1.863-.465c.139.638.262 1.289.308 1.94v.093a7.668 7.668 0 0 1-.77.053c-.492.013-.492.678 0 .664.262 0 .539-.026.8-.053.016.412 0 .837 0 1.25-.215-.027-.415-.054-.615-.067-.493-.04-.493.624 0 .664.2.013.4.04.6.066 0 .293-.015.572-.015.864v.558c-.2-.013-.4-.04-.6-.04a.334.334 0 0 0 0 .664c.2 0 .4.014.6.027 0 .531-.03 1.063-.108 1.594-.339.067-.446.505-.108.625-.077.358-.154.704-.23 1.063-.078-.027-.17-.04-.247-.067-.477-.106-.677.531-.2.638.108.026.2.053.308.08-.108.478-.23.956-.37 1.421-.338-.226-.8.213-.492.518.077.08.17.146.262.226a16.205 16.205 0 0 1-1.478 3.162c-.354-.186-.8.24-.477.518l.092.08c-.185.292-.4.571-.6.85-.324-.372-.631-.757-1.016-1.076-.354-.292-.908.173-.539.465.416.332.77.73 1.14 1.156-.032.04-.078.093-.109.133a8.665 8.665 0 0 1-1.016 1.036 17.016 17.016 0 0 1-.923-1.594c-.2-.386-.862-.053-.662.332.308.598.631 1.17 1.016 1.727-.354.266-.708.532-1.093.757-.03.014-.061.04-.092.054-.416-.479-.8-.997-.8-1.581 0-.426-.77-.426-.77 0 .015.757.477 1.395.985 1.98-.277.198-.554.411-.847.61a8.933 8.933 0 0 0-1.37-1.54c-.354-.306-.893.159-.539.464.508.439.924.93 1.294 1.448a9.582 9.582 0 0 1-.4.2 1.188 1.188 0 0 0-.57.04c-.185-.466-.416-.93-.647-1.382Zm1.324 5.779c-.17.093-.37.2-.57.292.555-1.01.6-2.086.385-3.135a.327.327 0 0 0 .123-.027c.431-.12.8-.292 1.155-.491.385.61.862 1.302.954 1.992a.34.34 0 0 0-.108.187c-.646.398-1.277.823-1.939 1.182Zm2.77-1.687c-.184-.731-.677-1.449-1.046-2.06v-.013c.339-.226.662-.465 1-.704.108.133.2.279.308.412.154.212.324.412.524.598.184.186.585.385.63.637 0 .027.016.053.032.08-.477.372-.955.73-1.447 1.05Zm2.063-1.541c-.123-.213-.338-.346-.554-.532-.385-.319-.646-.73-.939-1.116.37-.24.754-.492 1.108-.744.154.186.308.385.478.558.323.332.723.532 1.093.81-.385.346-.785.691-1.186 1.024Zm1.709-1.488c-.308-.226-.647-.399-.924-.651a6.72 6.72 0 0 1-.6-.678c.139-.106.277-.226.4-.345.293-.28.585-.572.862-.864.462.492.955.943 1.57 1.249-.415.438-.846.877-1.308 1.289Zm1.8-1.874c-.014.014-.03.04-.045.053h-.016c-.508-.265-.908-.69-1.277-1.076-.077-.08-.154-.146-.231-.226.262-.332.508-.664.739-1.01.246.173.492.36.739.519.338.226.677.451 1.062.624-.308.359-.647.731-.97 1.116Zm1.663-1.94c-.061.093-.138.173-.2.253-.338-.133-.63-.332-.939-.532a22.865 22.865 0 0 1-.954-.664c.23-.372.446-.744.646-1.116.678.399 1.355.784 2.125 1.01a7.1 7.1 0 0 1-.678 1.05Zm.985-1.647c-.77-.226-1.446-.624-2.124-1.023.154-.319.293-.624.431-.943.093-.213.17-.425.247-.625.2.107.415.2.6.293.492.239 1 .372 1.524.438-.17.638-.4 1.262-.678 1.86Zm1.047-3.189c-.061.226-.108.452-.17.665a4.184 4.184 0 0 1-1.523-.465 9.254 9.254 0 0 0-.554-.28c.185-.57.323-1.142.462-1.726.261.106.508.199.785.279a8.3 8.3 0 0 0 1.293.252c-.077.412-.185.85-.293 1.275Zm.416-1.94c-.708-.012-1.385-.265-2.032-.557.123-.532.262-1.063.37-1.595.323-.013.661-.053 1-.066.292-.026.616-.026.908-.08a36.527 36.527 0 0 1-.246 2.299Zm.23-2.962c-.369.12-.861.08-1.2.106-.2.014-.4.027-.585.053.046-.279.077-.558.093-.837.015-.225.015-.438.03-.664.585.014 1.155-.053 1.678-.332-.015.558-.015 1.116-.015 1.674Zm-.138-2.391c-.446.332-.985.425-1.54.425 0-.479-.015-.97-.015-1.448.2-.014.385-.027.57-.053.385-.067.754-.226 1.108-.386.016.465.016.93.016 1.395a.65.65 0 0 0-.139.067Z"/>
</svg>
