<svg xmlns="http://www.w3.org/2000/svg" width="122" height="87" fill="none" viewBox="0 0 122 87">
  <path fill="#40352F" d="M79.965 18.861c0-.012.015-.012.015-.025l-.015.026Z"/>
  <path fill="#40352F" d="M118.986 39.389c-.708-.585-.508-1.276-.431-2.046.077-.877.077-1.648-1.062-1.887-1.355-.292-2.402.452-3.31 1.21-.292.238-.708.664-1.139.73-.477.066-.477-.399-.569-.704-.308-1.076-.878-2.153-2.356-2.206-1.185-.04-1.862.758-2.739 1.29-1.001.597-.785-.732-.739-1.276.077-.97.6-3.122-1.124-3.189-1.57-.053-2.909.81-4.141 1.62-.046-.41-.046-.823-.138-1.195-.17-.757-.631-1.488-1.54-1.714-.954-.239-1.77.12-2.54.572-.415.252-.815.505-1.246.744-.062.04-.308.172-.508.279-.046-1.475.77-3.534-.94-4.385-1.03-.505-2.246-.212-3.232.213-.63.279-1.508.93-2.308 1.01-.2-1.13-.17-2.378-1.232-3.189-1.4-1.076-2.878-.292-4.064.571 0-.026.016-.04.016-.066.17-.81.63-1.501.877-2.285.216-.665-.061-1.355-.723-1.754-.585-.345-1.355-.359-2.032-.425-.585-.053-.985-.226-1.447-.452.046-.053.108-.172.17-.226.507-.57 1.215-1.076 1.184-1.86-.046-1.381-2.016-1.78-3.217-2.099-.354-.093-.662-.305-1-.412.138-.16.292-.451.354-.558.215-.318.462-.677.6-1.036.477-1.262-.954-2.046-2.17-2.378-.477-.133-1.493-.2-1.832-.545.015.014-.061-.08-.03-.186.045-.292.215-.571.369-.823.585-.984 1.246-2.086.338-3.083-.908-1.01-2.386-1.063-3.71-1.302-.461-.08-.923-.172-1.138-.571-.17-.306-.17-.717-.262-1.05-.123-.398-.339-.81-.4-1.222-.124-.744.477-2.1-.447-2.604-.523-.279-1.2-.12-1.708.067a12.023 12.023 0 0 0-3.094 1.62c-.508.386-1 .81-1.57 1.143-.247.133-.354.213-.493.146-.262-.133-.492-.611-.708-.81-1.2-1.183-2.863-1.9-4.325-.598-.847.744-1.37 2.06-2.479 2.524-.6.253-1.031-.212-1.447-.545-.585-.465-1.17-.983-1.908-1.275-1.555-.638-2.725.266-3.525 1.355-.37.505-.693 1.09-1.186 1.515-.523.438-.892.212-1.446-.093-.678-.372-1.293-.837-2.063-1.09-1.17-.398-2.432-.571-3.648-.877-.354-.093-.77.054-.954.333-.616.97-1.586 1.713-2.294 2.63-.139.186-.447.824-.724.877-.184.04-1.015-.611-1.262-.744-1.74-.97-3.448-.864-4.987.332-.8.611-1.385 1.329-2.032 2.046-.262.292-.262.372-.539.093-.308-.319-.523-.65-.923-.89-2.124-1.302-3.694.65-4.356 2.219-.231.531-.385 1.488-1.063 1.753-.846.332-2.14-.465-2.832-.823-.785-.412-1.54-1.13-2.524-1.143-1.078-.013-1.755.797-2.109 1.568-.17.372-.277 1.235-.8 1.328-.447.08-1.093-.305-1.463-.478-.508-.252-.985-.505-1.508-.744-.832-.385-1.724-.664-2.51-.04-.892.704-1.138 1.78-1.154 2.777 0 .425.154 1.036-.046 1.435-.2.013-.462-.014-.662-.04-.846-.12-1.616-.571-2.509-.439-1.047.16-1.555 1.09-1.262 1.94.262.718.877 1.25 1.385 1.847-.677.704-1.508 1.355-1.77 2.259-.292 1.062.462 2.125 1.616 2.524.4.133 1.986.172 1.478.757-.262.292-.8.478-1.139.704-.4.266-.708.585-.847 1.023-.154.492.277.877.816.93 1.74.16 2.278 1.581 3.017 2.724.108.16.216.319.293.478.061.12.046.2.061.186-.123.226-.585.452-.77.664-.415.465-.784 1.05-.815 1.661-.077 2.006 2.955 2.1 4.448 3.109-.354.545-1.17.97-1.539 1.488-.385.558-.754 1.501-.308 2.126.416.57 1.247.584 1.924.717.477.093.97.226 1.416.399.277.106.554.226.8.372.186.106.355.332.54.451-.047.04-.093.08-.124.093-.369.28-.63.651-.77 1.05-.23.65-.076 1.315.416 1.833.955.997 2.54 1.196 3.802 1.78.785.373.6.957.308 1.622-.37.81-.939 1.54-1.447 2.285-.169.252-.154.69.139.89.77.531 1.631.85 2.57 1.102.863.226 1.786.4 2.51.89.03.014.046.027.061.054-.092.292-.077.598-.077.903 0 .89.077 1.66.631 2.445.293.412.924.465 1.324.146.262-.213.57-.571.924-.73.615.757.63 1.846 1.539 2.47.893.625 2.047-.212 2.555-.863.339-.425.708-1.555 1.355-1.688.354-.066.508.266.708.479.23.252.477.451.77.61-.37.213-.663.506-.801.904-.354 1.063.37 2.565 1.278 3.521a.761.761 0 0 0-.17.28c-.061.198-.354.305-.508.45-.2.187-.308.413-.415.639-.247.53-.416 1.023-.77 1.514-.57.81-1.354 1.82-.985 2.803.77 2.1 4.556 1.156 6.296.89.754-.12 1.493-.239 2.216-.491.262-.093 1.031-.385 1.155-.292.446.345.061 1.674 0 2.099-.123.824-.324 1.687-.123 2.51.184.798.97 1.542 1.97 1.529.57-.014 1.062-.266 1.508-.558.385-.253.8-.691 1.262-.837.031-.014.2-.027.231-.04.062.133.139.305.154.332.354.73.878 1.382 1.016 2.179.062.372.647.624 1.047.505 1.508-.439 2.632-1.488 3.833-2.339.092-.066.215-.132.308-.212l.015-.013c.077.08.154.146.23.239.37.491.509 1.116.663 1.674.338 1.142 1.17 2.776 2.817 1.873.708-.385 1.262-.957 1.94-1.369.769-.465 1.585-.93 2.477-1.182.216.372.324.864.447 1.236.215.61.415 1.262.877 1.767 1.262 1.421 2.986.146 4.08-.718.692-.544 1.446-1.235 2.354-1.514.862-.253 1.355.398 1.648 1.023.677 1.408.892 3.733 3.001 4.158 1 .2 1.94-.279 2.694-.784.446-.292 1.046-.863 1.647-1.142.292 1.528.862 3.573 2.74 3.826 1.339.186 2.247-.718 3.201-1.368.124-.094.293-.24.462-.226.293.026.662.584.832.77a11.917 11.917 0 0 1 1.508 2.02c.185.305.6.385.954.332 1-.133 1.847-.691 2.663-1.183.447-.265 1.34-.996 1.894-.637.354.225.492.783.63 1.129.17.452.355.917.678 1.302.708.824 1.97.996 2.986.492 1.032-.519 1.555-1.528 2.54-2.073.123-.067.385-.24.554-.213h.031s0 .027.046.08c.323.319.308.943.37 1.329.107.89.43 1.78 1.616 1.9 1.185.12 1.97-.572 2.694-1.263.184-.172.6-.704.892-.744.016.014.031.053.062.133.046.16.061.32.092.479.139.996.601 1.74 1.878 1.82a.888.888 0 0 0 .724-.36c1.247-1.7.415-3.32.154-5.088 1.231-.358 2.647-.225 3.525-1.235.538-.624.585-1.408.384-2.152-.169-.651-.661-1.329-.661-2.006.769-.173 1.57-.253 2.155-.784.785-.704.939-1.714.477-2.578-.216-.425-.539-.797-.847-1.182-.031-.027-.046-.067-.077-.093.016 0 .016-.013.031-.013.985-.492 2.078-.612 3.079-1.05.261-.106.431-.385.415-.625-.015-.783-.4-1.448-.893-2.085-.323-.425-1.139-1.196-.862-1.754.247-.505 1.247-.81 1.74-1.09.739-.438 1.339-.93 1.601-1.687.107-.305-.062-.664-.385-.823-.416-.2-.862-.333-1.293-.492-.016 0-.031-.013-.062-.027 1.663-.358 3.51-.451 4.403-1.9.431-.717.246-1.434-.339-2.032-.308-.32-.847-.625-1.062-1.01 1.524-.638 3.417-1.05 4.371-2.312.631-.823-.554-1.913-1-2.63-.262-.399-.462-.837-.647-1.262-.015-.027-.046-.12-.077-.186h.016c.277-.053.646-.372.893-.518.323-.186.646-.372.954-.572.6-.372 1.324-.77 1.724-1.328.954-1.316-.739-2.285-1.647-3.255.477-.24 1.185-.32 1.601-.505.692-.306 1.416-.877 1.477-1.581.247-1.196-1.554-1.993-2.416-2.697ZM82.736 22.9c.354.173.015.545-.139.837-.185-.385-.631-.69-1.016-.97.354.014.862-.013 1.155.133ZM28.553 55.464c-.678-.358-1.54-.279-2.186.08-.585.32-.939.864-1.262 1.369-.154.252-.385.757-.708.983-.57-.73-.647-1.727-1.432-2.378-.693-.558-1.478-.226-2.155.225-.108-.451-.123-.916-.015-1.302.061-.252.246-.385.184-.677-.061-.319-.307-.545-.57-.757-.723-.558-1.585-.877-2.508-1.13-.708-.186-1.478-.332-2.14-.637.693-.983 1.386-2.007 1.524-3.15.154-1.301-.862-2.005-2.124-2.457-.662-.24-2.632-.638-2.77-1.395-.093-.505.569-.717.877-1.01.584-.544.261-1.195-.216-1.7-1.031-1.116-2.878-1.674-4.495-1.873.093-.107.108-.346.185-.479.108-.172.246-.305.4-.438.57-.518 1.278-.997 1.493-1.727.354-1.223-1.831-1.9-2.832-2.259-.477-.173-1.016-.319-1.431-.585-.293-.186-.339-.265-.2-.61.292-.718 1.277-1.037 1.493-1.754.23-.81-.508-1.621-.924-2.272-.43-.691-.8-1.422-1.478-1.98a3.892 3.892 0 0 0-1.046-.61c.4-.227.815-.48 1.077-.838.554-.757.308-1.887-.6-2.352-.678-.345-2.155-.212-2.37-1.036-.108-.425.384-.89.661-1.182.416-.425.847-.837 1.232-1.276.169-.212.138-.531 0-.744-.416-.65-1.155-1.155-1.493-1.846-.031-.054-.031-.133-.047-.186.031 0 .062 0 .108.013.385.106.77.2 1.155.305.692.186 1.662.32 2.34.04.754-.319.907-1.023.938-1.687.016-.492-.03-.996.016-1.488.03-.292.23-1.209.57-1.289.138-.026.815.36 1.015.452.523.252 1.016.531 1.555.757.816.346 1.862.651 2.74.24.708-.333 1-.997 1.246-1.621.108-.28.2-.585.4-.824.309-.385.493-.2.893.04.847.505 1.678.983 2.633 1.342.939.358 1.985.57 2.955.146.785-.346 1.2-1.023 1.509-1.714.338-.757.554-1.594 1.185-2.219.739-.73 1.216.226 1.693.665.647.597 1.693.744 2.463.212.723-.505 1.2-1.315 1.832-1.9.57-.518 1.324-1.222 2.247-1.116 1.2.133 1.924 1.17 3.048 1.395 1.108.226 1.77-.518 2.293-1.222.647-.877 1.524-1.62 2.186-2.484 1.4.318 2.786.544 4.018 1.275.97.585 2.078 1.275 3.294.797 1.016-.398 1.57-1.315 2.14-2.086.23-.332.492-.757.861-.983.431-.266.893.053 1.247.306.878.61 1.632 1.528 2.802 1.687 1.2.16 2.17-.545 2.878-1.302.385-.399.724-.837 1.078-1.262.354-.412.785-.983 1.431-.638 1.093.585 1.493 2.1 2.971 2.046 1.355-.04 2.37-1.289 3.356-1.926.37-.253.8-.452 1.2-.651a8.08 8.08 0 0 1 .94-.425h.015c-.016.292-.062.584-.062.876 0 .519.17 1.01.339 1.502.246.73.277 1.554.862 2.165.923.97 2.447.864 3.725 1.183.523.133 1.185.372 1.062.916-.123.572-.616 1.077-.862 1.608-.277.558-.4 1.209-.093 1.78.324.585 1.016.837 1.694 1.023.615.186 1.37.253 1.908.572.047.026.247.199.324.225-.016.04-.031.12-.047.146-.215.333-.415.665-.661.984-.354.465-.708.93-.4 1.488.307.57 1.2.93 1.847 1.129.83.266 1.693.332 2.4.824.062.04.062.026.047.053a.525.525 0 0 0-.077.12c-.061.092-.092.119-.154.185-.57.625-1.37 1.236-1.077 2.113.2.598.892.983 1.508 1.222.154.067.323.106.477.146a.265.265 0 0 0 .077.359c.231.186.478.345.693.531.17.133.477.346.477.572.016.199.185.305.37.319-.093.252-.17.491-.231.757-.016.08-.046.172-.062.265-.046-.08-.123-.159-.185-.239.108-.12.139-.292-.015-.425-.4-.345-.77-.704-1.154-1.076a1.857 1.857 0 0 0-.34-.332c-.522-.505-1.046-1.023-1.615-1.501-.354-.306-.893.172-.54.465.247.212.493.425.724.65a3.54 3.54 0 0 0-.985.16c-.17-.173-.385-.319-.585-.478-.646-.505-1.17-1.116-1.708-1.7-.308-.333-.862.145-.54.464.447.465.863.944 1.34 1.382.185.173.57.385.831.624-.154.08-.307.173-.446.28-.108.08-.216.159-.323.252-.308-.107-.6-.439-.785-.598-.293-.266-.555-.571-.847-.837-.03-.027-.061-.04-.077-.053-.23-.332-.585-.598-1.093-.718-.015 0-.046-.013-.061-.013a44.504 44.504 0 0 1-2.402-1.9c-.354-.305-.892.173-.538.465.6.518 1.216.997 1.847 1.475-.2.066-.37.16-.554.266-.585-.452-1.247-.837-1.801-1.316a.354.354 0 0 0-.247-.093c-.184-.518-.446-1.023-.63-1.554-.37-1.05-.54-2.1-1.232-3.043-1.463-1.992-3.848-3.44-6.388-4.211-1.401-.425-2.91-.784-4.387-.957-1.709-.199-3.34.2-4.972.611-1.678.426-3.402.718-5.126 1.01-1.385.24-2.77.558-4.171.744-1.124.146-2.248.24-3.34.492-.94.212-2.017.544-2.34 1.408-.339.89 1.247 1.262 1.616.425-.015.027-.015.014 0-.013 0-.013 0-.013.015-.013 0 .013 0 .013-.015.013.015-.013.03-.027.046-.027.123-.053.246-.132.385-.172.385-.147.831-.226 1.247-.306.892-.16 1.8-.252 2.709-.372 1.108-.133 2.186-.385 3.294-.585 1.508-.265 3.032-.504 4.525-.81 1.463-.306 2.879-.797 4.372-.97 1.416-.16 2.801.226 4.156.532 2.37.531 4.402 1.448 6.065 3.016.862.823 1.308 1.634 1.632 2.657-.34-.332-.662-.691-1.032-.984-.492-.398-1.093-.677-1.616-1.05-.385-.265-.924.2-.539.466.523.372 1.124.65 1.616 1.05.416.318.755.704 1.124 1.076l-.416.199c-.2-.16-.43-.292-.63-.452-.555-.425-1.155-.85-1.617-1.368-.292-.332-.97 0-.662.332.4.452.862.824 1.355 1.209.215.173.415.332.646.492.077.053.185.12.293.186-.123.08-.246.172-.37.252-.169.12-.338.252-.508.399a.347.347 0 0 0-.292-.133c-.277 0-.477-.306-.631-.465l-.062-.053c-.108-.598-.246-1.21-.508-1.701.077-.106.062-.253-.077-.359-1.062-.81-2.108-1.607-3.109-2.458-.354-.305-.893.173-.539.465.539.465 1.093.904 1.663 1.355a1.7 1.7 0 0 0-.247.067c-.184.053-.354.12-.523.212-.724-.584-1.77-.77-2.432-1.421-.323-.319-.862.146-.539.465.631.624 1.616.824 2.325 1.342-.231.16-.431.345-.647.505-.046.026-.077.066-.123.106a.508.508 0 0 0-.154-.053c-.57-.08-1.016-.452-1.385-.81-.324-.32-.878.145-.54.464.386.372.878.77 1.448.917-.246.173-.524.306-.8.306-.678 0-.94-.81-1.14-1.25-.338-.677-.708-1.248-1.416-1.673-.23-.146-.616-.133-.862 0-.677.385-1.062.983-1.385 1.594l-.231-.16c-.477-.345-1.093-.53-1.555-.89-.37-.292-.908.186-.539.465.462.36 1.032.545 1.509.864.17.106.323.226.492.332-.03.067-.061.12-.092.186-.154.266-.339.611-.57.85 0 0 0-.013-.015-.013-.354-.319-.662-.717-1.216-.757-1.093-.757-2.324-1.355-3.525-1.98-.43-.212-.816.36-.385.572 1 .504 2.002.996 2.925 1.58-.77-.305-1.6-.345-2.14.466a1.75 1.75 0 0 0-.261.69c-.123-.12-.246-.252-.354-.318-.477-.346-1.047-.572-1.524-.917-.37-.28-.924.186-.539.465.57.412 1.262.678 1.786 1.13.2.159.37.331.57.478 0 .518.076 1.036.107 1.448.03.319.077.598.185.877-.616-.426-1.247-.837-1.847-1.263-.385-.265-.924.2-.54.465.77.558 1.586 1.05 2.356 1.621.2.146.385.306.6.452.016.026.016.066.016.093-.016 0-.031 0-.047.013-.461.186-1.385-.026-1.862-.08a14.3 14.3 0 0 0-1.309-.12c-.846-.836-2.185-1.035-3.093-1.78-.355-.292-.909.173-.54.466.77.624 1.832.877 2.648 1.421-1 .253-1.785.904-1.693 1.767-.046-.013-.092-.04-.138-.053-.585-.226-1.093-.571-1.586-.93-.37-.279-.924.186-.539.465.447.332.924.651 1.432.903.385.186.831.293 1.185.505.17.28.354.545.462.85.046.147.108.36.061.519-.015 0-.015.013-.03.013-.047.027-.154.027-.231.053-.277.067-.554.093-.816.133-.862-.186-1.647-.837-2.37-1.249-.416-.239-.8.346-.385.572.57.318 1.123.717 1.724.996-.493.279-.847.717-.94 1.222-.045.213-.03.412.016.598a20.538 20.538 0 0 0-1.709-.93c-.43-.213-.815.372-.384.571.83.399 1.647.85 2.386 1.356.277.199.538.398.83.544.124.146.247.293.309.439-.493.146-1 .226-1.493.345l-.508-.359a42.711 42.711 0 0 1-1.848-1.275c-.369-.28-.923.186-.538.465.646.478 1.324.943 2 1.382.016.013.032.013.047.026-.246.093-.477.2-.693.332a.966.966 0 0 0-.37.399c-.384-.213-.753-.439-1.215-.478-.493-.04-.493.624 0 .664.446.026 1.016.452 1.4.677.278.412.693.718.893 1.156.185.399-.215.572-.646.651a.386.386 0 0 0-.092-.146c-.385-.385-.893-.584-1.401-.81a9.348 9.348 0 0 1-1.709-.97c-.385-.28-.923.2-.539.465.478.345.97.65 1.509.917.462.226.939.385 1.339.664-.723.093-1.755.292-1.986.956a1.56 1.56 0 0 0-.077.466c-.446-.24-.923-.426-1.277-.784-.324-.32-.878.146-.539.465.508.491 1.216.704 1.801 1.116.062.04.108.08.17.12.138.424.323.85.492 1.182.246.505.554.996.785 1.514-.323-.226-.631-.491-.924-.65-.862-.48-1.724-.944-2.632-1.33-.446-.185-.831.386-.385.572 1.032.438 2.063.956 2.987 1.528.415.265.8.598 1.246.797.016.093 0 .266 0 .306-.061-.014-.292.026-.384.04-.74.04-1.509.08-2.155.331-.524-.465-1.155-.757-1.755-1.142-.508-.332-.924-.664-1.57-.69-.493-.014-.493.65 0 .663.538.027.939.465 1.354.704.462.28.924.505 1.309.837a1.84 1.84 0 0 0-.524.745 2.239 2.239 0 0 0-.154.983c-.077-.053-.169-.093-.246-.147a19.446 19.446 0 0 0-2.863-1.5c-.446-.187-.831.384-.385.57.924.4 1.801.85 2.648 1.369.338.2.692.398 1.031.611.062.186.123.385.185.571-1.878-.026-3.818-.225-5.064-1.567-.924-.983-1.54-2.285-2.17-3.428a47.63 47.63 0 0 1-1.879-3.694c-1.154-2.59-1.985-5.274-2.832-7.944-.693-2.166-2.802-4.89-1.278-7.095.678-.97 1.709-1.793 2.586-2.63.77-.731 1.832-1.834 3.064-1.9 1.077-.067 1.092-1.528 0-1.462a4.17 4.17 0 0 0-.431.053.32.32 0 0 0-.231-.133c-.478-.08-.955-.225-1.355-.478-.354-.212-.646-.385-1.077-.438-.493-.053-.493.61 0 .664.384.04.708.385 1.046.518.17.067.324.133.508.186-.292.133-.57.28-.831.452-.03-.013-.046-.013-.077-.013-.816-.107-1.524-.532-2.247-.864-.447-.2-.831.372-.385.571.646.293 1.277.651 1.97.837a2.306 2.306 0 0 1-.2.16 20.79 20.79 0 0 0-1.031.903c-.262-.093-.524-.172-.77-.305-.43-.226-.816-.452-1.324-.412-.492.026-.492.69 0 .664.416-.026.708.226 1.047.385.154.08.339.12.508.173l-.739.718c-.723-.532-1.709-.997-2.632-1.037-.493-.026-.493.638 0 .665.739.026 1.555.451 2.14.876-.216.213-.4.425-.585.651-.324-.093-.6-.305-.878-.465-.37-.212-.739-.358-1.185-.372-.493-.026-.493.638 0 .665.462.026.816.305 1.17.518a3.1 3.1 0 0 0 .477.239 4.296 4.296 0 0 0-.677 1.647c-.524-.252-1.016-.544-1.555-.784-.446-.186-.831.386-.385.572.647.279 1.232.637 1.878.916 0 .426.062.837.17 1.25a2.414 2.414 0 0 0-.262-.134c-.462-.212-.94-.398-1.4-.597-.447-.186-.832.385-.386.57.524.227 1.062.426 1.57.678.262.133.493.28.755.386.2.531.43 1.063.646 1.567.062.133.108.266.17.4a3.825 3.825 0 0 1-.37-.134c-.77-.252-1.416-.744-2.047-1.196-.385-.265-.924.2-.539.465.539.386 1.093.784 1.709 1.09.369.186 1.154.292 1.339.638.077.133.2.186.323.172.185.479.354.97.508 1.462-.6-.492-1.247-1.01-2.063-1.01a.334.334 0 0 0 0 .664c.8 0 1.509.837 2.063 1.25.108.079.215.092.323.079.231.717.462 1.435.693 2.166-.6-.28-1.247-.492-1.847-.745-.447-.185-.832.386-.385.572.862.358 1.816.61 2.57 1.142.185.532.37 1.05.585 1.568-.585-.186-1.185-.385-1.647-.77-.354-.293-.908.172-.538.465.708.57 1.678.73 2.509 1.076.23.518.462 1.036.708 1.554l-.093-.04c-.538-.226-1.077-.425-1.616-.65-.446-.187-.831.385-.385.57.662.28 1.37.492 2.001.824.216.12.416.24.616.346.216.438.447.877.677 1.302.062.12.124.225.185.345-.539-.306-1.016-.757-1.447-1.09-.37-.278-.908.187-.538.466.754.584 1.523 1.288 2.493 1.554.185.332.37.664.57.996-.616-.398-1.201-.837-2.017-.89-.492-.026-.492.638 0 .665 1.062.066 1.786.877 2.71 1.302.138.199.292.411.446.597.97 1.223 2.278 1.847 3.725 2.18.2.092.415.185.616.292.446.225.846.57 1.293.85h-.031c-.477.04-.97.173-1.386.385-.015-.106-.107-.2-.277-.226-.585-.08-1.154-.438-1.647-.704-.63-.345-1.231-.73-1.878-1.05-.43-.212-.816.36-.384.572.723.359 1.385.797 2.108 1.17.493.252.97.544 1.54.65-.062.053-.108.12-.154.186-.339.425-.447.957-.431 1.501-.17-.08-.324-.172-.493-.252a8.959 8.959 0 0 1-1.832-1.302c-.338-.319-.877.16-.538.465.477.452 1.03.824 1.616 1.182.446.266.939.465 1.37.758.092.425.246.823.415 1.182-.215-.16-.508-.279-.785-.385-.846-.32-1.585-.85-2.493-1.05-.477-.106-.678.532-.2.638.708.16 1.262.545 1.908.824.277.12 1.047.279 1.17.57a3.425 3.425 0 0 0-.985.878c-.292.385-.092.77.277.956a.39.39 0 0 1-.092.067c-.524-.213-.755-.651-1.14-.85Zm53.244-29.241c-.093.319-.185.637-.247.956-.077 0-.138 0-.215-.026-.323-.107-.262-.797-.262-1.103v-.585c.17.16.308.293.339.518.03.147.215.24.385.24Zm-5.911-1.754c-.246.24-.508.478-.785.677-.031-.411.03-.85.03-1.248.231.212.478.425.755.57Zm-4.495-1.953c-.046.053-.077.106-.123.16a2.05 2.05 0 0 0-.062-.306.931.931 0 0 0 .185.146Zm-7.035-1.714c-.076.053-.138.106-.215.146-.015-.08-.015-.16-.03-.239.076.04.153.067.245.093ZM34.14 48.65c0 .212-.046.359-.123.465a.33.33 0 0 0-.123-.027c-.462-.053-.862-.319-1.247-.598.493.04.985.054 1.493.067v.093Zm-2.324 7.666c.077.239.123.478-.015.598-.231.186-.6.279-.985.345.354-.306.707-.611 1-.943Zm87.739-14.11a2.42 2.42 0 0 1-.492.253c-.939.345-1.847.465-2.432 1.262-.17.226-.139.505 0 .744.292.478.739.864 1.17 1.236.215.185.446.371.631.584.061.066.246.425.261.346-.061.265-.785.624-1.016.783-.446.28-.892.545-1.354.81-.831.48-1.786.944-1.478 1.94.354 1.156 1.17 2.126 1.77 3.176-.877.797-2.386 1.13-3.479 1.58-.738.306-1.185.612-1.031 1.37.093.504.416.916.816 1.275.231.212.831.544.893.837.077.358-.554.69-.878.823-1.339.558-2.893.519-4.233 1.103-.323.146-.492.532-.384.824.307.89 1.339 1.182 2.278 1.501-.401.346-.985.571-1.432.81-.693.372-1.354.837-1.585 1.542-.231.744.123 1.474.554 2.099.354.491.877 1.01 1.077 1.58-.8.253-1.647.36-2.401.758-.57.306-1.185.704-1.154 1.355.046.718.831 1.25 1.154 1.86.57 1.076-.739 1.222-1.585 1.422-2.494.584-.324 2.896-.401 4.225-.046.65-.723.797-1.354.916-.785.147-1.57.24-2.294.558-.246.107-.431.386-.415.625.092 1.156.692 2.391.6 3.547a2.746 2.746 0 0 0-.154-.584c-.385-.837-1.493-1.21-2.417-.771-.415.2-.754.505-1.077.797-.323.306-.693.784-1.14.97-.369.146-.384.08-.446-.24-.092-.504-.092-1.009-.261-1.5-.308-.877-1.047-1.635-2.217-1.489-1.139.16-1.94.944-2.663 1.648-.292.292-.708.797-1.185.89-.508.106-.677-.279-.831-.624-.385-.864-.616-1.874-1.586-2.405-1.862-1.01-3.494.917-5.172 1.554-.323-.478-.677-.93-1.077-1.381-.447-.505-.909-1.103-1.555-1.422-1.355-.664-2.34.412-3.31 1.05-.815.531-1.262.385-1.677-.399-.447-.837-.6-1.82-.755-2.724-.061-.318-.477-.53-.815-.53-1.509-.04-2.54 1.155-3.68 1.806-.507.292-.969.505-1.43.053-.493-.492-.678-1.209-.894-1.82-.461-1.289-1.092-2.896-2.847-3.149-1.632-.239-3.063.944-4.172 1.807-.477.372-1 .917-1.616 1.103-.139.04-.046.026-.077-.013-.138-.12-.23-.306-.308-.465-.477-.957-.523-2.18-1.37-2.977-.692-.65-1.94-.053-2.663.266-.939.412-1.847.944-2.663 1.528-.292.213-.538.452-.83.651-.016.013-.062.04-.109.067-.046-.08-.123-.173-.138-.213-.216-.492-.308-1.023-.477-1.528-.354-1.01-1.401-2.87-3.002-2.073-1.154.572-1.986 1.595-3.125 2.193a8.634 8.634 0 0 0-.523-.97c-.246-.412-.37-.904-.646-1.289-.524-.744-1.848-.585-2.602-.2-.43.213-.785.532-1.17.785-.138.093-.292.212-.462.265-.246.093-.138.093-.292-.013-.446-.359-.154-1.448-.077-1.94.185-1.262.785-3.587-1.17-4.078-.585-.146-1.185-.014-1.74.172-.738.253-1.462.425-2.247.558-1.139.186-2.34.465-3.525.399-.4-.013-.97-.053-.985-.452-.015-.465.57-1.076.847-1.461.338-.478.554-.957.77-1.475.246-.598.892-.85 1.092-1.488v-.013c.54-.173.878-.758.324-1.156-.462-.332-.77-.797-1.032-1.262-.169-.292-.6-.997-.415-1.342.154-.266.8-.332 1.093-.385.57-.12 1.17-.226 1.693-.465 2.416-1.143.046-3.827-.431-5.355-.277-.876-.508-2.006.893-2.072.63-.027 1.185.066 1.754-.252a2.127 2.127 0 0 0 1.093-1.648c.108-1.156-.57-2.179-.662-3.295-.076-1.076 1.063-.917 1.955-.97 1.309-.093 2.063-.797 1.878-1.953-.23-1.514-1.462-2.763-1.631-4.278.492-.186 1.17-.146 1.647-.239.738-.146 1.354-.478 1.708-1.063.324-.544.308-1.129-.015-1.66-.185-.293-.462-.532-.693-.797.677-.24 1.416-.306 2.124-.519.909-.265 1.293-.73 1.063-1.58-.139-.519-.508-.93-.878-1.33-.23-.252-.77-.624-.477-.956.246-.279.877-.252 1.231-.305.555-.08 1.078-.24 1.417-.651.861-1.05-.093-2.14-.524-3.123-.015-.026-.03-.159-.061-.146.138-.146.6-.239.77-.252.676-.08 1.462.106 2.139.173 1.293.12 3.094-.014 3.001-1.515-.03-.598-.384-1.103-.6-1.647-.138-.346-.154-.651-.17-1.183-.015-.491.093-1.036.032-1.528v-.04c0 .027.015.054.03.067.247.213.57.399.847.598 1.154.823 2.617.478 3.448-.518.23-.28.416-.585.6-.904.308 0 .585-.332.293-.544 0-.014.015-.027.015-.04.139-.253.262-.572.462-.85.246.358.4.81.585 1.155.308.572.739 1.103 1.431 1.369 1.493.584 2.725-.346 3.74-1.183.232-.2.97-.863 1.248-.797-.047-.013.092.12.154.213.107.186.169.412.23.624.278.997.262 2.033.462 3.043.077.411.631.57 1.047.504.816-.133 1.509-.704 2.109-1.142.57-.412 1.308-1.17 2.063-1.316.046-.013.092-.053.123-.026 0 .013.015.027.015.053v.04c.046.279-.323.664-.462.89-.446.678-.908 1.462-.385 2.206.185.265.6.438.955.332.585-.173 1.031-.492 1.493-.797h.015c.062.372-.061.81-.077 1.155 0 .332.185.545.462.638a.898.898 0 0 0 .385.093c.693.027 1.231-.319 1.662-.744.17-.173.693-.97.97-.996.57-.053.431 1.102.431 1.341 0 .731-.015 1.435.354 2.113.154.279.631.425.955.332.846-.226 1.493-.73 2.093-1.275.539-.479 1.154-1.223 2.001-1.223.446 0 .462.12.508.492.062.518-.015 1.05 0 1.568.062 1.09.754 2.139 2.063 2.139.307.61 1.6.518 1.631-.306 0-.066.016-.12.016-.186a8.56 8.56 0 0 0 .83-.571c.555-.412 1.14-1.09 1.848-1.316 1.355-.438 1.4 1.608 1.493 2.286.108.77.277 1.315 1.309 1.381.8.054 1.554-.265 2.247-.598.693-.332 1.447-.85 2.263-.916.754-.053.77.372.785.916.03.97-.74 3.442.785 3.787.83.186 1.693-.266 2.37-.651.539-.319 1.293-1.01 1.97-1.063.6-.053.647.651.693 1.023.108.718.139 1.422.477 2.086.17.345.816.465 1.155.266 1.123-.678 2.37-1.807 3.802-1.993.046.398-.077.903-.108 1.235-.077.691-.169 1.422.046 2.1.416 1.341 2.094 1.594 3.294.837.693-.439 1.924-1.728 2.371-.4.215.612.261 1.29.785 1.781.523.492 1.339.625 2.062.439.801-.2 1.401-.744 1.986-1.223.447-.372.831-.677 1.339-.677.016.903-.354 1.82.123 2.684.416.744 1.293 1.275 2.002 1.793.153.12.723.412.815.625-.03-.08-.184.159-.277.225Z"/>
  <path fill="#40352F" d="M84.86 71.46c-1.016 1.063-3.618.067-4.803-.292-.754-.226-1.493-.505-2.263-.677-.584-.133-1.185-.186-1.77-.266-.785-.106-1.493-.332-2.232-.571-1.4-.465-2.863-.744-4.325-1.037-1.355-.265-2.725-.491-3.94-1.09-1.155-.57-2.202-1.088-3.51-1.34-1.432-.28-2.833-.4-4.295-.506-1.37-.093-2.678-.598-4.017-.85-1.324-.252-2.74-.532-3.833-1.262-1.74-1.17-2.186-3.322-2.278-5.102-.062-1.116-.154-2.258-.108-3.361 0-.146.03-.293.046-.439.308 0 .585-.332.293-.558-.031-.026-.062-.053-.093-.066.308-.664.831-1.222 1.324-1.887.724-.97.908-2.112 1.355-3.188.492-1.183 1.046-2.352 1.6-3.52a58.52 58.52 0 0 0 3.233-8.424c.385-1.289.57-2.777 1.308-3.96.585-.93 1.509-1.912 2.756-2.151 1.062-.2.615-1.621-.447-1.409a5.04 5.04 0 0 0-1 .306 27.832 27.832 0 0 0-2.017-1.887c-.354-.305-.892.173-.538.465a24.337 24.337 0 0 1 1.893 1.754c-.493.306-.94.69-1.309 1.13-.6-.612-1.2-1.21-1.847-1.781-.338-.306-.892.16-.538.465a30.137 30.137 0 0 1 1.939 1.887 7.92 7.92 0 0 0-.6 1.022L52.75 31.06c-.354-.306-.892.172-.538.465l2.34 2.02c-.093.225-.17.464-.232.69-.092.292-.169.584-.261.877-.724-.651-1.401-1.355-2.094-2.046-.323-.32-.862.146-.539.465.785.784 1.555 1.594 2.417 2.325l-.37 1.235c-.045-.04-.076-.08-.122-.12-.431-.398-.94-.717-1.324-1.155-.293-.332-.97 0-.662.332.385.439.877.784 1.324 1.183.2.172.37.372.554.558-.154.478-.293.956-.462 1.421-.616-.598-1.2-1.209-1.847-1.767-.354-.306-.893.173-.539.465.754.651 1.416 1.369 2.124 2.046-.184.505-.369 1.01-.554 1.501-.616-.65-1.154-1.368-1.8-2.006-.324-.319-.878.146-.54.465.647.638 1.201 1.355 1.817 2.02.092.093.185.12.292.106-.077.173-.154.345-.23.531-.124.28-.247.558-.385.837-.647-.597-1.109-1.328-1.724-1.953-.324-.319-.862.146-.54.465.694.691 1.186 1.528 1.971 2.153-.123.265-.246.518-.354.784a20.54 20.54 0 0 1-1.262-1.542c-.262-.358-.924-.026-.662.332.493.665 1.047 1.302 1.6 1.927l-.553 1.235a30.008 30.008 0 0 0-1.74-1.554c-.354-.292-.892.173-.538.465.677.571 1.354 1.156 1.97 1.78-.17.412-.354.81-.508 1.223-.631-.558-1.232-1.13-1.632-1.847-.215-.385-.877-.053-.662.332.478.864 1.232 1.554 2.017 2.206-.108.279-.216.558-.308.837-.077.199-.17.398-.277.584-.57-.611-1.078-1.275-1.555-1.94-.261-.358-.923-.026-.662.333.54.77 1.124 1.54 1.801 2.218-.307.399-.63.77-.923 1.183v-.014a40.111 40.111 0 0 0-1.57-1.554c-.324-.319-.878.146-.54.465.524.518 1.063 1.036 1.571 1.554.062.053.108.12.17.186-.262.532-.355 1.09-.37 1.661-.662-.797-1.247-1.647-2.109-2.298-.37-.28-.908.186-.539.465 1.093.837 1.755 1.98 2.679 2.95.015.331.046.663.061.982 0 .16.016.306.016.465-.647-.624-1.232-1.275-2.032-1.78-.4-.253-.785.319-.385.571.8.518 1.355 1.183 2.016 1.82.108.107.278.24.462.372.062.837.154 1.674.385 2.485-.015-.027-.046-.04-.062-.067-.8-.717-1.554-1.474-2.309-2.218-.323-.32-.877.146-.538.465.908.89 1.831 1.767 2.77 2.63.247.226.493.478.755.691.108.2.23.399.354.585.662.97 1.631 1.7 2.801 2.179 1.355.558 2.802.744 4.233 1.076.708.172 1.416.385 2.14.518.785.146 1.585.16 2.386.212 1.431.107 3.125.293 4.418.877 1.246.558 2.324 1.196 3.694 1.528 1.6.372 3.232.638 4.833 1.023.831.2 1.632.505 2.448.744.877.266 1.785.306 2.678.465.985.173 1.924.531 2.879.824 1.816.544 4.787 1.421 6.28-.133.6-.69-.6-1.727-1.293-.996Zm15.885-19.45c-.123.917-.523 1.834-1 2.644-.385.651-.986 1.196-1.34 1.847-.43.77-.446 1.634-.57 2.458-.06.451-.184.89-.23 1.328-.046.532-.077.691-.493 1.09-.661.624-1.046 1.461-1.493 2.205-.508.837-1.123 1.608-1.693 2.405-.508.717-.985 1.328-1.693 1.886-.647.505-1.047.997-1.154 1.767-.124.93 1.57.93 1.693 0 .077-.544 1.016-.956 1.4-1.341.678-.678 1.155-1.489 1.725-2.233.6-.797 1.123-1.62 1.631-2.457.231-.372.416-.81.724-1.13.277-.305.615-.505.815-.877.2-.371.216-.797.247-1.195.046-.439.154-.877.215-1.329.123-.863.154-1.647.724-2.391 1.108-1.448 1.985-2.936 2.216-4.69.093-.93-1.601-.917-1.724.013Zm-6.034-13.1c-1.262-.677-2.263-1.647-3.448-2.417-1.124-.718-2.401-1.223-3.694-1.648-2.802-.903-5.757-1.448-8.59-2.272-2.693-.784-5.618-2.524-8.573-2.218-1.062.106-1.078 1.567 0 1.461 2.401-.252 4.756 1.076 6.911 1.78 2.648.877 5.434 1.435 8.143 2.153 1.247.332 2.478.704 3.617 1.248 1.216.572 2.186 1.369 3.233 2.14 1.893 1.381 4.187 2.045 6.357 3.002 1.801.784 4.002 1.794 3.694 3.813-.138.93 1.555.917 1.694 0 .677-4.305-6.234-5.354-9.344-7.041Z"/>
</svg>
