<svg xmlns="http://www.w3.org/2000/svg" width="67" height="71" fill="none" viewBox="0 0 67 71">
  <path fill="#40352F" d="M66.026 22.05c-.523-.957-1.632-1.528-2.724-1.926a13.117 13.117 0 0 0-4.372-.784c-1.878-.014-3.633.093-5.45.465-.738.16-1.492.544-2.246.598-.832.066-1.432-.08-2.094.465-.354.292-.308.664-.077.93-.616 1.063-.985 2.232-1.632 3.295-.754 1.248-1.493 2.47-2.078 3.786-1.03 2.378-1.831 4.823-2.909 7.174-.015-.186-.015-.358-.046-.544-.123-1.17-.262-2.299-.277-3.481 0-1.223-.016-2.445-.016-3.68 0-1.21.093-2.445 0-3.654-.092-1.156-.338-2.272-.307-3.441.03-1.183.046-2.352.077-3.534.03-1.196.061-2.405-.047-3.6-.107-1.21-.292-2.418-.384-3.64-.216-2.79-.231-5.58-.231-8.37 0-.519-.508-.745-.97-.705a2.594 2.594 0 0 0-.508-.332c-.877-.412-1.94-.478-2.91-.478-1.723-.014-3.463-.107-5.171.133-.955.132-1.894.345-2.848.465-.939.106-1.878.239-2.77.531-1.524.505-2.848 1.222-4.034 2.205-.2.16-.277.36-.261.532-.216.319-.4.677-.508 1.036-.385-.133-.785-.212-1.17-.359-.631-.239-1.232-.544-1.863-.783-1.2-.465-2.324-.798-3.632-.944-1.355-.16-2.663-.465-4.049-.478-1.262-.013-2.493.213-3.694.531-1.047.28-2.124.625-2.647 1.502-.54.916-.986 1.886-1.494 2.816-.538.983-1.077 1.993-1.431 3.043C.514 12.976.468 15.26.237 17.48c-.262 2.431-.185 4.85-.185 7.28 0 1.21 0 2.405.077 3.614.077 1.262.246 2.498.262 3.76.03 2.431.323 4.862.492 7.28.17 2.312.416 4.637 1.293 6.843.816 2.046 2.002 3.972 3.402 5.752.693.89 1.432 1.754 2.186 2.591.724.81 1.57 1.528 2.34 2.312.462.478.908.903 1.524 1.13.169.265.508.45.923.398 1.185-.146 2.263-.545 3.34-1.01 1.17-.505 2.371-.558 3.618-.864 1.108-.265 1.909-.877 2.848-1.381.554.385 1.462-.067 1.37-.665.63-.305 1.246-.61 1.847-1.01.785-.517 1.647-1.075 2.093-1.86.262-.451.292-.85.215-1.261l.278.04c.785.106 1.6.225 2.4.265 1.078.04 2.048-.226 3.11-.279.539-.026 1.062 0 1.586-.066.415-.053.816-.146 1.231-.2-.446 1.17-.97 2.312-1.478 3.468a35.6 35.6 0 0 0-.477 1.116 2.883 2.883 0 0 0-.323.545.605.605 0 0 0-.062.425c-.354.89-.692 1.78-1.015 2.683-.278.784-.632 1.542-.893 2.325-.185.545-.231 1.117-.247 1.675a.69.69 0 0 0-.308.544c-.107 2.02 2.125 3.229 3.833 4.225 2.232 1.289 4.526 2.538 7.189 2.976 1.247.213 2.493.053 3.756-.08 1.123-.12 2.34-.106 3.248-.757 1.508-1.076 1.847-3.029 2.524-4.517 1.078-2.338 1.986-4.73 3.14-7.041 1.124-2.246 1.97-4.53 2.694-6.896.739-2.365 1.416-4.77 2.386-7.081.923-2.206 2.186-4.252 2.863-6.55.77-2.59 1-5.235 1.493-7.852.123-.637.37-1.275.446-1.913.031-.319-.03-.638.046-.943.077-.28.2-.545.262-.824.2-.863.647-1.7.6-2.59.124-.266.078-.638-.138-1.037Zm-4.54-.93c.384.558.8 1.156.954 1.767.061.28.092.545.2.797-.062.014-.139.027-.2.04-.247.053-.508.093-.77.133-.831-.797-.554-2.02-1.155-2.923.324.04.647.106.97.186Zm-2.002-.292c.015.053.046.093.108.146.923.757.646 2.033 1.247 2.976-.416.04-.847.066-1.278.066-.17-.239-.2-.73-.292-.97-.124-.345-.262-.69-.416-1.023-.2-.411-.493-.823-.708-1.235.462.013.908.013 1.339.04Zm-2.124-.014c.23.532.585 1.037.831 1.581.185.412.37.85.462 1.29.03.119.046.238.077.331-.154-.013-.323-.026-.477-.04-.185-.026-.37-.04-.554-.08-.324-.544-.431-1.301-.6-1.82-.14-.425-.278-.85-.493-1.248.246-.014.508-.014.754-.014Zm-1.57.093c.415.572.57 1.33.785 1.953.092.28.17.585.261.864-.369-.08-.738-.186-1.092-.292 0 0 0-.013-.016-.013-.354-.32-.492-.784-.693-1.196a8.066 8.066 0 0 1-.415-1.156c.385-.067.77-.12 1.17-.16Zm-2.386.412c.154-.04.308-.066.477-.106.139.492.323.97.539 1.448.061.133.123.253.17.386-.247-.094-.494-.187-.74-.293a7.133 7.133 0 0 0-.477-.186 4.959 4.959 0 0 1-.385-1.129 2.44 2.44 0 0 1 .416-.12Zm-1.601.465a2.95 2.95 0 0 0 .462-.12c.03.16.077.306.123.466-.2-.093-.385-.2-.57-.306a.22.22 0 0 0-.061-.04c.03.014.03.014.046 0Zm-3.17 4.451c.415-.664.815-1.342 1.138-2.046.231-.505.431-1.01.677-1.501.185.12.355.265.54.385v.133c.076.89-.432 1.82-.663 2.684-.138.505-.338.996-.646 1.434-.262.372-.647.625-1 .93-.724.638-1.278 1.382-2.002 2.02-.061.04-.108.093-.154.133a27.26 27.26 0 0 1 2.11-4.172Zm-5.635 12.409c.878-1.674 1.601-3.388 2.294-5.128.923-.797 1.862-1.608 2.801-2.405.831-.718 1.478-1.541 2.325-2.259.846-.717 1.339-1.713 1.585-2.697.185-.757.554-1.514.662-2.285l1.108.439c.216.08.431.16.647.226-.277.518-.354 1.142-.554 1.66-.17.452-.262.917-.462 1.355-.246.532-.57 1.037-.878 1.541-1.246 2.06-2.724 4.013-4.294 5.9-1.509 1.806-3.094 3.666-4.972 5.207-.477.399-.985.771-1.493 1.143.4-.904.77-1.82 1.231-2.697Zm-1.416 4.823c.877-.77 1.878-1.422 2.786-2.166 1.878-1.528 3.479-3.401 5.003-5.195 1.555-1.833 3.032-3.746 4.294-5.739.586-.93 1.217-1.887 1.57-2.896.154-.452.324-.904.478-1.369.108-.305.077-.837.338-1.076.77.2 1.555.346 2.37.412.74.066 1.525.066 2.294 0-.015.093-.015.2-.03.292-.047.598-.462 1.09-.77 1.621-.693 1.17-1.54 2.272-2.386 3.361-1.755 2.259-3.694 4.385-5.572 6.564-.924 1.062-1.816 2.125-2.879 3.082-.985.877-1.97 1.74-2.878 2.684-1.816 1.926-4.248 3.36-6.111 5.26-.616.625-1.185 1.263-1.77 1.914.43-1.196.77-2.405 1.154-3.6.139-.452.324-.89.493-1.316.523-.611.985-1.275 1.616-1.833ZM38.812 3.21c-.324-.306-.524-.69-.755-1.063.216.04.431.08.647.146.615.2.446.598.107.917Zm-3.048-1.13c.446 0 .908-.013 1.37 0 .415.492.6 1.09 1.062 1.555a4.32 4.32 0 0 1-1.14.412c-.23-.73-.8-1.395-1.43-1.966h.138Zm-1.186 0c.693.585 1.447 1.29 1.74 2.1-.37.04-.724.066-1.078.08h-.138c-.385-.412-.662-.877-1.032-1.302a8.167 8.167 0 0 1-.63-.837c.384-.027.754-.04 1.138-.04Zm-1.985.094c.23.372.477.744.77 1.09.292.331.523.677.8 1.022-.385 0-.77 0-1.155-.013-.462-.399-.723-.917-1.093-1.382a9.33 9.33 0 0 0-.492-.571c.4-.067.785-.12 1.17-.146Zm-6.989 16.328c.077-.492.293-.97.416-1.462.123-.491.154-.983.154-1.488 0-.558.123-1.076.215-1.62.185-1.05.293-2.113.339-3.176.046-1.076.03-2.165.077-3.241.03-.784-.154-1.542-.262-2.299.477.067.94.133 1.416.186a.37.37 0 0 0 .077.08c.277.69.093 1.514.062 2.219-.03 1.05 0 2.112 0 3.162 0 .956.17 1.94.046 2.896-.061.451-.215.877-.292 1.315-.077.492 0 .983-.047 1.475-.092 1.023-.246 2.006-.23 3.042a10.888 10.888 0 0 1-.431 3.215c-.585 2.073-1.093 4.159-1.678 6.231-.293 1.023-.539 2.006-1.078 2.95-.23.412-.508.824-.785 1.209-.2-1.236-.415-2.458-.57-3.707a.837.837 0 0 0 .355-.425c.4-.97.816-1.953 1.139-2.936.308-.983.338-1.993.492-2.99.154-.996.57-1.94.585-2.962 0-.558-.092-1.116 0-1.674Zm1.14 12.183c.677-2.206 1.139-4.45 1.77-6.656.308-1.063.63-2.113.708-3.216.077-1.155-.077-2.325.123-3.48.092-.505.138-.983.123-1.488 0-.505.123-.957.23-1.462.232-1.05.078-2.112.062-3.175-.03-1.236-.046-2.471.016-3.707.03-.664.092-1.342-.031-1.993.446.014.908.04 1.37.08-.046.253-.123.505-.185.757-.123.545-.092 1.01.077 1.555.17.558.093 1.103.077 1.66v8.052c0 .584.093 1.182.062 1.767-.031.505-.231.983-.308 1.474-.092.625-.062 1.25-.185 1.86-.23 1.236-.708 2.432-1.185 3.614-.477 1.17-1 2.338-1.4 3.534-.401 1.196-.74 2.392-1.278 3.547-.57 1.236-.832 2.565-1.493 3.773-.308.558-.632 1.09-.986 1.635a65.289 65.289 0 0 1-.446-3.481c1.324-1.355 2.37-2.963 2.878-4.65Zm-.2 7.626c.646-1.116.97-2.245 1.4-3.415.462-1.222 1.047-2.364 1.432-3.613.384-1.289.877-2.525 1.4-3.773.508-1.223 1.032-2.445 1.37-3.72.308-1.17.277-2.365.57-3.521.292-1.156.092-2.405.092-3.587v-6.484c0-.69.108-1.435 0-2.125-.046-.293-.184-.572-.23-.864-.062-.319.045-.598.107-.917.046-.212.092-.412.123-.624.139.013.293.013.431.026.077.147.2.28.354.372.016.306 0 .612.062.904.138.73.154 1.421.154 2.165 0 1.409-.031 2.804.015 4.212.03 1.289.185 2.604.03 3.893-.076.624-.215 1.248-.245 1.886-.047.744-.062 1.475-.231 2.206a39.108 39.108 0 0 1-2.525 7.639c-.554 1.222-1.108 2.444-1.554 3.693-.462 1.276-.847 2.565-1.401 3.813-.631 1.448-1.308 2.883-1.74 4.385-.2.69-.338 1.395-.584 2.086-.047.132-.108.279-.154.411-.123-.372-.231-.757-.339-1.129-.108-.372-.2-.757-.293-1.13.57-.93 1.217-1.833 1.755-2.79Zm4.032-35.858c.339.332.631.677.893 1.05.092.119.17.252.262.371a1.08 1.08 0 0 0-.431.173.842.842 0 0 0-.139.093c-.046 0-.108-.013-.154-.013h-.015c-.2-.266-.493-.452-.77-.704a3.856 3.856 0 0 1-.646-.81c.338-.054.677-.094 1-.16Zm-1.77.252c.2.306.4.611.631.904.108.132.323.292.539.451-.385-.013-.754-.013-1.14-.04-.153-.013-.322-.013-.476-.026.015-.093-.016-.186-.108-.266l-.893-.77c.462-.12.954-.2 1.447-.253Zm-2.309.465c.277.226.539.452.816.691-.37-.053-.723-.106-1.093-.16-.215-.026-.477-.08-.739-.119.323-.16.662-.292 1.016-.412ZM23.28 5.204c.323-.478.631-.346 1.262-.28.093.014.185.027.293.04.092.811.323 1.595.308 2.419-.031 1.076-.031 2.165-.077 3.241-.047 1.103-.139 2.206-.354 3.282-.2.983-.093 2.006-.37 2.963-.277.97-.462 1.833-.43 2.83.03 1.05-.34 1.98-.509 3.002-.17 1.01-.2 2.046-.508 3.03 0 .012-.015.026-.015.04.046-1.741.215-3.469.277-5.209.092-2.418.077-4.836.108-7.254.015-1.993.154-4.132-.339-6.098-.015-.04-.03-.093-.046-.133v-.026a.797.797 0 0 0-.123-.346.572.572 0 0 0 .123-.438c-.046-.346.184-.744.4-1.063ZM12.382 56.792c-.293-.026-.677-.505-.831-.664a22.5 22.5 0 0 0-.862-.837c-.832-.744-1.57-1.541-2.278-2.365C7.01 51.28 5.7 49.591 4.7 47.745c-1.016-1.887-1.616-3.88-1.878-5.952-.277-2.246-.308-4.517-.539-6.763a49.56 49.56 0 0 1-.185-3.374c-.015-1.17-.215-2.325-.277-3.494-.123-2.22-.092-4.464-.092-6.697 0-2.152.23-4.277.446-6.416.216-2.14.724-4.092 1.755-6.045.508-.957 1.062-1.887 1.524-2.857.154-.332.277-.638.662-.837.354-.186.77-.305 1.17-.398-.277.385-.524.783-.754 1.195-.447.797-.97 1.555-1.478 2.325-.985 1.555-1.54 3.268-2.047 4.982-.524 1.754-.093 3.495-.308 5.261-.108.904-.231 1.78-.231 2.697v3.043c-.03 1.847-.154 3.707.17 5.54.338 1.86.492 3.747.907 5.593.416 1.874 1.278 3.747 2.11 5.514.4.85.615 1.727.954 2.59.338.851.892 1.621 1.185 2.485.154.438.246.89.43 1.329.216.518.493.996.632 1.54.277.997.708 1.847 1.216 2.777.523.944.908 1.98 1.262 2.977.154.411.262.837.462 1.248.154.226.477.518.585.784Zm2.94-.677c-.4.172-.8.332-1.216.478-.123-.505-.6-.837-.816-1.355-.37-.877-.662-1.794-1.031-2.67-.339-.824-.755-1.568-1.17-2.352-.447-.837-.539-1.74-.955-2.59-.369-.758-.538-1.542-.861-2.313-.37-.85-.878-1.634-1.17-2.51-.6-1.794-1.401-3.521-2.11-5.275-.707-1.767-1-3.508-1.246-5.354-.246-1.873-.631-3.667-.616-5.567.016-1.833.046-3.654.046-5.487 0-.903.17-1.78.262-2.684.093-.93-.046-1.86-.046-2.79-.015-1.05.308-2.006.662-3.002.308-.904.539-1.807 1-2.657.493-.877 1.109-1.688 1.632-2.564.493-.85.908-1.74 1.678-2.432.17-.16.246-.332.23-.505a11.588 11.588 0 0 1 1.802-.026c.261.013.538.053.8.08-.338.478-.615.996-.985 1.461-.6.744-1.231 1.461-1.74 2.272-1.03 1.62-1.985 3.215-2.6 4.995-.293.864-.678 1.714-.894 2.591-.246.97-.338 1.953-.523 2.923-.17.863-.385 1.727-.492 2.604-.124.996-.047 2.006-.047 3.002.016 2.006.154 4 .616 5.966.446 1.913.924 3.826 1.478 5.726.261.863.554 1.7.754 2.577.2.904.339 1.807.708 2.67.323.771.739 1.515 1.031 2.3.308.836.293 1.7.74 2.51.538.957 1.17 1.86 1.662 2.856.462.917.985 1.82 1.462 2.724.77 1.435 1.462 2.91 2.617 4.145-.231.08-.447.16-.662.253Zm3.17-.784c-.23.04-.46.08-.676.12v-.014c-1.278-1.116-1.986-2.577-2.725-3.986-.37-.69-.77-1.368-1.139-2.059-.462-.864-.847-1.767-1.355-2.617-.461-.758-1-1.422-1.123-2.285-.139-.89-.493-1.714-.878-2.538-.323-.69-.646-1.368-.846-2.112-.231-.89-.354-1.807-.631-2.684-1.124-3.587-2.279-7.294-2.448-11.014-.077-1.82-.215-3.733.139-5.54.338-1.767.508-3.627 1.108-5.34.323-.93.662-1.86 1.016-2.778.4-.996 1.062-1.926 1.632-2.856a18.154 18.154 0 0 1 1.662-2.338c.308-.372.616-.744.908-1.116.277-.372.431-.864.77-1.183a.728.728 0 0 0 .138-.186l1.032.16c.323.053.646.12.954.212-.123.545-.477 1.063-.631 1.595-.231.837-.523 1.66-.862 2.47-.677 1.635-1.386 3.256-1.94 4.943a47.277 47.277 0 0 0-2.17 10.363c-.154 1.74-.277 3.56-.062 5.3.108.878.277 1.715.277 2.592 0 .876.185 1.753.324 2.617.292 1.78.754 3.52 1.308 5.261.524 1.66.94 3.321 1.386 4.995.492 1.834 1.123 3.654 2.155 5.315.523.85 1.108 1.674 1.647 2.51.246.386.538.758.77 1.157.107.185.184.385.276.584a.615.615 0 0 0 .108.425c-.046.014-.092.014-.123.027Zm3.002-1.329c-.43.24-.815.478-1.216.691-.23-.292-.338-.611-.508-.93-.169-.332-.415-.638-.615-.956-.493-.758-.985-1.502-1.478-2.259-.97-1.488-1.632-3.03-2.124-4.677-.477-1.607-.8-3.255-1.309-4.862-.523-1.688-1.092-3.348-1.431-5.075a47.525 47.525 0 0 1-.431-2.511c-.123-.89-.046-1.78-.2-2.67-.293-1.728-.277-3.455-.17-5.182.216-3.455.924-6.909 1.955-10.257.57-1.847 1.324-3.64 2.078-5.434.385-.93.693-1.873.985-2.816.14-.452.37-.877.54-1.302.322.133.646.266.954.412.092.04.169.08.261.12-.169.345-.292.717-.446 1.075-.339.744-.723 1.462-.985 2.232-.57 1.634-.924 3.322-1.447 4.97-.524 1.633-1.078 3.214-1.34 4.902-.276 1.793-.323 3.6-.323 5.394 0 1.78-.046 3.56.016 5.327.061 1.714.277 3.428.539 5.128.477 3.242 1.154 6.47 2.647 9.486.446.89.908 1.767 1.247 2.697.292.824.554 1.674.862 2.498.508 1.369 1.2 2.737 1.986 4.026-.016-.04-.031-.027-.047-.027Zm2.864-1.448c-.431.28-.893.505-1.355.718a23.527 23.527 0 0 1-1.647-3.255c-.616-1.489-.97-3.03-1.678-4.491-.723-1.501-1.447-2.936-1.94-4.517-.477-1.555-.815-3.136-1.092-4.73-.554-3.308-.724-6.563-.708-9.911.015-3.454.046-6.829 1.17-10.177.6-1.754 1.046-3.547 1.585-5.314.262-.837.523-1.687.939-2.485.262-.518.43-1.116.739-1.62.23.053.477.132.63.265a.76.76 0 0 1 .17.2c-.015.584-.338 1.116-.508 1.687-.23.784-.323 1.594-.43 2.378-.232 1.581-.524 3.149-.74 4.73-.415 3.082-.877 6.217-.538 9.313.338 3.162-.016 6.364.215 9.54.231 3.148 1.185 6.177 1.893 9.273.385 1.687.97 3.255 1.755 4.822.385.77.816 1.448 1.293 2.18.262.398.308.836.6 1.168a9.67 9.67 0 0 1-.353.226Zm1.924-1.66c-.047.159-.154.318-.277.478-.077-.12-.124-.386-.185-.492-.139-.292-.339-.545-.523-.81-.447-.611-.755-1.263-1.078-1.927a19.43 19.43 0 0 1-1.509-4.251c-.677-2.99-1.631-5.939-1.862-8.995-.215-3.002.123-6.045-.154-9.034-.139-1.528-.23-2.963-.092-4.49.138-1.528.292-3.043.477-4.57.123-1.024.292-2.047.462-3.07-.016 1.674-.077 3.361-.077 5.035 0 2.232-.216 4.438-.293 6.67-.077 2.219.185 4.384.524 6.576.154 1.01.277 2.02.4 3.03a.58.58 0 0 0 .03.279c.124 1.129.262 2.258.432 3.387.123.744.277 1.488.446 2.232a.684.684 0 0 0 .139.572 55.922 55.922 0 0 0 1.046 3.48c.354 1.037.724 2.06 1.093 3.083.185.518.354 1.036.57 1.554.169.399.554.85.43 1.262Zm1.831-6.75c-.446 1.409-.846 2.83-.908 4.291-.338-.903-.677-1.806-.985-2.723.339-.053.616-.279.57-.678-.077-.597.246-1.116.43-1.687.232-.678.385-1.395.585-2.086.385-1.342.955-2.63 1.54-3.919 1.123-2.511 1.878-5.128 3.017-7.64a41.36 41.36 0 0 0 2.617-7.732c.307-1.355.261-2.71.492-4.065.216-1.315.139-2.63.093-3.96-.062-1.554-.031-3.108-.031-4.662 0-.758.03-1.515-.123-2.272-.093-.412-.077-.85-.123-1.276a12.46 12.46 0 0 0 1.862-.212c.015 2.843.123 5.7-.17 8.53-.307 2.975-.83 6.004-1.6 8.914-.37 1.421-.847 2.816-1.293 4.225-.431 1.381-.77 2.79-1.124 4.198-.739 2.803-2.17 5.367-3.248 8.078-.63 1.54-1.108 3.108-1.6 4.676Zm2.725 2.046c-.508.944-1.031 1.94-.939 3.003v.026c-.2-.026-.416-.04-.616-.066a3.124 3.124 0 0 0-.415-.027c.015-.053.015-.12.015-.186-.015-1.461.385-2.883.831-4.29.447-1.41.862-2.817 1.386-4.212 1.03-2.724 2.54-5.288 3.325-8.078.369-1.342.661-2.71 1.062-4.052.43-1.448.938-2.883 1.354-4.345.816-2.87 1.309-5.859 1.693-8.782.447-3.374.308-6.789.308-10.19.262-.12.508-.252.724-.412.015 1.621.061 3.242.154 4.863.154 2.418.554 4.81.523 7.24-.015.559-.03 1.13-.062 1.688a.66.66 0 0 0-.323.571c0 .797-.046 1.515-.246 2.299-.262 1.076-.2 2.165-.4 3.241-.416 2.18-.57 4.371-1.155 6.524-.585 2.099-1.6 4.092-2.678 6.045-1.093 1.966-2.124 3.919-3.002 5.965a30.995 30.995 0 0 1-1.54 3.175Zm4.371-.69c-.492.916-1.154 1.979-1.354 2.989a.694.694 0 0 0 .108.531c-.8.053-1.555.226-2.355.28v-.08c-.077-.944.461-1.807.908-2.631.508-.917.939-1.86 1.339-2.803.893-2.086 1.94-4.066 3.048-6.072 1.046-1.913 2.078-3.88 2.678-5.925.477-1.635.677-3.295.924-4.943 0 1.395-.077 2.803-.062 4.172 0 1.368.016 2.697.216 4.052.03.252.061.505.077.757-.34.067-.616.293-.585.678.03.491-.308.97-.478 1.448-.2.571-.461 1.09-.815 1.621-.631.97-1.309 1.913-1.894 2.896a44.43 44.43 0 0 0-1.755 3.03Zm.278 3.36c.215-1.049.892-2.112 1.416-3.068a90.671 90.671 0 0 1 1.908-3.295c.632-1.023 1.401-1.98 1.97-3.016-.276.584-.538 1.17-.784 1.767-.493 1.156-1.124 2.259-1.601 3.414-.031.04-.077.08-.108.12-.215.213-.262.452-.185.678-.385 1.076-.692 2.178-1.046 3.268-.54-.027-1.047.053-1.57.133Zm14.577 16.913c-.278.718-.508 1.488-1.032 2.1-.508.597-1.37.69-2.185.743.584-1.687 1.97-3.095 3.155-4.503.493-.598.97-1.21 1.493-1.78a65.22 65.22 0 0 0-1.431 3.44ZM55.42 53.71c-.615 1.7-1.493 3.321-2.278 4.969a.831.831 0 0 0-.616.465c-.184.398-.63.704-.985.983a16.84 16.84 0 0 0-1.185 1.076c-.77.797-1.4 1.674-2.109 2.511-1.308 1.541-2.755 3.136-3.186 5.049-.231.013-.462.04-.693.066a4.407 4.407 0 0 1-.939-.026c.431-.651.6-1.382.985-2.073.524-.917 1.155-1.794 1.74-2.67a95.038 95.038 0 0 1 3.525-4.996c1.231-1.62 2.601-3.162 4.171-4.544.616-.544 1.262-1.063 1.878-1.607-.108.266-.215.531-.308.797Zm2.11-6.577c-.293.89-.555 1.794-.832 2.697a.78.78 0 0 0-.493.12c-.092.053-.184.12-.277.173-.308.2-.4.478-.354.73-.323.439-.877.864-1.247 1.17-.77.637-1.508 1.288-2.262 1.953-1.463 1.288-2.725 2.856-3.88 4.357a86.92 86.92 0 0 0-3.386 4.77c-.57.85-1.17 1.687-1.693 2.564a9.71 9.71 0 0 0-.616 1.17c-.184.424-.261.97-.6 1.341a.904.904 0 0 0-.17.28 15.323 15.323 0 0 1-1.57-.559c.124-.12.2-.279.185-.505-.046-.438.324-.77.54-1.142.276-.465.492-.97.738-1.448.477-.957 1.124-1.834 1.77-2.71 1.355-1.834 2.448-3.787 3.864-5.58 1.385-1.781 2.97-3.415 4.464-5.142.754-.864 1.447-1.78 2.386-2.498.83-.625 1.323-1.422 2.062-2.113a35.745 35.745 0 0 0 2.325-2.338 47.481 47.481 0 0 0-.955 2.71Zm2.508-6.164c-.354-.013-.723.133-.877.492-.123.292-.6.558-.847.81-.385.385-.739.797-1.108 1.209-.724.824-1.524 1.568-2.34 2.338-.354.346-.662.731-.97 1.103-.323.412-.754.717-1.185 1.05-.908.704-1.585 1.62-2.309 2.457-1.508 1.754-3.124 3.428-4.556 5.235-1.416 1.794-2.51 3.747-3.864 5.58-.754 1.023-1.477 2.06-2.032 3.175-.246.518-.508 1.036-.846 1.515-.262.385-.477.784-.493 1.222-.015-.013-.03-.013-.046-.026-.508-.266-1-.532-1.508-.81.37-.346.508-.745.63-1.183.17-.585.509-1.13.74-1.7.523-1.25 1.016-2.512 1.631-3.734.6-1.21 1.432-2.245 2.17-3.388.724-1.103 1.34-2.206 2.217-3.215.955-1.076 1.863-2.192 2.91-3.189.97-.93 1.985-1.793 2.97-2.71 1.032-.97 2.201-1.847 3.11-2.896.83-.97 1.954-1.714 3.032-2.471.616-.426 1.247-.824 1.786-1.329.538-.492 1.016-1.036 1.523-1.568.6-.61 1.232-1.209 1.817-1.82a19.173 19.173 0 0 1-1.555 3.853Zm3.91-15.505c-.108.452-.323.864-.354 1.33a8.307 8.307 0 0 1-.262 1.62c-.446 2.006-.615 4.039-1.031 6.045h-.016c-.63-.146-1.046.305-1.046.744-.754.903-1.632 1.7-2.463 2.55-.924.93-1.755 1.887-2.863 2.645-.554.385-1.078.783-1.616 1.182-.54.399-1.14.718-1.601 1.183-.431.451-.8.93-1.262 1.368-.555.518-1.14 1.01-1.694 1.514-2.032 1.82-3.986 3.64-5.772 5.647-.908 1.036-1.8 2.033-2.494 3.188-.661 1.103-1.477 2.113-2.17 3.202-.8 1.262-1.4 2.67-1.955 4.013-.277.69-.539 1.395-.877 2.086-.139.279-.293.544-.385.837-.062.212-.062.544-.246.717a.598.598 0 0 0-.17.226c-.2-.12-.385-.24-.57-.359-.676-.425-1.43-.996-1.662-1.714a.634.634 0 0 0 .231-.505c0-.61-.015-1.222.185-1.82.246-.744.6-1.461.862-2.205.416-1.156.831-2.312 1.308-3.454.216-.293.477-.585.693-.877.431-.598.862-1.196 1.355-1.767.892-1.023 1.785-2.06 2.724-3.056.955-.997 1.955-1.94 3.079-2.817 1.031-.81 2.124-1.58 3.063-2.47.97-.944 1.909-1.887 2.925-2.79 1-.89 1.893-1.808 2.74-2.804 1.862-2.192 3.832-4.305 5.618-6.537.985-1.222 1.955-2.458 2.786-3.746.385-.598.8-1.21 1.093-1.847.23-.491.123-1.076.292-1.568a13.4 13.4 0 0 0 1.124-.239c.185-.053.385-.106.585-.172-.046.212-.093.425-.154.65Zm.539-2.79c-.216.147-.293.32-.293.492a3.292 3.292 0 0 1-.816.332c-.23-.332-.215-.917-.384-1.262a14.724 14.724 0 0 0-.447-.824c.678.226 1.34.518 1.755 1.01.108.106.17.186.185.252.015 0 .015 0 0 0Z"/>
</svg>
