<svg width="67" height="71" viewBox="0 0 67 71" fill="none" xmlns="http://www.w3.org/2000/svg">
<path d="M66.026 22.0501C65.5026 21.0935 64.3944 20.5222 63.3015 20.1237C61.9007 19.6188 60.4538 19.3531 58.9299 19.3398C57.052 19.3265 55.2972 19.4328 53.4808 19.8048C52.742 19.9643 51.9877 20.3495 51.2335 20.4027C50.4023 20.4691 49.8019 20.323 49.14 20.8677C48.786 21.16 48.8322 21.532 49.0631 21.7977C48.4474 22.8605 48.0779 24.0297 47.4314 25.0925C46.6772 26.3414 45.9383 27.5637 45.3534 28.879C44.3221 31.2571 43.5216 33.7017 42.4441 36.0532C42.4287 35.8672 42.4288 35.6945 42.398 35.5085C42.2748 34.3394 42.1363 33.2101 42.1209 32.0277C42.1209 30.8054 42.1055 29.5831 42.1055 28.3475C42.1055 27.1385 42.1979 25.903 42.1055 24.694C42.0131 23.5381 41.7669 22.4221 41.7976 21.253C41.8284 20.0705 41.8438 18.9014 41.8746 17.719C41.9054 16.5232 41.9362 15.3142 41.8284 14.1185C41.7207 12.9095 41.536 11.7005 41.4436 10.4782C41.2281 7.68824 41.2127 4.89824 41.2127 2.10824C41.2127 1.5901 40.7048 1.36425 40.243 1.40411C40.1044 1.28454 39.9197 1.16497 39.735 1.07197C38.8576 0.660111 37.7955 0.59367 36.8258 0.59367C35.1018 0.580384 33.3624 0.487384 31.6537 0.726527C30.6994 0.859384 29.7604 1.07196 28.8061 1.19153C27.8671 1.29781 26.9281 1.43067 26.0354 1.72296C24.5115 2.22781 23.1877 2.94525 22.0024 3.9284C21.8023 4.08783 21.7254 4.28711 21.7407 4.45983C21.5252 4.77868 21.3405 5.13739 21.2328 5.4961C20.848 5.36324 20.4478 5.28354 20.0629 5.13739C19.4318 4.89825 18.8315 4.59268 18.2004 4.35353C16.9998 3.88853 15.8761 3.55639 14.5677 3.41025C13.2131 3.25082 11.9047 2.94525 10.5194 2.93197C9.25714 2.91868 8.02572 3.14454 6.82507 3.4634C5.77836 3.7424 4.70086 4.08782 4.1775 4.96467C3.63875 5.88139 3.19235 6.85125 2.68439 7.78125C2.14564 8.7644 1.60689 9.7741 1.25286 10.8237C0.513999 12.976 0.467819 15.2611 0.236926 17.4798C-0.0247522 19.9111 0.0522149 22.3291 0.0522149 24.7604C0.0522149 25.9694 0.0522149 27.1651 0.129179 28.3741C0.206143 29.6363 0.375462 30.8718 0.390855 32.134C0.421641 34.5652 0.714107 36.9965 0.883428 39.4145C1.05275 41.7263 1.29903 44.0513 2.17643 46.2567C2.99225 48.3027 4.1775 50.2291 5.57825 52.0094C6.27093 52.8995 7.00978 53.7631 7.76403 54.6001C8.4875 55.4105 9.33411 56.128 10.1037 56.9118C10.5655 57.3901 11.0119 57.8152 11.6276 58.0411C11.797 58.3068 12.1356 58.4928 12.5512 58.4397C13.7365 58.2935 14.814 57.895 15.8915 57.43C17.0613 56.9251 18.262 56.872 19.5088 56.5664C20.6171 56.3007 21.4175 55.6895 22.3565 55.1847C22.9106 55.57 23.8188 55.1182 23.7264 54.5204C24.3575 54.2148 24.9732 53.9092 25.5736 53.5107C26.3586 52.9925 27.2206 52.4345 27.667 51.6507C27.9287 51.199 27.9595 50.8004 27.8825 50.3885C27.9749 50.4018 28.0672 50.4151 28.1596 50.4284C28.9446 50.5347 29.7604 50.6543 30.5609 50.6941C31.6384 50.734 32.6081 50.4682 33.6702 50.4151C34.209 50.3885 34.7323 50.4151 35.2557 50.3487C35.6713 50.2955 36.0715 50.2025 36.4871 50.1494C36.0407 51.3185 35.5174 52.4611 35.0094 53.617C34.8401 53.989 34.6861 54.361 34.5322 54.733C34.4091 54.9057 34.2859 55.0917 34.209 55.2777C34.132 55.4238 34.1166 55.57 34.1474 55.7028C33.7934 56.593 33.4547 57.4831 33.1315 58.3865C32.8544 59.1704 32.5004 59.9277 32.2387 60.7115C32.054 61.2562 32.0078 61.8275 31.9924 62.3855C31.8231 62.5051 31.6999 62.6778 31.6845 62.9303C31.5768 64.9497 33.8088 66.1587 35.5174 67.1551C37.7493 68.4438 40.0429 69.6927 42.7058 70.1311C43.9526 70.3437 45.1995 70.1842 46.4617 70.0514C47.5854 69.9318 48.8014 69.9451 49.7096 69.2941C51.2181 68.218 51.5567 66.265 52.234 64.777C53.3115 62.4387 54.2197 60.0473 55.3741 57.7355C56.4978 55.4903 57.3444 53.2051 58.0679 50.8403C58.8067 48.4754 59.484 46.0707 60.4538 43.759C61.3774 41.5535 62.6396 39.5075 63.3169 37.2091C64.0865 34.6184 64.3174 31.9745 64.81 29.3572C64.9331 28.7195 65.1794 28.0818 65.2564 27.4441C65.2871 27.1253 65.2256 26.8064 65.3025 26.5008C65.3795 26.2218 65.5026 25.9561 65.5642 25.6771C65.7643 24.8135 66.2107 23.9765 66.1645 23.0864C66.2877 22.8207 66.2415 22.4487 66.026 22.0501ZM61.4851 21.1201C61.8699 21.6781 62.2855 22.276 62.4395 22.8871C62.501 23.1661 62.5318 23.4318 62.6396 23.6842C62.578 23.6975 62.501 23.7108 62.4395 23.7241C62.1932 23.7773 61.9315 23.8171 61.6698 23.857C60.8386 23.0598 61.1157 21.8375 60.5154 20.9341C60.8386 20.974 61.1619 21.0404 61.4851 21.1201ZM59.484 20.8278C59.4994 20.881 59.5302 20.9208 59.5918 20.974C60.5154 21.7312 60.2383 23.0067 60.8386 23.95C60.423 23.9898 59.992 24.0164 59.561 24.0164C59.3917 23.7772 59.3609 23.2857 59.2685 23.0465C59.1454 22.7011 59.0069 22.3557 58.8529 22.0235C58.6528 21.6117 58.3604 21.1998 58.1449 20.788C58.6066 20.8012 59.053 20.8012 59.484 20.8278ZM57.3598 20.8145C57.5907 21.346 57.9448 21.8508 58.191 22.3955C58.3758 22.8074 58.5605 23.2458 58.6528 23.6842C58.6836 23.8038 58.699 23.9234 58.7298 24.0164C58.5759 24.0031 58.4065 23.9898 58.2526 23.9765C58.0679 23.95 57.8832 23.9367 57.6985 23.8968C57.3752 23.3521 57.2675 22.5948 57.0981 22.0767C56.9596 21.6515 56.8211 21.2264 56.6056 20.8278C56.8519 20.8145 57.1135 20.8145 57.3598 20.8145ZM55.7898 20.9075C56.2054 21.4788 56.3593 22.2361 56.5748 22.8605C56.6671 23.1395 56.7441 23.4451 56.8365 23.7241C56.467 23.6444 56.0976 23.5381 55.7436 23.4318C55.7436 23.4318 55.7436 23.4185 55.7282 23.4185C55.3741 23.0997 55.2356 22.6347 55.0355 22.2228C54.8662 21.8375 54.7276 21.4655 54.6199 21.067C55.0047 21.0005 55.3895 20.9474 55.7898 20.9075ZM53.4039 21.3194C53.5578 21.2795 53.7117 21.253 53.881 21.2131C54.0196 21.7047 54.2043 22.183 54.4198 22.6613C54.4814 22.7941 54.5429 22.9137 54.5891 23.0465C54.3428 22.9535 54.0965 22.8605 53.8503 22.7542C53.6963 22.6878 53.527 22.6214 53.3731 22.5682C53.2037 22.2095 53.0652 21.8242 52.9882 21.439C53.1268 21.3858 53.2653 21.346 53.4039 21.3194ZM51.803 21.7844C51.9569 21.7578 52.1109 21.718 52.2648 21.6648C52.2956 21.8243 52.3418 21.9704 52.3879 22.1298C52.1878 22.0368 52.0031 21.9305 51.8184 21.8242C51.803 21.811 51.7876 21.7977 51.7568 21.7844C51.7876 21.7977 51.7876 21.7977 51.803 21.7844ZM48.6321 26.2351C49.0477 25.5708 49.4479 24.8933 49.7711 24.1891C50.002 23.6843 50.2021 23.1794 50.4484 22.6878C50.6331 22.8074 50.8025 22.9535 50.9872 23.0731C50.9872 23.113 50.9872 23.1528 50.9872 23.206C51.0641 24.0961 50.5562 25.0261 50.3253 25.8897C50.1868 26.3945 49.9866 26.8861 49.6788 27.3245C49.4171 27.6965 49.0323 27.949 48.6782 28.2545C47.9548 28.8923 47.4006 29.6362 46.6772 30.274C46.6156 30.3138 46.5694 30.367 46.5232 30.4068C47.1082 28.9454 47.8009 27.5902 48.6321 26.2351ZM42.9983 38.644C43.8757 36.97 44.5991 35.2561 45.2918 33.5157C46.2154 32.7185 47.1544 31.9081 48.0933 31.111C48.9245 30.3935 49.571 29.5698 50.4176 28.8524C51.2643 28.135 51.7568 27.1385 52.0031 26.1554C52.1878 25.3981 52.5573 24.6408 52.665 23.8703C53.0344 24.0164 53.4039 24.1625 53.7733 24.3087C53.9888 24.3884 54.2043 24.4681 54.4198 24.5345C54.1427 25.0527 54.0658 25.6771 53.8656 26.1953C53.6963 26.647 53.604 27.112 53.4039 27.5504C53.1576 28.0818 52.8343 28.5867 52.5265 29.0915C51.2796 31.1508 49.8019 33.1038 48.2319 34.9904C46.7234 36.7972 45.1379 38.6573 43.26 40.1984C42.7828 40.597 42.2748 40.969 41.7669 41.341C42.1671 40.4375 42.5365 39.5208 42.9983 38.644ZM41.5821 43.4667C42.4595 42.6961 43.4601 42.0451 44.3682 41.3011C46.2462 39.7732 47.847 37.9 49.3709 36.1064C50.9256 34.273 52.4033 32.3598 53.6655 30.367C54.2505 29.437 54.8816 28.4804 55.2356 27.4707C55.3895 27.019 55.5589 26.5672 55.7128 26.1022C55.8205 25.7967 55.7898 25.2652 56.0514 25.0261C56.8211 25.2254 57.6061 25.3715 58.4219 25.438C59.1608 25.5044 59.9458 25.5044 60.7155 25.438C60.7001 25.531 60.7001 25.6373 60.6847 25.7303C60.6385 26.3281 60.2229 26.8197 59.915 27.3511C59.2224 28.5202 58.3757 29.623 57.5291 30.7124C55.7744 32.971 53.8349 35.0967 51.9569 37.2755C51.0334 38.3384 50.1406 39.4012 49.0785 40.3578C48.0933 41.2347 47.1082 42.0982 46.2 43.0415C44.3836 44.968 41.9516 46.4028 40.089 48.3027C39.4733 48.9271 38.9038 49.5648 38.3189 50.2158C38.7499 49.0201 39.0885 47.8111 39.4733 46.6154C39.6119 46.1637 39.7966 45.7252 39.9659 45.3001C40.4893 44.689 40.951 44.0247 41.5821 43.4667ZM38.8114 3.21097C38.4882 2.90539 38.2881 2.52011 38.0572 2.14811C38.2727 2.18797 38.4882 2.22782 38.7037 2.29425C39.3194 2.49353 39.1501 2.89211 38.8114 3.21097ZM35.7636 2.08168C36.21 2.08168 36.6718 2.06839 37.1336 2.08168C37.5492 2.57325 37.7339 3.1711 38.1957 3.6361C37.8571 3.8221 37.4723 3.95496 37.0566 4.04796C36.8258 3.31724 36.2562 2.65297 35.6251 2.08168C35.7021 2.08168 35.7329 2.08168 35.7636 2.08168ZM34.5784 2.08168C35.2711 2.66625 36.0253 3.37038 36.3178 4.18081C35.9484 4.22067 35.5943 4.24725 35.2403 4.26054C35.1941 4.26054 35.1479 4.26054 35.1017 4.26054C34.7169 3.84868 34.4399 3.38368 34.0704 2.95853C33.8395 2.69282 33.624 2.40053 33.4393 2.12153C33.8241 2.09496 34.1936 2.08168 34.5784 2.08168ZM32.5927 2.17467C32.8236 2.54667 33.0699 2.91868 33.3624 3.26411C33.6548 3.59625 33.8857 3.94168 34.1628 4.2871C33.778 4.2871 33.3931 4.28711 33.0083 4.27382C32.5465 3.87525 32.2849 3.3571 31.9154 2.8921C31.7615 2.69282 31.5922 2.50681 31.4229 2.32081C31.8231 2.25438 32.2079 2.20124 32.5927 2.17467ZM25.6044 18.5028C25.6813 18.0112 25.8968 17.533 26.02 17.0414C26.1431 16.5498 26.1739 16.0583 26.1739 15.5534C26.1739 14.9954 26.297 14.4772 26.3894 13.9325C26.5741 12.883 26.6819 11.8201 26.728 10.7572C26.7742 9.6811 26.7588 8.59168 26.805 7.51554C26.8358 6.73168 26.6511 5.97439 26.5433 5.2171C27.0205 5.28353 27.4823 5.34996 27.9595 5.40311C27.9749 5.42968 28.0056 5.45625 28.0364 5.48282C28.3135 6.17368 28.1288 6.99738 28.098 7.70153C28.0672 8.7511 28.098 9.81396 28.098 10.8635C28.098 11.8201 28.2673 12.8033 28.1442 13.7598C28.0826 14.2115 27.9287 14.6367 27.8517 15.0751C27.7747 15.5667 27.8517 16.0583 27.8055 16.5498C27.7132 17.5728 27.5592 18.556 27.5746 19.5922C27.59 20.695 27.4515 21.7313 27.1436 22.8074C26.5587 24.88 26.0507 26.9658 25.4658 29.0384C25.1734 30.0614 24.9271 31.0445 24.3883 31.9878C24.1574 32.3997 23.8804 32.8115 23.6033 33.1968C23.4032 31.9612 23.1877 30.739 23.0337 29.4901C23.2031 29.3971 23.3262 29.2244 23.3878 29.065C23.788 28.0951 24.2036 27.112 24.5269 26.1288C24.8347 25.1457 24.8655 24.136 25.0194 23.1395C25.1734 22.1431 25.589 21.1998 25.6044 20.1768C25.6044 19.6188 25.512 19.0608 25.6044 18.5028ZM26.7434 30.6858C27.4207 28.4804 27.8825 26.2351 28.5136 24.0297C28.8215 22.9668 29.1447 21.9173 29.2217 20.8145C29.2986 19.6587 29.1447 18.4895 29.3448 17.3337C29.4372 16.8288 29.4834 16.3505 29.468 15.8457C29.468 15.3408 29.5911 14.8891 29.6989 14.3842C29.9297 13.3347 29.7758 12.2718 29.7604 11.209C29.7296 9.97339 29.7142 8.73781 29.7758 7.50224C29.8066 6.83796 29.8682 6.16038 29.745 5.50938C30.1914 5.52267 30.6532 5.54925 31.115 5.58911C31.0688 5.84154 30.9919 6.09396 30.9303 6.34639C30.8071 6.8911 30.8379 7.3561 31.0072 7.90081C31.1766 8.45881 31.0996 9.00353 31.0842 9.56153C31.0842 10.2524 31.0842 10.9433 31.0842 11.6474C31.0842 12.9893 31.0842 14.3311 31.0842 15.673V17.6127C31.0842 18.1973 31.1766 18.7951 31.1458 19.3797C31.115 19.8845 30.9149 20.3628 30.8379 20.8544C30.7456 21.4788 30.7764 22.1032 30.6532 22.7144C30.4223 23.95 29.9451 25.1457 29.468 26.3281C28.9908 27.4973 28.4674 28.6664 28.0672 29.8621C27.667 31.0578 27.3284 32.2535 26.7896 33.4094C26.2201 34.645 25.9584 35.9735 25.2965 37.1825C24.9886 37.7405 24.6654 38.272 24.3114 38.8167C24.1266 37.6608 23.9881 36.505 23.865 35.3358C25.1887 33.9807 26.2355 32.3731 26.7434 30.6858ZM26.5433 38.3118C27.1898 37.1958 27.5131 36.0665 27.9441 34.8974C28.4059 33.6751 28.9908 32.5325 29.3756 31.2837C29.7604 29.995 30.253 28.7594 30.7764 27.5105C31.2843 26.2883 31.8077 25.066 32.1463 23.7905C32.4542 22.6214 32.4234 21.4257 32.7159 20.2698C33.0083 19.114 32.8082 17.8651 32.8082 16.6827C32.8082 15.301 32.8082 13.9192 32.8082 12.5375C32.8082 11.7537 32.8082 10.9831 32.8082 10.1992C32.8082 9.50839 32.916 8.76439 32.8082 8.07353C32.762 7.78125 32.6235 7.50225 32.5773 7.20996C32.5157 6.8911 32.6235 6.6121 32.6851 6.29324C32.7313 6.08067 32.7774 5.88139 32.8082 5.66882C32.9467 5.68211 33.1007 5.6821 33.2392 5.69539C33.3162 5.84153 33.4393 5.97439 33.5933 6.06739C33.6086 6.37296 33.5932 6.67853 33.6548 6.97081C33.7934 7.70153 33.8087 8.39239 33.8087 9.13639C33.8087 10.5447 33.778 11.9397 33.8241 13.348C33.8549 14.6367 34.0089 15.952 33.8549 17.2407C33.778 17.8651 33.6394 18.4895 33.6086 19.1272C33.5625 19.8712 33.5471 20.602 33.3778 21.3327C32.7928 23.9633 31.977 26.4743 30.8533 28.972C30.2992 30.1943 29.745 31.4165 29.2986 32.6654C28.8369 33.9408 28.452 35.2295 27.8979 36.4784C27.2668 37.9265 26.5895 39.3614 26.1585 40.8627C25.9584 41.5535 25.8199 42.2577 25.5736 42.9485C25.5274 43.0814 25.4658 43.2275 25.4196 43.3604C25.2965 42.9884 25.1887 42.6031 25.081 42.2311C24.9732 41.8591 24.8809 41.4738 24.7885 41.1018C25.3581 40.1718 26.0046 39.2684 26.5433 38.3118ZM30.5762 2.45367C30.9149 2.78581 31.2074 3.13124 31.469 3.50324C31.5614 3.62282 31.6384 3.75568 31.7307 3.87525C31.5768 3.90182 31.4383 3.95496 31.2997 4.04796C31.2535 4.07453 31.2074 4.10111 31.1612 4.14097C31.115 4.14097 31.0534 4.12768 31.0072 4.12768H30.9919C30.7918 3.86197 30.4993 3.67596 30.2222 3.42353C29.9605 3.18439 29.7604 2.90539 29.5757 2.61311C29.9144 2.55997 30.253 2.5201 30.5762 2.45367ZM28.8061 2.7061C29.0062 3.01167 29.2063 3.31725 29.4372 3.60954C29.5449 3.74239 29.7604 3.90183 29.9759 4.06125C29.5911 4.04797 29.2217 4.04796 28.8369 4.02139C28.6829 4.0081 28.5136 4.00811 28.3597 3.99483C28.3751 3.90183 28.3443 3.80883 28.2519 3.72911C27.9595 3.47668 27.6516 3.21096 27.3591 2.95853C27.8209 2.83896 28.3135 2.75924 28.8061 2.7061ZM26.4971 3.1711C26.7742 3.39696 27.0359 3.62283 27.313 3.86197C26.9435 3.80883 26.5895 3.75567 26.2201 3.70253C26.0046 3.67596 25.7429 3.62281 25.4812 3.58296C25.8045 3.42353 26.1431 3.29067 26.4971 3.1711ZM23.28 5.20382C23.6033 4.72554 23.9111 4.8584 24.5422 4.92483C24.6346 4.93811 24.727 4.95139 24.8347 4.96467C24.9271 5.7751 25.158 6.55897 25.1426 7.38268C25.1118 8.45883 25.1118 9.54824 25.0656 10.6244C25.0194 11.7271 24.9271 12.8298 24.7116 13.906C24.5115 14.8891 24.6192 15.9121 24.3421 16.8687C24.0651 17.8385 23.8804 18.7021 23.9111 19.6985C23.9419 20.7481 23.5725 21.6781 23.4032 22.7011C23.2339 23.7108 23.2031 24.7471 22.8952 25.7303C22.8952 25.7435 22.8798 25.7568 22.8798 25.7701C22.926 24.0297 23.0953 22.3025 23.1569 20.5621C23.2492 18.1441 23.2339 15.7261 23.2646 13.3081C23.28 11.3153 23.4186 9.17625 22.926 7.20996C22.9106 7.1701 22.8952 7.11696 22.8798 7.0771C22.8798 7.06382 22.8798 7.06383 22.8798 7.05054C22.8644 6.91768 22.8183 6.7981 22.7567 6.7051C22.849 6.59881 22.8952 6.45268 22.8798 6.26668C22.8336 5.92125 23.0645 5.52268 23.28 5.20382ZM12.3819 56.7922C12.0894 56.7657 11.7046 56.2874 11.5507 56.128C11.2736 55.849 10.9965 55.57 10.6887 55.291C9.85746 54.547 9.11861 53.7498 8.41053 52.9261C7.00978 51.2787 5.70139 49.5914 4.70086 47.7447C3.68493 45.8581 3.08461 43.8653 2.82293 41.7927C2.54586 39.5474 2.51507 37.2755 2.28418 35.0303C2.17643 33.901 2.13025 32.785 2.09946 31.6557C2.08407 30.4865 1.88396 29.3307 1.82239 28.1615C1.69925 25.9428 1.73004 23.6975 1.73004 21.4655C1.73004 19.3133 1.96093 17.1875 2.17643 15.0485C2.39193 12.9095 2.89989 10.9565 3.93121 9.00353C4.43918 8.04696 4.99332 7.11696 5.4551 6.1471C5.60903 5.81496 5.73218 5.50938 6.117 5.3101C6.47104 5.1241 6.88664 5.00453 7.28686 4.91153C7.00979 5.29681 6.7635 5.69538 6.5326 6.10724C6.08621 6.90438 5.56286 7.66167 5.05489 8.43224C4.06975 9.98667 3.5156 11.7005 3.00764 13.4144C2.48428 15.1681 2.91528 16.9085 2.69978 18.6755C2.59203 19.579 2.46889 20.4558 2.46889 21.3725C2.46889 22.3822 2.46889 23.4052 2.46889 24.415C2.43811 26.2617 2.31496 28.1217 2.63821 29.9551C2.97686 31.8151 3.13078 33.7017 3.54639 35.5484C3.962 37.4217 4.824 39.295 5.65521 41.062C6.05543 41.9123 6.27093 42.7891 6.60957 43.6527C6.94821 44.503 7.50236 45.2735 7.79482 46.1371C7.94875 46.5755 8.0411 47.0272 8.22582 47.4657C8.44132 47.9838 8.71839 48.4621 8.85693 49.0068C9.134 50.0032 9.565 50.8535 10.073 51.7835C10.5963 52.7268 10.9811 53.7631 11.3352 54.7595C11.4891 55.1714 11.5969 55.5965 11.797 56.0084C11.9509 56.2343 12.2741 56.5265 12.3819 56.7922ZM15.3219 56.1147C14.9217 56.2874 14.5215 56.4468 14.1059 56.593C13.9827 56.0881 13.5056 55.756 13.2901 55.2378C12.9206 54.361 12.6282 53.4443 12.2587 52.5674C11.9201 51.7437 11.5045 50.9997 11.0889 50.2158C10.6425 49.3788 10.5501 48.4754 10.1345 47.6251C9.76511 46.8678 9.59579 46.084 9.27254 45.3134C8.90311 44.4631 8.39514 43.6793 8.10268 42.8024C7.50236 41.0088 6.70193 39.2817 5.99385 37.528C5.28578 35.761 4.99332 34.0205 4.74704 32.1738C4.50075 30.3005 4.11593 28.507 4.13132 26.6071C4.14671 24.7737 4.1775 22.9535 4.1775 21.1201C4.1775 20.2167 4.34682 19.3398 4.43918 18.4364C4.53154 17.5064 4.393 16.5764 4.393 15.6464C4.3776 14.5968 4.70086 13.6403 5.05489 12.6438C5.36275 11.7404 5.59364 10.837 6.05543 9.98668C6.548 9.10982 7.16371 8.29939 7.68707 7.42253C8.17964 6.57224 8.59525 5.68211 9.36489 4.99125C9.53422 4.83183 9.61118 4.6591 9.59579 4.48639C10.1807 4.43325 10.781 4.41997 11.3967 4.45983C11.6584 4.47311 11.9355 4.51297 12.1972 4.53954C11.8585 5.01782 11.5815 5.53596 11.212 6.00096C10.6117 6.74496 9.98061 7.46239 9.47264 8.27282C8.44132 9.89368 7.48696 11.488 6.87125 13.2682C6.57878 14.1318 6.19397 14.9821 5.97847 15.859C5.73218 16.8288 5.63982 17.812 5.4551 18.7818C5.28578 19.6454 5.07029 20.509 4.96254 21.3858C4.83939 22.3822 4.91635 23.392 4.91635 24.3884C4.93175 26.3945 5.07028 28.3874 5.53207 30.3537C5.97846 32.2668 6.45564 34.18 7.00978 36.0798C7.27146 36.9434 7.56393 37.7804 7.76403 38.6572C7.96414 39.5607 8.10268 40.4641 8.47211 41.3277C8.79536 42.0983 9.21096 42.8422 9.50343 43.6261C9.81129 44.4631 9.79589 45.3267 10.2423 46.1371C10.781 47.0937 11.4121 47.9971 11.9047 48.9935C12.3665 49.9102 12.8899 50.8137 13.367 51.7171C14.1367 53.152 14.8294 54.6267 15.9838 55.8622C15.7529 55.942 15.5374 56.0217 15.3219 56.1147ZM18.4929 55.3308C18.262 55.3707 18.0311 55.4105 17.8156 55.4504C17.8156 55.4504 17.8156 55.4504 17.8156 55.4371C16.538 54.3211 15.8299 52.8597 15.091 51.4514C14.7216 50.7605 14.3214 50.083 13.952 49.3921C13.4902 48.5285 13.1054 47.6251 12.5974 46.7748C12.1356 46.0175 11.5969 45.3532 11.4737 44.4897C11.3352 43.5995 10.9811 42.7758 10.5963 41.9521C10.2731 41.2612 9.94982 40.5837 9.74972 39.8397C9.51882 38.9495 9.39568 38.0328 9.11861 37.156C7.99493 33.5688 6.84047 29.8621 6.67114 26.1421C6.59418 24.322 6.45564 22.4088 6.80968 20.602C7.14832 18.835 7.31764 16.975 7.91796 15.2611C8.24121 14.3311 8.57986 13.4011 8.93389 12.4844C9.33411 11.488 9.996 10.558 10.5655 9.62796C11.0581 8.81753 11.5969 8.03367 12.228 7.28967C12.5358 6.91767 12.8437 6.54567 13.1361 6.17367C13.4132 5.80167 13.5671 5.31011 13.9058 4.99125C13.9674 4.92483 14.0135 4.87168 14.0443 4.80525C14.383 4.85839 14.737 4.91153 15.0756 4.96467C15.3989 5.01782 15.7221 5.08424 16.03 5.17724C15.9069 5.72196 15.5528 6.2401 15.3989 6.77153C15.168 7.60853 14.8755 8.43225 14.5369 9.24268C13.8596 10.8768 13.1515 12.4977 12.5974 14.185C11.4891 17.5595 10.7503 21.0537 10.427 24.5478C10.2731 26.2882 10.1499 28.1084 10.3654 29.8488C10.4732 30.7257 10.6425 31.5627 10.6425 32.4395C10.6425 33.3164 10.8272 34.1932 10.9658 35.0568C11.2582 36.8371 11.72 38.5775 12.2741 40.318C12.7975 41.9787 13.2131 43.6394 13.6595 45.3134C14.1521 47.1468 14.7832 48.967 15.8145 50.6277C16.3379 51.478 16.9228 52.3017 17.4615 53.1387C17.7078 53.524 18.0003 53.896 18.2312 54.2945C18.3389 54.4805 18.4159 54.6798 18.5083 54.8791C18.4929 55.0253 18.5236 55.1714 18.616 55.3042C18.5698 55.3175 18.5236 55.3175 18.4929 55.3308ZM21.4945 54.0022C21.0635 54.2414 20.6786 54.4805 20.2784 54.6931C20.0475 54.4008 19.9398 54.082 19.7705 53.7631C19.6011 53.431 19.3549 53.1254 19.1547 52.8065C18.6622 52.0492 18.1696 51.3052 17.677 50.548C16.7073 49.06 16.0454 47.5188 15.5528 45.8714C15.0756 44.2638 14.7524 42.6164 14.2444 41.0088C13.7211 39.3215 13.1515 37.6608 12.8129 35.9337C12.6436 35.0967 12.505 34.2597 12.3819 33.4227C12.2587 32.5325 12.3357 31.6424 12.1818 30.7522C11.8893 29.0251 11.9047 27.298 12.0125 25.5708C12.228 22.1165 12.936 18.6622 13.9674 15.3142C14.5369 13.4675 15.2911 11.674 16.0454 9.88039C16.4302 8.95039 16.7381 8.00711 17.0305 7.06382C17.1691 6.61211 17.4 6.18696 17.5693 5.76182C17.8925 5.89467 18.2158 6.02753 18.5236 6.17367C18.616 6.21353 18.693 6.25339 18.7853 6.29324C18.616 6.63867 18.4929 7.01067 18.3389 7.36938C18.0003 8.11338 17.6155 8.83082 17.3538 9.60139C16.7843 11.2355 16.4302 12.9228 15.9069 14.5703C15.3835 16.2044 14.8294 17.7854 14.5677 19.4727C14.2906 21.2663 14.2444 23.0731 14.2444 24.8667C14.2444 26.647 14.1982 28.4272 14.2598 30.1942C14.3214 31.9081 14.5369 33.622 14.7986 35.3225C15.2757 38.5642 15.953 41.7927 17.4461 44.8085C17.8925 45.6987 18.3543 46.5755 18.693 47.5055C18.9854 48.3293 19.2471 49.1795 19.555 50.0032C20.0629 51.3717 20.7556 52.7401 21.5406 54.0288C21.5252 53.989 21.5099 54.0022 21.4945 54.0022ZM24.3575 52.5541C23.9265 52.8331 23.4647 53.059 23.003 53.2715C22.3719 52.222 21.8023 51.1192 21.3559 50.0165C20.7402 48.5285 20.3862 46.9874 19.6781 45.526C18.9546 44.0247 18.2312 42.5898 17.7386 41.0088C17.2614 39.4544 16.9228 37.8734 16.6457 36.2791C16.0916 32.971 15.9222 29.716 15.9376 26.368C15.953 22.9137 15.9838 19.5391 17.1075 16.1911C17.7078 14.4374 18.1542 12.6438 18.693 10.8768C18.9546 10.0398 19.2163 9.18954 19.6319 8.39239C19.8936 7.87425 20.0629 7.27638 20.3708 6.77153C20.6017 6.82467 20.848 6.90438 21.0019 7.03724C21.0635 7.09038 21.125 7.15681 21.1712 7.23653C21.1558 7.8211 20.8326 8.35254 20.6632 8.92382C20.4324 9.70768 20.34 10.5181 20.2322 11.302C20.0014 12.883 19.7089 14.4507 19.4934 16.0317C19.0778 19.114 18.616 22.2494 18.9546 25.345C19.2933 28.507 18.9392 31.7088 19.1701 34.8841C19.401 38.0328 20.3554 41.062 21.0635 44.1575C21.4483 45.8448 22.0332 47.4125 22.8182 48.9803C23.2031 49.7508 23.6341 50.4284 24.1112 51.1591C24.3729 51.5577 24.4191 51.9961 24.7116 52.3282C24.573 52.4212 24.4653 52.4877 24.3575 52.5541ZM26.2816 50.8934C26.2355 51.0528 26.1277 51.2123 26.0046 51.3717C25.9276 51.2521 25.8814 50.9864 25.8199 50.8801C25.6813 50.5878 25.4812 50.3354 25.2965 50.0697C24.8501 49.4585 24.5423 48.8075 24.219 48.1432C23.5417 46.7615 23.0491 45.3665 22.7105 43.8918C22.0332 40.9025 21.0789 37.9531 20.848 34.8974C20.6325 31.8948 20.9711 28.8524 20.694 25.8631C20.5555 24.3353 20.4631 22.9004 20.6017 21.3725C20.7402 19.8447 20.8941 18.3301 21.0789 16.8022C21.202 15.7792 21.3713 14.7562 21.5406 13.7332C21.5252 15.4072 21.4637 17.0945 21.4637 18.7685C21.4637 21.0005 21.2482 23.206 21.1712 25.438C21.0942 27.6567 21.3559 29.8222 21.6946 32.0144C21.8485 33.0241 21.9716 34.0338 22.0948 35.0435C22.0794 35.1365 22.0948 35.2295 22.1256 35.3225C22.2487 36.4518 22.3872 37.5811 22.5566 38.7104C22.6797 39.4544 22.8336 40.1984 23.003 40.9424C22.9568 41.155 23.0184 41.3542 23.1415 41.5137C23.4494 42.6828 23.8034 43.8387 24.1882 44.9945C24.5422 46.0308 24.9117 47.0538 25.2811 48.0768C25.4658 48.595 25.6351 49.1131 25.8506 49.6313C26.02 50.0298 26.4048 50.4815 26.2816 50.8934ZM28.1134 44.1442C27.667 45.5525 27.2668 46.9741 27.2052 48.4355C26.8666 47.5321 26.5279 46.6287 26.2201 45.712C26.5587 45.6588 26.8358 45.433 26.7896 45.0344C26.7126 44.4365 27.0359 43.9184 27.2206 43.3471C27.4515 42.6695 27.6054 41.9521 27.8055 41.2613C28.1904 39.9194 28.7599 38.6307 29.3448 37.342C30.4685 34.831 31.2228 32.2137 32.3618 29.7027C33.5009 27.1651 34.3629 24.6408 34.9786 21.9704C35.2865 20.6152 35.2403 19.2601 35.4712 17.905C35.6867 16.5897 35.6097 15.2744 35.5635 13.9458C35.502 12.3914 35.5328 10.837 35.5328 9.28253C35.5328 8.52524 35.5635 7.76796 35.4096 7.01068C35.3172 6.59882 35.3326 6.16039 35.2865 5.73525C35.9176 5.70868 36.5333 5.64225 37.149 5.52268C37.1644 8.36583 37.2721 11.2222 36.9797 14.0521C36.6718 17.0281 36.1485 20.0572 35.3788 22.9668C35.0094 24.3884 34.5322 25.7834 34.0858 27.1917C33.6548 28.5734 33.3162 29.9817 32.9621 31.39C32.2233 34.1932 30.7917 36.7574 29.7142 39.4677C29.0831 41.0088 28.606 42.5765 28.1134 44.1442ZM30.8379 46.1903C30.33 47.1335 29.8066 48.13 29.899 49.1928C29.899 49.2061 29.899 49.2061 29.899 49.2194C29.6989 49.1928 29.4834 49.1795 29.2833 49.153C29.1909 49.1397 29.037 49.1264 28.8676 49.1264C28.883 49.0732 28.883 49.0068 28.883 48.9404C28.8676 47.479 29.2679 46.0574 29.7142 44.6491C30.1606 43.2408 30.5762 41.8325 31.0996 40.4375C32.1309 37.714 33.6394 35.1498 34.4245 32.3598C34.7939 31.018 35.0864 29.6495 35.4866 28.3077C35.9176 26.8595 36.4255 25.4247 36.8411 23.9632C37.657 21.0935 38.1495 18.1042 38.5344 15.1814C38.9808 11.8068 38.8422 8.3924 38.8422 4.99125C39.1039 4.87168 39.3502 4.73881 39.5657 4.57938C39.5811 6.20024 39.6273 7.82111 39.7196 9.44197C39.8735 11.86 40.2738 14.2514 40.243 16.6827C40.2276 17.2407 40.2122 17.812 40.1814 18.37C39.9967 18.4895 39.8581 18.6755 39.8581 18.9413C39.8581 19.7384 39.812 20.4558 39.6119 21.2397C39.3502 22.3158 39.4117 23.4052 39.2116 24.4814C38.796 26.6602 38.6421 28.8524 38.0572 31.0047C37.4723 33.1038 36.4563 35.0967 35.3788 37.0497C34.2859 39.016 33.2546 40.969 32.3772 43.015C31.9154 44.1044 31.4229 45.154 30.8379 46.1903ZM35.2095 45.4994C34.7169 46.4161 34.055 47.479 33.8549 48.4887C33.8087 48.688 33.8703 48.874 33.9627 49.0201C33.1622 49.0732 32.408 49.246 31.6076 49.2991C31.6076 49.2725 31.6076 49.246 31.6076 49.2194C31.5306 48.2761 32.0694 47.4125 32.5158 46.5888C33.0237 45.6721 33.4547 44.7288 33.8549 43.7855C34.7477 41.6997 35.7944 39.7201 36.9027 37.714C37.9494 35.8008 38.9808 33.8345 39.5811 31.7885C40.0583 30.1544 40.2584 28.4937 40.5046 26.8463C40.5046 28.2413 40.4277 29.6495 40.4431 31.018C40.4431 32.3864 40.4585 33.715 40.6586 35.0701C40.6894 35.3225 40.7201 35.575 40.7355 35.8274C40.3969 35.8938 40.1198 36.1197 40.1506 36.505C40.1814 36.9965 39.8427 37.4748 39.6734 37.9531C39.4733 38.5244 39.2116 39.0425 38.8576 39.574C38.2265 40.5438 37.5492 41.4871 36.9643 42.4703C36.3486 43.4268 35.7636 44.4631 35.2095 45.4994ZM35.4866 48.8607C35.7021 47.8111 36.3794 46.7483 36.9027 45.7917C37.5184 44.6757 38.1495 43.5862 38.8114 42.4968C39.4425 41.4738 40.2122 40.5173 40.7817 39.481C40.5046 40.0655 40.243 40.6501 39.9967 41.248C39.5041 42.4038 38.873 43.5065 38.3958 44.6624C38.365 44.7023 38.3189 44.7421 38.2881 44.782C38.0726 44.9945 38.0264 45.2337 38.1034 45.4595C37.7185 46.5357 37.4107 47.6384 37.0566 48.7278C36.5179 48.7012 36.0099 48.781 35.4866 48.8607ZM50.0636 65.7734C49.7865 66.4908 49.5556 67.2614 49.0323 67.8725C48.5243 68.4704 47.6623 68.5634 46.8465 68.6165C47.4314 66.9292 48.8168 65.521 50.002 64.1127C50.4946 63.5148 50.9718 62.9037 51.4951 62.3324C50.9872 63.475 50.4946 64.6308 50.0636 65.7734ZM55.4203 53.71C54.8046 55.4105 53.9272 57.0314 53.1422 58.6788C52.8805 58.732 52.6496 58.8781 52.5265 59.1438C52.3417 59.5424 51.8954 59.848 51.5413 60.127C51.1257 60.4724 50.7255 60.8311 50.3561 61.2031C49.5864 62.0003 48.9553 62.8771 48.2473 63.7141C46.9389 65.2553 45.4919 66.8495 45.0609 68.7627C44.83 68.776 44.5991 68.8025 44.3682 68.8291C44.045 68.8557 43.7371 68.8424 43.4293 68.8025C43.8603 68.1515 44.0296 67.4208 44.4144 66.73C44.9378 65.8132 45.5689 64.9364 46.1538 64.0595C47.2621 62.3723 48.4474 60.6983 49.6788 59.0641C50.9102 57.4433 52.2802 55.9021 53.8503 54.5204C54.466 53.9757 55.1125 53.4575 55.7282 52.9128C55.6204 53.1785 55.5127 53.4442 55.4203 53.71ZM57.5291 47.1335C57.2367 48.0237 56.975 48.9271 56.6979 49.8305C56.544 49.8173 56.3747 49.8438 56.2054 49.9501C56.113 50.0032 56.0206 50.0697 55.9283 50.1228C55.6204 50.3221 55.5281 50.6011 55.5743 50.8535C55.251 51.292 54.6969 51.7171 54.3274 52.0227C53.5578 52.6604 52.8189 53.3114 52.0647 53.9757C50.6024 55.2644 49.3401 56.8321 48.1857 58.3334C47.0004 59.8878 45.8614 61.4954 44.7993 63.103C44.2297 63.9532 43.6294 64.7902 43.106 65.6671C42.8751 66.0524 42.6596 66.4377 42.4903 66.8363C42.3056 67.2614 42.2286 67.8061 41.89 68.1781C41.813 68.2711 41.7515 68.3641 41.7207 68.4571C41.1819 68.2977 40.6586 68.1117 40.1506 67.8991C40.2738 67.7795 40.3507 67.6201 40.3353 67.3942C40.2891 66.9558 40.6586 66.6237 40.8741 66.2517C41.1511 65.7867 41.3666 65.2818 41.6129 64.8035C42.0901 63.847 42.7366 62.9701 43.3831 62.0932C44.7377 60.2598 45.8306 58.3068 47.2467 56.5132C48.6321 54.733 50.2175 53.0988 51.7106 51.3717C52.4649 50.5081 53.1576 49.5914 54.0965 48.874C54.9278 48.2495 55.4203 47.4524 56.1592 46.7615C56.975 46.0042 57.7446 45.247 58.4835 44.4232C58.1295 45.3267 57.8216 46.2301 57.5291 47.1335ZM60.0382 40.969C59.6841 40.9557 59.3147 41.1018 59.1608 41.4605C59.0376 41.7528 58.5605 42.0185 58.3142 42.271C57.9294 42.6563 57.5753 43.0681 57.2059 43.48C56.4824 44.3037 55.682 45.0477 54.8662 45.8182C54.5121 46.1637 54.2043 46.549 53.8964 46.921C53.5732 47.3328 53.1422 47.6384 52.7112 47.9705C51.803 48.6747 51.1257 49.5914 50.4023 50.4284C48.8938 52.1821 47.2775 53.8561 45.846 55.663C44.4298 57.4565 43.3369 59.4095 41.9824 61.243C41.2281 62.266 40.5046 63.3022 39.9505 64.4182C39.7042 64.9364 39.4425 65.4545 39.1039 65.9328C38.8422 66.3181 38.6267 66.7167 38.6113 67.1551C38.5959 67.1418 38.5805 67.1418 38.5651 67.1285C38.0572 66.8628 37.5646 66.5971 37.0566 66.3181C37.4261 65.9727 37.5646 65.5741 37.6878 65.1357C37.8571 64.5511 38.1957 64.0064 38.4266 63.4351C38.95 62.1862 39.4425 60.9241 40.0582 59.7018C40.6586 58.4928 41.4898 57.4565 42.2286 56.314C42.9521 55.2112 43.5678 54.1085 44.4452 53.0988C45.3996 52.0227 46.3078 50.9067 47.3545 49.9103C48.3242 48.9803 49.3401 48.1167 50.3253 47.2C51.3566 46.2301 52.5265 45.3532 53.4346 44.3037C54.2659 43.3338 55.3895 42.5898 56.467 41.8325C57.0828 41.4074 57.7139 41.0088 58.2526 40.504C58.7914 40.0124 59.2685 39.4677 59.7765 38.9363C60.3768 38.3251 61.0079 37.7272 61.5929 37.1161C61.2234 38.4447 60.7001 39.7201 60.0382 40.969ZM63.948 25.4645C63.8402 25.9163 63.6247 26.3281 63.5939 26.7931C63.5631 27.3644 63.4708 27.856 63.3323 28.414C62.8859 30.4201 62.7165 32.4528 62.3009 34.459H62.2855C61.6544 34.3128 61.2388 34.7645 61.2388 35.203C60.4846 36.1064 59.6072 36.9035 58.776 37.7538C57.8524 38.6838 57.0212 39.6404 55.9129 40.3977C55.3587 40.783 54.8354 41.1815 54.2966 41.5801C53.7579 41.9787 53.1576 42.2975 52.6958 42.7625C52.2648 43.2142 51.8954 43.6925 51.4336 44.131C50.8794 44.6491 50.2945 45.1407 49.7404 45.6455C47.7085 47.4657 45.7536 49.2858 43.968 51.292C43.0599 52.3283 42.1671 53.3247 41.4744 54.4805C40.8125 55.5833 39.9967 56.593 39.304 57.6824C38.5036 58.9445 37.9032 60.3528 37.3491 61.6947C37.072 62.3855 36.8104 63.0897 36.4717 63.7805C36.3332 64.0595 36.1792 64.3252 36.0869 64.6175C36.0253 64.8301 36.0253 65.1622 35.8406 65.335C35.7636 65.4014 35.7021 65.4811 35.6713 65.5608C35.4712 65.4412 35.2865 65.3217 35.1017 65.2021C34.4245 64.777 33.6702 64.2057 33.4393 63.4882C33.5779 63.3687 33.6702 63.2093 33.6702 62.9834C33.6702 62.3723 33.6548 61.7611 33.8549 61.1632C34.1012 60.4192 34.4552 59.7018 34.7169 58.9578C35.1325 57.802 35.5481 56.6461 36.0253 55.5035C36.2408 55.2112 36.5025 54.919 36.718 54.6267C37.149 54.0288 37.58 53.431 38.0726 52.8597C38.9654 51.8367 39.8581 50.8004 40.7971 49.804C41.7515 48.8075 42.752 47.8643 43.8757 46.9874C44.907 46.177 45.9999 45.4064 46.9389 44.5163C47.9086 43.573 48.8476 42.6297 49.8635 41.7263C50.864 40.8361 51.7568 39.9194 52.6034 38.923C54.466 36.7308 56.4362 34.6184 58.2218 32.3864C59.207 31.1641 60.1767 29.9285 61.0079 28.6398C61.3928 28.042 61.8084 27.4308 62.1008 26.7931C62.3317 26.3015 62.224 25.717 62.3933 25.2254C62.7781 25.159 63.1629 25.0793 63.517 24.9863C63.7017 24.9331 63.9018 24.88 64.1019 24.8135C64.0557 25.0261 64.0095 25.2387 63.948 25.4645ZM64.4867 22.6745C64.2712 22.8207 64.1943 22.9934 64.1943 23.1661C63.948 23.3122 63.6709 23.4185 63.3784 23.4982C63.1475 23.1661 63.1629 22.5815 62.9936 22.2361C62.8551 21.9571 62.7011 21.6781 62.5472 21.4124C63.2245 21.6383 63.8864 21.9305 64.302 22.4221C64.4097 22.5284 64.4713 22.6081 64.4867 22.6745C64.5021 22.6745 64.5021 22.6745 64.4867 22.6745Z" fill="#40352F"/>
</svg>
