<svg xmlns="http://www.w3.org/2000/svg" width="129" height="98" fill="none" viewBox="0 0 129 98">
  <path fill="#40352F" d="M128.688 55.39a.606.606 0 0 0-.416-.492 1.066 1.066 0 0 0-.323-.877c-.431-.398-1.108-.531-1.709-.624-.338-.053-.677-.093-1.016-.16-.107-.026-.246-.066-.354-.08-.184-.238-.492-.331-.8-.291 0-.864 0-1.728.015-2.591.031-1.369.447-2.71.462-4.092v-4.345c0-.744.077-1.514-.015-2.258-.077-.611-.339-1.17-.478-1.767-.092-.425-.492-.572-.877-.518a2.469 2.469 0 0 0-.492-.452c-.462-.319-1.032-.465-1.617-.545-.477-.066-1.046-.066-1.385-.398a.762.762 0 0 0-.6-.24 45.07 45.07 0 0 1-.077-1.434c-.016-1.262-.555-2.392-.847-3.6-.323-1.276-.539-2.538-1.185-3.734-.123-.226-.462-.372-.724-.359h-.031a.624.624 0 0 0-.23-.598c-.385-.358-.955-.57-1.463-.757-.431-.16-.893-.279-1.37-.266-.169-.491-.338-.983-.569-1.448-.539-1.156-1.278-2.205-2.047-3.255-.077-.106-.154-.212-.231-.305.215-.133.323-.372.338-.611 1.232-1.077 2.14-2.365 3.002-3.68.446-.678.8-1.382 1.154-2.086.231-.492.493-1.023.324-1.568-.154-.518-.662-.877-1.186-1.13-.908-.438-1.939-.744-2.924-1.062a69.664 69.664 0 0 0-6.157-1.714c-2.171-.505-4.372-.837-6.542-1.315a44.412 44.412 0 0 1-3.002-.758c-.954-.279-1.832-.717-2.755-1.05-.909-.331-1.832-.49-2.771-.717-1.062-.239-2.063-.571-3.094-.89-1.97-.624-4.156-.77-6.203-1.182C75.413 1.118 70.24.214 64.993.2a.916.916 0 0 0-.401.08A13.119 13.119 0 0 0 62.96.2c-.985 0-2-.066-2.986 0-.985.066-1.924.345-2.894.412-1.955.133-3.91.359-5.803.81-1.508.359-3.987 1.09-4.587 2.538-.23-.067-.523-.053-.708.053-1.586.93-2.848 2.126-3.956 3.454-.231.28-.462.558-.693.824-.323-.16-.754-.146-1.016.093a2.297 2.297 0 0 0-.692-.226c-.785-.133-1.586.013-2.37.027a.824.824 0 0 0-.37.08c-.724-.532-1.663-.492-2.54-.12-.539.226-1.016.452-1.57.638a5.977 5.977 0 0 0-1.385.624c-.031-.027-.047-.053-.078-.08-.23-.252-.723-.252-1.03-.12-.955.44-1.94.864-2.771 1.489-.863.624-1.401 1.488-2.217 2.152-.785.638-1.462 1.289-2.078 2.06-.539.677-1.016 1.394-1.601 2.045-.015-.013-.03-.026-.046-.053-.216-.226-.739-.292-1.031-.12-1.155.718-1.57 1.847-2.51 2.737-.446.412-.892.837-1.216 1.329-.4.598-.615 1.275-.985 1.9-.739 1.209-1.724 2.218-2.293 3.534-.093.212-.17.438-.247.65-.554-.092-1.154-.105-1.677.027-.139-.318-.477-.544-.955-.385a5.827 5.827 0 0 0-2.2 1.315c-.663.625-1.37 1.183-2.064 1.794-.646.585-1.139 1.262-1.6 1.966-.54.797-1.109 1.581-1.555 2.418A77.192 77.192 0 0 0 .88 38.982C.204 40.51.127 42.144.773 43.698c.616 1.475 1.74 2.697 2.94 3.84 1.355 1.302 2.77 2.538 4.218 3.76 1.924 1.607 3.694 3.334 5.557 4.995-1.57.452-2.956 1.355-4.08 2.405-.492.452-1 1.063-1.046 1.7a.683.683 0 0 0-.154.585c.277 1.408.63 2.803.97 4.198.292 1.25.77 2.458 1.154 3.694.462 1.514.723 3.175 1.801 4.49.523.638 1.247 1.143 2.155 1.302 1.478.266 3.063.32 4.572.332.754 0 1.524-.013 2.278-.066.077.784.43 1.581.585 2.338a9.94 9.94 0 0 0 1.016 2.817c.908 1.66 2.37 3.202 4.433 3.826.954.293 2 .346 3.017.359 1.077.013 2.155.026 3.232-.053l.924-.08c.57.89 1.693 1.462 2.678 1.953 1.293.638 2.54 1.236 3.756 1.993 3.433 2.139 6.82 4.305 10.683 5.82 1.862.73 3.74 1.274 5.664 1.832.893.266 1.709.705 2.633.864.985.173 1.939-.08 2.909-.013.846.053 1.631.372 2.478.438 1.108.093 2.263.053 3.371.08 2.109.066 4.14-.08 6.219-.346 1.785-.239 3.57-.544 5.356-.783 1.124-.16 2.402-.479 3.002-1.329.462-.04.893-.173 1.355-.292.708-.173 1.477-.173 2.216-.253 1.386-.146 2.77-.292 4.14-.518 2.849-.465 5.358-1.421 7.974-2.444 1.34-.518 2.694-1.037 3.987-1.621 1.232-.558 2.525-.983 3.741-1.555.785-.358 1.554-.77 2.324-1.169.693-.345 1.539-.757 1.801-1.448a.583.583 0 0 0-.092-.598.425.425 0 0 0 .092-.199c.262-.877 1.508-1.515 2.201-2.152 1.155-1.077 2.032-2.339 2.955-3.56.97-1.263 1.694-2.618 2.494-3.96.37-.638.739-1.262 1.078-1.913.246-.492.323-1.289.769-1.66.293-.24.308-.532.185-.772.477-1.089-.077-2.364-.4-3.44 1.277-1.13 2.493-2.299 3.525-3.627 1.139-1.449 2.232-2.897 3.463-4.279.97-1.115 2.017-2.364 1.786-3.8Zm-4.603-.598v-.306c.354.133.77.2 1.109.253h.03c-.4.093-.785.186-1.185.292a.655.655 0 0 0 .046-.239ZM120.991 37.8c.416.08.755.252.847.465-.308-.187-.677-.32-1.001-.492a.62.62 0 0 1 .154.026Zm-.708.451c.4.226.862.346 1.216.611a6.987 6.987 0 0 1-.692.399c-.293-.16-.632-.266-.909-.452-.231-.146-.415-.292-.646-.398 0-.293-.015-.585-.031-.89.385.199.693.518 1.062.73Zm-1.062.917c.123.093.246.212.37.279.123.066.246.12.369.173a14.2 14.2 0 0 1-.816.265c.031-.239.062-.478.077-.717Zm1.863 1.541c.6-.239 1.262-.518 1.77-.93 0 .053.015.12.015.173.046.717-.015 1.448-.015 2.165 0 1.449.031 2.883 0 4.332-.031 1.288-.431 2.55-.462 3.852-.031 1.25-.015 2.498 0 3.734a7.878 7.878 0 0 0-.354-.359 30.538 30.538 0 0 1-1.385-1.342c-.324-.332-.862.146-.539.465.492.505 1.031.983 1.539 1.475.216.212.385.465.616.677.077.08.169.133.246.2.062.08.123.146.216.199-.37.093-.755.186-1.124.252a9.01 9.01 0 0 1-.754-.518c-.785-.584-1.601-1.142-2.371-1.727-.369-.279-.923.186-.539.465.678.505 1.37.983 2.063 1.488.216.16.416.319.616.465-.262.04-.523.067-.785.106-.6-.332-1.108-.85-1.601-1.275a17.556 17.556 0 0 0-2.017-1.488c-.4-.253-.785.332-.384.571.815.505 1.524 1.103 2.232 1.7.231.187.446.386.692.585l-.846.08c-.185.027-.385.04-.57.08-.585-.505-1.324-.904-1.97-1.342-.724-.478-1.385-1.076-2.14-1.501-.415-.24-.8.332-.385.571.724.412 1.37.996 2.063 1.448.477.332 1.016.624 1.493.957a10.11 10.11 0 0 1-1.693.16h-.4c-.585-.48-1.355-.758-1.986-1.197-.77-.531-1.431-1.142-2.278-1.607-.416-.226-.8.345-.385.571.847.465 1.524 1.103 2.324 1.634.293.2.632.359.955.532-.385-.014-.77-.014-1.155.013-.2.013-.415.04-.615.066-.431-.358-.955-.61-1.432-.916a49.874 49.874 0 0 1-2.001-1.342c-.385-.266-.924.2-.539.465.631.451 1.293.89 1.955 1.315.323.213.677.399 1.016.611a14.26 14.26 0 0 1-1.293.16 1.247 1.247 0 0 0-.215-.173c-.447-.306-.909-.558-1.355-.864-.739-.505-1.724-.93-2.355-1.54-.339-.32-.877.145-.539.464.585.558 1.462.93 2.14 1.395.385.266.785.505 1.17.77-.524.014-1.032.014-1.555.054-.246-.492-.877-.77-1.355-1.09-.461-.292-.985-.544-1.416-.85-.338-.239-.569-.505-.985-.65-.462-.16-.662.477-.2.637.292.106.508.385.754.558.339.24.739.399 1.093.624.293.186 1.016.505 1.324.837-.493.053-.985.12-1.478.173-.323-.252-.739-.438-1.093-.638-.969-.544-1.908-1.116-2.878-1.647-.416-.226-.8.345-.385.571.8.439 1.616.877 2.386 1.342.2.12.554.28.893.452-.185.013-.385.013-.585.013a18.94 18.94 0 0 0-1.94.066 4.782 4.782 0 0 1-.462-.318c-.708-.505-1.523-.877-2.216-1.395-.37-.28-.924.199-.539.465.677.491 1.447.85 2.124 1.328.016 0 .016.014.031.014a25.2 25.2 0 0 0-1.462.212c-.339-.252-.677-.492-1-.744-.786-.598-1.586-1.156-2.325-1.794-.354-.305-.893.173-.539.465.908.784 1.894 1.475 2.863 2.206l.046.04c-.507.093-1.015.2-1.539.305-.646-.345-1.216-.943-1.77-1.355-.785-.584-1.555-1.169-2.247-1.833-.339-.319-.878.16-.54.465.832.77 1.756 1.448 2.68 2.139.323.252.63.518.969.77-.431.093-.877.186-1.308.28-.555-.4-1.14-.745-1.709-1.117-.862-.57-1.632-1.248-2.463-1.846-.385-.266-.923.199-.539.465.785.571 1.509 1.195 2.325 1.753.477.32.97.625 1.447.944-.493.093-.97.186-1.463.265-.83-.358-1.57-1.036-2.278-1.528-.8-.544-1.6-1.115-2.216-1.833-.293-.345-.955-.013-.662.332.708.824 1.6 1.475 2.524 2.1.508.345 1 .743 1.54 1.089-.17.026-.34.04-.508.066-.416.053-.832.093-1.263.146 0-.12-.092-.239-.277-.279-.492-.093-.97-.518-1.385-.77a64.207 64.207 0 0 1-1.247-.784c-.847-.558-1.709-1.103-2.663-1.501-.446-.186-.831.385-.385.571 1.047.438 1.97 1.05 2.894 1.647.447.293.908.572 1.37.85.2.134.4.266.6.386-.57.066-1.154.133-1.724.186.077-.173.031-.385-.246-.425-.739-.107-1.324-.625-1.893-.983-.862-.545-1.724-1.063-2.525-1.688-.37-.279-.908.186-.538.465.846.651 1.754 1.21 2.678 1.78.508.32 1.016.731 1.616.944-.385.04-.754.093-1.139.133a.404.404 0 0 0-.292-.16c-.585-.053-1.155-.744-1.617-1.036-.77-.492-1.6-.877-2.293-1.448-.37-.292-.908.173-.539.465.816.651 1.801 1.076 2.648 1.674.292.213.57.452.877.651-.493.066-1 .146-1.493.226-.554-.412-1.17-.77-1.693-1.21-.554-.464-1.016-1.009-1.586-1.46-.354-.293-.908.172-.538.464.57.465 1.03.997 1.585 1.462.385.319.816.611 1.247.89a28.39 28.39 0 0 1-1.031.146c-.016-.013-.031-.04-.062-.053-.539-.452-1.124-.85-1.647-1.302-.462-.399-.893-.81-1.432-1.156-.4-.252-.785.319-.384.571.523.332.939.784 1.416 1.17.37.305.77.597 1.154.903-.261.026-.539.066-.816.093-.461-.399-1.016-.718-1.477-1.116-.57-.478-1.078-1.023-1.601-1.554-.323-.333-.862.146-.539.465.523.531 1.016 1.076 1.6 1.554.309.266.647.491.986.73-.323.027-.647.04-.97.054a.325.325 0 0 0-.246-.133c-.462-.066-.847-.465-1.17-.73-.508-.4-.97-.838-1.447-1.25-.354-.305-.893.16-.538.465.554.492 1.092.983 1.693 1.435.092.08.2.16.292.24a22.771 22.771 0 0 1-2.34-.147c-.63-.372-1.37-.624-1.877-1.129-.324-.332-.862.146-.54.465.14.146.293.266.463.385-1.601-.239-3.218-.425-4.834-.491l.37-.12A41.456 41.456 0 0 0 68.1 58.5c2.663-1.09 5.096-2.525 7.712-3.694 1.232-.544 2.494-1.023 3.664-1.674 1.17-.65 2.37-1.262 3.632-1.78 1.324-.545 2.725-.904 4.11-1.289 1.416-.385 2.771-.916 4.156-1.381a148.207 148.207 0 0 1 8.636-2.618c2.971-.81 5.864-1.74 8.805-2.63 1.385-.412 2.786-.81 4.202-1.13 1.447-.319 2.94-.438 4.418-.664 1.154-.08 2.401-.438 3.648-.93Zm-72.27 16.514c-.723-.053-1.616-.65-2.201-.983-.816-.452-1.678-.85-2.524-1.262-1.663-.81-3.171-1.78-4.772-2.67-.477-.266-.94-.545-1.401-.81.477.212.939.464 1.385.743 2.617 1.621 5.219 3.07 8.282 3.986 1.077.319 2.232.638 3.37.797.278.146.555.306.832.452.724.385 1.324.89 2.201.943.493.04.493-.624 0-.664-.523-.04-1.031-.32-1.508-.625.307.014.615.014.923.027.554.226 1.108.438 1.647.664.477.2.908.492 1.432.571.477.08.693-.558.2-.637-.323-.053-.631-.2-.908-.346.184.027.37.04.554.053.277.16.57.32.862.465.338.173 1.262.425 1.416.744.185.399.924.226.739-.172-.216-.479-.739-.665-1.247-.877a.775.775 0 0 0-.154-.067c.831.053 1.801.133 2.617-.04.492.293.985.572 1.6.545.493-.013.493-.677 0-.664-.245.013-.507-.08-.753-.186l.184-.12c.385-.305.508-.704.554-1.142.093.04.185.08.278.106.523.186 1.077.292 1.539.585.4.252.785-.32.385-.572-.54-.345-1.232-.451-1.832-.69-.123-.054-.231-.094-.339-.147v-.69c.37.12.724.318 1.093.438.447.146 1.031.133 1.416.412.37.279.924-.186.539-.465-.477-.346-1.016-.372-1.585-.532-.524-.146-.955-.398-1.463-.518v-.146c0-.212.016-.412.016-.624.446.066.83.292 1.246.438.524.186 1.078.28 1.617.399.477.093.692-.545.2-.638-.631-.133-1.263-.253-1.863-.492-.4-.159-.77-.305-1.185-.358 0-.306.015-.611.015-.917.385.106.785.2 1.17.306.523.146 1.124.239 1.57.518.4.252.785-.32.385-.572-.877-.558-2.109-.624-3.125-.943v-.73c.247.066.493.159.74.239.492.146.984.239 1.492.318.477.08.693-.558.2-.637a11.61 11.61 0 0 1-1.677-.386c-.262-.08-.524-.172-.785-.225l-.047-.877c0-.067-.015-.147-.015-.213.2.093.4.173.6.252.493.173 1 .28 1.524.36.216.04.385-.08.447-.227 1.077.678 2.262 1.21 3.34 1.9 1.093.704 2.17 1.409 3.263 2.113.8.518 1.74.877 2.57 1.342-1.985.956-3.894 2.019-5.94 2.91a39.044 39.044 0 0 1-4.326 1.593c-1.062.32-2.11.718-3.156 1.09-.108-.014-.215 0-.308.013a.756.756 0 0 0-.415.24c-.17.052-.339.105-.493.159-1.185.385-2.34.584-3.571.757-.893.133-1.909.305-2.601.837-1.016-.505-2.032-1.023-3.002-1.608-.847-.505-1.662-1.036-2.524-1.528-.832-.478-1.755-.836-2.617-1.275-.847-.425-1.509-.983-2.248-1.514-.877-.638-1.831-1.21-2.755-1.78A314.386 314.386 0 0 0 34.53 50.7a45.435 45.435 0 0 1-3.48-2.272l.093.04c.893.465 1.786.943 2.663 1.421 1.832.984 3.54 2.113 5.357 3.11.862.464 1.662.996 2.494 1.487.846.492 1.754.917 2.632 1.342.862.425 1.708.89 2.57 1.329.6.292 1.232.664 1.924.717.524.053.508-.61.031-.65ZM62.006 46.9c.723.332 1.339.837 1.955 1.302a7.987 7.987 0 0 1-1.262-.372 7.566 7.566 0 0 0-.616-.239c-.031-.239-.062-.465-.077-.69Zm51.966-20.327c.2.067.385.16.57.253.015.013.046.026.061.04-.184.066-.354.132-.539.199a1.252 1.252 0 0 0-.246-.093c-.061-.173-.123-.332-.169-.505.108.026.215.066.323.106Zm1.74 1.488c.415.957.554 1.98.8 2.963.292 1.156.77 2.205.785 3.401.031 1.873.508 3.853.062 5.713a.989.989 0 0 0-.324.16 36.73 36.73 0 0 1-1.908.252c-2.879.358-5.634 1.129-8.374 2.006a229.957 229.957 0 0 1-8.39 2.458 127.09 127.09 0 0 0-8.342 2.59c-1.293.452-2.555.904-3.88 1.263-1.323.358-2.616.73-3.863 1.222a31.903 31.903 0 0 0-3.525 1.687c-1.046.571-2.124 1.05-3.232 1.528-.985-.651-2.11-1.09-3.125-1.7-1.185-.718-2.355-1.515-3.51-2.273-1.17-.757-2.493-1.315-3.648-2.099-.8-.544-1.554-1.155-2.432-1.594l.185.04c.462.12.954.2 1.355.452.4.252.785-.32.384-.572-.4-.265-.908-.358-1.385-.478-.539-.133-1.062-.266-1.6-.359-.016-.172-.032-.332-.032-.504.4.106.785.239 1.186.332.43.093.877.146 1.246.385.4.252.785-.319.385-.571-.385-.24-.831-.32-1.293-.425-.538-.107-1.046-.293-1.57-.426v-.305c0-.332-.215-.558-.508-.651l-.046-.28c-.03-.238-.339-.464-.585-.504-.708-.133-1.447.013-2.14-.2-.754-.225-1.523-.345-2.293-.53-1.647-.4-3.217-1.01-4.756-1.648-1.54-.625-3.156-1.116-4.664-1.794-1.509-.677-2.694-1.674-3.941-2.657-1.216-.943-2.663-1.554-4.018-2.338.093-.12.108-.28-.046-.412-1.2-1.05-2.57-1.926-3.817-2.923a47.962 47.962 0 0 0-1.632-1.249c.077.04.154.08.216.12 1.077.545 2.108 1.156 3.186 1.7.785.678 1.586 1.342 2.386 2.02.893.757 1.986 1.355 2.632 2.298.262.372.924.027.662-.332-.662-.943-1.678-1.554-2.586-2.298-.262-.213-.523-.439-.785-.651.616.252 1.247.505 1.878.744 1.124 1.195 2.432 2.218 3.694 3.308.354.305.893-.173.539-.465-.877-.758-1.801-1.488-2.648-2.259 1.14.346 2.294.598 3.464.89 1.462.36 2.832.904 4.325 1.21 1.432.292 2.91.451 4.372.637 1.447.186 2.894.399 4.356.532 1.585.146 3.155.132 4.74.106.77-.014 1.556-.027 2.34.04.816.066 1.617.252 2.433.345 1.539.173 3.109.2 4.664.306 1.616.12 3.232.16 4.864.133 3.278-.054 6.557-.213 9.82-.598 3.218-.386 6.296-1.143 9.406-1.927 3.494-.89 6.973-1.74 10.421-2.737 1.6-.465 3.186-.943 4.694-1.58 1.062-.479 2.217-1.29 3.418-1.502Zm-80.136 2.617a18.432 18.432 0 0 1-.908-.505c-1.324-.77-2.57-1.647-3.571-2.71-.277-.292-.539-.571-.816-.85.17.053.339.12.493.186.015.013.015.027.03.04 1.047 1.103 2.371 1.953 3.572 2.923.37.305.785.61 1.2.916Zm75.425-6.709c.554 1.249.862 2.564 1.355 3.826 0 .014.015.027.015.04a29.066 29.066 0 0 1-3.309 1.289c-2.971.943-6.019 1.767-9.067 2.511-3.032.744-6.049 1.594-9.112 2.179-3.202.611-6.496.863-9.76.996-3.186.12-6.31.067-9.481-.146-.862-.066-1.724-.12-2.57-.2v-.026c.03-.452.861-.744 1.246-.956.708-.386 1.293-.89 1.94-1.342 1.508-1.063 3.34-1.78 5.048-2.551 1.847-.824 3.556-1.767 5.296-2.763.784-.452 1.616-.93 2.524-1.183.939-.252 1.862-.372 2.755-.757.985-.412 1.909-.917 2.956-1.236 1.016-.305 1.908-.664 2.878-1.076 1.555-.664 3.186-1.156 4.787-1.74 1.663-.611 3.264-1.329 4.634-2.339.692-.505 1.662-1.222 2.139-2.046 1.416 1.395 2.648 2.923 3.802 4.504.708.97 1.447 1.953 1.924 3.016Zm-9.62-6.497c-.385-.478-.908-.797-1.478-1.102-.308-.16-.616-.346-.908-.505.323-.093.646-.2.985-.293.493.346 1.016.678 1.478 1.05.261.213.538.465.846.625-.662.491-1.4.903-2.093 1.248-.539-.066-1.078-.637-1.478-.916a16.797 16.797 0 0 1-1.585-1.223l-.046-.04c.323-.053.63-.119.954-.199.385.2.754.412 1.124.611.554.306 1.169.572 1.554 1.063.262.372.924.04.647-.319Zm2.078-1.275c-.17.2-.354.399-.57.585-.477-.107-.908-.651-1.262-.904-.246-.173-.508-.345-.754-.518l.231-.04c.138-.027.477-.066.862-.093.03 0 .046.013.077.013.277 0 .569.465.769.611.2.12.416.226.647.346Zm-.277-.97c.369.053.631.173.615.385-.215-.12-.431-.239-.615-.385Zm-4.526 3.175c.231.173.462.346.708.492-.354.16-.708.292-1.062.438-.292-.106-.585-.186-.831-.358-.154-.107-.293-.226-.431-.32 0-.318-.015-.637-.015-.903 0-.186-.016-.372-.031-.558.538.412 1.108.797 1.662 1.21Zm-1.478 1.21c.047.026.108.053.154.08-.123.039-.261.092-.384.132l.046-.346a.801.801 0 0 0 .184.133ZM77.722 3.096c2.047.386 4.095.797 6.157 1.13 1.893.292 3.617.983 5.465 1.408.954.226 1.893.385 2.801.73.831.32 1.632.691 2.478.957 1.847.585 3.787.957 5.726 1.315 3.926.718 7.82 1.661 11.53 2.99.354.132 1.493.385 1.616.744.062.172-.246.61-.323.77-.185.399-.385.784-.616 1.17-.893 1.5-1.924 2.989-3.34 4.171-1.155-1.448-2.417-2.83-3.848-4.092a.849.849 0 0 0-.678-.213c-.708-.385-1.739-.425-2.601-.411-2.001.04-3.756 1.076-5.71 1.195-.309-.451-.724-.85-1.125-1.248-.77-.718-1.246-1.555-1.924-2.325-.677-.771-1.693-1.196-2.416-1.914-.724-.717-1.216-1.461-2.202-1.966-.8-.412-1.677-.664-2.586-.863-.138-.372-.523-.492-.892-.426-.046-.013-.077-.026-.123-.026-1.17-.266-2.325.106-3.402.531-.57-.451-1.247-.823-1.955-1.142.092.013.17.04.261.053.508.106 1.016.2 1.494.398.354.147.585.266.985.266.492-.013.492-.677 0-.664-.447.013-.97-.319-1.401-.439-.462-.12-.939-.212-1.416-.292-.739-.12-1.555-.279-2.325-.305a33.84 33.84 0 0 1-2.031-.917c.246.066.492.12.754.173 1.632.345 3.402.57 4.956 1.116a.497.497 0 0 0 .262.106.49.49 0 0 1 .139.013c.37.027.538-.491.2-.624-1.493-.558-3.171-.81-4.757-1.143-.8-.16-1.6-.332-2.386-.558-.554-.16-1.447-.239-1.924-.531a96.76 96.76 0 0 1 5.157.863Zm6.265 5.633a2.799 2.799 0 0 0-.94-.358 3.106 3.106 0 0 0-.26-.492 6.16 6.16 0 0 1 .461-.146c.492.279.985.558 1.508.824a4.78 4.78 0 0 1-.277.465c-.169-.093-.323-.2-.492-.293Zm.092.85c-.2.253-.415.492-.662.718a7.21 7.21 0 0 0-.123-1.156c.246.107.477.28.693.399l.092.04Zm.216-2.045c.123-.014.246 0 .338.013a.75.75 0 0 0 .339.332v.027a15.6 15.6 0 0 0-.677-.372Zm-36.02-2.618c-.077-.518.262-.837.816-1.155.785-.439 1.663-.691 2.556-.917a29.677 29.677 0 0 1 5.202-.77c.6-.04 1.186-.094 1.77-.2a14.36 14.36 0 0 1 2.833-.226c.877 0 1.77-.04 2.632.027.785.066 1.54.319 2.263.544 1.678.532 3.417.837 5.125 1.302.8.213 1.355.545 2.032.957.74.452 1.617.77 2.432 1.116 1.432.611 3.125 1.103 4.356 2.006-.015.359.355.757.847.81.708.97.57 2.1.57 3.295v.093c-.216.186-.431.36-.647.532a.582.582 0 0 0-.092-.2c-.97-1.512-2.34-3.12-4.095-4.01-.662-.332-1.4-.584-2.093-.89-.4-.186-1.462-.558-1.585-.903a.76.76 0 0 0-.632-.492c-.538-.465-1.246-.69-1.985-.784a7.893 7.893 0 0 0-1.94 0 9.118 9.118 0 0 0-.631-.292c-.431-.173-.877-.319-1.308-.492-1-.385-1.986-.77-2.956-1.182-.446-.186-.831.385-.385.571a75.68 75.68 0 0 0 3.464 1.382c.2.066.385.16.6.252-.416.107-.847.24-1.247.386l-4.802-2.073c-.447-.186-.831.385-.385.571 1.431.625 2.863 1.236 4.294 1.86l-.646.28c-1.062-.36-2.032-.864-3.063-1.29-1-.424-2.032-.77-3.002-1.248-.43-.213-.816.359-.385.571 1.047.505 2.17.877 3.248 1.342.785.345 1.54.704 2.34 1.01-.308.146-.6.292-.908.438a.443.443 0 0 0-.185-.133c-.846-.305-1.647-.73-2.493-1.036-.878-.319-1.74-.664-2.602-.996-.446-.173-.846.398-.385.57 1.647.625 3.248 1.343 4.895 1.954-.246.12-.508.239-.754.359-.262-.186-.57-.293-.877-.412-.6-.24-1.155-.558-1.755-.81-.924-.386-2.063-.492-2.833-1.103-.353-.293-.908.172-.538.465.708.57 1.631.757 2.509 1.036.585.186 1.108.465 1.647.717.339.16.77.28 1.123.452-.03.013-.046.027-.076.04-.308.146-.616.292-.94.425 0-.08-.03-.16-.123-.226-.6-.438-1.339-.571-2.047-.81-.954-.32-1.77-.731-2.801-.837-.493-.053-.493.61 0 .664.877.093 1.616.452 2.416.744.631.226 1.355.319 1.894.704 0 0 .015 0 .015.013a3.875 3.875 0 0 1-.43.147c-.463-.24-1.032-.306-1.54-.426-1.108-.252-2.17-.664-3.248-.97-.477-.132-.677.505-.2.638 1 .293 1.985.651 3.001.917.185.053.4.08.6.12-.138.013-.276.013-.43.026a.891.891 0 0 0-.554.173c-1.694-.439-3.418-.824-5.08-1.355-.94-.306-2.34-.585-2.91-1.382-.246-.359-.261-.81-.338-1.222.277-.08.508-.293.446-.665Zm27.246 8.41c.662.04 1.17.439 1.755.651.369.146.77.226 1.123.372-.323.226-.646.465-.97.691-.508-.08-.97-.332-1.462-.518-.692-.252-1.385-.492-2.063-.784-.446-.186-.83.385-.384.571.77.332 1.585.585 2.37.904.277.106.539.226.816.319-.17.106-.323.212-.493.319-.138.08-.261.172-.4.252-.462 0-.893-.173-1.324-.306a21.768 21.768 0 0 1-1.585-.518c-.446-.172-.847.399-.385.572.585.225 1.17.398 1.77.584.231.067.447.146.678.2-.308.199-.616.398-.909.61-.092-.132-.261-.239-.523-.278-.846-.107-1.524-.505-2.186-.957.231-.306.416-.664.616-.957.508-.77 1.293-1.381 1.816-2.152.847-1.289 1.601-2.684 1.047-4.052.2.08.4.16.585.226 1.524.638 2.678 1.78 3.587 3.002-.2-.106-.4-.212-.585-.305-.478-.253-1-.439-1.416-.77-.37-.293-.909.185-.54.464.524.412 1.155.651 1.755.957.508.266.986.505 1.54.624a.6.6 0 0 0 .23.107l-.646.478-.292.212c-.477-.252-1.016-.358-1.54-.57-.661-.267-1.216-.625-1.97-.665-.508.026-.508.69-.015.717Zm-8.466-1.395c.323.053.646.372.892.532.34.226.693.398 1.078.558a32.86 32.86 0 0 1 1.878.823c-.108.133-.2.253-.293.386-.246-.12-.477-.28-.708-.399-.4-.2-.8-.412-1.231-.585-.785-.345-1.6-.597-2.309-1.049-.4-.253-.785.319-.385.571.785.492 1.693.758 2.54 1.156.57.252 1.14.651 1.724.917l-.185.319c-.97-.585-2.031-1.037-3.094-1.488-2.509-1.063-4.925-2.272-7.527-3.162l-.23-.08c1.554-.492 3.001-1.329 4.433-1.993 2.062-.956 4.787-2.617 7.25-1.86.908.28 1.17 1.21 1.693 1.82.23.28.554.585.723.917-.492-.226-.97-.438-1.462-.678-.8-.385-1.678-.704-2.386-1.209-.385-.265-.924.2-.539.465.708.505 1.524.824 2.325 1.21.723.345 1.447.677 2.17.996a2.89 2.89 0 0 1-.246.69c-1.416-.717-2.756-1.54-4.28-2.072-.461-.16-.661.478-.2.638 1.493.518 2.786 1.342 4.172 2.046a7.413 7.413 0 0 1-.508.797c-.708-.279-1.432-.558-2.078-.957-.739-.451-1.463-.983-2.37-1.142-.478-.093-.693.544-.2.637.907.173 1.6.744 2.354 1.183.585.332 1.232.585 1.863.837-.154.186-.323.372-.493.558-.739-.332-1.477-.638-2.232-.97-.63-.279-1.2-.93-1.893-1.05-.539-.08-.739.558-.246.638ZM41.456 10.63c.447-.664 1.109-1.249 1.617-1.886.862-1.116 1.862-2.166 3.063-3.016.061.252.092.531.138.77.108.492.308.944.678 1.342.754.81 1.893 1.183 2.986 1.528 2.801.903 5.71 1.475 8.512 2.352 2.725.863 5.264 2.178 7.881 3.281 1.247.532 2.463 1.076 3.556 1.834.877.598 1.755 1.222 2.832 1.474-.462.399-.908.797-1.385 1.17-1.493-.651-2.879-1.488-4.372-2.14-.446-.185-.83.386-.385.572 1.417.624 2.725 1.395 4.126 2.032a4.48 4.48 0 0 1-.323.213c-.108.067-.231.146-.34.213-.8-.107-1.538-.784-2.185-1.156-.862-.492-1.74-.97-2.678-1.369-.447-.186-.831.386-.385.572a25.272 25.272 0 0 1 3.094 1.607c.477.28.908.598 1.416.81a17.46 17.46 0 0 0-.646.413c-.74-.426-1.586-.665-2.356-1.063-.554-.293-1.046-.625-1.6-.917-.493-.252-1.032-.438-1.494-.73-.4-.253-.785.318-.384.57.43.266.923.439 1.385.678.508.253.985.571 1.478.85.723.399 1.585.625 2.309 1.023-.277.173-.555.332-.816.505-.046.027-.108.067-.154.093-.354-.398-1.078-.571-1.586-.757-1.231-.452-2.416-1.05-3.617-1.568-.446-.186-.831.386-.385.572 1.062.451 2.11.93 3.156 1.395.385.159 1.508.385 1.785.73-.215.12-.43.226-.646.332l-.046-.04c-.616-.465-1.386-.518-2.125-.744-1.092-.332-2.14-.876-3.14-1.368-.43-.212-.815.359-.384.571a33.93 33.93 0 0 0 2.786 1.25c.662.252 1.539.305 2.14.65a5.623 5.623 0 0 1-.817.226c-.646-.425-1.493-.465-2.262-.638-1.062-.226-1.955-.797-3.048-.916-.493-.053-.493.61 0 .664.97.106 1.77.624 2.694.85.415.107.923.133 1.37.24-.462.066-.924.132-1.386.225-.138-.146-.338-.226-.63-.199-.617.053-1.094-.133-1.648-.332a16.61 16.61 0 0 0-1.785-.479c-1.355-.292-2.556-.744-3.787-1.288-2.201-.983-4.433-1.847-6.45-3.109-2.078-1.289-3.786-2.976-5.403-4.677-.461-.491-.923-.996-1.37-1.488.385-.544.616-1.142 1.016-1.727Zm-1.585-.77c.046.026.092.04.139.053-.031.04-.047.093-.078.133-.261-.173-.554-.32-.83-.479.323.04.461.147.769.293Zm-.277.81c-.077.16-.17.306-.262.465a.661.661 0 0 0-.092-.106c-.308-.359-.585-.73-.878-1.103.4.252.862.452 1.232.744ZM35.9 9.448c.23.2.43.465.63.744a15.1 15.1 0 0 0-.83-.85.492.492 0 0 1 .2.106Zm.215 3.999c-.585-.545-1.324-.957-1.94-1.475a13.29 13.29 0 0 1-1.57-1.541 3.7 3.7 0 0 1 .34-.146l.014.013c1.217 1.036 2.648 1.927 3.525 3.202.247.372.924.027.662-.332-.862-1.249-2.216-2.152-3.417-3.149.4-.133.785-.305 1.17-.491.015.026.03.053.062.08.446.451.908.89 1.293 1.381.338.425.646.85 1.108 1.209.23.186.539.053.631-.133a59.957 59.957 0 0 0 3.571 3.853c1.601 1.594 3.325 3.069 5.357 4.251 1.955 1.143 4.094 1.967 6.188 2.897 1.231.544 2.463.983 3.817 1.275.277.053.554.146.831.226-.246 0-.508 0-.754.013-.862.067-1.693.186-2.555.28-.647-.4-1.416-.599-2.078-.997-.908-.545-1.863-1.01-2.802-1.515-.415-.226-.8.346-.384.572.846.464 1.724.903 2.555 1.381.37.213.708.439 1.093.598.046.013.092.04.138.053h-.061c-.462 0-.94-.013-1.416-.04-.124-.066-.247-.133-.37-.186a35.62 35.62 0 0 1-1.016-.505c-.662-.332-1.354-.624-1.862-1.142-.324-.332-.862.146-.54.465.494.491 1.14.81 1.787 1.13a34.046 34.046 0 0 1-4.357-1.024c-2.401-.73-4.31-2.218-6.65-3.029-1.246-.438-2.262-1.514-3.016-2.458-.431-.544-.8-1.129-1.14-1.727.078.053.17.12.247.173.677.505 1.354 1.01 2.062 1.474.385.266.77-.318.385-.57-.723-.479-1.416-1.01-2.109-1.529-.446-.332-.923-.637-1.37-.983a12.867 12.867 0 0 1-.861-1.86l3.263 2.817c.354.305.893-.173.538-.465l-3.586-3.096a.38.38 0 0 0-.462-.04 5.065 5.065 0 0 1-.108-.465c-.061-.305-.107-.598-.184-.89.4.439.816.85 1.277 1.25.678.584 1.478 1.049 2.124 1.646.37.333.909-.132.57-.451Zm-13.5 4.756c1.324-1.355 2.17-2.99 3.695-4.185.785-.611 1.324-1.368 2.063-2.006.584-.505 1.323-.877 2.062-1.209.293.664.277 1.514.447 2.152.292 1.103.892 2.152 1.446 3.176.585 1.05 1.14 2.112 1.94 3.055.754.864 1.693 1.913 2.786 2.471.57.28 1.2.412 1.77.704.631.32 1.232.651 1.847.984 1.17.624 2.386 1.195 3.68 1.607 1.37.452 2.816.744 4.248 1.01 1.447.266 2.878.478 4.356.465 1.555-.013 3.094-.372 4.633-.399.677-.013 1.355.014 2.032-.08.693-.092 1.324-.345 1.97-.53 1.185-.32 2.448-.333 3.633-.678 1.278-.386 2.355-1.063 3.448-1.727 1.154-.718 2.386-1.382 3.463-2.18 1.078-.796 2.001-1.753 3.125-2.524 1.124-.784 2.34-1.448 3.448-2.245 1.124-.797 2.247-1.607 3.31-2.458 1.77-1.395 4.156-3.162 4.556-5.327a8.05 8.05 0 0 1 1.278.491c.8.412 1.185 1.05 1.77 1.648.646.65 1.57 1.036 2.216 1.687.631.624 1 1.408 1.601 2.046.539.571 1.278 1.076 1.616 1.767.139.279.185.585.216.89-.4-.226-.847-.412-1.262-.638-.785-.412-1.524-.877-2.355-1.222-.447-.186-.832.385-.385.571.754.32 1.431.718 2.14 1.103.63.346 1.354.611 1.923 1.036.016.412.016.837-.015 1.262-.17-.106-.323-.225-.477-.318-.447-.266-.908-.532-1.355-.797-.908-.545-1.816-1.063-2.817-1.475-.446-.186-.83.385-.385.571 1.078.465 2.063 1.036 3.048 1.621.493.292 1 .571 1.478.877.154.093.292.186.431.265-.046.28-.139.545-.323.705a.55.55 0 0 0-.216.279c-.077.026-.154.066-.23.093-.185-.186-.432-.293-.709-.439-.57-.292-1.108-.624-1.662-.943-1-.585-2.14-.983-2.94-1.78-.323-.32-.862.146-.539.465.662.664 1.54 1.076 2.417 1.514.462.24.908.505 1.354.77.247.147.493.267.74.4.107.066.415.172.615.292-.462.186-.939.385-1.4.571-.401-.346-1.032-.532-1.479-.757-1.262-.638-2.432-1.382-3.77-1.94-.447-.186-.832.385-.386.571 1.124.465 2.155 1.037 3.202 1.621.308.173.631.346.954.492.154.066.447.172.678.292-.293.106-.585.2-.878.279-.308.093-.615.2-.908.305-.63-.252-1.247-.73-1.785-.996-1.078-.545-2.14-1.103-3.294-1.541-.447-.173-.847.398-.385.571 1.293.492 2.524 1.13 3.725 1.767.292.16.6.346.893.518l-.832.36-.277.119c0-.014-.015-.027-.015-.027-.108-.213-.262-.239-.523-.266h-.062c-.708-.252-1.37-.69-2.001-1.023-.77-.398-1.524-.81-2.324-1.169-.447-.186-.832.386-.385.572.877.385 1.708.85 2.555 1.288.631.332 1.247.718 1.924.957-.477.172-.97.319-1.493.438-.03-.013-.062-.013-.092-.026-.447-.053-.847-.332-1.247-.505-.4-.173-.8-.332-1.2-.505-.847-.372-1.648-.77-2.356-1.302-.37-.279-.923.186-.539.465.754.584 1.616 1.023 2.525 1.408.477.213.97.399 1.447.611l.323.16c-.385.133-.77.279-1.14.451-.615-.425-1.477-.677-2.185-.996-.831-.372-1.693-.69-2.401-1.236-.37-.292-.908.186-.539.465.631.492 1.37.824 2.124 1.156.37.16.724.32 1.078.492.354.173.846.292 1.2.478-.477.253-.939.532-1.4.81a24.21 24.21 0 0 1-1.324-.69c-.554-.306-1.078-.651-1.647-.944-.493-.252-1.062-.411-1.493-.744-.37-.292-.909.186-.54.465.74.572 1.771.89 2.587 1.382.462.28.939.545 1.416.797.062.027.185.08.323.133-.477.28-.97.545-1.462.797-.6-.438-1.34-.677-2.032-.996-.908-.425-1.878-.797-2.694-1.369-.384-.265-.923.2-.538.465.738.519 1.57.877 2.416 1.263.693.319 1.509.571 2.14.983-.493.239-.97.465-1.462.677-.585-.478-1.34-.744-2.032-1.076-.878-.438-1.74-.863-2.679-1.196-.461-.159-.662.479-.2.638.878.32 1.678.731 2.494 1.13.554.279 1.17.491 1.678.837-.246.12-.508.225-.754.345-.2.093-.385.173-.57.266a5.55 5.55 0 0 0-.508-.213c-.431-.173-.816-.412-1.231-.598-.862-.398-1.801-.65-2.602-1.156-.4-.252-.785.32-.385.572.74.465 1.586.717 2.386 1.063.37.159.693.345 1.047.518.154.08.323.146.492.199-.43.213-.846.425-1.246.664-.247-.093-.493-.172-.74-.292-.446-.213-.846-.518-1.308-.717-.43-.186-.877-.32-1.323-.479-.416-.16-.77-.438-1.216-.531-.477-.093-.693.545-.2.638.415.08.785.372 1.17.518.461.172.954.305 1.4.531.37.186.708.439 1.093.611l.37.16c-.262.16-.524.319-.77.491.03-.12 0-.265-.185-.332-.723-.305-1.478-.571-2.186-.903-.677-.32-1.308-.678-2-.983-.447-.2-.832.385-.386.57.693.306 1.324.665 2.002.984.708.332 1.462.598 2.185.917.062.026.108.04.17.04-.185.132-.37.265-.54.398-.538.412-1.215.718-1.754 1.103-.523-.439-1.216-.611-1.862-.904-.709-.319-1.355-.85-2.094-1.076-.462-.146-.677.505-.2.638.323.093.585.332.862.491.339.186.693.36 1.047.519.57.252 1.231.398 1.708.797a2.197 2.197 0 0 0-.292.425c-.585-.306-1.247-.399-1.878-.611-.877-.292-1.555-.837-2.524-.89-.493-.027-.493.637 0 .664.83.04 1.493.585 2.247.837.492.173 1.077.24 1.555.452h-.016c-1.524-.213-3.063-.146-4.602-.12-3.033.04-6.003-.425-8.99-.81-1.431-.186-2.847-.412-4.217-.797-1.447-.412-2.848-.85-4.326-1.196-3.248-.758-6.326-2.166-9.143-3.72-1.432-.784-2.894-1.568-4.418-2.206-.924-.385-2.417-.358-3.11-1.036a.827.827 0 0 0-.461-.226c-1.278-1.142-2.617-2.258-3.663-3.574-.478-.598-1.047-1.209-1.386-1.873a3.768 3.768 0 0 1-.17-.359.678.678 0 0 1 .108-.106ZM14.658 28.38c.293-1.501 1.032-2.737 1.986-3.986.862-1.102 1.216-2.497 2.232-3.507.462-.452.954-.864 1.324-1.369.23-.305.4-.637.631-.943.123.28.215.558.354.824.354.664.908 1.275 1.385 1.873.94 1.196 2.094 2.245 3.264 3.282 1.17 1.036 2.355 2.059 3.402 3.202a17.725 17.725 0 0 0 3.494 3.015c1.354.877 2.847 1.581 4.187 2.471 1.293.85 2.786 1.462 4.079 2.326 1.354.903 2.478 2.019 3.925 2.83 1.493.836 3.201 1.328 4.802 1.952 1.694.665 3.356 1.382 5.126 1.887.893.252 1.832.372 2.71.624.338.093.646.226 1 .266.339.04.677.013 1.016.013a.595.595 0 0 0 .4.36c.03 1.341.23 2.67.37 3.998.153 1.408.169 2.83.153 4.252-.015 1.036 0 2.085-.03 3.135-.108.106-.108.292-.016.425 0 .146-.015.28-.015.425-.016.306.077.213-.17.293-.661.212-1.57.053-2.262.026-.724-.026-1.432-.013-2.14-.093-.754-.08-1.478-.252-2.232-.292-.77-.04-1.54.026-2.309-.093-.739-.107-1.462-.28-2.186-.465a27.041 27.041 0 0 1-7.88-3.415c-1.155-.744-2.264-1.434-3.618-1.9-.662-.239-1.324-.451-1.94-.797-.646-.372-1.246-.823-1.847-1.235-.523-.359-1.046-.73-1.6-1.05-.586-.345-1.247-.571-1.832-.903-1.17-.651-2.14-1.541-3.34-2.166-1.355-.704-2.556-1.528-3.803-2.365-.615-.412-1.231-.823-1.847-1.262-.138-.133-.261-.279-.4-.425a82.62 82.62 0 0 0-4.51-4.49c-.046-.04-.092-.093-.139-.133-.492-.731-.923-1.502-1.216-2.312-.508-1.408-.785-2.803-.508-4.278Zm14.547 18.454a.413.413 0 0 0-.077.093c-.277-.24-.57-.478-.847-.718.308.226.616.439.924.625Zm-16.317-18.52.046.12a7.487 7.487 0 0 0-.092.823c-.108-.133-.215-.253-.323-.386-.139-.185-.262-.371-.4-.557.246-.08.508-.054.77 0Zm-.908 1.023c.293.345.57.664.816 1.036.03.04.062.08.108.106.03.332.092.651.169.983-.185-.252-.354-.518-.523-.784-.231-.385-.662-1.036-.74-1.594.047.093.109.173.17.253Zm1.678 28.47c.523.453 1.031.93 1.585 1.343.508.385 1.063.717 1.586 1.076-.154.066-.293.12-.447.186-.43-.439-1.123-.73-1.631-1.13a45.355 45.355 0 0 1-1.555-1.288c.154-.067.308-.12.462-.186Zm.816-.238.37-.08c.014 0 .045-.013.06-.013.678.571 1.37 1.129 2.094 1.66.293.213.57.425.862.638-.092.04-.185.08-.277.133-.585-.425-1.216-.784-1.786-1.222a20.325 20.325 0 0 1-1.323-1.116Zm-1.97.783c.554.479 1.123.944 1.693 1.409.261.2.523.412.8.598.185.12.416.225.6.345-.215.066-.43.146-.63.2-.509-.426-1.124-.731-1.663-1.13-.462-.345-.878-.73-1.355-1.063.185-.133.37-.239.554-.358Zm-1.51 1.063c.124-.093.232-.186.355-.279.57.386 1.047.85 1.6 1.25.37.265.77.477 1.124.73-.2.04-.4.066-.584.093-.585-.425-1.247-.757-1.894-1.13a11.33 11.33 0 0 0-.831-.464l.23-.2Zm-.892 1.077c-.015-.027.077-.213.17-.346.323.146.63.332.938.518.34.2.678.372 1.001.572a4.122 4.122 0 0 1-.708-.133c-.323-.107-1.216-.359-1.4-.611Zm9.344 13.033c-1.37.013-2.74-.067-4.11-.213-.878-.093-1.416-.279-1.894-.943-.846-1.17-1.046-2.604-1.447-3.906-.369-1.196-.83-2.365-1.123-3.574l-.647-2.697c1.447.545 2.91.585 4.495.24 1.57-.346 3.048-.984 4.495-1.622 2.601 1.993 5.156 4.026 7.88 5.873 1.833 1.235 3.572 2.564 5.358 3.84-.431.345-1.232.504-1.709.65-1.077.32-2.093.744-3.171 1.076a28.077 28.077 0 0 1-8.127 1.276Zm12.483 9.26c-1.2 0-2.447.093-3.617-.133-1.278-.239-2.263-.89-3.032-1.793a7.936 7.936 0 0 1-1.663-3.056c0-.013 0-.027-.015-.04.877.797 1.724 1.608 2.617 2.391.354.306.892-.159.538-.465-1.154-1.01-2.232-2.085-3.386-3.095l-.031-.027-.092-.438a4.633 4.633 0 0 0-.2-.651c.261.212.57.412.815.584 1 .704 2.078 1.369 2.956 2.206.338.319.877-.146.538-.465-.8-.77-1.8-1.369-2.709-2.033-.338-.239-1.108-.65-1.416-1.063.308-.04.6-.08.908-.133.662.545 1.432.984 2.125 1.488.77.572 1.539 1.143 2.432 1.568.43.2.83-.372.384-.571-.923-.425-1.677-1.023-2.478-1.608-.492-.358-1.031-.69-1.524-1.05.231-.04.462-.092.709-.145a.27.27 0 0 0 .123.093 21.042 21.042 0 0 1 3.91 2.697c.353.305.892-.16.538-.466a22.046 22.046 0 0 0-3.617-2.564c.354-.093.708-.186 1.047-.292.723.399 1.339.917 2.016 1.382.8.544 1.74.97 2.34 1.7.292.346.954.014.662-.332-.631-.757-1.509-1.209-2.355-1.754-.616-.398-1.17-.863-1.786-1.275.323-.106.646-.212.985-.332 1.216.957 2.725 1.608 3.956 2.55.37.28.908-.185.539-.464-1.14-.89-2.525-1.501-3.695-2.352.447-.16.909-.305 1.37-.451 1.278.97 2.571 1.913 3.772 2.936.354.305.892-.173.538-.465-1.139-.957-2.34-1.847-3.525-2.75.447-.187.863-.399 1.186-.691 1.062.717 2.14 1.421 3.278 2.059 1.832 1.023 3.187 2.498 5.095 3.441 1.432.704 2.617 1.687 4.033 2.405-.892.212-1.754.531-2.601.823-1.308.465-2.678.784-4.002 1.25-2.463.85-5.034 1.381-7.666 1.381Zm47.195 11.811c-1.524.173-3.017.478-4.541.677-1.924.266-3.818.4-5.772.346-.955-.027-1.894-.067-2.848-.067-.862 0-1.586-.212-2.432-.358-.862-.146-1.663-.053-2.525-.027-.97.04-1.724-.279-2.586-.598-1.74-.637-3.586-1.023-5.326-1.674-3.555-1.328-6.68-3.148-9.805-5.088-1.431-.89-2.817-1.807-4.356-2.524a24.232 24.232 0 0 1-1.893-.93c-.247-.146-.57-.32-.832-.518.231-.04.462-.093.693-.147.523.372 1.216.625 1.74.97.723.478 1.662.81 2.324 1.342.354.292.908-.173.539-.465-.6-.492-1.386-.757-2.048-1.169-.37-.24-.723-.478-1.123-.69-.139-.08-.293-.147-.447-.227.447-.12.893-.252 1.34-.385 1.015.757 2.047 1.515 3.201 2.139.416.226.816-.346.385-.571-.985-.532-1.893-1.17-2.77-1.834.03-.013.06-.013.092-.026.246-.08.477-.16.723-.24.508.32 1.031.625 1.524.957.677.465 1.308.97 2.032 1.368.415.226.8-.345.385-.57-.708-.386-1.293-.878-1.955-1.316-.37-.252-.74-.465-1.124-.704.462-.133.939-.266 1.4-.412.432.359.878.69 1.37.983.709.425 1.463.77 1.971 1.382.292.345.954.013.662-.332-.446-.532-1.016-.917-1.647-1.276a14.964 14.964 0 0 1-1.54-1.01c.031-.013.047-.013.078-.026.292-.106.6-.213.892-.319.508.332.955.704 1.447 1.036.662.439 1.324.85 1.955 1.302.37.28.924-.199.539-.465-.662-.478-1.355-.903-2.032-1.368-.37-.252-.723-.531-1.093-.784.323-.093.647-.186.985-.266.493.226.878.691 1.293.983.693.479 1.494.811 2.094 1.396.338.318.877-.16.538-.465-.677-.651-1.585-.997-2.324-1.568-.215-.16-.43-.359-.646-.532a.791.791 0 0 0 .385-.292c1.292.678 2.462 1.515 3.848 2.073.923.372 1.831.744 2.694 1.222.938.518 1.816 1.09 2.755 1.62 2.016 1.13 4.294 1.688 6.465 2.552 2.186.863 4.356 1.714 6.619 2.431 1.108.359 2.263.664 3.37 1.036 1.124.372 2.125.957 3.14 1.501.786.426 1.648.651 2.54.85.647.147 1.355.28 1.956.559-.57.398-1.724.451-2.31.518Zm29.354-9.34c-.354.2-.724.372-1.108.558-.816.385-1.586.837-2.432 1.17-2.433.956-4.818 2.019-7.25 2.975-2.448.957-4.803 1.794-7.45 2.219-1.309.213-2.648.359-3.987.492-.632.066-1.263.066-1.878.186-.524.093-.986.292-1.509.318-1.185-.77-2.678-.916-4.064-1.328-.815-.24-1.493-.704-2.216-1.076a15.548 15.548 0 0 0-2.555-1.063c-2.017-.638-4.033-1.222-6.019-1.94-1.862-.677-3.663-1.475-5.541-2.112a27.867 27.867 0 0 1-5.619-2.578c-.8-.478-1.585-.956-2.447-1.355-.94-.425-1.924-.757-2.848-1.209-.8-.398-1.493-.917-2.247-1.355-.816-.492-1.755-.77-2.602-1.222-.723-.386-1.323-.864-1.985-1.316-.816-.558-1.755-.916-2.617-1.408-.831-.492-1.524-1.142-2.278-1.714-.816-.624-1.709-1.129-2.617-1.634a30.583 30.583 0 0 1-2.894-1.833.806.806 0 0 0-.416-.293c-.523-.372-1.046-.77-1.554-1.156a118.11 118.11 0 0 0-4.818-3.427c-1.663-1.13-3.202-2.365-4.756-3.6-3.14-2.459-6.435-4.704-9.313-7.388-1.416-1.315-2.802-2.643-4.295-3.892a75.433 75.433 0 0 1-4.217-3.76c-1.247-1.196-2.448-2.511-2.802-4.132-.431-1.94.739-3.614 1.54-5.354.846-1.834 1.785-3.547 2.986-5.221.615-.85 1.431-1.409 2.231-2.113.431-.372.786-.797 1.232-1.142-.2 1.262.723 2.657 1.447 3.666.939 1.316 2.124 2.432 3.34 3.548.493.664 1.062 1.288 1.632 1.9 1 1.063 2 2.125 3.202 3.029.184.133.369.279.554.412 2.493 2.564 5.264 4.955 8.066 7.254 3.247 2.657 7.08 4.663 10.682 6.908.877.545 1.801 1.09 2.617 1.7.8.612 1.57 1.197 2.494 1.648.923.452 1.862.837 2.74 1.355.923.545 1.816 1.116 2.724 1.661 1.832 1.076 3.802 1.926 5.71 2.896 2.048 1.05 4.034 2.166 6.035 3.269.846.465 1.708.903 2.555 1.368.923.518 1.693 1.17 2.555 1.754 1.678 1.142 3.602 1.634 5.526 2.365 1.94.744 3.725 1.806 5.619 2.644 1.985.876 4.017 1.7 6.018 2.577 2.109.917 4.249 1.528 6.496 2.139 2.232.611 4.356 1.514 6.542 2.245 2.016.664 3.91 1.555 6.08 1.767 1.262.12 2.525-.106 3.771.12.77.146 1.524.226 2.309.265-.123.054-.292.16-.369.213Zm9.59-13.432c-.247.718-.708 1.395-1.093 2.06-.831 1.408-1.601 2.856-2.617 4.171-.924 1.21-1.786 2.498-2.986 3.521-.708.598-1.617 1.209-2.094 1.993-.677-.014-1.354-.053-2.016-.186-1.155-.213-2.155-.2-3.325-.173-1.924.04-3.679-.638-5.418-1.275-1.801-.665-3.633-1.289-5.434-1.953-1.785-.651-3.663-1.063-5.495-1.608-1.909-.571-3.695-1.435-5.495-2.192-1.894-.797-3.772-1.594-5.619-2.458-.908-.425-1.77-.917-2.663-1.329-.893-.425-1.847-.73-2.801-1.036-.8-.265-1.601-.544-2.34-.916-.97-.492-1.74-1.17-2.601-1.767-1.555-1.077-3.371-1.9-5.05-2.83-1.831-1.023-3.678-2.033-5.556-2.976-.246-.12-.477-.24-.724-.359.54-.186 1.186-.24 1.709-.292.215.146.416.305.585.411.508.32 1.016.638 1.524.944.908.544 1.816 1.103 2.817 1.528.446.186.831-.386.385-.572-1.078-.465-2.048-1.063-3.033-1.66-.43-.253-.862-.532-1.293-.797.293-.054.585-.12.878-.187.57.372 1.154.718 1.77 1.037.785.398 1.508.903 2.278 1.315.416.226.8-.345.385-.571-.708-.386-1.355-.824-2.063-1.21a35.081 35.081 0 0 1-1.462-.81c.23-.066.477-.146.708-.225a1.14 1.14 0 0 0 .123-.04c.046.026.108.04.154.053.508.12 1.016.106 1.54.093.076 0 .153-.014.23-.027.077.014.154.027.23.027 2.648.013 5.173.452 7.774.784 2.31.292 4.68.226 6.989-.04 1.37-.16 2.74-.359 4.11-.558.138.12.307.2.538.212.493.04.97.558 1.34.824.57.399 1.23.678 1.877.97.709.332 1.447.638 2.125 1.01.615.332 1.123.797 1.708 1.155 1.155.691 2.74.97 4.049 1.369 1.554.478 3.17.797 4.787 1.076 3.217.558 6.434 1.183 9.666 1.7 1.678.266 3.372.545 5.019.984 1.539.412 3.017.491 4.617.491.401 0 .862.04 1.34.053a4.177 4.177 0 0 1-.077.266Zm.046-1.793c-.339-.014-.677-.014-1.016-.014h-.739c.277-.132.523-.292.754-.478.093-.066.185-.146.277-.213.17.12.354.253.539.373.231.146.523.225.77.358 0 0 0 .013.015.013-.154.014-.477-.04-.6-.04Zm.415-.784a4.469 4.469 0 0 1-.6-.399c.216-.199.431-.385.631-.584.077.252.154.491.2.744l.046.358a1.267 1.267 0 0 1-.277-.12Zm7.789-11.864c-.4.531-.862 1.023-1.308 1.527-1.247 1.409-2.309 2.95-3.494 4.398-1.17 1.422-2.663 2.604-4.064 3.84-.616.544-1.17 1.249-1.955 1.62-.616.306-1.293.532-1.678 1.077-1.108-.2-2.186-.545-3.294-.758-1.524-.292-3.063-.518-4.587-.77-2.971-.492-5.957-1.05-8.912-1.608-1.478-.279-2.94-.61-4.357-1.076-.63-.2-1.246-.372-1.847-.558.062-.133.031-.306-.138-.412-1.216-.704-2.479-1.328-3.74-1.98-.863-.438-1.77-.876-2.494-1.46.138-.014.277-.04.4-.054.292-.026.585-.066.877-.093a.251.251 0 0 0 .108.146c1.524 1.21 3.679 1.541 5.187 2.75.37.293.909-.172.54-.465-1.417-1.142-3.403-1.5-4.896-2.537l1.016-.12c.693.359 1.324.77 2.017 1.143 1.03.558 2.155.956 3.109 1.634.385.266.924-.2.539-.465-.94-.664-2.001-1.09-3.048-1.62-.508-.253-.97-.546-1.447-.825a65.934 65.934 0 0 0 1.6-.212c.524.292 1.048.598 1.586.89.431.24.862.491 1.324.69.431.2.924.306 1.308.559.4.252.785-.319.385-.572-.4-.252-.877-.358-1.308-.558-.462-.212-.877-.465-1.324-.69l-.877-.479c.338-.053.677-.12 1.031-.186.431.226.816.492 1.247.744.385.226.77.425 1.185.598.4.173.893.28 1.185.585.308.332.847-.133.54-.465-.263-.28-.586-.399-.955-.545a10.296 10.296 0 0 1-1.57-.757c-.2-.12-.4-.253-.6-.372.4-.08.8-.173 1.2-.266 1.124.585 2.37.983 3.371 1.714.37.279.924-.2.539-.465-.862-.624-1.878-1.023-2.863-1.488.785-.173 1.57-.346 2.355-.478.123.066.246.093.43.12.216.026.34-.094.37-.24a16.163 16.163 0 0 1 1.955-.16c1.37-.026 2.648-.026 4.002-.212 1.278-.173 2.556-.12 3.833-.212 1.201-.093 2.386-.399 3.587-.399 1.246-.013 2.463.12 3.709-.04 2.509-.332 5.049-.531 7.497-1.169.662-.173 1.323-.346 2.001-.505.354-.08.708-.16 1.077-.212.123-.027.247-.027.385-.04.015.518-.446 1.09-.739 1.488Z"/>
  <path fill="#40352F" d="M69.24 31.595c-.307-.066-.57-.319-.846-.425-.339-.133-.693-.226-1.031-.345-.662-.226-1.401-.439-1.924-.864-.355-.292-.909.173-.54.465.54.438 1.217.678 1.894.903.37.133.754.24 1.124.372.415.147.708.426 1.139.519.462.132.677-.519.184-.625Z"/>
</svg>
