<svg width="503" height="515" viewBox="0 0 503 515" fill="#C72626" xmlns="http://www.w3.org/2000/svg">
<path d="M327.24 348.554C333.581 353.352 340.366 357.912 346.769 362.821C339.567 360.369 332.832 356.995 328.351 352.888C324.226 349.106 321.281 347.464 318.685 342.11C317.127 338.897 324.393 346.4 327.24 348.554Z" fill="#C72626"/>
<path d="M258.796 156.332C257.81 165.205 217.228 154.27 212.018 152.554C198.359 148.055 191.447 139.808 183.796 128.332C175.409 115.751 167.818 102.486 162.463 88.332C156.332 72.1301 152.951 53.0894 143.351 38.4986C135.961 27.2657 128.111 17.545 115.685 11.332C97.7986 2.38885 77.7853 -1.63373 58.6848 6.10973C42.914 12.5033 23.8124 26.7706 18.0181 43.5542C12.7104 58.9282 15.6166 77.6217 25.7403 90.2764C32.2404 98.4015 40.8692 100.765 50.2959 104.332C60.6455 108.248 69.51 115.082 77.7959 122.332C85.3267 128.921 93.5848 134.532 100.351 141.943C104.401 146.378 107.333 152.471 109.74 157.888C112.938 165.082 116.592 172.853 119.018 180.332C119.72 182.496 121.528 183.932 122.685 185.832C124.341 188.553 125.036 191.841 126.574 194.665C129.725 200.455 134.084 205.557 135.574 212.11C136.793 217.474 140.492 222.959 138.685 228.832C137.222 233.585 128.507 239.332 123.796 239.332C105.071 239.332 91.5918 217.725 80.2403 205.776C75.2149 200.486 72.5368 191.521 64.0181 191.332C50.2672 191.026 41.0263 193.53 29.4625 200.665C14.9153 209.641 9.37244 224.495 4.57366 239.999C-2.53473 262.964 6.40313 288.138 15.3514 309.443C20.8666 322.574 29.9035 335.291 45.1848 336.276C61.8881 337.354 76.7708 329.916 92.5737 326.554C100.369 324.896 105.883 318.981 112.796 315.332C116.397 313.431 119.764 311.225 123.351 309.332C130.229 305.702 120.781 315.502 119.351 317.332C103.439 337.7 94.4269 366.46 93.7959 392.332C93.4182 407.818 100.815 418.733 112.574 428.332C136.045 447.492 164.545 464.034 195.074 467.61C201.981 468.419 211.154 469.527 217.907 467.11C222.058 465.623 225.262 460.57 227.796 457.276C234.762 448.22 242.042 439.471 249.963 431.221C256.398 424.517 263.198 418.017 270.629 412.443C272.797 410.818 277.582 405.025 279.018 409.332C282.486 419.736 285.67 430.582 288.796 441.11C290.408 446.538 292.749 451.71 294.351 457.11C297.195 466.689 298.283 477.204 304.74 485.276C307.328 488.511 309.754 491.961 312.24 495.276C314.981 498.93 319.187 501.097 322.351 504.388C331.229 513.62 344.397 513.277 356.185 511.776C374.986 509.383 397.081 502.936 410.796 489.221C422.671 477.345 430.904 462.754 435.351 446.665C437.321 439.541 439.646 423.587 434.796 416.554C431.927 412.394 426.942 408.677 422.24 407.11C414.834 404.641 408.776 398.638 401.796 395.332C394.061 391.668 386.984 386.565 379.296 382.888C375.695 381.165 371.812 379.404 368.407 377.332C364.579 375.002 359.247 373.56 356.018 370.554C347.292 362.43 336.764 355.761 327.24 348.554C324.393 346.4 317.127 338.897 318.685 342.11C321.281 347.464 324.226 349.106 328.351 352.888C338.137 361.858 358.672 367.332 371.351 367.332C387.384 367.332 404.313 370.478 420.296 368.11C431.759 366.412 444.401 362.483 455.24 358.276C462.602 355.42 469.882 350.902 477.351 348.554C481.686 347.192 485.927 340.656 489.351 337.554C494.179 333.182 497.201 325.09 499.574 319.11C504.67 306.266 495.995 293.026 488.796 282.999C484.031 276.362 475.623 267.557 467.296 266.276C449.65 263.562 432.805 262.332 414.851 262.332C399.722 262.332 384.592 262.332 369.463 262.332C359.602 262.332 344.612 264.374 336.018 269.332C334.512 270.201 345.226 263.459 347.24 261.888C357.085 254.207 367.613 247.241 378.018 240.332C386.367 234.788 396.862 232.501 404.574 226.332C413.199 219.432 423.285 214.384 431.296 206.665C452.803 185.94 464.932 161.582 466.685 131.776C467.072 125.198 467.557 117.801 465.351 111.499C463.568 106.402 459.136 103.958 454.907 100.888C442.917 92.1822 428.95 86.4255 414.574 83.332C408.104 81.9398 399.608 81.2621 393.129 82.9986C385.378 85.0763 374.775 87.1224 367.851 91.2764C357.091 97.7327 347.974 104.4 339.24 113.832C333.045 120.523 326.343 126.812 319.407 132.721C316.633 135.084 312.538 139.741 308.796 140.332C305.16 140.906 302.398 145.353 298.796 146.554C296.249 147.403 294.135 149.002 291.796 150.11C288.599 151.624 282.769 152.616 279.296 153.388C274.379 154.48 269.236 157.556 264.796 159.776C261.975 161.187 254.838 161.332 251.796 161.332" stroke="#C72626" strokeWidth="1" strokeLinecap="round"/>
</svg>
