<svg width="130" height="63" viewBox="0 0 130 63" fill="none" xmlns="http://www.w3.org/2000/svg">
<path d="M129.378 52.6292C128.947 52.2174 128.362 51.9649 127.885 51.6062C127.254 51.1412 126.777 50.5965 126.038 50.2378C125.453 49.9455 124.807 49.7595 124.237 49.4274C123.606 49.0554 123.036 48.6037 122.405 48.2449C121.081 47.5009 119.588 47.0094 118.141 46.4647C117.864 46.3584 117.587 46.2521 117.295 46.1325C117.202 46.0661 117.095 46.0129 116.956 45.9997C115.956 45.6011 114.955 45.2025 113.908 44.8969C112.354 44.4319 110.707 44.0998 109.09 43.8739C108.305 43.7677 107.505 43.7411 106.72 43.5949C105.95 43.4621 105.242 43.2761 104.457 43.2628C102.779 43.2362 101.102 43.2894 99.4237 43.2761C98.5925 43.2628 97.7613 43.2495 96.9455 43.3292C96.0835 43.4222 95.2523 43.6481 94.3749 43.6747C93.5744 43.7012 92.7894 43.6215 91.989 43.6879C91.1116 43.7544 90.2496 43.8607 89.3722 43.9138C87.6482 44.0201 85.955 44.1928 84.2618 44.4452C82.584 44.6844 80.9215 44.9368 79.2591 45.2557C77.6121 45.5612 76.0112 45.9332 74.3334 46.0927C71.0239 46.3982 67.6837 46.8234 64.405 47.3415C62.7733 47.6072 61.1879 48.2582 59.5255 48.3512C57.8476 48.4309 56.2006 48.2715 54.5228 48.4708C52.9065 48.6568 51.2749 48.8561 49.674 49.1218C48.1655 49.3742 46.7802 49.9721 45.518 50.7028C44.2557 51.4335 43.1013 52.2971 42.0238 53.2138C41.9314 53.2935 41.8698 53.3732 41.8391 53.4529C41.3157 53.7319 41.208 54.5025 41.8545 54.7284C42.424 56.3492 44.4712 57.4785 46.0567 58.2889C47.1034 58.8204 48.2117 59.2322 49.3046 59.6839C50.6746 60.2419 51.8752 61.0657 53.2759 61.5572C54.7844 62.0887 56.4777 62.2481 58.0939 62.1418C58.8174 62.1019 59.5101 61.9558 60.2181 61.8628C61.1109 61.7432 62.0499 61.7964 62.9581 61.7698C64.6205 61.7299 66.3137 61.6369 67.9608 61.8495C68.7304 61.9425 69.4846 62.1019 70.2697 62.1285C71.1317 62.1551 71.9936 62.1285 72.8556 62.1285C74.5335 62.1285 76.1343 62.0355 77.7814 61.7964C79.413 61.5705 81.0446 61.3978 82.7071 61.4111C84.4003 61.4244 86.0781 61.5705 87.7714 61.4908C89.4492 61.4111 91.127 61.1188 92.7894 60.9062C96.3144 60.4412 99.7932 60.1489 103.364 60.1091C105.058 60.0958 106.735 59.8965 108.429 59.8168C110.106 59.7371 111.784 59.8035 113.462 59.6175C116.895 59.2455 120.296 58.5015 123.606 57.6778C125.13 57.2925 126.684 56.7611 128.024 56.0171C129.317 55.2864 130.717 53.9312 129.378 52.6292ZM116.925 57.6247C116.402 57.7177 115.879 57.8107 115.355 57.8904C115.34 57.7309 115.217 57.5848 114.986 57.5848C114.509 57.5981 114.093 57.7442 113.616 57.7575C113 57.7708 112.415 57.6911 111.83 57.5317C110.691 57.2394 109.645 56.7079 108.721 56.0437C108.336 55.7647 107.797 56.2429 108.182 56.5087C109.137 57.1995 110.199 57.7442 111.384 58.0897C111.615 58.1561 111.846 58.2092 112.092 58.2624C111.399 58.3022 110.707 58.3155 109.999 58.3288C110.091 58.1295 109.968 57.8638 109.66 57.8638C107.982 57.9037 106.258 56.9338 105.519 55.6584C105.304 55.2731 104.627 55.6052 104.857 55.9905C105.504 57.1065 106.797 58.0099 108.213 58.3687C107.89 58.3819 107.567 58.3952 107.243 58.4218C106.843 58.4484 106.458 58.4749 106.058 58.4882C105.627 58.2889 105.227 58.0232 104.842 57.7575C104.503 57.5184 104.196 57.2527 103.903 56.9737C103.641 56.7345 103.026 56.3227 102.995 55.9772C102.949 55.5521 102.179 55.5521 102.225 55.9772C102.333 56.8275 103.503 57.6247 104.211 58.1428C104.396 58.2757 104.58 58.4085 104.78 58.5414C104.349 58.5547 103.934 58.5679 103.503 58.5812C101.671 58.3819 100.624 57.0401 99.6854 55.8045C99.4237 55.4458 98.7464 55.7779 99.0235 56.1367C99.593 56.8939 100.116 57.7309 100.963 58.2889C101.163 58.4085 101.363 58.5281 101.579 58.6477C101.179 58.6609 100.794 58.6742 100.393 58.6875C100.378 58.6211 100.317 58.5547 100.24 58.5015C99.9625 58.3421 99.6854 58.3022 99.3622 58.2225C98.9004 58.1162 98.5156 57.9435 98.1615 57.6645C97.515 57.1597 97.1456 56.4555 96.7762 55.7912C96.5607 55.4059 95.8988 55.7381 96.1143 56.1234C96.5299 56.8408 96.9301 57.5848 97.6228 58.1295C97.9152 58.3554 98.2231 58.5414 98.5771 58.6875C98.6541 58.7141 98.7464 58.7407 98.8388 58.7672C98.5155 58.7938 98.1923 58.8071 97.869 58.8337C97.3611 58.5015 96.7608 58.3022 96.222 57.9834C95.4678 57.5449 95.2061 56.8807 94.6365 56.3094C94.3133 55.9905 93.7745 56.4555 94.0978 56.7744C94.6365 57.3058 94.8828 57.9169 95.5447 58.3687C95.8834 58.5945 96.2682 58.7672 96.653 58.9399C96.0219 59.0064 95.3754 59.0728 94.7443 59.1525C93.5437 58.9532 92.343 57.6114 91.7889 56.8142C91.5272 56.4555 90.8653 56.7877 91.127 57.1464C91.6196 57.8372 92.42 58.7539 93.3743 59.3119C93.1896 59.3385 92.9895 59.3651 92.8048 59.3784C92.5739 59.4049 92.343 59.4448 92.1121 59.4714C91.7273 59.3119 91.2963 59.3252 90.9115 59.1392C90.542 58.9665 90.265 58.6477 89.9725 58.4085C89.4954 57.9967 88.7103 57.4652 88.7565 56.8142C88.8027 56.3891 88.033 56.3891 87.9868 56.8142C87.9099 57.5715 88.6179 58.1694 89.1875 58.6742C89.5261 58.9665 89.8648 59.2987 90.2496 59.5511C90.3419 59.6042 90.4189 59.6574 90.5113 59.6972C90.2188 59.7371 89.911 59.7769 89.6185 59.8168L89.6031 59.8035C89.2644 59.6175 88.8643 59.5644 88.5102 59.3917C88.0792 59.1791 87.7098 58.8868 87.3558 58.5945C86.6785 58.0365 86.0165 57.3855 85.8318 56.5751C85.7395 56.1499 84.9852 56.3359 85.093 56.7478C85.2931 57.5981 85.955 58.3155 86.6631 58.9267C87.0325 59.2322 87.4173 59.5378 87.8329 59.7902C87.9407 59.8567 88.0484 59.8965 88.1562 59.9497C88.0946 59.9497 88.0176 59.9629 87.9561 59.9629C87.7098 59.9762 87.4635 59.9762 87.2172 59.9895C87.2634 59.8035 87.1402 59.5909 86.8631 59.6042C85.0622 59.7238 83.8154 57.9037 83.4459 56.5751C83.3382 56.1632 82.5839 56.3359 82.7071 56.7478C83.0303 57.9169 83.9385 59.3385 85.2623 59.9497C84.6774 59.9231 84.0925 59.9098 83.5075 59.8832C82.507 59.1791 81.3371 58.2889 81.3833 57.0932C81.3987 56.6681 80.6291 56.6681 80.6137 57.0932C80.5675 58.2358 81.3987 59.1259 82.3223 59.8699C81.999 59.8699 81.6758 59.8832 81.3371 59.8965C80.3674 59.0994 79.0436 58.1694 79.1359 56.9338C79.1667 56.5087 78.3971 56.5087 78.3663 56.9338C78.2739 58.1694 79.3207 59.1259 80.3058 59.9629C80.1519 59.9762 79.998 59.9895 79.844 60.0028C79.6285 59.9098 79.4284 59.9098 79.1821 59.8434C78.705 59.7105 78.4279 59.3119 78.1354 58.9798C77.5505 58.2757 77.0118 57.5184 76.8886 56.6415C76.827 56.2164 76.0574 56.2164 76.119 56.6415C76.2575 57.6512 76.7808 58.5015 77.4735 59.3119C77.7198 59.6042 77.9661 59.9231 78.2893 60.1622C78.0277 60.1888 77.7814 60.2287 77.5197 60.2552C77.1964 60.1224 76.8424 60.0559 76.5346 59.8965C76.0266 59.6441 75.5648 59.2455 75.1954 58.8469C74.6413 58.2358 74.0717 57.4254 74.1333 56.6282C74.1641 56.2031 73.3944 56.2031 73.3636 56.6282C73.2867 57.5449 73.9024 58.4484 74.5027 59.1525C74.8414 59.5378 75.2262 59.8699 75.6725 60.1622C75.8265 60.2552 75.9804 60.3349 76.1343 60.4147C75.9034 60.4412 75.6725 60.4678 75.4417 60.4811C75.3955 60.4147 75.3339 60.3482 75.2262 60.3217C74.2872 60.0294 73.4252 59.8567 72.8249 59.0861C72.3015 58.4085 71.9629 57.6247 71.5011 56.9072C71.2548 56.5352 70.5929 56.8674 70.8392 57.2394C71.3934 58.0897 71.7628 59.0728 72.517 59.8168C72.8557 60.1622 73.2867 60.3748 73.7484 60.5475C73.4098 60.5475 73.0712 60.5608 72.7325 60.5608C72.6864 60.4279 72.5786 60.3217 72.3939 60.2951C72.1014 60.2685 71.8397 60.0294 71.6089 59.8965C71.224 59.6839 70.8392 59.5112 70.5006 59.2455C69.9003 58.7805 69.2845 58.0764 69.3461 57.3589C69.3769 56.9338 68.6073 56.9338 68.5765 57.3589C68.4995 58.2358 69.1614 59.0595 69.8695 59.6441C70.2389 59.9497 70.6853 60.1755 71.1163 60.4147C71.2086 60.4678 71.301 60.5209 71.3933 60.5741C70.6545 60.5741 69.9156 60.5342 69.1922 60.4412C69.0998 60.4279 69.0228 60.4147 68.9305 60.4014C68.1608 59.5112 67.8838 58.3421 67.5913 57.2792C67.4836 56.8674 66.7293 57.0401 66.8524 57.4519C67.1141 58.4085 67.3758 59.4182 67.9299 60.2818C67.6837 60.2552 67.4528 60.2419 67.2065 60.2154C66.3753 59.0994 65.344 58.0897 64.836 56.8142C64.6821 56.4157 63.9278 56.5884 64.0971 56.9869C64.5743 58.1694 65.4363 59.1392 66.2521 60.1489C65.8519 60.1357 65.4671 60.1224 65.0669 60.1224C64.5435 59.7504 64.0202 59.3917 63.6508 58.9134C63.1274 58.2358 62.9119 57.4121 62.6194 56.6548C62.4655 56.2562 61.7113 56.4289 61.8806 56.8275C62.2038 57.6379 62.4501 58.5148 63.0042 59.2455C63.2659 59.5909 63.5892 59.8699 63.9278 60.1357C63.7123 60.1357 63.4968 60.1357 63.2967 60.1357C63.035 59.8567 62.7887 59.5511 62.6656 59.4049C61.8498 58.4749 61.2341 57.4387 60.7569 56.3492C60.5876 55.9507 59.8333 56.1234 60.018 56.5219C60.5568 57.7442 61.2495 58.8868 62.173 59.9231C62.2346 59.9895 62.2962 60.0692 62.3731 60.1357C62.0345 60.1357 61.6958 60.1489 61.3572 60.1622C60.9108 59.7238 60.5106 59.2588 60.2027 58.7407C59.7102 57.9302 59.4023 57.0534 59.0483 56.2031C58.8789 55.8045 58.1401 55.9772 58.3094 56.3758C58.6942 57.2792 59.0175 58.2225 59.5408 59.0728C59.7871 59.4847 60.095 59.8699 60.4183 60.2287C60.2335 60.2419 60.0334 60.2685 59.8487 60.2951C59.8179 60.2951 59.8025 60.3084 59.7717 60.3084C59.7871 60.2287 59.7564 60.1357 59.6486 60.0559C58.9713 59.5777 58.3556 59.0994 57.9092 58.4351C57.432 57.7309 57.1242 56.9604 56.8163 56.1898C56.6624 55.7912 55.9081 55.9639 56.0774 56.3625C56.4007 57.1862 56.7393 58.0099 57.2473 58.7539C57.6937 59.4182 58.2786 59.9098 58.9405 60.3881C58.6481 60.4147 58.371 60.4412 58.0785 60.4678C58.0631 60.4545 58.0323 60.4412 58.017 60.4279C56.0313 59.4979 55.1539 57.7575 54.1995 56.0968C53.984 55.7115 53.3221 56.0437 53.5376 56.4289C54.3996 57.9435 55.2308 59.4581 56.7393 60.4944C56.4315 60.4811 56.1236 60.4545 55.8004 60.4279C55.8158 60.3217 55.7696 60.2021 55.6003 60.1357C54.5382 59.6972 53.63 59.0595 52.7988 58.3554C51.906 57.5848 51.4596 56.7611 50.9208 55.8045C50.7053 55.4192 50.0434 55.7514 50.2589 56.1367C50.8285 57.1597 51.3211 58.0099 52.26 58.8204C52.691 59.1924 53.1528 59.5511 53.63 59.8699C52.8296 59.5511 52.0907 59.1392 51.3211 58.7407C49.2738 57.6911 47.0265 57.0799 45.1485 55.7779C44.5174 55.3528 43.5631 54.6885 43.4861 53.9445V53.9312C45.5333 52.2307 47.9038 50.6098 50.7977 50.2909C52.3986 50.1182 53.9686 49.7994 55.5695 49.6665C57.1396 49.5337 58.725 49.7728 60.2951 49.5868C61.7882 49.4274 63.1736 48.8827 64.6513 48.6302C66.2214 48.3645 67.8068 48.1918 69.3923 47.9925C70.9777 47.7932 72.5324 47.5541 74.1333 47.4079C75.6879 47.2618 77.1657 47.0359 78.6742 46.7171C81.8143 46.0661 85.093 45.5081 88.3101 45.2822C89.911 45.1759 91.5426 44.9501 93.1281 44.9501C93.8361 44.9501 94.5596 44.9899 95.2677 44.9102C96.0989 44.8172 96.8993 44.6047 97.7459 44.5781C99.3776 44.5117 100.994 44.6312 102.625 44.6047C103.364 44.5914 104.103 44.5117 104.827 44.5515C105.55 44.5914 106.243 44.8305 106.982 44.9235C108.798 45.1228 110.553 45.4018 112.292 45.8137C112.169 45.8137 112.061 45.8269 111.938 45.8269C110.43 45.9199 108.967 46.2521 107.474 46.4248C105.827 46.6241 103.21 46.4248 102.872 48.3247C102.472 50.5965 104.811 52.0579 106.566 53.3201C108.644 54.8081 110.922 56.1499 113.585 56.6814C115.155 56.9869 116.818 57.0002 118.419 57.1729C117.849 57.4519 117.387 57.5449 116.925 57.6247ZM110.907 53.2935C109.952 52.8551 109.029 52.3901 108.09 51.9118C107.336 51.5265 106.443 51.0881 105.565 50.9552C105.55 50.9552 105.55 50.9552 105.535 50.9552C105.242 50.6895 104.981 50.3972 104.78 50.0784C104.811 50.0917 104.827 50.1049 104.857 50.1049C105.165 50.2245 105.489 50.3441 105.796 50.4637C106.551 50.7692 107.32 51.0615 108.059 51.3937C109.475 52.0181 110.722 52.8817 112.138 53.4928C113.508 54.0774 114.94 54.6487 116.233 55.3395C116.541 55.5122 116.848 55.6584 117.156 55.7779C116.695 55.7248 116.233 55.6849 115.771 55.6584C114.109 54.9542 112.554 54.0375 110.907 53.2935ZM113.585 55.3794C111.984 55.0074 110.491 54.3298 109.137 53.4928C108.552 53.1341 107.982 52.7355 107.413 52.3369C107.628 52.4432 107.844 52.5628 108.044 52.6691C109.013 53.1872 110.014 53.6257 111.015 54.1039C111.877 54.5025 112.723 54.9542 113.585 55.3794ZM124.083 56.0038C124.052 56.0038 124.022 56.0038 123.991 56.0038H123.729C123.729 56.0038 123.729 56.0038 123.714 56.0038C122.405 56.0038 121.081 56.0171 119.773 56.0038C119.311 55.8577 118.865 55.6717 118.403 55.5255C117.633 55.2864 117.002 54.9542 116.294 54.6088C114.924 53.9047 113.431 53.3732 112.03 52.7222C110.676 52.0845 109.46 51.2741 108.075 50.6762C107.32 50.3574 106.566 50.0518 105.812 49.7595C105.35 49.5868 104.888 49.3211 104.411 49.1617C104.396 49.0288 104.396 48.9092 104.426 48.8029C105.15 49.0022 105.735 49.4938 106.412 49.7861C107.197 50.1182 108.013 50.3972 108.844 50.6762C110.63 51.2741 112.4 51.8852 114.155 52.5229C115.909 53.1607 117.71 53.6788 119.465 54.3165C121.02 54.8878 122.544 55.5122 124.114 56.0171C124.098 55.9905 124.098 55.9905 124.083 56.0038ZM125.13 55.6451C125.084 55.6052 125.037 55.5654 124.976 55.5521C123.175 55.0207 121.466 54.3032 119.712 53.6655C117.941 53.0278 116.125 52.4964 114.355 51.8587C112.631 51.2342 110.907 50.6364 109.167 50.0518C108.259 49.7462 107.305 49.4539 106.443 49.0288C105.966 48.8029 105.55 48.4974 105.073 48.2848C105.812 48.1121 106.643 48.1387 107.397 48.0589C107.536 48.0457 107.674 48.0191 107.813 48.0058C108.151 48.1652 108.506 48.2981 108.844 48.4575C109.691 48.8295 110.507 49.2281 111.338 49.6267C113.016 50.4238 114.724 51.1678 116.448 51.8985C118.095 52.6027 119.712 53.3732 121.374 54.0508C122.097 54.3431 122.836 54.6619 123.591 54.9011C124.222 55.1004 124.899 55.2199 125.484 55.5122C125.376 55.5654 125.253 55.6052 125.13 55.6451ZM126.469 55.1004C126.407 55.1269 126.346 55.1535 126.3 55.1801C125.822 54.8745 125.268 54.6752 124.699 54.5158C123.821 54.2767 123.006 53.9711 122.174 53.6389C120.373 52.9215 118.634 52.0845 116.848 51.3272C115.078 50.5832 113.323 49.8259 111.615 49.0022C110.784 48.6037 109.952 48.2051 109.106 47.8331C109.752 47.7268 110.414 47.6205 111.076 47.5541C111.107 47.5674 111.122 47.5939 111.168 47.6072C114.093 48.8694 117.079 50.0385 120.066 51.1811C121.512 51.7258 122.882 52.3901 124.299 52.9747C125.022 53.2669 125.715 53.5858 126.438 53.8914C126.885 54.0774 127.346 54.2235 127.777 54.3962C127.377 54.6752 126.885 54.9011 126.469 55.1004ZM128.239 53.8382C127.808 53.6522 127.346 53.5061 126.9 53.3334C126.192 53.0411 125.499 52.7222 124.791 52.4299C123.329 51.8321 121.913 51.1545 120.42 50.5832C117.772 49.5735 115.109 48.5372 112.508 47.4345C113.308 47.4079 114.109 47.4212 114.924 47.4212C115.309 47.6737 115.833 47.8331 116.248 47.9792C117.279 48.3379 118.388 48.5904 119.327 49.1085C120.25 49.6134 121.22 49.9322 122.205 50.3441C122.621 50.5168 123.083 50.6364 123.467 50.8357C123.775 50.9951 123.945 51.1279 124.299 51.1147C124.591 51.2342 124.884 51.3538 125.161 51.4867C125.853 51.8321 126.315 52.4034 126.946 52.8285C127.316 53.0809 127.931 53.3068 128.178 53.6788C128.239 53.7452 128.255 53.7851 128.239 53.8382Z" fill="#40352F"/>
<path d="M95.1599 33.8166C95.0368 33.325 94.7751 32.8335 94.6058 32.3419C94.4365 31.8503 94.2364 31.372 93.8823 30.9602C93.0511 29.977 91.6504 29.4058 90.3574 28.9939C88.895 28.5422 87.3711 28.303 85.878 27.9709C84.2926 27.6122 82.6763 27.1472 81.1524 26.6025C80.4444 26.35 79.7825 26.0179 79.059 25.8053C78.2278 25.5662 77.335 25.3935 76.4884 25.2208C74.7952 24.862 73.0866 24.9152 71.3626 24.9683C69.6078 25.0215 67.8684 25.048 66.1136 25.0879C64.2511 25.1278 62.4963 24.9816 60.6645 24.676C58.9251 24.397 57.2781 24.3572 55.5079 24.3572C54.6767 24.3572 53.9532 24.1579 53.122 24.0383C52.1985 23.9055 51.2903 24.0516 50.3667 24.0118C49.5817 23.9852 48.8274 23.7195 48.0424 23.6663C47.673 23.6398 47.3035 23.6796 46.9341 23.6663C46.3954 23.653 45.9028 23.5335 45.3794 23.4538C43.7016 23.1615 41.993 22.9489 40.2844 23.002C38.4988 23.0552 36.6979 22.6965 34.9431 22.4573C33.1883 22.2315 31.4335 21.9392 29.6479 21.9658C28.7859 21.979 27.9085 22.0455 27.0465 21.9923C26.1845 21.9392 25.3533 21.6735 24.4759 21.6735C24.1373 21.6735 23.814 21.7266 23.4754 21.7C23.0136 21.6602 22.521 21.5273 22.0746 21.4343C21.2742 21.2616 20.4584 21.0623 19.6272 21.0092C18.8113 20.956 18.0417 20.9428 17.2413 20.8099C16.3793 20.6638 15.5327 20.6505 14.6553 20.6638C12.8543 20.6903 11.0687 20.7568 9.28318 20.9428C6.42011 21.2483 3.37231 21.9525 1.38663 23.9188C0.616991 24.676 0.185995 25.6326 0.832495 26.5626C0.940245 26.7221 1.15574 26.8549 1.37124 26.908C2.06392 27.8912 3.18759 28.4226 4.32667 28.9806C5.66584 29.6449 6.8357 30.5483 8.09792 31.3189C9.51406 32.1958 11.0226 32.9132 12.5773 33.5376C12.7158 33.6838 12.9159 33.7768 13.193 33.7768C14.5168 34.2949 15.8713 34.7466 17.2413 35.1983C20.6431 36.3143 24.1373 36.9919 27.693 37.6163C29.417 37.9219 31.141 38.1478 32.865 38.4533C34.6814 38.7722 36.467 39.1575 38.2833 39.4365C41.9622 39.9945 45.6565 40.5259 49.3508 41.0308C51.2133 41.2832 53.0913 41.416 54.9538 41.695C55.785 41.8146 56.6008 41.9608 57.432 42.0538C58.371 42.16 59.2792 42.1335 60.2181 42.1069C61.0955 42.0936 61.9729 42.1999 62.8503 42.2929C63.8047 42.3992 64.7744 42.439 65.7288 42.5188C67.499 42.6649 69.2383 43.1166 71.0085 43.1565C72.7325 43.1963 74.4873 42.8908 76.1651 42.625C77.8737 42.346 79.5516 42.0006 81.214 41.5622C82.8302 41.137 84.4465 40.6322 85.955 39.9679C86.6631 39.6623 87.3404 39.3169 88.0484 39.0113C88.8027 38.6925 89.5877 38.5198 90.3727 38.2806C91.0192 38.0813 91.5118 37.7625 92.0814 37.4436C92.6509 37.1248 93.282 36.8856 93.7592 36.4605C94.4826 35.8228 95.3908 34.72 95.1599 33.8166ZM15.5789 22.0986C16.3485 22.0986 17.0566 22.2713 17.8108 22.3776C17.8262 22.3776 17.8416 22.3776 17.857 22.3776C17.9186 22.4972 18.0417 22.5902 18.211 22.6699C19.1962 23.0818 20.2583 23.4139 21.2126 23.8922C22.1978 24.397 23.0906 25.1012 23.9064 25.7788C24.0757 25.9249 24.2604 26.0578 24.4298 26.2039C24.4144 26.1906 24.3836 26.1773 24.3682 26.1773C23.9372 25.9648 23.4446 25.8452 22.9982 25.6725C21.9053 25.234 20.8278 24.7558 19.7657 24.2775C18.1802 23.56 16.6256 22.8161 15.0555 22.1119C15.2248 22.0986 15.3941 22.0986 15.5789 22.0986ZM13.0698 22.1518C13.193 22.1518 13.3161 22.1385 13.4392 22.1385C15.6096 23.0818 17.7339 24.118 19.8889 25.0879C20.9664 25.5662 22.0439 26.0578 23.1521 26.4563C23.6447 26.629 24.0603 26.815 24.5067 27.0542C24.8608 27.2402 25.2148 27.3731 25.6458 27.3598C25.6766 27.3598 25.692 27.3598 25.7227 27.3465C25.7535 27.373 25.7843 27.4129 25.8305 27.4395C26.2615 27.8646 26.8002 28.4226 26.6309 28.9673C26.0922 28.8079 25.5226 28.489 25.0301 28.3163C24.2142 28.0373 23.4292 27.6653 22.6442 27.2933C21.1665 26.6025 19.658 26.0046 18.1341 25.3935C16.6564 24.7956 15.2402 24.1048 13.7471 23.5335C12.7004 23.1349 11.6845 22.6965 10.6685 22.2448C11.4844 22.2182 12.2694 22.1783 13.0698 22.1518ZM7.94399 22.5769C8.39038 22.5105 8.83678 22.4573 9.29857 22.4042C10.6993 23.0153 12.0847 23.6398 13.5162 24.1845C15.1325 24.8089 16.6717 25.5662 18.288 26.2039C19.8735 26.815 21.382 27.4926 22.9212 28.1968C23.6293 28.5289 24.3528 28.8079 25.107 29.0736C25.4918 29.2065 25.8613 29.3925 26.2307 29.5386C25.9536 29.7645 25.615 29.9239 25.261 30.0568C24.753 29.884 24.245 29.7379 23.7217 29.5785C22.7673 29.2862 21.9361 28.8478 21.0587 28.4226C19.3347 27.5856 17.4106 27.0276 15.6096 26.3235C13.8702 25.6459 12.177 24.9418 10.4068 24.3306C9.48327 24.0118 8.55972 23.6663 7.65154 23.2943C7.32829 23.1615 7.00503 23.0021 6.68178 22.8426C7.082 22.7363 7.49759 22.6433 7.94399 22.5769ZM5.71202 23.1482C6.32774 23.3873 6.92807 23.7195 7.513 23.9586C8.31343 24.2908 9.11385 24.583 9.92967 24.862C11.823 25.513 13.6393 26.257 15.4865 26.9745C17.2413 27.652 19.1192 28.1968 20.7816 29.0338C21.5205 29.3925 22.2132 29.7778 23.0136 30.0435C23.383 30.163 23.7679 30.2826 24.1373 30.3889C24.0911 30.4022 24.0449 30.4155 23.9834 30.442C23.7217 30.5218 23.46 30.6148 23.1983 30.6945C22.6904 30.4686 22.1208 30.2826 21.6282 30.0966C20.8124 29.791 19.9966 29.4722 19.1808 29.1799C18.2726 28.8478 17.426 28.4093 16.5178 28.0506C15.6712 27.7185 14.7938 27.4395 13.9318 27.1738C12.1001 26.629 10.3145 26.0046 8.49815 25.4466C7.55918 25.1543 6.60482 24.8753 5.68125 24.5432C5.1271 24.3439 4.58836 24.118 4.03422 23.932C4.57297 23.6265 5.12709 23.3608 5.71202 23.1482ZM3.23378 24.397C4.03421 24.583 4.78845 24.9152 5.55809 25.1942C6.37392 25.4865 7.20515 25.7389 8.03636 25.9913C9.85272 26.5493 11.6537 27.1738 13.47 27.7185C14.4244 27.9975 15.3634 28.2898 16.2715 28.6618C17.072 28.9806 17.8108 29.3925 18.6112 29.6848C19.4579 29.9903 20.3198 30.3092 21.1665 30.628C21.4897 30.7476 21.8438 30.8672 22.1978 31.0133C21.6744 31.1861 21.1511 31.3455 20.6123 31.5049C20.3045 31.5979 20.012 31.6776 19.7041 31.7706C19.6887 31.744 19.658 31.7042 19.6272 31.6776C19.1962 31.3455 18.7036 31.1595 18.1495 31.0133C17.4106 30.8141 16.7179 30.6015 16.0252 30.3225C14.5629 29.7379 13.2391 29.0072 11.746 28.5023C11.038 28.2632 10.4223 27.8912 9.72957 27.6388C8.95993 27.3598 8.17488 27.0941 7.40524 26.8283C5.78899 26.2438 4.00342 25.7788 2.46413 25.048C2.66424 24.8222 2.95671 24.5963 3.23378 24.397ZM13.5624 32.3153C13.47 32.2755 13.3623 32.2356 13.2699 32.2091C11.823 31.6643 10.4838 30.9735 9.20621 30.1896C8.99071 30.0568 8.7752 29.9239 8.5597 29.7778C8.63667 29.8043 8.69824 29.8442 8.77521 29.8708C9.6526 30.2295 10.5916 30.3756 11.4998 30.6679C12.5311 31 13.5316 31.372 14.5475 31.7175C14.9939 31.8636 15.4403 31.9832 15.8867 32.1293C16.0406 32.1825 16.3023 32.2489 16.564 32.3153C15.5788 32.3685 14.5629 32.3286 13.5624 32.3153ZM16.8257 31.7441C16.3793 31.6245 15.9483 31.4518 15.5019 31.3189C14.3166 30.9735 13.1776 30.5616 12.0385 30.1498C11.0226 29.7911 9.92967 29.6316 8.94452 29.2065C8.02095 28.8079 7.15896 28.3296 6.12764 28.1436C6.09686 28.1436 6.05067 28.1303 6.01988 28.1436C5.88134 28.0639 5.72743 27.9842 5.58889 27.9045C4.58836 27.3863 3.44928 27.001 2.83357 26.1109C2.83357 26.0578 2.83357 26.0046 2.83357 25.9648C3.98803 26.4298 5.23485 26.7752 6.38931 27.2003C7.18974 27.4926 7.99017 27.7716 8.79059 28.0506C9.56024 28.3163 10.2529 28.6618 10.9918 28.9673C11.6537 29.233 12.3464 29.419 12.9929 29.7113C13.7163 30.0302 14.3936 30.4155 15.1325 30.721C15.7482 30.9735 16.3639 31.2392 17.0104 31.4385C17.6107 31.6245 18.288 31.7042 18.8421 32.0098C18.5035 32.0895 18.1649 32.1559 17.8262 32.2091C17.8108 32.1958 17.8108 32.1825 17.7954 32.1692C17.503 31.8902 17.2105 31.8503 16.8257 31.7441ZM93.4205 34.3348C93.0203 35.3445 92.0044 35.743 91.0654 36.301C90.4959 36.6465 90.0187 36.8723 89.3568 37.045C88.618 37.231 87.9253 37.4702 87.2326 37.7625C85.8319 38.3603 84.5235 39.0113 83.0611 39.4896C81.1062 40.1273 79.1052 40.6189 77.0733 41.0042C77.1349 40.951 77.1965 40.9112 77.258 40.858C77.9815 40.2469 78.197 39.4099 78.6742 38.6659C78.9205 38.2939 78.2432 37.9618 78.0123 38.3338C77.5659 39.0246 77.3658 39.835 76.7039 40.393C76.2575 40.7783 75.7495 41.0706 75.1954 41.323C74.6259 41.416 74.0563 41.4958 73.5022 41.5622C73.0404 41.6153 72.594 41.6552 72.163 41.6685C73.1327 41.044 73.7792 40.0211 74.3642 39.1176C74.6105 38.7456 73.9486 38.4135 73.7023 38.7855C72.9788 39.9015 72.1014 41.4692 70.4236 41.5888C70.3774 41.5888 70.3312 41.602 70.2851 41.6153C69.8233 41.5755 69.3461 41.5223 68.8535 41.4559C69.2076 41.23 69.5308 40.9378 69.8387 40.672C70.5006 40.1008 71.1317 39.4896 71.1471 38.6526C71.1625 38.2275 70.3928 38.2275 70.3774 38.6526C70.362 39.3036 69.7925 39.7819 69.2999 40.207C68.8535 40.5923 68.361 41.1636 67.6683 41.137C67.5143 41.137 67.422 41.1902 67.3604 41.2699C66.8986 41.2168 66.4523 41.1769 65.9905 41.137C66.2521 40.9643 66.483 40.7518 66.6985 40.486C67.2065 39.9015 67.6991 39.2505 67.6991 38.4932C67.6991 38.068 66.9294 38.068 66.9294 38.4932C66.9294 39.0246 66.5754 39.4896 66.2214 39.9148C65.8981 40.3266 65.5287 40.7783 64.8976 40.8448C64.7436 40.8581 64.6359 40.9378 64.5743 41.0308C64.1895 41.0042 63.8047 40.9643 63.4045 40.9245C63.3737 40.9245 63.3583 40.9245 63.3275 40.9112C63.62 40.5658 63.897 40.207 64.1279 39.8616C64.4973 39.3435 65.1439 38.4002 64.3742 37.9219C63.974 37.6695 63.5892 38.2408 63.9894 38.4932C64.1895 38.626 63.1428 39.9546 63.0196 40.1141C62.8349 40.3532 62.6348 40.579 62.4347 40.8182C61.9883 40.765 61.5265 40.7119 61.0801 40.6853C60.8646 40.672 60.6491 40.672 60.4336 40.672C60.6645 40.4462 60.8646 40.207 61.0493 39.9546C61.4957 39.3568 61.7266 38.6659 61.9729 38.0016C62.1268 37.5898 61.388 37.417 61.2341 37.8289C61.0032 38.44 60.8031 39.0778 60.3874 39.6225C60.095 40.0078 59.741 40.3665 59.3561 40.7119C59.0329 40.7252 58.7096 40.7252 58.3864 40.7119C58.0477 40.6986 57.7091 40.6588 57.3705 40.6322C57.7245 40.393 58.0478 40.1406 58.294 39.7952C58.7558 39.1442 58.9713 38.3736 59.0637 37.6296C59.1099 37.2045 58.3402 37.2045 58.294 37.6296C58.2017 38.347 57.9708 39.1575 57.432 39.7155C57.1242 40.0211 56.724 40.2602 56.3392 40.486C55.708 40.393 55.0769 40.2868 54.4304 40.1938C54.7075 39.9679 54.9538 39.6889 55.1539 39.4232C55.6618 38.7589 56.2006 38.0016 56.139 37.1779C56.1083 36.7528 55.3386 36.7528 55.3694 37.1779C55.4156 37.8023 55 38.3603 54.6459 38.8785C54.3689 39.2638 53.9378 39.9413 53.3529 39.9679C53.2606 39.9679 53.1836 39.9945 53.1374 40.0343C52.9219 40.0078 52.7218 39.9945 52.5063 39.9679C53.2913 39.3169 53.9071 38.5065 54.0764 37.5632C54.1534 37.1513 53.4145 36.9653 53.3375 37.3905C53.1528 38.4135 52.414 39.2372 51.5058 39.8616C51.0132 39.8085 50.536 39.742 50.0435 39.6889C50.1512 39.5826 50.259 39.4763 50.3667 39.37C50.8131 38.8785 50.9362 38.1876 51.398 37.7226C51.7213 37.4038 51.1825 36.9255 50.8593 37.2576C50.4591 37.6562 50.3359 38.1478 50.0435 38.5995C49.7972 38.9715 49.4585 39.2903 49.0891 39.5693C48.4888 39.4896 47.8885 39.4099 47.2881 39.3169C47.3035 39.3036 47.3189 39.2903 47.3343 39.277C47.9039 38.7589 48.6273 38.1743 48.7659 37.4436C48.8428 37.0318 48.104 36.8458 48.027 37.2709C47.9192 37.8688 47.3189 38.347 46.8571 38.7589C46.7032 38.905 46.5339 39.0512 46.3646 39.1973C45.5488 39.0778 44.7483 38.9582 43.9325 38.8386C44.6406 38.3205 45.2563 37.696 45.6257 36.9388C45.8258 36.5535 45.1485 36.208 44.9638 36.6066C44.5328 37.4835 43.7786 38.161 42.9012 38.6925C42.8704 38.6925 42.8396 38.6792 42.7934 38.6792C42.347 38.6128 41.916 38.5596 41.4696 38.4932C42.1931 37.8156 42.6703 37.0318 42.7473 36.0353C42.778 35.6102 42.0084 35.6102 41.9776 36.0353C41.9006 37.0185 41.3311 37.7359 40.5307 38.3736C40.0073 38.2939 39.484 38.2275 38.9606 38.1478C39.1607 37.975 39.3454 37.8023 39.4993 37.6296C39.9765 37.138 40.269 36.58 40.4999 35.9822C40.6538 35.5703 39.915 35.3976 39.761 35.8095C39.5763 36.301 39.3454 36.766 38.9606 37.1646C38.6989 37.4436 38.3449 37.8023 37.9447 37.9883C37.8215 37.9618 37.6984 37.9485 37.5906 37.9219C37.0981 37.8422 36.6209 37.7492 36.1283 37.6562C36.2976 37.4835 36.4823 37.3108 36.6517 37.138C37.2828 36.5003 37.2982 35.8493 37.5752 35.0788C37.7292 34.6669 36.9749 34.4942 36.8364 34.906C36.6363 35.464 36.6517 36.0486 36.2361 36.5269C36.0206 36.7793 35.7435 37.0052 35.4972 37.2443C35.4664 37.2709 35.3741 37.3772 35.2817 37.4968C34.6814 37.3772 34.0811 37.2709 33.4654 37.1646C33.6501 37.0318 33.8194 36.8856 33.9733 36.7528C34.5583 36.2612 35.02 35.7298 35.3433 35.092C35.528 34.6935 34.7891 34.5208 34.6044 34.9193C34.3428 35.4508 33.9118 35.8892 33.4346 36.2878C33.1267 36.5402 32.7881 36.8458 32.3879 36.9919C32.003 36.9255 31.6028 36.8723 31.218 36.8059C31.8645 36.3276 32.3571 35.6899 32.8958 35.0256C33.1729 34.6802 32.511 34.348 32.2339 34.6935C31.6028 35.464 31.0641 36.2213 30.1559 36.6332C29.5864 36.5402 29.0168 36.4605 28.4473 36.3675C29.2015 35.9556 29.7711 35.3046 30.3098 34.5872C30.5869 34.2285 29.9096 33.8963 29.6479 34.255C28.986 35.1186 28.3087 35.9556 27.0773 36.1416C26.5694 36.0619 26.0768 35.9689 25.5842 35.8759C26.9696 35.6102 28.0009 34.7068 28.7705 33.697C29.0476 33.3383 28.3703 33.0062 28.1086 33.3649C27.4313 34.255 26.4616 35.1585 25.1686 35.278C24.8761 35.3046 24.753 35.557 24.8146 35.743C24.1527 35.6235 23.5062 35.4906 22.8597 35.3445C23.3522 35.1718 23.8294 34.9592 24.2604 34.7466C25.107 34.3348 25.7843 33.79 26.3539 33.1125C26.6463 32.767 25.9844 32.4349 25.692 32.7803C25.1994 33.3649 24.5991 33.8299 23.8756 34.1753C23.1367 34.534 22.244 34.9459 21.382 34.9858C20.0582 34.6403 18.7344 34.255 17.4414 33.8166C17.5337 33.8033 17.6261 33.8033 17.7185 33.79C19.1346 33.604 20.5046 33.1922 21.8437 32.7803C23.1675 32.3818 24.4913 31.9699 25.7843 31.5182C26.6925 31.1993 27.5853 30.6945 28.0625 29.9372C29.1708 28.1303 26.985 26.4696 25.6304 25.3403C24.7222 24.5698 23.7679 23.8258 22.7365 23.1615C23.3676 23.2545 23.9526 23.2146 24.5991 23.2279C25.4149 23.2412 26.2307 23.4936 27.0465 23.5468C28.7244 23.653 30.3714 23.467 32.0492 23.653C33.727 23.8523 35.4049 24.0782 37.0827 24.3041C37.8677 24.4103 38.6681 24.5432 39.4532 24.5698C40.2998 24.5963 41.131 24.49 41.9776 24.5565C43.5477 24.6893 45.087 25.1278 46.657 25.2208C47.0726 25.2473 47.4883 25.1942 47.9039 25.2208C48.3195 25.2473 48.7043 25.3403 49.1045 25.42C49.9049 25.5662 50.6746 25.5662 51.4904 25.5396C52.26 25.513 52.9065 25.5928 53.6608 25.7389C54.4612 25.8983 55.2616 25.9116 56.0774 25.9116C57.8476 25.885 59.4639 26.071 61.1879 26.35C62.8042 26.6025 64.4358 26.6822 66.0828 26.6423C67.7298 26.6025 69.3923 26.5759 71.0393 26.536C72.7018 26.4829 74.3642 26.3766 75.9958 26.7353C76.6885 26.8815 77.3812 27.0542 78.0739 27.2003C78.8281 27.373 79.5054 27.6919 80.2135 27.9576C81.722 28.5289 83.3382 28.9806 84.9083 29.3792C86.2321 29.7113 87.602 29.9239 88.9258 30.256C90.1419 30.5616 91.6965 31.0133 92.4662 31.9433C92.774 32.3021 92.8818 32.7538 93.0203 33.1789C93.205 33.4579 93.5745 33.9362 93.4205 34.3348Z" fill="#40352F"/>
<path d="M123.006 9.67651C122.636 8.34794 120.912 8.6668 119.696 8.60037C118.757 8.56052 117.849 8.38781 116.925 8.30809C115.894 8.21509 114.863 8.29481 113.831 8.29481C112.862 8.3081 111.923 8.17523 110.968 8.12209C109.891 8.05566 108.829 8.04237 107.751 8.00252C105.689 7.9228 103.595 7.73681 101.548 7.49767C99.5777 7.27181 97.6382 6.87324 95.6525 6.70053C93.6206 6.5411 91.635 6.40824 89.6185 6.11595C87.6328 5.83695 85.6625 5.6111 83.6461 5.57124C82.6763 5.54467 81.7527 5.46495 80.783 5.34537C79.7363 5.21252 78.7203 5.35867 77.6736 5.31881C76.7808 5.29224 75.9496 4.99995 75.0568 4.93352C74.0563 4.86709 73.0558 4.99995 72.0399 4.9468C70.085 4.84052 68.1762 4.50837 66.2214 4.2958C65.2362 4.18951 64.2511 4.10981 63.2659 4.00352C62.2038 3.88395 61.1109 3.89723 60.0642 3.69794C58.1863 3.35251 56.4161 2.68824 54.5536 2.2631C53.6146 2.03724 52.6448 1.8778 51.7213 1.62537C50.8901 1.39952 50.0742 1.13381 49.2122 1.01423C48.3195 0.256949 46.9649 0.575803 45.949 0.961088C44.7329 1.4128 43.5785 2.02395 42.4086 2.55537C40.7 3.32595 38.8836 4.06995 37.3443 5.06638C36.0359 5.92995 34.9584 6.99281 33.9579 8.12209C33.4807 8.66681 33.0036 9.21153 32.5264 9.75624C32.2801 10.0352 32.0338 10.3009 31.7875 10.5799C31.5874 10.7925 31.2642 11.0449 31.0795 11.3107C31.0795 11.3107 31.0795 11.3107 31.0795 11.3239C31.0333 11.3904 31.0025 11.4568 30.9717 11.5232C30.6331 12.6525 32.6803 13.0378 33.5269 13.2637C35.3125 13.7287 37.1596 13.9545 38.976 14.3132C41.0079 14.7118 42.9935 15.2964 45.0254 15.6551C46.9957 16.0138 49.0429 16.1068 51.0286 16.3991C55.0769 16.9704 59.0945 17.7277 63.1428 18.3122C65.1592 18.6045 67.2065 18.6709 69.2383 18.9499C71.2548 19.2289 73.2559 19.6142 75.2724 19.8799C79.3976 20.4379 83.5229 20.9428 87.6636 21.4344C91.7735 21.9259 95.8064 22.6434 99.9779 22.7497C101.579 22.7895 103.18 23.2014 104.78 23.1482C105.504 23.1349 106.227 23.0021 106.874 22.7098C107.674 22.3511 108.244 21.7399 108.937 21.2749C110.291 20.3582 111.846 19.6807 113.2 18.7639C113.862 18.3122 114.386 17.7409 115.063 17.3025C115.802 16.8242 116.602 16.439 117.326 15.9474C118.696 15.0041 120.004 14.0077 121.266 12.9581C122.282 12.1211 123.36 10.9785 123.006 9.67651ZM46.4723 2.36937C46.8263 2.22323 47.4267 1.94423 47.8269 2.02395C47.9192 2.03723 47.9808 2.0771 48.027 2.11696C48.0424 2.14353 48.0578 2.1568 48.0732 2.17009C48.2579 2.48894 47.8269 3.19309 47.5652 3.56509C47.3189 3.4588 47.0726 3.36581 46.8571 3.27281C46.4723 3.10009 46.0413 2.92738 45.6411 2.7281C45.9028 2.60852 46.1798 2.47566 46.4723 2.36937ZM44.8868 3.10009C45.2871 3.31266 45.7181 3.48537 46.1183 3.68466C46.3799 3.81752 46.8417 3.9371 47.165 4.10981C46.9649 4.36224 46.734 4.60138 46.4877 4.84053C46.2876 4.74753 46.0567 4.68109 45.8566 4.60138C45.1331 4.33566 44.4712 3.99024 43.8709 3.57838C44.2096 3.41896 44.5482 3.25951 44.8868 3.10009ZM43.1321 3.91053C43.64 4.26924 44.1634 4.60137 44.7483 4.88037C45.0254 4.99995 45.5641 5.13281 45.9643 5.31881C45.6103 5.62438 45.2409 5.90338 44.8561 6.19566C44.8407 6.19566 44.8407 6.20895 44.8407 6.20895C44.6406 6.08937 44.4559 5.8768 44.2865 5.75723C43.9941 5.55794 43.6554 5.39853 43.3322 5.2391C42.8396 4.99996 42.3316 4.76081 41.8237 4.52167C42.2393 4.3091 42.6857 4.10981 43.1321 3.91053ZM40.9925 4.89366C41.7159 5.2258 42.4394 5.55795 43.1475 5.91667C43.5169 6.10267 43.8247 6.28866 44.1326 6.55437C44.1634 6.58094 44.2096 6.60752 44.2403 6.64738C43.9941 6.82009 43.7478 6.97952 43.5015 7.13895C42.8242 6.67395 42.1007 6.31524 41.3773 5.90338C41.0079 5.69081 40.6692 5.4118 40.2998 5.2258C40.5153 5.10623 40.7616 4.99994 40.9925 4.89366ZM39.3762 5.66423C39.3916 5.66423 39.3916 5.66423 39.407 5.66423C40.0535 5.65095 40.7 6.31523 41.208 6.59423C41.7621 6.88652 42.3162 7.17881 42.8242 7.52423C42.5779 7.67038 42.3162 7.80323 42.0392 7.93609C41.1618 7.07252 39.8842 6.58094 38.7143 6.02294C38.9452 5.90337 39.1607 5.78381 39.3762 5.66423ZM37.6522 6.75366C37.7753 6.64737 37.9139 6.55438 38.0524 6.46138C39.1761 7.01938 40.4537 7.47109 41.3619 8.26823C41.3311 8.28152 41.3157 8.29481 41.2849 8.30809C40.8539 8.49409 40.4075 8.65351 39.9611 8.81294C39.6687 8.78637 39.3762 8.50738 39.1299 8.36124C38.8221 8.18853 38.5142 8.04237 38.2064 7.88294C37.8215 7.67037 37.4675 7.43123 37.0981 7.21866C37.2828 7.04594 37.4521 6.8998 37.6522 6.75366ZM36.5593 7.69696C37.0827 7.98924 37.5906 8.33466 38.1294 8.61366C38.4219 8.7598 38.6989 8.95909 39.0068 9.1318C38.7913 9.19823 38.5912 9.26466 38.3757 9.34437C37.6214 8.93251 36.744 8.6801 36.0206 8.22838C36.2053 8.04238 36.3746 7.86967 36.5593 7.69696ZM35.5434 8.73323C36.1437 9.09195 36.8364 9.33109 37.4829 9.63667C37.2828 9.70309 37.0673 9.76952 36.8672 9.83595C36.6363 9.91567 36.4054 9.98209 36.1745 10.0618C36.0052 9.9688 35.8359 9.84923 35.6819 9.78281C35.4818 9.68981 35.1432 9.57023 34.9584 9.39752C35.1432 9.17166 35.3433 8.9458 35.5434 8.73323ZM34.4967 9.90238C34.7122 10.0618 34.9739 10.1947 35.2047 10.301C35.2201 10.3142 35.2509 10.3275 35.2663 10.3275C34.7737 10.4737 34.2812 10.6065 33.7732 10.7128C34.0195 10.4604 34.2658 10.1814 34.4967 9.90238ZM121.359 10.3275C121.328 10.5534 121.189 10.7527 121.066 10.9387C120.512 11.6959 119.635 12.2539 118.896 12.8518C117.864 13.6755 116.818 14.5125 115.663 15.2167C115.155 15.5355 114.601 15.7879 114.109 16.0935C113.601 16.4124 113.216 16.7977 112.754 17.1697C111.846 17.9004 110.768 18.4584 109.737 19.0297C108.69 19.6009 107.72 20.2254 106.812 20.9428C106.258 21.3812 105.642 21.5938 104.981 21.6602C105.519 20.9694 105.92 20.2121 106.227 19.4017C106.381 18.9898 105.642 18.8171 105.489 19.2289C105.134 20.1324 104.673 20.9428 104.026 21.6735C103.918 21.6602 103.795 21.6602 103.688 21.647C103.18 21.5938 102.687 21.5274 102.179 21.461C102.271 21.3812 102.379 21.2882 102.472 21.2085C102.979 20.7701 103.441 20.2519 103.503 19.6142C103.534 19.1891 102.764 19.1891 102.733 19.6142C102.702 20.0925 102.225 20.4911 101.856 20.8099C101.656 20.9827 101.425 21.2085 101.179 21.3547C100.886 21.3281 100.578 21.3015 100.27 21.3015C99.7778 21.2882 99.2852 21.275 98.7926 21.2617C99.3006 20.717 99.6239 20.0394 99.7008 19.322C99.747 18.8968 98.9774 18.8968 98.9312 19.322C98.8542 20.0527 98.4078 20.7302 97.7767 21.2085C97.1302 21.1687 96.4683 21.1288 95.8218 21.0624C95.7141 21.0491 95.5909 21.0358 95.4832 21.0225C95.5909 20.9561 95.6833 20.8897 95.791 20.8232C96.4991 20.3715 97.1302 19.8401 97.592 19.1758C97.8537 18.8038 97.1918 18.4717 96.9301 18.8437C96.5453 19.4017 96.0065 19.8667 95.4062 20.252C95.0983 20.4512 94.7135 20.7701 94.3133 20.8764C93.5899 20.7701 92.8664 20.6638 92.1583 20.5442C92.6663 20.0261 93.0973 19.4681 93.4667 18.8835C93.6976 18.5115 93.0357 18.1661 92.8048 18.5514C92.4816 19.0562 92.1275 19.5345 91.7119 19.9862C91.5888 20.1058 91.4502 20.2785 91.2963 20.4247C90.3881 20.3051 89.4645 20.1855 88.5564 20.0792C89.2337 19.5478 89.7109 18.9765 90.2034 18.2857C90.4651 17.9269 89.8032 17.5815 89.5415 17.9535C89.0951 18.5647 88.6795 19.1492 88.0176 19.6142C87.8791 19.7072 87.7252 19.8268 87.5712 19.9464C87.3557 19.9198 87.1402 19.8932 86.9401 19.8667C86.309 19.787 85.6779 19.7072 85.0622 19.6408C85.1699 19.5611 85.2777 19.4814 85.3855 19.4017C86.2013 18.7905 86.7554 18.0199 87.1556 17.1564C87.3404 16.7578 86.6015 16.5851 86.4168 16.9837C86.0935 17.6878 85.6164 18.3255 84.9699 18.8304C84.7082 19.0429 84.3695 19.3219 84.0001 19.5079C83.2612 19.4149 82.5224 19.3219 81.7835 19.2289C82.6147 18.6045 83.0458 17.5549 83.5075 16.6382C83.7076 16.2529 83.0457 15.9075 82.8456 16.3061C82.3377 17.2892 81.8913 18.7905 80.5367 19.0695C79.8132 18.9765 79.0744 18.8835 78.3509 18.7905C78.4741 18.6577 78.5972 18.5115 78.7049 18.392C79.336 17.6612 79.8748 16.9571 79.9518 16.0271C79.998 15.6019 79.2129 15.6019 79.1821 16.0271C79.1206 16.7445 78.6742 17.3158 78.1816 17.8871C77.9815 18.1129 77.7506 18.4451 77.4581 18.6842C76.5654 18.5647 75.6726 18.4318 74.7952 18.2857C75.0107 18.1262 75.1954 17.9269 75.3955 17.7542C76.0728 17.1032 76.5346 16.3858 76.9809 15.602C77.1964 15.2167 76.5345 14.8845 76.319 15.2698C75.965 15.881 75.6264 16.5187 75.1184 17.0368C74.7336 17.4221 74.1948 18.0997 73.5483 18.0731C73.5175 18.0731 73.4868 18.0731 73.456 18.0731C72.7787 17.9668 72.1168 17.8605 71.4395 17.7542C71.5165 17.6745 71.5934 17.5815 71.6704 17.5018C72.2707 16.8641 72.7018 16.1467 73.1943 15.4425C73.456 15.0705 72.7787 14.7384 72.5324 15.1104C72.1168 15.6949 71.7782 16.3061 71.301 16.8508C71.1009 17.0767 70.8546 17.3955 70.5775 17.6214C70.1465 17.5549 69.7155 17.5018 69.2999 17.4487C69.0844 17.4221 68.8843 17.3955 68.6688 17.3822C69.0074 17.1032 69.3307 16.811 69.577 16.4655C70.1158 15.7215 70.1773 14.8447 70.4852 14.021C70.6391 13.6091 69.9002 13.4364 69.7463 13.8482C69.4692 14.6055 69.4231 15.4425 68.9151 16.1334C68.5765 16.5851 68.0993 16.9438 67.6375 17.2892C67.0218 17.2361 66.4061 17.1962 65.7903 17.1431C66.1136 16.9172 66.3907 16.6249 66.6524 16.3725C67.3604 15.6949 67.9145 14.9377 68.3917 14.1139C68.6072 13.7287 67.9454 13.3965 67.7299 13.7818C67.3143 14.4992 66.8678 15.1768 66.2521 15.7879C65.8365 16.1865 65.3439 16.8109 64.6974 16.9039C64.5897 16.9172 64.5281 16.9571 64.482 17.0102C64.0356 16.9438 63.5738 16.8907 63.1274 16.811C63.974 16.0935 64.5435 15.1502 64.6667 14.1007C64.7128 13.6755 63.9432 13.6755 63.897 14.1007C63.7739 15.1237 63.0966 16.0404 62.1576 16.6515C61.6343 16.5718 61.1263 16.4788 60.603 16.3858C60.449 16.3592 60.2797 16.3327 60.1258 16.3061C60.5106 15.9075 60.8185 15.416 61.1725 15.0041C61.465 14.6587 60.8031 14.3265 60.5106 14.672C60.1104 15.137 59.7871 15.8411 59.2022 16.1467C58.6481 16.0537 58.1093 15.9607 57.5552 15.881C57.5706 15.8677 57.5706 15.8677 57.5859 15.8544C58.0631 15.3761 58.4172 14.8181 58.7712 14.2734C59.0021 13.9014 58.3402 13.556 58.1093 13.9412C57.7553 14.4992 57.4012 15.0572 56.9087 15.5222C56.8317 15.6019 56.7394 15.6684 56.647 15.7348C56.0313 15.6418 55.4309 15.5488 54.8152 15.4558C54.8152 15.4425 54.8306 15.4425 54.8306 15.4292C55.1231 15.0971 55.3232 14.7251 55.6003 14.3797C55.8312 14.0874 56.0467 13.8615 56.0774 13.5028C56.1082 13.0777 55.3386 13.0777 55.3078 13.5028C55.2924 13.7287 55.0461 13.9147 54.9076 14.0874C54.7229 14.3398 54.5536 14.6055 54.3689 14.8579C54.2303 15.0307 54.0918 15.1901 53.9378 15.3097C53.2606 15.2034 52.5679 15.1104 51.8906 15.0174C52.2446 14.6188 52.5371 14.1538 52.768 13.6755C52.9527 13.2902 52.2908 12.9448 52.1061 13.3434C51.8444 13.8748 51.5212 14.4859 51.0132 14.9111C50.2743 14.8181 49.5201 14.7251 48.7659 14.6321C49.1815 14.2867 49.5509 13.9014 49.9511 13.5958C50.3205 13.3035 49.7664 12.8385 49.4123 13.1308C49.0275 13.4231 48.7197 13.7818 48.3348 14.0741C48.1655 14.207 47.95 14.3797 47.7191 14.5125C47.673 14.5125 47.6268 14.4992 47.5806 14.4992C47.1034 14.4461 46.6262 14.3797 46.1645 14.3132C46.6724 13.9811 47.088 13.556 47.4421 13.091C47.7037 12.7322 47.0418 12.4001 46.7802 12.7588C46.38 13.3168 45.795 13.8748 45.0716 14.1139C44.5174 13.9944 43.9479 13.8748 43.3784 13.7287C44.148 13.4895 44.8561 13.0777 45.3794 12.4931C45.6873 12.1477 45.01 11.8288 44.7175 12.161C43.9941 12.9847 42.778 13.3168 41.6236 13.3301C41.5004 13.3035 41.3773 13.2769 41.2541 13.2504C41.3927 13.1839 41.5158 13.1175 41.6543 13.0378C42.3624 12.5595 42.8088 11.8687 43.1628 11.1645C43.363 10.7792 42.7011 10.4338 42.5009 10.8324C42.2239 11.3638 41.916 11.9218 41.4389 12.3337C40.8693 12.8119 40.2074 12.8917 39.4686 12.9049C39.2992 12.8651 39.1145 12.8385 38.9452 12.7987C37.5752 12.5462 36.1745 12.4001 34.8353 12.0679C34.8045 12.0547 34.7737 12.0547 34.743 12.0414C35.5588 11.8421 36.3746 11.5897 37.175 11.3239C38.7913 10.7792 40.4383 10.3009 42.0084 9.64995C43.6092 8.99895 44.9176 8.13537 46.2414 7.13895C47.3959 6.27537 48.458 5.35867 49.1815 4.18952C49.4585 3.73781 49.751 3.1798 49.8434 2.6218C50.7515 2.83437 51.6443 3.13995 52.5525 3.33923C53.9225 3.64481 55.277 3.96366 56.6162 4.34895C57.94 4.73423 59.2638 5.10624 60.6491 5.25238C62.0961 5.41181 63.5738 5.5181 65.0207 5.63767C67.8068 5.86353 70.5775 6.5278 73.3944 6.42151C74.1179 6.39494 74.8413 6.32852 75.5648 6.44809C76.1959 6.55438 76.8116 6.7138 77.4735 6.75366C78.197 6.79351 78.9205 6.72709 79.6439 6.72709C80.3828 6.72709 81.0755 6.85995 81.7989 6.93966C83.1997 7.0858 84.6312 7.01937 86.032 7.13895C87.4943 7.25852 88.9412 7.48437 90.4035 7.68366C93.205 8.05566 96.0373 8.08223 98.8234 8.53395C101.687 8.99895 104.642 9.30452 107.551 9.43738C109.013 9.50381 110.491 9.49052 111.938 9.63667C113.354 9.78281 114.755 9.67652 116.171 9.70309C117.572 9.72967 118.942 10.0087 120.343 10.0485C120.666 10.0618 120.974 10.0618 121.297 10.0618C121.312 10.0618 121.389 10.0751 121.451 10.0751C121.359 10.1814 121.374 10.2611 121.359 10.3275Z" fill="#40352F"/>
</svg>
